g grp3
v 3.500000 0.000000 -4.462720
v 158.899994 0.000000 -4.462720
v 158.899994 1.600000 -4.462720
v 3.500000 1.600000 -4.462720
v 3.500000 181.800003 -4.462720
v 158.899994 1.600000 -4.462720
v 158.899994 181.800003 -4.462720
v 3.500000 181.800003 -32.262699
v 3.500000 1.600000 -32.262699
v 3.500000 1.600000 -30.525200
v 3.500000 1.600000 -28.787701
v 3.500000 1.600000 -27.050200
v 3.500000 1.600000 -25.312700
v 3.500000 1.600000 -23.575199
v 3.500000 1.600000 -21.837700
v 3.500000 1.600000 -20.100201
v 3.500000 1.600000 -18.362700
v 3.500000 1.600000 -16.625200
v 3.500000 1.600000 -14.887700
v 3.500000 1.600000 -13.150200
v 3.500000 1.600000 -11.412700
v 3.500000 1.600000 -9.675220
v 3.500000 1.600000 -7.937720
v 3.500000 1.600000 -6.200220
v 3.500000 1.600000 -4.462720
v 3.500000 181.800003 -4.462720
v 3.500000 181.800003 -6.200220
v 3.500000 181.800003 -7.937720
v 3.500000 181.800003 -9.675220
v 3.500000 181.800003 -11.412700
v 3.500000 181.800003 -13.150200
v 3.500000 181.800003 -14.887700
v 3.500000 181.800003 -16.625200
v 3.500000 181.800003 -18.362700
v 3.500000 181.800003 -20.100201
v 3.500000 181.800003 -21.837700
v 3.500000 181.800003 -23.575199
v 3.500000 181.800003 -25.312700
v 3.500000 181.800003 -27.050200
v 3.500000 181.800003 -28.787701
v 3.500000 181.800003 -30.525200
v 158.899994 181.800003 -32.262699
v 158.899994 1.600000 -32.262699
v 3.500000 1.600000 -32.262699
v 3.500000 181.800003 -32.262699
v 3.500000 183.600006 -4.462720
v 3.500000 183.600006 -32.262699
v 3.500000 181.800003 -32.262699
v 3.500000 181.800003 -30.525200
v 3.500000 181.800003 -27.050200
v 3.500000 181.800003 -25.312700
v 3.500000 181.800003 -23.575199
v 3.500000 181.800003 -21.837700
v 3.500000 181.800003 -20.100201
v 3.500000 181.800003 -18.362700
v 3.500000 181.800003 -16.625200
v 3.500000 181.800003 -13.150200
v 3.500000 181.800003 -11.412700
v 3.500000 181.800003 -9.675220
v 3.500000 181.800003 -7.937720
v 3.500000 181.800003 -6.200220
v 3.500000 181.800003 -4.462720
v 3.500000 0.000000 -32.262699
v 3.500000 0.000000 -4.462720
v 3.500000 1.600000 -4.462720
v 3.500000 1.600000 -6.200220
v 3.500000 1.600000 -7.937720
v 3.500000 1.600000 -9.675220
v 3.500000 1.600000 -11.412700
v 3.500000 1.600000 -13.150200
v 3.500000 1.600000 -14.887700
v 3.500000 1.600000 -16.625200
v 3.500000 1.600000 -18.362700
v 3.500000 1.600000 -21.837700
v 3.500000 1.600000 -23.575199
v 3.500000 1.600000 -25.312700
v 3.500000 1.600000 -27.050200
v 3.500000 1.600000 -28.787701
v 3.500000 1.600000 -30.525200
v 3.500000 1.600000 -32.262699
v 158.899994 0.000000 -32.262699
v 3.500000 0.000000 -32.262699
v 3.500000 1.600000 -32.262699
v 117.202003 132.705002 -60.351799
v 117.202003 1.158950 -60.351799
v 3.759940 1.158950 -60.351799
v 3.759940 132.705002 -60.351799
v 3.759940 134.018997 -40.057800
v 3.759940 134.018997 -60.351799
v 3.759940 132.705002 -60.351799
v 3.759940 132.705002 -59.083401
v 3.759940 132.705002 -57.814999
v 3.759940 132.705002 -56.546700
v 3.759940 132.705002 -55.278301
v 3.759940 132.705002 -54.009899
v 3.759940 132.705002 -52.741501
v 3.759940 132.705002 -51.473202
v 3.759940 132.705002 -50.204800
v 3.759940 132.705002 -48.936401
v 3.759940 132.705002 -47.667999
v 3.759940 132.705002 -46.399700
v 3.759940 132.705002 -45.131302
v 3.759940 132.705002 -43.862900
v 3.759940 132.705002 -42.594501
v 3.759940 132.705002 -41.326199
v 3.759940 132.705002 -40.057800
v 3.759940 132.705002 -60.351799
v 3.759940 1.158950 -60.351799
v 3.759940 1.158950 -59.083401
v 3.759940 1.158950 -57.814999
v 3.759940 1.158950 -56.546700
v 3.759940 1.158950 -55.278301
v 3.759940 1.158950 -54.009899
v 3.759940 1.158950 -52.741501
v 3.759940 1.158950 -51.473202
v 3.759940 1.158950 -50.204800
v 3.759940 1.158950 -48.936401
v 3.759940 1.158950 -47.667999
v 3.759940 1.158950 -46.399700
v 3.759940 1.158950 -45.131302
v 3.759940 1.158950 -43.862900
v 3.759940 1.158950 -42.594501
v 3.759940 1.158950 -41.326199
v 3.759940 1.158950 -40.057800
v 3.759940 132.705002 -42.594501
v 3.759940 132.705002 -45.131302
v 3.759940 132.705002 -46.399700
v 3.759940 132.705002 -47.667999
v 3.759940 132.705002 -50.204800
v 3.759940 132.705002 -51.473202
v 3.759940 132.705002 -52.741501
v 3.759940 132.705002 -54.009899
v 3.759940 132.705002 -55.278301
v 3.759940 132.705002 -56.546700
v 3.759940 132.705002 -57.814999
v 3.759940 -0.009046 -60.351799
v 3.759940 -0.009046 -40.057800
v 3.759940 1.158950 -41.326199
v 3.759940 1.158950 -43.862900
v 3.759940 1.158950 -45.131302
v 3.759940 1.158950 -46.399700
v 3.759940 1.158950 -48.936401
v 3.759940 1.158950 -50.204800
v 3.759940 1.158950 -51.473202
v 3.759940 1.158950 -52.741501
v 3.759940 1.158950 -54.009899
v 3.759940 1.158950 -55.278301
v 3.759940 1.158950 -56.546700
v 3.759940 1.158950 -57.814999
v 3.759940 1.158950 -59.083401
v 3.759940 1.158950 -60.351799
v 3.759940 -0.009046 -40.057800
v 117.202003 -0.009046 -40.057800
v 117.202003 1.158950 -40.057800
v 3.759940 1.158950 -40.057800
v 3.759940 132.705002 -40.057800
v 117.202003 132.705002 -40.057800
v 117.202003 -0.009046 -60.351799
v 3.759940 -0.009046 -60.351799
v 3.759940 1.158950 -60.351799
v 117.202003 1.158950 -60.351799
vt 0.137795 -1.000000
vt 6.255910 -1.000000
vt 6.255910 -0.937008
vt 0.137795 -0.937008
vt 0.137795 6.157480
vt 6.255910 -0.937008
vt 6.255910 6.157480
vt -1.270190 6.157480
vt -1.270190 -0.937008
vt -1.201780 -0.937008
vt -1.133370 -0.937008
vt -1.064970 -0.937008
vt -0.996564 -0.937008
vt -0.928158 -0.937008
vt -0.859753 -0.937008
vt -0.791347 -0.937008
vt -0.722942 -0.937008
vt -0.654536 -0.937008
vt -0.586131 -0.937008
vt -0.517725 -0.937008
vt -0.449320 -0.937008
vt -0.380914 -0.937008
vt -0.312509 -0.937008
vt -0.244103 -0.937008
vt -0.175698 -0.937008
vt -0.175698 6.157480
vt -0.244103 6.157480
vt -0.312509 6.157480
vt -0.380914 6.157480
vt -0.449320 6.157480
vt -0.517725 6.157480
vt -0.586131 6.157480
vt -0.654536 6.157480
vt -0.722942 6.157480
vt -0.791347 6.157480
vt -0.859753 6.157480
vt -0.928158 6.157480
vt -0.996564 6.157480
vt -1.064970 6.157480
vt -1.133370 6.157480
vt -1.201780 6.157480
vt -6.255910 6.157480
vt -6.255910 -0.937008
vt -0.137795 -0.937008
vt -0.137795 6.157480
vt -0.175698 6.228350
vt -1.270190 6.228350
vt -1.270190 6.157480
vt -1.201780 6.157480
vt -1.064970 6.157480
vt -0.996564 6.157480
vt -0.928158 6.157480
vt -0.859753 6.157480
vt -0.791347 6.157480
vt -0.722942 6.157480
vt -0.654536 6.157480
vt -0.517725 6.157480
vt -0.449320 6.157480
vt -0.380914 6.157480
vt -0.312509 6.157480
vt -0.244103 6.157480
vt -0.175698 6.157480
vt -1.270190 -1.000000
vt -0.175698 -1.000000
vt -0.175698 -0.937008
vt -0.244103 -0.937008
vt -0.312509 -0.937008
vt -0.380914 -0.937008
vt -0.449320 -0.937008
vt -0.517725 -0.937008
vt -0.586131 -0.937008
vt -0.654536 -0.937008
vt -0.722942 -0.937008
vt -0.859753 -0.937008
vt -0.928158 -0.937008
vt -0.996564 -0.937008
vt -1.064970 -0.937008
vt -1.133370 -0.937008
vt -1.201780 -0.937008
vt -1.270190 -0.937008
vt -6.255910 -1.000000
vt -0.137795 -1.000000
vt -0.137795 -0.937008
vt -4.614250 4.224600
vt -4.614250 -0.954372
vt -0.148029 -0.954372
vt -0.148029 4.224600
vt -1.577080 4.276340
vt -2.376050 4.276340
vt -2.376050 4.224600
vt -2.326120 4.224600
vt -2.276180 4.224600
vt -2.226250 4.224600
vt -2.176310 4.224600
vt -2.126370 4.224600
vt -2.076440 4.224600
vt -2.026500 4.224600
vt -1.976570 4.224600
vt -1.926630 4.224600
vt -1.876690 4.224600
vt -1.826760 4.224600
vt -1.776820 4.224600
vt -1.726890 4.224600
vt -1.676950 4.224600
vt -1.627010 4.224600
vt -1.577080 4.224600
vt -2.376050 4.224600
vt -2.376050 -0.954372
vt -2.326120 -0.954372
vt -2.276180 -0.954372
vt -2.226250 -0.954372
vt -2.176310 -0.954372
vt -2.126370 -0.954372
vt -2.076440 -0.954372
vt -2.026500 -0.954372
vt -1.976570 -0.954372
vt -1.926630 -0.954372
vt -1.876690 -0.954372
vt -1.826760 -0.954372
vt -1.776820 -0.954372
vt -1.726890 -0.954372
vt -1.676950 -0.954372
vt -1.627010 -0.954372
vt -1.577080 -0.954372
vt -1.676950 4.224600
vt -1.776820 4.224600
vt -1.826760 4.224600
vt -1.876690 4.224600
vt -1.976570 4.224600
vt -2.026500 4.224600
vt -2.076440 4.224600
vt -2.126370 4.224600
vt -2.176310 4.224600
vt -2.226250 4.224600
vt -2.276180 4.224600
vt -2.376050 -1.000356
vt -1.577080 -1.000356
vt -1.627010 -0.954372
vt -1.726890 -0.954372
vt -1.776820 -0.954372
vt -1.826760 -0.954372
vt -1.926630 -0.954372
vt -1.976570 -0.954372
vt -2.026500 -0.954372
vt -2.076440 -0.954372
vt -2.126370 -0.954372
vt -2.176310 -0.954372
vt -2.226250 -0.954372
vt -2.276180 -0.954372
vt -2.326120 -0.954372
vt -2.376050 -0.954372
vt 0.148029 -1.000356
vt 4.614250 -1.000356
vt 4.614250 -0.954372
vt 0.148029 -0.954372
vt 0.148029 4.224600
vt 4.614250 4.224600
vt -4.614250 -1.000356
vt -0.148029 -1.000356
vt -0.148029 -0.954372
vt -4.614250 -0.954372
vn 0.000000 0.000000 1.000000
vn 0.000000 0.000000 1.000000
vn 0.000000 0.000000 1.000000
vn 0.000000 0.000000 1.000000
vn 0.000000 0.000000 1.000000
vn 0.000000 0.000000 1.000000
vn 0.000000 0.000000 1.000000
vn -1.000000 0.000000 -0.000000
vn -1.000000 0.000000 -0.000000
vn -1.000000 0.000000 -0.000000
vn -1.000000 0.000000 -0.000000
vn -1.000000 0.000000 -0.000000
vn -1.000000 0.000000 -0.000000
vn -1.000000 0.000000 -0.000000
vn -1.000000 0.000000 -0.000000
vn -1.000000 0.000000 -0.000000
vn -1.000000 0.000000 -0.000000
vn -1.000000 0.000000 -0.000000
vn -1.000000 0.000000 -0.000000
vn -1.000000 0.000000 -0.000000
vn -1.000000 0.000000 -0.000000
vn -1.000000 0.000000 -0.000000
vn -1.000000 0.000000 -0.000000
vn -1.000000 0.000000 -0.000000
vn -1.000000 0.000000 -0.000000
vn -1.000000 0.000000 -0.000000
vn -1.000000 0.000000 -0.000000
vn -1.000000 0.000000 -0.000000
vn -1.000000 0.000000 -0.000000
vn -1.000000 0.000000 -0.000000
vn -1.000000 0.000000 -0.000000
vn -1.000000 0.000000 -0.000000
vn -1.000000 0.000000 -0.000000
vn -1.000000 0.000000 -0.000000
vn -1.000000 0.000000 -0.000000
vn -1.000000 0.000000 -0.000000
vn -1.000000 0.000000 -0.000000
vn -1.000000 0.000000 -0.000000
vn -1.000000 0.000000 -0.000000
vn -1.000000 0.000000 -0.000000
vn -1.000000 0.000000 -0.000000
vn 0.000000 0.000000 -1.000000
vn 0.000000 0.000000 -1.000000
vn 0.000000 0.000000 -1.000000
vn 0.000000 0.000000 -1.000000
vn -1.000000 0.000000 -0.000000
vn -1.000000 0.000000 -0.000000
vn -1.000000 0.000000 -0.000000
vn -1.000000 0.000000 -0.000000
vn -1.000000 0.000000 -0.000000
vn -1.000000 0.000000 -0.000000
vn -1.000000 0.000000 -0.000000
vn -1.000000 0.000000 -0.000000
vn -1.000000 0.000000 -0.000000
vn -1.000000 0.000000 -0.000000
vn -1.000000 0.000000 -0.000000
vn -1.000000 0.000000 -0.000000
vn -1.000000 0.000000 -0.000000
vn -1.000000 0.000000 -0.000000
vn -1.000000 0.000000 -0.000000
vn -1.000000 0.000000 -0.000000
vn -1.000000 0.000000 -0.000000
vn -1.000000 0.000000 -0.000000
vn -1.000000 0.000000 -0.000000
vn -1.000000 0.000000 -0.000000
vn -1.000000 0.000000 -0.000000
vn -1.000000 0.000000 -0.000000
vn -1.000000 0.000000 -0.000000
vn -1.000000 0.000000 -0.000000
vn -1.000000 0.000000 -0.000000
vn -1.000000 0.000000 -0.000000
vn -1.000000 0.000000 -0.000000
vn -1.000000 0.000000 -0.000000
vn -1.000000 0.000000 -0.000000
vn -1.000000 0.000000 -0.000000
vn -1.000000 0.000000 -0.000000
vn -1.000000 0.000000 -0.000000
vn -1.000000 0.000000 -0.000000
vn -1.000000 0.000000 -0.000000
vn -1.000000 0.000000 -0.000000
vn 0.000000 0.000000 -1.000000
vn 0.000000 0.000000 -1.000000
vn 0.000000 0.000000 -1.000000
vn 0.000000 0.000000 -1.000000
vn 0.000000 0.000000 -1.000000
vn 0.000000 0.000000 -1.000000
vn 0.000000 0.000000 -1.000000
vn -1.000000 0.000000 -0.000000
vn -1.000000 0.000000 -0.000000
vn -1.000000 0.000000 -0.000000
vn -1.000000 0.000000 -0.000000
vn -1.000000 0.000000 -0.000000
vn -1.000000 0.000000 -0.000000
vn -1.000000 0.000000 -0.000000
vn -1.000000 0.000000 -0.000000
vn -1.000000 0.000000 -0.000000
vn -1.000000 0.000000 -0.000000
vn -1.000000 0.000000 -0.000000
vn -1.000000 0.000000 -0.000000
vn -1.000000 0.000000 -0.000000
vn -1.000000 0.000000 -0.000000
vn -1.000000 0.000000 -0.000000
vn -1.000000 0.000000 -0.000000
vn -1.000000 0.000000 -0.000000
vn -1.000000 0.000000 -0.000000
vn -1.000000 0.000000 -0.000000
vn -1.000000 0.000000 -0.000000
vn -1.000000 0.000000 -0.000000
vn -1.000000 0.000000 -0.000000
vn -1.000000 0.000000 -0.000000
vn -1.000000 0.000000 -0.000000
vn -1.000000 0.000000 -0.000000
vn -1.000000 0.000000 -0.000000
vn -1.000000 0.000000 -0.000000
vn -1.000000 0.000000 -0.000000
vn -1.000000 0.000000 -0.000000
vn -1.000000 0.000000 -0.000000
vn -1.000000 0.000000 -0.000000
vn -1.000000 0.000000 -0.000000
vn -1.000000 0.000000 -0.000000
vn -1.000000 0.000000 -0.000000
vn -1.000000 0.000000 -0.000000
vn -1.000000 0.000000 -0.000000
vn -1.000000 0.000000 -0.000000
vn -1.000000 0.000000 -0.000000
vn -1.000000 0.000000 -0.000000
vn -1.000000 0.000000 -0.000000
vn -1.000000 0.000000 -0.000000
vn -1.000000 0.000000 -0.000000
vn -1.000000 0.000000 -0.000000
vn -1.000000 0.000000 -0.000000
vn -1.000000 0.000000 -0.000000
vn -1.000000 0.000000 -0.000000
vn -1.000000 0.000000 -0.000000
vn -1.000000 0.000000 -0.000000
vn -1.000000 0.000000 -0.000000
vn -1.000000 0.000000 -0.000000
vn -1.000000 0.000000 -0.000000
vn -1.000000 0.000000 -0.000000
vn -1.000000 0.000000 -0.000000
vn -1.000000 0.000000 -0.000000
vn -1.000000 0.000000 -0.000000
vn -1.000000 0.000000 -0.000000
vn -1.000000 0.000000 -0.000000
vn -1.000000 0.000000 -0.000000
vn -1.000000 0.000000 -0.000000
vn -1.000000 0.000000 -0.000000
vn -1.000000 0.000000 -0.000000
vn -1.000000 0.000000 -0.000000
vn -1.000000 0.000000 -0.000000
vn -1.000000 0.000000 -0.000000
vn 0.000000 0.000000 1.000000
vn 0.000000 0.000000 1.000000
vn 0.000000 0.000000 1.000000
vn 0.000000 0.000000 1.000000
vn 0.000000 0.000000 1.000000
vn 0.000000 0.000000 1.000000
vn 0.000000 0.000000 -1.000000
vn 0.000000 0.000000 -1.000000
vn 0.000000 0.000000 -1.000000
vn 0.000000 0.000000 -1.000000
usemtl mat2
f 1/1/1 2/2/2 3/3/3 
f 1/1/1 3/3/3 4/4/4 
f 5/5/5 4/4/4 6/6/6 
f 5/5/5 6/6/6 7/7/7 
f 8/8/8 9/9/9 10/10/10 
f 8/8/8 10/10/10 11/11/11 
f 8/8/8 11/11/11 12/12/12 
f 8/8/8 12/12/12 13/13/13 
f 8/8/8 13/13/13 14/14/14 
f 8/8/8 14/14/14 15/15/15 
f 8/8/8 15/15/15 16/16/16 
f 8/8/8 16/16/16 17/17/17 
f 8/8/8 17/17/17 18/18/18 
f 8/8/8 18/18/18 19/19/19 
f 8/8/8 19/19/19 20/20/20 
f 8/8/8 20/20/20 21/21/21 
f 8/8/8 21/21/21 22/22/22 
f 8/8/8 22/22/22 23/23/23 
f 8/8/8 23/23/23 24/24/24 
f 8/8/8 24/24/24 25/25/25 
f 8/8/8 25/25/25 26/26/26 
f 8/8/8 26/26/26 27/27/27 
f 8/8/8 27/27/27 28/28/28 
f 8/8/8 28/28/28 29/29/29 
f 8/8/8 29/29/29 30/30/30 
f 8/8/8 30/30/30 31/31/31 
f 8/8/8 31/31/31 32/32/32 
f 8/8/8 32/32/32 33/33/33 
f 8/8/8 33/33/33 34/34/34 
f 8/8/8 34/34/34 35/35/35 
f 8/8/8 35/35/35 36/36/36 
f 8/8/8 36/36/36 37/37/37 
f 8/8/8 37/37/37 38/38/38 
f 8/8/8 38/38/38 39/39/39 
f 8/8/8 39/39/39 40/40/40 
f 8/8/8 40/40/40 41/41/41 
f 42/42/42 43/43/43 44/44/44 
f 42/42/42 44/44/44 45/45/45 
f 46/46/46 47/47/47 48/48/48 
f 46/46/46 48/48/48 49/49/49 
f 46/46/46 49/49/49 40/40/40 
f 46/46/46 40/40/40 50/50/50 
f 46/46/46 50/50/50 51/51/51 
f 46/46/46 51/51/51 52/52/52 
f 46/46/46 52/52/52 53/53/53 
f 46/46/46 53/53/53 54/54/54 
f 46/46/46 54/54/54 55/55/55 
f 46/46/46 55/55/55 56/56/56 
f 46/46/46 56/56/56 32/32/32 
f 46/46/46 32/32/32 57/57/57 
f 46/46/46 57/57/57 58/58/58 
f 46/46/46 58/58/58 59/59/59 
f 46/46/46 59/59/59 60/60/60 
f 46/46/46 60/60/60 61/61/61 
f 46/46/46 61/61/61 62/62/62 
f 63/63/63 64/64/64 65/65/65 
f 63/63/63 65/65/65 66/66/66 
f 63/63/63 66/66/66 67/67/67 
f 63/63/63 67/67/67 68/68/68 
f 63/63/63 68/68/68 69/69/69 
f 63/63/63 69/69/69 70/70/70 
f 63/63/63 70/70/70 71/71/71 
f 63/63/63 71/71/71 72/72/72 
f 63/63/63 72/72/72 73/73/73 
f 63/63/63 73/73/73 16/16/16 
f 63/63/63 16/16/16 74/74/74 
f 63/63/63 74/74/74 75/75/75 
f 63/63/63 75/75/75 76/76/76 
f 63/63/63 76/76/76 77/77/77 
f 63/63/63 77/77/77 78/78/78 
f 63/63/63 78/78/78 79/79/79 
f 63/63/63 79/79/79 80/80/80 
f 81/81/81 82/82/82 83/83/83 
f 81/81/81 83/83/83 43/43/43 
f 84/84/84 85/85/85 86/86/86 
f 84/84/84 86/86/86 87/87/87 
f 88/88/88 89/89/89 90/90/90 
f 88/88/88 90/90/90 91/91/91 
f 88/88/88 91/91/91 92/92/92 
f 88/88/88 92/92/92 93/93/93 
f 88/88/88 93/93/93 94/94/94 
f 88/88/88 94/94/94 95/95/95 
f 88/88/88 95/95/95 96/96/96 
f 88/88/88 96/96/96 97/97/97 
f 88/88/88 97/97/97 98/98/98 
f 88/88/88 98/98/98 99/99/99 
f 88/88/88 99/99/99 100/100/100 
f 88/88/88 100/100/100 101/101/101 
f 88/88/88 101/101/101 102/102/102 
f 88/88/88 102/102/102 103/103/103 
f 88/88/88 103/103/103 104/104/104 
f 88/88/88 104/104/104 105/105/105 
f 88/88/88 105/105/105 106/106/106 
f 107/107/107 108/108/108 109/109/109 
f 107/107/107 109/109/109 110/110/110 
f 107/107/107 110/110/110 111/111/111 
f 107/107/107 111/111/111 112/112/112 
f 107/107/107 112/112/112 113/113/113 
f 107/107/107 113/113/113 114/114/114 
f 107/107/107 114/114/114 115/115/115 
f 107/107/107 115/115/115 116/116/116 
f 107/107/107 116/116/116 117/117/117 
f 107/107/107 117/117/117 118/118/118 
f 107/107/107 118/118/118 119/119/119 
f 107/107/107 119/119/119 120/120/120 
f 107/107/107 120/120/120 121/121/121 
f 107/107/107 121/121/121 122/122/122 
f 107/107/107 122/122/122 123/123/123 
f 107/107/107 123/123/123 124/124/124 
f 107/107/107 124/124/124 106/106/106 
f 107/107/107 106/106/106 105/105/105 
f 107/107/107 105/105/105 125/125/125 
f 107/107/107 125/125/125 103/103/103 
f 107/107/107 103/103/103 126/126/126 
f 107/107/107 126/126/126 127/127/127 
f 107/107/107 127/127/127 128/128/128 
f 107/107/107 128/128/128 99/99/99 
f 107/107/107 99/99/99 129/129/129 
f 107/107/107 129/129/129 130/130/130 
f 107/107/107 130/130/130 131/131/131 
f 107/107/107 131/131/131 132/132/132 
f 107/107/107 132/132/132 133/133/133 
f 107/107/107 133/133/133 134/134/134 
f 107/107/107 134/134/134 135/135/135 
f 107/107/107 135/135/135 91/91/91 
f 136/136/136 137/137/137 124/124/124 
f 136/136/136 124/124/124 138/138/138 
f 136/136/136 138/138/138 122/122/122 
f 136/136/136 122/122/122 139/139/139 
f 136/136/136 139/139/139 140/140/140 
f 136/136/136 140/140/140 141/141/141 
f 136/136/136 141/141/141 118/118/118 
f 136/136/136 118/118/118 142/142/142 
f 136/136/136 142/142/142 143/143/143 
f 136/136/136 143/143/143 144/144/144 
f 136/136/136 144/144/144 145/145/145 
f 136/136/136 145/145/145 146/146/146 
f 136/136/136 146/146/146 147/147/147 
f 136/136/136 147/147/147 148/148/148 
f 136/136/136 148/148/148 149/149/149 
f 136/136/136 149/149/149 150/150/150 
f 136/136/136 150/150/150 151/151/151 
f 152/152/152 153/153/153 154/154/154 
f 152/152/152 154/154/154 155/155/155 
f 156/156/156 155/155/155 154/154/154 
f 156/156/156 154/154/154 157/157/157 
f 158/158/158 159/159/159 160/160/160 
f 158/158/158 160/160/160 161/161/161 

