g grp5
v 56.845001 -2.654220 -25.812700
v 56.845001 -2.654220 -30.599600
v 58.447800 -2.665410 -30.627600
v 58.447800 -2.665410 -25.812700
v 56.897301 4.845600 -25.812700
v 56.845001 -2.654220 -25.812700
v 58.447800 -2.665410 -25.812700
v 58.500099 4.834410 -25.812700
v 58.500099 4.834410 -25.812700
v 58.500099 4.834410 -30.599600
v 56.897301 4.845600 -30.599600
v 56.897301 4.845600 -25.812700
vt -25.812700 -57.862099
vt -30.599600 -57.862099
vt -30.627600 -59.464901
vt -25.812700 -59.464901
vt 56.897301 3.845600
vt 56.845001 -3.654220
vt 58.447800 -3.665410
vt 58.500099 3.834410
vt 25.812700 -59.464901
vt 30.599600 -59.464901
vt 30.599600 -57.862099
vt 25.812700 -57.862099
vn -0.006981 -0.999976 0.000000
vn -0.006981 -0.999976 0.000000
vn -0.006981 -0.999976 0.000000
vn -0.006981 -0.999976 0.000000
vn 0.000000 0.000000 1.000000
vn 0.000000 0.000000 1.000000
vn 0.000000 0.000000 1.000000
vn 0.000000 0.000000 1.000000
vn 0.006981 0.999976 -0.000000
vn 0.006981 0.999976 -0.000000
vn 0.006981 0.999976 -0.000000
vn 0.006981 0.999976 -0.000000
usemtl mat3
f 1/1/1 2/2/2 3/3/3 
f 1/1/1 3/3/3 4/4/4 
f 5/5/5 6/6/6 7/7/7 
f 5/5/5 7/7/7 8/8/8 
f 9/9/9 10/10/10 11/11/11 
f 9/9/9 11/11/11 12/12/12 

