g grp18
v 1.384200 0.009046 -238.576004
v 1.188550 0.009046 -238.671997
v 1.452630 0.009046 -238.848999
v 2.025920 0.009046 -239.130997
v 2.631200 0.009046 -239.337006
v 3.258130 0.009046 -239.460999
v 3.895970 0.009046 -239.503006
v 129.598007 0.009046 -239.503006
v 129.473999 0.009046 -239.203995
v 129.186996 0.009046 -238.830002
v 128.813004 0.009046 -238.542999
v 128.376999 0.009046 -238.362000
v 127.908997 0.009046 -238.300003
v 2.768040 0.019087 -238.300003
v 2.296040 0.009046 -238.330994
v 1.832120 0.009046 -238.423996
vt 0.008411 -10.392880
vt 0.000690 -10.396640
vt 0.011052 -10.403640
vt 0.033568 -10.414880
vt 0.057358 -10.423080
vt 0.082016 -10.428110
vt 0.107119 -10.429880
vt 5.055970 -10.454160
vt 5.051150 -10.442380
vt 5.039910 -10.427580
vt 5.025220 -10.416190
vt 5.008090 -10.409000
vt 4.989680 -10.406480
vt 0.062945 -10.382310
vt 0.044357 -10.383440
vt 0.026075 -10.386980
vn -0.000009 -0.999998 0.001771
vn -0.000009 -0.999998 0.001771
vn -0.000009 -0.999998 0.001771
vn -0.000009 -0.999998 0.001771
vn -0.000009 -0.999998 0.001771
vn -0.000009 -0.999998 0.001771
vn -0.000009 -0.999998 0.001771
vn -0.000009 -0.999998 0.001771
vn -0.000009 -0.999998 0.001771
vn -0.000009 -0.999998 0.001771
vn -0.000009 -0.999998 0.001771
vn -0.000009 -0.999998 0.001771
vn -0.000009 -0.999998 0.001771
vn -0.000009 -0.999998 0.001771
vn -0.000009 -0.999998 0.001771
vn -0.000009 -0.999998 0.001771
usemtl mat1
f 1/1/1 2/2/2 3/3/3 
f 1/1/1 3/3/3 4/4/4 
f 1/1/1 4/4/4 5/5/5 
f 1/1/1 5/5/5 6/6/6 
f 1/1/1 6/6/6 7/7/7 
f 1/1/1 7/7/7 8/8/8 
f 1/1/1 8/8/8 9/9/9 
f 1/1/1 9/9/9 10/10/10 
f 1/1/1 10/10/10 11/11/11 
f 1/1/1 11/11/11 12/12/12 
f 1/1/1 12/12/12 13/13/13 
f 1/1/1 13/13/13 14/14/14 
f 1/1/1 14/14/14 15/15/15 
f 1/1/1 15/15/15 16/16/16 

