g grp30
v 4.792470 199.089005 -498.667999
v 4.792470 1.770090 -498.667999
v 4.792470 1.770090 -496.765991
v 4.792470 1.770090 -494.863007
v 4.792470 1.770090 -492.960999
v 4.792470 1.770090 -491.058014
v 4.792470 1.770090 -489.156006
v 4.792470 1.770090 -487.252991
v 4.792470 1.770090 -485.351013
v 4.792470 1.770090 -483.447998
v 4.792470 1.770090 -481.545013
v 4.792470 1.770090 -479.643005
v 4.792470 1.770090 -477.739990
v 4.792470 1.770090 -475.838013
v 4.792470 1.770090 -473.934998
v 4.792470 1.770090 -472.032990
v 4.792470 1.770090 -470.130005
v 4.792470 1.770090 -468.226990
v 4.792470 199.089005 -468.226990
v 4.792470 199.089005 -470.130005
v 4.792470 199.089005 -472.032990
v 4.792470 199.089005 -473.934998
v 4.792470 199.089005 -475.838013
v 4.792470 199.089005 -477.739990
v 4.792470 199.089005 -479.643005
v 4.792470 199.089005 -481.545013
v 4.792470 199.089005 -483.447998
v 4.792470 199.089005 -485.351013
v 4.792470 199.089005 -487.252991
v 4.792470 199.089005 -489.156006
v 4.792470 199.089005 -491.058014
v 4.792470 199.089005 -492.960999
v 4.792470 199.089005 -494.863007
v 4.792470 199.089005 -496.765991
v 174.955002 199.089005 -498.667999
v 174.955002 1.770090 -498.667999
v 4.792470 1.770090 -498.667999
v 4.792470 199.089005 -498.667999
v 4.792470 201.059998 -468.226990
v 4.792470 201.059998 -498.667999
v 4.792470 199.089005 -498.667999
v 4.792470 199.089005 -496.765991
v 4.792470 199.089005 -494.863007
v 4.792470 199.089005 -491.058014
v 4.792470 199.089005 -489.156006
v 4.792470 199.089005 -487.252991
v 4.792470 199.089005 -485.351013
v 4.792470 199.089005 -483.447998
v 4.792470 199.089005 -481.545013
v 4.792470 199.089005 -479.643005
v 4.792470 199.089005 -475.838013
v 4.792470 199.089005 -473.934998
v 4.792470 199.089005 -472.032990
v 4.792470 199.089005 -470.130005
v 4.792470 199.089005 -468.226990
v 3.938630 0.018091 -506.049988
v 129.858994 0.018091 -506.049988
v 129.858994 1.314570 -506.049988
v 3.938630 1.314570 -506.049988
v 3.938630 147.330994 -506.049988
v 129.858994 147.330994 -506.049988
v 3.938630 147.330994 -528.575989
v 3.938630 1.314570 -528.575989
v 3.938630 1.314570 -527.168030
v 3.938630 1.314570 -525.760986
v 3.938630 1.314570 -524.353027
v 3.938630 1.314570 -522.945007
v 3.938630 1.314570 -521.536987
v 3.938630 1.314570 -520.129028
v 3.938630 1.314570 -518.721008
v 3.938630 1.314570 -517.312988
v 3.938630 1.314570 -515.905029
v 3.938630 1.314570 -514.497009
v 3.938630 1.314570 -513.088989
v 3.938630 1.314570 -511.682007
v 3.938630 1.314570 -510.273987
v 3.938630 1.314570 -508.865997
v 3.938630 1.314570 -507.458008
v 3.938630 1.314570 -506.049988
v 3.938630 147.330994 -506.049988
v 3.938630 147.330994 -507.458008
v 3.938630 147.330994 -508.865997
v 3.938630 147.330994 -510.273987
v 3.938630 147.330994 -511.682007
v 3.938630 147.330994 -513.088989
v 3.938630 147.330994 -514.497009
v 3.938630 147.330994 -515.905029
v 3.938630 147.330994 -517.312988
v 3.938630 147.330994 -518.721008
v 3.938630 147.330994 -520.129028
v 3.938630 147.330994 -521.536987
v 3.938630 147.330994 -522.945007
v 3.938630 147.330994 -524.353027
v 3.938630 147.330994 -525.760986
v 3.938630 147.330994 -527.168030
v 129.858994 147.330994 -528.575989
v 129.858994 1.314570 -528.575989
v 3.938630 1.314570 -528.575989
v 3.938630 147.330994 -528.575989
v 3.938630 148.789001 -506.049988
v 3.938630 148.789001 -528.575989
v 3.938630 147.330994 -528.575989
v 3.938630 147.330994 -527.168030
v 3.938630 147.330994 -525.760986
v 3.938630 147.330994 -524.353027
v 3.938630 147.330994 -521.536987
v 3.938630 147.330994 -520.129028
v 3.938630 147.330994 -518.721008
v 3.938630 147.330994 -517.312988
v 3.938630 147.330994 -515.905029
v 3.938630 147.330994 -514.497009
v 3.938630 147.330994 -513.088989
v 3.938630 147.330994 -510.273987
v 3.938630 147.330994 -508.865997
v 3.938630 147.330994 -507.458008
v 3.938630 147.330994 -506.049988
v 3.938630 0.018091 -528.575989
v 3.938630 0.018091 -506.049988
v 3.938630 1.314570 -506.049988
v 3.938630 1.314570 -507.458008
v 3.938630 1.314570 -508.865997
v 3.938630 1.314570 -510.273987
v 3.938630 1.314570 -511.682007
v 3.938630 1.314570 -513.088989
v 3.938630 1.314570 -514.497009
v 3.938630 1.314570 -515.905029
v 3.938630 1.314570 -517.312988
v 3.938630 1.314570 -518.721008
v 3.938630 1.314570 -520.129028
v 3.938630 1.314570 -522.945007
v 3.938630 1.314570 -524.353027
v 3.938630 1.314570 -525.760986
v 3.938630 1.314570 -527.168030
v 3.938630 1.314570 -528.575989
v 129.858994 0.018091 -528.575989
v 3.938630 0.018091 -528.575989
v 3.938630 1.314570 -528.575989
v 129.858994 1.314570 -528.575989
v 4.792470 0.018091 -468.226990
v 174.955002 0.018091 -468.226990
v 174.955002 1.770090 -468.226990
v 4.792470 1.770090 -468.226990
v 4.792470 0.018091 -498.667999
v 4.792470 0.018091 -468.226990
v 4.792470 1.770090 -468.226990
v 4.792470 1.770090 -470.130005
v 4.792470 1.770090 -472.032990
v 4.792470 1.770090 -473.934998
v 4.792470 1.770090 -475.838013
v 4.792470 1.770090 -477.739990
v 4.792470 1.770090 -479.643005
v 4.792470 1.770090 -481.545013
v 4.792470 1.770090 -483.447998
v 4.792470 1.770090 -485.351013
v 4.792470 1.770090 -487.252991
v 4.792470 1.770090 -489.156006
v 4.792470 1.770090 -491.058014
v 4.792470 1.770090 -492.960999
v 4.792470 1.770090 -494.863007
v 4.792470 1.770090 -496.765991
v 4.792470 1.770090 -498.667999
v 4.792470 199.089005 -468.226990
v 4.792470 1.770090 -468.226990
v 174.955002 1.770090 -468.226990
v 174.955002 199.089005 -468.226990
v 174.955002 0.018091 -498.667999
v 4.792470 0.018091 -498.667999
v 4.792470 1.770090 -498.667999
v 174.955002 1.770090 -498.667999
vt -19.632601 6.838150
vt -19.632601 -0.930311
vt -19.557699 -0.930311
vt -19.482800 -0.930311
vt -19.407900 -0.930311
vt -19.333000 -0.930311
vt -19.258101 -0.930311
vt -19.183201 -0.930311
vt -19.108299 -0.930311
vt -19.033400 -0.930311
vt -18.958500 -0.930311
vt -18.883600 -0.930311
vt -18.808701 -0.930311
vt -18.733801 -0.930311
vt -18.658899 -0.930311
vt -18.584000 -0.930311
vt -18.509100 -0.930311
vt -18.434200 -0.930311
vt -18.434200 6.838150
vt -18.509100 6.838150
vt -18.584000 6.838150
vt -18.658899 6.838150
vt -18.733801 6.838150
vt -18.808701 6.838150
vt -18.883600 6.838150
vt -18.958500 6.838150
vt -19.033400 6.838150
vt -19.108299 6.838150
vt -19.183201 6.838150
vt -19.258101 6.838150
vt -19.333000 6.838150
vt -19.407900 6.838150
vt -19.482800 6.838150
vt -19.557699 6.838150
vt -6.888010 6.838150
vt -6.888010 -0.930311
vt -0.188680 -0.930311
vt -0.188680 6.838150
vt -18.434200 6.915750
vt -19.632601 6.915750
vt -19.632601 6.838150
vt -19.557699 6.838150
vt -19.482800 6.838150
vt -19.333000 6.838150
vt -19.258101 6.838150
vt -19.183201 6.838150
vt -19.108299 6.838150
vt -19.033400 6.838150
vt -18.958500 6.838150
vt -18.883600 6.838150
vt -18.733801 6.838150
vt -18.658899 6.838150
vt -18.584000 6.838150
vt -18.509100 6.838150
vt -18.434200 6.838150
vt 0.155064 -0.999288
vt 5.112570 -0.999288
vt 5.112570 -0.948245
vt 0.155064 -0.948245
vt 0.155064 4.800420
vt 5.112570 4.800420
vt -20.810101 4.800420
vt -20.810101 -0.948245
vt -20.754700 -0.948245
vt -20.699200 -0.948245
vt -20.643801 -0.948245
vt -20.588400 -0.948245
vt -20.532900 -0.948245
vt -20.477501 -0.948245
vt -20.422100 -0.948245
vt -20.366699 -0.948245
vt -20.311199 -0.948245
vt -20.255800 -0.948245
vt -20.200399 -0.948245
vt -20.144899 -0.948245
vt -20.089500 -0.948245
vt -20.034100 -0.948245
vt -19.978701 -0.948245
vt -19.923201 -0.948245
vt -19.923201 4.800420
vt -19.978701 4.800420
vt -20.034100 4.800420
vt -20.089500 4.800420
vt -20.144899 4.800420
vt -20.200399 4.800420
vt -20.255800 4.800420
vt -20.311199 4.800420
vt -20.366699 4.800420
vt -20.422100 4.800420
vt -20.477501 4.800420
vt -20.532900 4.800420
vt -20.588400 4.800420
vt -20.643801 4.800420
vt -20.699200 4.800420
vt -20.754700 4.800420
vt -5.112570 4.800420
vt -5.112570 -0.948245
vt -0.155064 -0.948245
vt -0.155064 4.800420
vt -19.923201 4.857840
vt -20.810101 4.857840
vt -20.810101 4.800420
vt -20.754700 4.800420
vt -20.699200 4.800420
vt -20.643801 4.800420
vt -20.532900 4.800420
vt -20.477501 4.800420
vt -20.422100 4.800420
vt -20.366699 4.800420
vt -20.311199 4.800420
vt -20.255800 4.800420
vt -20.200399 4.800420
vt -20.089500 4.800420
vt -20.034100 4.800420
vt -19.978701 4.800420
vt -19.923201 4.800420
vt -20.810101 -0.999288
vt -19.923201 -0.999288
vt -19.923201 -0.948245
vt -19.978701 -0.948245
vt -20.034100 -0.948245
vt -20.089500 -0.948245
vt -20.144899 -0.948245
vt -20.200399 -0.948245
vt -20.255800 -0.948245
vt -20.311199 -0.948245
vt -20.366699 -0.948245
vt -20.422100 -0.948245
vt -20.477501 -0.948245
vt -20.588400 -0.948245
vt -20.643801 -0.948245
vt -20.699200 -0.948245
vt -20.754700 -0.948245
vt -20.810101 -0.948245
vt -5.112570 -0.999288
vt -0.155064 -0.999288
vt -0.155064 -0.948245
vt -5.112570 -0.948245
vt 0.188680 -0.999288
vt 6.888010 -0.999288
vt 6.888010 -0.930311
vt 0.188680 -0.930311
vt -19.632601 -0.999288
vt -18.434200 -0.999288
vt -18.434200 -0.930311
vt -18.509100 -0.930311
vt -18.584000 -0.930311
vt -18.658899 -0.930311
vt -18.733801 -0.930311
vt -18.808701 -0.930311
vt -18.883600 -0.930311
vt -18.958500 -0.930311
vt -19.033400 -0.930311
vt -19.108299 -0.930311
vt -19.183201 -0.930311
vt -19.258101 -0.930311
vt -19.333000 -0.930311
vt -19.407900 -0.930311
vt -19.482800 -0.930311
vt -19.557699 -0.930311
vt -19.632601 -0.930311
vt 0.188680 6.838150
vt 0.188680 -0.930311
vt 6.888010 -0.930311
vt 6.888010 6.838150
vt -6.888010 -0.999288
vt -0.188680 -0.999288
vt -0.188680 -0.930311
vt -6.888010 -0.930311
vn -1.000000 0.000000 -0.000000
vn -1.000000 0.000000 -0.000000
vn -1.000000 0.000000 -0.000000
vn -1.000000 0.000000 -0.000000
vn -1.000000 0.000000 -0.000000
vn -1.000000 0.000000 -0.000000
vn -1.000000 0.000000 -0.000000
vn -1.000000 0.000000 -0.000000
vn -1.000000 0.000000 -0.000000
vn -1.000000 0.000000 -0.000000
vn -1.000000 0.000000 -0.000000
vn -1.000000 0.000000 -0.000000
vn -1.000000 0.000000 -0.000000
vn -1.000000 0.000000 -0.000000
vn -1.000000 0.000000 -0.000000
vn -1.000000 0.000000 -0.000000
vn -1.000000 0.000000 -0.000000
vn -1.000000 0.000000 -0.000000
vn -1.000000 0.000000 -0.000000
vn -1.000000 0.000000 -0.000000
vn -1.000000 0.000000 -0.000000
vn -1.000000 0.000000 -0.000000
vn -1.000000 0.000000 -0.000000
vn -1.000000 0.000000 -0.000000
vn -1.000000 0.000000 -0.000000
vn -1.000000 0.000000 -0.000000
vn -1.000000 0.000000 -0.000000
vn -1.000000 0.000000 -0.000000
vn -1.000000 0.000000 -0.000000
vn -1.000000 0.000000 -0.000000
vn -1.000000 0.000000 -0.000000
vn -1.000000 0.000000 -0.000000
vn -1.000000 0.000000 -0.000000
vn -1.000000 0.000000 -0.000000
vn 0.000000 0.000000 -1.000000
vn 0.000000 0.000000 -1.000000
vn 0.000000 0.000000 -1.000000
vn 0.000000 0.000000 -1.000000
vn -1.000000 0.000000 -0.000000
vn -1.000000 0.000000 -0.000000
vn -1.000000 0.000000 -0.000000
vn -1.000000 0.000000 -0.000000
vn -1.000000 0.000000 -0.000000
vn -1.000000 0.000000 -0.000000
vn -1.000000 0.000000 -0.000000
vn -1.000000 0.000000 -0.000000
vn -1.000000 0.000000 -0.000000
vn -1.000000 0.000000 -0.000000
vn -1.000000 0.000000 -0.000000
vn -1.000000 0.000000 -0.000000
vn -1.000000 0.000000 -0.000000
vn -1.000000 0.000000 -0.000000
vn -1.000000 0.000000 -0.000000
vn -1.000000 0.000000 -0.000000
vn -1.000000 0.000000 -0.000000
vn 0.000000 0.000000 1.000000
vn 0.000000 0.000000 1.000000
vn 0.000000 0.000000 1.000000
vn 0.000000 0.000000 1.000000
vn 0.000000 0.000000 1.000000
vn 0.000000 0.000000 1.000000
vn -1.000000 0.000000 -0.000000
vn -1.000000 0.000000 -0.000000
vn -1.000000 0.000000 -0.000000
vn -1.000000 0.000000 -0.000000
vn -1.000000 0.000000 -0.000000
vn -1.000000 0.000000 -0.000000
vn -1.000000 0.000000 -0.000000
vn -1.000000 0.000000 -0.000000
vn -1.000000 0.000000 -0.000000
vn -1.000000 0.000000 -0.000000
vn -1.000000 0.000000 -0.000000
vn -1.000000 0.000000 -0.000000
vn -1.000000 0.000000 -0.000000
vn -1.000000 0.000000 -0.000000
vn -1.000000 0.000000 -0.000000
vn -1.000000 0.000000 -0.000000
vn -1.000000 0.000000 -0.000000
vn -1.000000 0.000000 -0.000000
vn -1.000000 0.000000 -0.000000
vn -1.000000 0.000000 -0.000000
vn -1.000000 0.000000 -0.000000
vn -1.000000 0.000000 -0.000000
vn -1.000000 0.000000 -0.000000
vn -1.000000 0.000000 -0.000000
vn -1.000000 0.000000 -0.000000
vn -1.000000 0.000000 -0.000000
vn -1.000000 0.000000 -0.000000
vn -1.000000 0.000000 -0.000000
vn -1.000000 0.000000 -0.000000
vn -1.000000 0.000000 -0.000000
vn -1.000000 0.000000 -0.000000
vn -1.000000 0.000000 -0.000000
vn -1.000000 0.000000 -0.000000
vn -1.000000 0.000000 -0.000000
vn 0.000000 0.000000 -1.000000
vn 0.000000 0.000000 -1.000000
vn 0.000000 0.000000 -1.000000
vn 0.000000 0.000000 -1.000000
vn -1.000000 0.000000 -0.000000
vn -1.000000 0.000000 -0.000000
vn -1.000000 0.000000 -0.000000
vn -1.000000 0.000000 -0.000000
vn -1.000000 0.000000 -0.000000
vn -1.000000 0.000000 -0.000000
vn -1.000000 0.000000 -0.000000
vn -1.000000 0.000000 -0.000000
vn -1.000000 0.000000 -0.000000
vn -1.000000 0.000000 -0.000000
vn -1.000000 0.000000 -0.000000
vn -1.000000 0.000000 -0.000000
vn -1.000000 0.000000 -0.000000
vn -1.000000 0.000000 -0.000000
vn -1.000000 0.000000 -0.000000
vn -1.000000 0.000000 -0.000000
vn -1.000000 0.000000 -0.000000
vn -1.000000 0.000000 -0.000000
vn -1.000000 0.000000 -0.000000
vn -1.000000 0.000000 -0.000000
vn -1.000000 0.000000 -0.000000
vn -1.000000 0.000000 -0.000000
vn -1.000000 0.000000 -0.000000
vn -1.000000 0.000000 -0.000000
vn -1.000000 0.000000 -0.000000
vn -1.000000 0.000000 -0.000000
vn -1.000000 0.000000 -0.000000
vn -1.000000 0.000000 -0.000000
vn -1.000000 0.000000 -0.000000
vn -1.000000 0.000000 -0.000000
vn -1.000000 0.000000 -0.000000
vn -1.000000 0.000000 -0.000000
vn -1.000000 0.000000 -0.000000
vn -1.000000 0.000000 -0.000000
vn -1.000000 0.000000 -0.000000
vn 0.000000 0.000000 -1.000000
vn 0.000000 0.000000 -1.000000
vn 0.000000 0.000000 -1.000000
vn 0.000000 0.000000 -1.000000
vn 0.000000 0.000000 1.000000
vn 0.000000 0.000000 1.000000
vn 0.000000 0.000000 1.000000
vn 0.000000 0.000000 1.000000
vn -1.000000 0.000000 -0.000000
vn -1.000000 0.000000 -0.000000
vn -1.000000 0.000000 -0.000000
vn -1.000000 0.000000 -0.000000
vn -1.000000 0.000000 -0.000000
vn -1.000000 0.000000 -0.000000
vn -1.000000 0.000000 -0.000000
vn -1.000000 0.000000 -0.000000
vn -1.000000 0.000000 -0.000000
vn -1.000000 0.000000 -0.000000
vn -1.000000 0.000000 -0.000000
vn -1.000000 0.000000 -0.000000
vn -1.000000 0.000000 -0.000000
vn -1.000000 0.000000 -0.000000
vn -1.000000 0.000000 -0.000000
vn -1.000000 0.000000 -0.000000
vn -1.000000 0.000000 -0.000000
vn -1.000000 0.000000 -0.000000
vn -1.000000 0.000000 -0.000000
vn 0.000000 0.000000 1.000000
vn 0.000000 0.000000 1.000000
vn 0.000000 0.000000 1.000000
vn 0.000000 0.000000 1.000000
vn 0.000000 0.000000 -1.000000
vn 0.000000 0.000000 -1.000000
vn 0.000000 0.000000 -1.000000
vn 0.000000 0.000000 -1.000000
usemtl mat2
f 1/1/1 2/2/2 3/3/3 
f 1/1/1 3/3/3 4/4/4 
f 1/1/1 4/4/4 5/5/5 
f 1/1/1 5/5/5 6/6/6 
f 1/1/1 6/6/6 7/7/7 
f 1/1/1 7/7/7 8/8/8 
f 1/1/1 8/8/8 9/9/9 
f 1/1/1 9/9/9 10/10/10 
f 1/1/1 10/10/10 11/11/11 
f 1/1/1 11/11/11 12/12/12 
f 1/1/1 12/12/12 13/13/13 
f 1/1/1 13/13/13 14/14/14 
f 1/1/1 14/14/14 15/15/15 
f 1/1/1 15/15/15 16/16/16 
f 1/1/1 16/16/16 17/17/17 
f 1/1/1 17/17/17 18/18/18 
f 1/1/1 18/18/18 19/19/19 
f 1/1/1 19/19/19 20/20/20 
f 1/1/1 20/20/20 21/21/21 
f 1/1/1 21/21/21 22/22/22 
f 1/1/1 22/22/22 23/23/23 
f 1/1/1 23/23/23 24/24/24 
f 1/1/1 24/24/24 25/25/25 
f 1/1/1 25/25/25 26/26/26 
f 1/1/1 26/26/26 27/27/27 
f 1/1/1 27/27/27 28/28/28 
f 1/1/1 28/28/28 29/29/29 
f 1/1/1 29/29/29 30/30/30 
f 1/1/1 30/30/30 31/31/31 
f 1/1/1 31/31/31 32/32/32 
f 1/1/1 32/32/32 33/33/33 
f 1/1/1 33/33/33 34/34/34 
f 35/35/35 36/36/36 37/37/37 
f 35/35/35 37/37/37 38/38/38 
f 39/39/39 40/40/40 41/41/41 
f 39/39/39 41/41/41 42/42/42 
f 39/39/39 42/42/42 43/43/43 
f 39/39/39 43/43/43 32/32/32 
f 39/39/39 32/32/32 44/44/44 
f 39/39/39 44/44/44 45/45/45 
f 39/39/39 45/45/45 46/46/46 
f 39/39/39 46/46/46 47/47/47 
f 39/39/39 47/47/47 48/48/48 
f 39/39/39 48/48/48 49/49/49 
f 39/39/39 49/49/49 50/50/50 
f 39/39/39 50/50/50 24/24/24 
f 39/39/39 24/24/24 51/51/51 
f 39/39/39 51/51/51 52/52/52 
f 39/39/39 52/52/52 53/53/53 
f 39/39/39 53/53/53 54/54/54 
f 39/39/39 54/54/54 55/55/55 
f 56/56/56 57/57/57 58/58/58 
f 56/56/56 58/58/58 59/59/59 
f 60/60/60 59/59/59 58/58/58 
f 60/60/60 58/58/58 61/61/61 
f 62/62/62 63/63/63 64/64/64 
f 62/62/62 64/64/64 65/65/65 
f 62/62/62 65/65/65 66/66/66 
f 62/62/62 66/66/66 67/67/67 
f 62/62/62 67/67/67 68/68/68 
f 62/62/62 68/68/68 69/69/69 
f 62/62/62 69/69/69 70/70/70 
f 62/62/62 70/70/70 71/71/71 
f 62/62/62 71/71/71 72/72/72 
f 62/62/62 72/72/72 73/73/73 
f 62/62/62 73/73/73 74/74/74 
f 62/62/62 74/74/74 75/75/75 
f 62/62/62 75/75/75 76/76/76 
f 62/62/62 76/76/76 77/77/77 
f 62/62/62 77/77/77 78/78/78 
f 62/62/62 78/78/78 79/79/79 
f 62/62/62 79/79/79 80/80/80 
f 62/62/62 80/80/80 81/81/81 
f 62/62/62 81/81/81 82/82/82 
f 62/62/62 82/82/82 83/83/83 
f 62/62/62 83/83/83 84/84/84 
f 62/62/62 84/84/84 85/85/85 
f 62/62/62 85/85/85 86/86/86 
f 62/62/62 86/86/86 87/87/87 
f 62/62/62 87/87/87 88/88/88 
f 62/62/62 88/88/88 89/89/89 
f 62/62/62 89/89/89 90/90/90 
f 62/62/62 90/90/90 91/91/91 
f 62/62/62 91/91/91 92/92/92 
f 62/62/62 92/92/92 93/93/93 
f 62/62/62 93/93/93 94/94/94 
f 62/62/62 94/94/94 95/95/95 
f 96/96/96 97/97/97 98/98/98 
f 96/96/96 98/98/98 99/99/99 
f 100/100/100 101/101/101 102/102/102 
f 100/100/100 102/102/102 103/103/103 
f 100/100/100 103/103/103 104/104/104 
f 100/100/100 104/104/104 105/105/105 
f 100/100/100 105/105/105 92/92/92 
f 100/100/100 92/92/92 106/106/106 
f 100/100/100 106/106/106 107/107/107 
f 100/100/100 107/107/107 108/108/108 
f 100/100/100 108/108/108 109/109/109 
f 100/100/100 109/109/109 110/110/110 
f 100/100/100 110/110/110 111/111/111 
f 100/100/100 111/111/111 112/112/112 
f 100/100/100 112/112/112 84/84/84 
f 100/100/100 84/84/84 113/113/113 
f 100/100/100 113/113/113 114/114/114 
f 100/100/100 114/114/114 115/115/115 
f 100/100/100 115/115/115 116/116/116 
f 117/117/117 118/118/118 119/119/119 
f 117/117/117 119/119/119 120/120/120 
f 117/117/117 120/120/120 121/121/121 
f 117/117/117 121/121/121 122/122/122 
f 117/117/117 122/122/122 123/123/123 
f 117/117/117 123/123/123 124/124/124 
f 117/117/117 124/124/124 125/125/125 
f 117/117/117 125/125/125 126/126/126 
f 117/117/117 126/126/126 127/127/127 
f 117/117/117 127/127/127 128/128/128 
f 117/117/117 128/128/128 129/129/129 
f 117/117/117 129/129/129 68/68/68 
f 117/117/117 68/68/68 130/130/130 
f 117/117/117 130/130/130 131/131/131 
f 117/117/117 131/131/131 132/132/132 
f 117/117/117 132/132/132 133/133/133 
f 117/117/117 133/133/133 134/134/134 
f 135/135/135 136/136/136 137/137/137 
f 135/135/135 137/137/137 138/138/138 
f 139/139/139 140/140/140 141/141/141 
f 139/139/139 141/141/141 142/142/142 
f 143/143/143 144/144/144 145/145/145 
f 143/143/143 145/145/145 146/146/146 
f 143/143/143 146/146/146 147/147/147 
f 143/143/143 147/147/147 148/148/148 
f 143/143/143 148/148/148 149/149/149 
f 143/143/143 149/149/149 150/150/150 
f 143/143/143 150/150/150 151/151/151 
f 143/143/143 151/151/151 152/152/152 
f 143/143/143 152/152/152 153/153/153 
f 143/143/143 153/153/153 154/154/154 
f 143/143/143 154/154/154 155/155/155 
f 143/143/143 155/155/155 156/156/156 
f 143/143/143 156/156/156 157/157/157 
f 143/143/143 157/157/157 158/158/158 
f 143/143/143 158/158/158 159/159/159 
f 143/143/143 159/159/159 160/160/160 
f 143/143/143 160/160/160 161/161/161 
f 162/162/162 163/163/163 164/164/164 
f 162/162/162 164/164/164 165/165/165 
f 166/166/166 167/167/167 168/168/168 
f 166/166/166 168/168/168 169/169/169 

