g grp10
v 157.908997 181.809006 -167.563995
v 157.908997 1.609050 -167.563995
v 2.509290 1.609050 -167.563995
v 2.509290 181.809006 -167.563995
v 116.210999 132.714005 -195.653000
v 116.210999 1.168000 -195.653000
v 2.769220 1.168000 -195.653000
v 2.769220 132.714005 -195.653000
v 2.769220 132.714005 -195.653000
v 2.769220 1.168000 -195.653000
v 2.769220 1.168000 -194.384995
v 2.769220 1.168000 -193.117004
v 2.769220 1.168000 -191.848007
v 2.769220 1.168000 -190.580002
v 2.769220 1.168000 -189.311996
v 2.769220 1.168000 -188.042999
v 2.769220 1.168000 -186.774994
v 2.769220 1.168000 -185.505997
v 2.769220 1.168000 -184.238007
v 2.769220 1.168000 -182.970001
v 2.769220 1.168000 -181.701004
v 2.769220 1.168000 -180.432999
v 2.769220 1.168000 -179.164993
v 2.769220 1.168000 -177.895996
v 2.769220 1.168000 -176.628006
v 2.769220 1.168000 -175.358994
v 2.769220 132.714005 -175.358994
v 2.769220 132.714005 -176.628006
v 2.769220 132.714005 -177.895996
v 2.769220 132.714005 -179.164993
v 2.769220 132.714005 -180.432999
v 2.769220 132.714005 -181.701004
v 2.769220 132.714005 -182.970001
v 2.769220 132.714005 -184.238007
v 2.769220 132.714005 -185.505997
v 2.769220 132.714005 -186.774994
v 2.769220 132.714005 -188.042999
v 2.769220 132.714005 -189.311996
v 2.769220 132.714005 -190.580002
v 2.769220 132.714005 -191.848007
v 2.769220 132.714005 -193.117004
v 2.769220 132.714005 -194.384995
v 2.769220 0.000000 -195.653000
v 2.769220 0.000000 -175.358994
v 2.769220 1.168000 -175.358994
v 2.769220 1.168000 -177.895996
v 2.769220 1.168000 -179.164993
v 2.769220 1.168000 -180.432999
v 2.769220 1.168000 -181.701004
v 2.769220 1.168000 -182.970001
v 2.769220 1.168000 -184.238007
v 2.769220 1.168000 -185.505997
v 2.769220 1.168000 -188.042999
v 2.769220 1.168000 -189.311996
v 2.769220 1.168000 -190.580002
v 2.769220 1.168000 -191.848007
v 2.769220 1.168000 -193.117004
v 2.769220 1.168000 -194.384995
v 2.769220 1.168000 -195.653000
v 2.769220 0.000000 -175.358994
v 116.210999 0.000000 -175.358994
v 116.210999 1.168000 -175.358994
v 2.769220 1.168000 -175.358994
v 2.769220 132.714005 -175.358994
v 116.210999 1.168000 -175.358994
v 116.210999 132.714005 -175.358994
v 2.769220 134.028000 -175.358994
v 2.769220 134.028000 -195.653000
v 2.769220 132.714005 -195.653000
v 2.769220 132.714005 -194.384995
v 2.769220 132.714005 -193.117004
v 2.769220 132.714005 -191.848007
v 2.769220 132.714005 -190.580002
v 2.769220 132.714005 -189.311996
v 2.769220 132.714005 -188.042999
v 2.769220 132.714005 -186.774994
v 2.769220 132.714005 -185.505997
v 2.769220 132.714005 -184.238007
v 2.769220 132.714005 -181.701004
v 2.769220 132.714005 -180.432999
v 2.769220 132.714005 -179.164993
v 2.769220 132.714005 -177.895996
v 2.769220 132.714005 -176.628006
v 2.769220 132.714005 -175.358994
v 116.210999 0.000000 -195.653000
v 2.769220 0.000000 -195.653000
v 2.769220 1.168000 -195.653000
v 116.210999 1.168000 -195.653000
v 2.509290 0.009046 -139.764008
v 157.908997 0.009046 -139.764008
v 157.908997 1.609050 -139.764008
v 2.509290 1.609050 -139.764008
v 2.509290 181.809006 -139.764008
v 157.908997 1.609050 -139.764008
v 157.908997 181.809006 -139.764008
v 2.509290 181.809006 -167.563995
v 2.509290 1.609050 -167.563995
v 2.509290 1.609050 -165.826996
v 2.509290 1.609050 -164.089005
v 2.509290 1.609050 -162.352005
v 2.509290 1.609050 -160.613998
v 2.509290 1.609050 -158.876999
v 2.509290 1.609050 -157.139008
v 2.509290 1.609050 -155.401993
v 2.509290 1.609050 -153.664001
v 2.509290 1.609050 -151.927002
v 2.509290 1.609050 -150.188995
v 2.509290 1.609050 -148.451996
v 2.509290 1.609050 -146.714005
v 2.509290 1.609050 -144.977005
v 2.509290 1.609050 -143.238998
v 2.509290 1.609050 -141.501999
v 2.509290 1.609050 -139.764008
v 2.509290 181.809006 -139.764008
v 2.509290 181.809006 -141.501999
v 2.509290 181.809006 -143.238998
v 2.509290 181.809006 -144.977005
v 2.509290 181.809006 -146.714005
v 2.509290 181.809006 -148.451996
v 2.509290 181.809006 -150.188995
v 2.509290 181.809006 -151.927002
v 2.509290 181.809006 -153.664001
v 2.509290 181.809006 -155.401993
v 2.509290 181.809006 -157.139008
v 2.509290 181.809006 -158.876999
v 2.509290 181.809006 -160.613998
v 2.509290 181.809006 -162.352005
v 2.509290 181.809006 -164.089005
v 2.509290 181.809006 -165.826996
v 2.509290 0.009046 -167.563995
v 2.509290 0.009046 -139.764008
v 2.509290 1.609050 -139.764008
v 2.509290 1.609050 -141.501999
v 2.509290 1.609050 -143.238998
v 2.509290 1.609050 -144.977005
v 2.509290 1.609050 -146.714005
v 2.509290 1.609050 -148.451996
v 2.509290 1.609050 -150.188995
v 2.509290 1.609050 -151.927002
v 2.509290 1.609050 -153.664001
v 2.509290 1.609050 -155.401993
v 2.509290 1.609050 -157.139008
v 2.509290 1.609050 -158.876999
v 2.509290 1.609050 -160.613998
v 2.509290 1.609050 -162.352005
v 2.509290 1.609050 -164.089005
v 2.509290 1.609050 -167.563995
v 2.509290 183.608994 -139.764008
v 2.509290 183.608994 -167.563995
v 2.509290 181.809006 -167.563995
v 2.509290 181.809006 -165.826996
v 2.509290 181.809006 -164.089005
v 2.509290 181.809006 -162.352005
v 2.509290 181.809006 -160.613998
v 2.509290 181.809006 -158.876999
v 2.509290 181.809006 -157.139008
v 2.509290 181.809006 -155.401993
v 2.509290 181.809006 -153.664001
v 2.509290 181.809006 -151.927002
v 2.509290 181.809006 -150.188995
v 2.509290 181.809006 -148.451996
v 2.509290 181.809006 -146.714005
v 2.509290 181.809006 -144.977005
v 2.509290 181.809006 -143.238998
v 2.509290 181.809006 -141.501999
v 157.908997 0.009046 -167.563995
v 2.509290 0.009046 -167.563995
v 2.509290 1.609050 -167.563995
v 157.908997 1.609050 -167.563995
vt -6.216900 6.157840
vt -6.216900 -0.936652
vt -0.098791 -0.936652
vt -0.098791 6.157840
vt -4.575240 4.224960
vt -4.575240 -0.954016
vt -0.109024 -0.954016
vt -0.109024 4.224960
vt -7.702890 4.224960
vt -7.702890 -0.954016
vt -7.652960 -0.954016
vt -7.603020 -0.954016
vt -7.553080 -0.954016
vt -7.503150 -0.954016
vt -7.453210 -0.954016
vt -7.403280 -0.954016
vt -7.353340 -0.954016
vt -7.303400 -0.954016
vt -7.253470 -0.954016
vt -7.203530 -0.954016
vt -7.153600 -0.954016
vt -7.103660 -0.954016
vt -7.053720 -0.954016
vt -7.003790 -0.954016
vt -6.953850 -0.954016
vt -6.903920 -0.954016
vt -6.903920 4.224960
vt -6.953850 4.224960
vt -7.003790 4.224960
vt -7.053720 4.224960
vt -7.103660 4.224960
vt -7.153600 4.224960
vt -7.203530 4.224960
vt -7.253470 4.224960
vt -7.303400 4.224960
vt -7.353340 4.224960
vt -7.403280 4.224960
vt -7.453210 4.224960
vt -7.503150 4.224960
vt -7.553080 4.224960
vt -7.603020 4.224960
vt -7.652960 4.224960
vt -7.702890 -1.000000
vt -6.903920 -1.000000
vt -6.903920 -0.954016
vt -7.003790 -0.954016
vt -7.053720 -0.954016
vt -7.103660 -0.954016
vt -7.153600 -0.954016
vt -7.203530 -0.954016
vt -7.253470 -0.954016
vt -7.303400 -0.954016
vt -7.403280 -0.954016
vt -7.453210 -0.954016
vt -7.503150 -0.954016
vt -7.553080 -0.954016
vt -7.603020 -0.954016
vt -7.652960 -0.954016
vt -7.702890 -0.954016
vt 0.109024 -1.000000
vt 4.575240 -1.000000
vt 4.575240 -0.954016
vt 0.109024 -0.954016
vt 0.109024 4.224960
vt 4.575240 -0.954016
vt 4.575240 4.224960
vt -6.903920 4.276690
vt -7.702890 4.276690
vt -7.702890 4.224960
vt -7.652960 4.224960
vt -7.603020 4.224960
vt -7.553080 4.224960
vt -7.503150 4.224960
vt -7.453210 4.224960
vt -7.403280 4.224960
vt -7.353340 4.224960
vt -7.303400 4.224960
vt -7.253470 4.224960
vt -7.153600 4.224960
vt -7.103660 4.224960
vt -7.053720 4.224960
vt -7.003790 4.224960
vt -6.953850 4.224960
vt -6.903920 4.224960
vt -4.575240 -1.000000
vt -0.109024 -1.000000
vt -0.109024 -0.954016
vt -4.575240 -0.954016
vt 0.098791 -0.999644
vt 6.216900 -0.999644
vt 6.216900 -0.936652
vt 0.098791 -0.936652
vt 0.098791 6.157840
vt 6.216900 -0.936652
vt 6.216900 6.157840
vt -6.597020 6.157840
vt -6.597020 -0.936652
vt -6.528620 -0.936652
vt -6.460210 -0.936652
vt -6.391810 -0.936652
vt -6.323400 -0.936652
vt -6.255000 -0.936652
vt -6.186590 -0.936652
vt -6.118180 -0.936652
vt -6.049780 -0.936652
vt -5.981370 -0.936652
vt -5.912970 -0.936652
vt -5.844560 -0.936652
vt -5.776160 -0.936652
vt -5.707750 -0.936652
vt -5.639350 -0.936652
vt -5.570940 -0.936652
vt -5.502530 -0.936652
vt -5.502530 6.157840
vt -5.570940 6.157840
vt -5.639350 6.157840
vt -5.707750 6.157840
vt -5.776160 6.157840
vt -5.844560 6.157840
vt -5.912970 6.157840
vt -5.981370 6.157840
vt -6.049780 6.157840
vt -6.118180 6.157840
vt -6.186590 6.157840
vt -6.255000 6.157840
vt -6.323400 6.157840
vt -6.391810 6.157840
vt -6.460210 6.157840
vt -6.528620 6.157840
vt -6.597020 -0.999644
vt -5.502530 -0.999644
vt -5.502530 -0.936652
vt -5.570940 -0.936652
vt -5.639350 -0.936652
vt -5.707750 -0.936652
vt -5.776160 -0.936652
vt -5.844560 -0.936652
vt -5.912970 -0.936652
vt -5.981370 -0.936652
vt -6.049780 -0.936652
vt -6.118180 -0.936652
vt -6.186590 -0.936652
vt -6.255000 -0.936652
vt -6.323400 -0.936652
vt -6.391810 -0.936652
vt -6.460210 -0.936652
vt -6.597020 -0.936652
vt -5.502530 6.228700
vt -6.597020 6.228700
vt -6.597020 6.157840
vt -6.528620 6.157840
vt -6.460210 6.157840
vt -6.391810 6.157840
vt -6.323400 6.157840
vt -6.255000 6.157840
vt -6.186590 6.157840
vt -6.118180 6.157840
vt -6.049780 6.157840
vt -5.981370 6.157840
vt -5.912970 6.157840
vt -5.844560 6.157840
vt -5.776160 6.157840
vt -5.707750 6.157840
vt -5.639350 6.157840
vt -5.570940 6.157840
vt -6.216900 -0.999644
vt -0.098791 -0.999644
vt -0.098791 -0.936652
vt -6.216900 -0.936652
vn 0.000000 0.000000 -1.000000
vn 0.000000 0.000000 -1.000000
vn 0.000000 0.000000 -1.000000
vn 0.000000 0.000000 -1.000000
vn 0.000000 0.000000 -1.000000
vn 0.000000 0.000000 -1.000000
vn 0.000000 0.000000 -1.000000
vn 0.000000 0.000000 -1.000000
vn -1.000000 0.000000 -0.000000
vn -1.000000 0.000000 -0.000000
vn -1.000000 0.000000 -0.000000
vn -1.000000 0.000000 -0.000000
vn -1.000000 0.000000 -0.000000
vn -1.000000 0.000000 -0.000000
vn -1.000000 0.000000 -0.000000
vn -1.000000 0.000000 -0.000000
vn -1.000000 0.000000 -0.000000
vn -1.000000 0.000000 -0.000000
vn -1.000000 0.000000 -0.000000
vn -1.000000 0.000000 -0.000000
vn -1.000000 0.000000 -0.000000
vn -1.000000 0.000000 -0.000000
vn -1.000000 0.000000 -0.000000
vn -1.000000 0.000000 -0.000000
vn -1.000000 0.000000 -0.000000
vn -1.000000 0.000000 -0.000000
vn -1.000000 0.000000 -0.000000
vn -1.000000 0.000000 -0.000000
vn -1.000000 0.000000 -0.000000
vn -1.000000 0.000000 -0.000000
vn -1.000000 0.000000 -0.000000
vn -1.000000 0.000000 -0.000000
vn -1.000000 0.000000 -0.000000
vn -1.000000 0.000000 -0.000000
vn -1.000000 0.000000 -0.000000
vn -1.000000 0.000000 -0.000000
vn -1.000000 0.000000 -0.000000
vn -1.000000 0.000000 -0.000000
vn -1.000000 0.000000 -0.000000
vn -1.000000 0.000000 -0.000000
vn -1.000000 0.000000 -0.000000
vn -1.000000 0.000000 -0.000000
vn -1.000000 0.000000 -0.000000
vn -1.000000 0.000000 -0.000000
vn -1.000000 0.000000 -0.000000
vn -1.000000 0.000000 -0.000000
vn -1.000000 0.000000 -0.000000
vn -1.000000 0.000000 -0.000000
vn -1.000000 0.000000 -0.000000
vn -1.000000 0.000000 -0.000000
vn -1.000000 0.000000 -0.000000
vn -1.000000 0.000000 -0.000000
vn -1.000000 0.000000 -0.000000
vn -1.000000 0.000000 -0.000000
vn -1.000000 0.000000 -0.000000
vn -1.000000 0.000000 -0.000000
vn -1.000000 0.000000 -0.000000
vn -1.000000 0.000000 -0.000000
vn -1.000000 0.000000 -0.000000
vn 0.000000 0.000000 1.000000
vn 0.000000 0.000000 1.000000
vn 0.000000 0.000000 1.000000
vn 0.000000 0.000000 1.000000
vn 0.000000 0.000000 1.000000
vn 0.000000 0.000000 1.000000
vn 0.000000 0.000000 1.000000
vn -1.000000 0.000000 -0.000000
vn -1.000000 0.000000 -0.000000
vn -1.000000 0.000000 -0.000000
vn -1.000000 0.000000 -0.000000
vn -1.000000 0.000000 -0.000000
vn -1.000000 0.000000 -0.000000
vn -1.000000 0.000000 -0.000000
vn -1.000000 0.000000 -0.000000
vn -1.000000 0.000000 -0.000000
vn -1.000000 0.000000 -0.000000
vn -1.000000 0.000000 -0.000000
vn -1.000000 0.000000 -0.000000
vn -1.000000 0.000000 -0.000000
vn -1.000000 0.000000 -0.000000
vn -1.000000 0.000000 -0.000000
vn -1.000000 0.000000 -0.000000
vn -1.000000 0.000000 -0.000000
vn -1.000000 0.000000 -0.000000
vn 0.000000 0.000000 -1.000000
vn 0.000000 0.000000 -1.000000
vn 0.000000 0.000000 -1.000000
vn 0.000000 0.000000 -1.000000
vn 0.000000 0.000000 1.000000
vn 0.000000 0.000000 1.000000
vn 0.000000 0.000000 1.000000
vn 0.000000 0.000000 1.000000
vn 0.000000 0.000000 1.000000
vn 0.000000 0.000000 1.000000
vn 0.000000 0.000000 1.000000
vn -1.000000 0.000000 -0.000000
vn -1.000000 0.000000 -0.000000
vn -1.000000 0.000000 -0.000000
vn -1.000000 0.000000 -0.000000
vn -1.000000 0.000000 -0.000000
vn -1.000000 0.000000 -0.000000
vn -1.000000 0.000000 -0.000000
vn -1.000000 0.000000 -0.000000
vn -1.000000 0.000000 -0.000000
vn -1.000000 0.000000 -0.000000
vn -1.000000 0.000000 -0.000000
vn -1.000000 0.000000 -0.000000
vn -1.000000 0.000000 -0.000000
vn -1.000000 0.000000 -0.000000
vn -1.000000 0.000000 -0.000000
vn -1.000000 0.000000 -0.000000
vn -1.000000 0.000000 -0.000000
vn -1.000000 0.000000 -0.000000
vn -1.000000 0.000000 -0.000000
vn -1.000000 0.000000 -0.000000
vn -1.000000 0.000000 -0.000000
vn -1.000000 0.000000 -0.000000
vn -1.000000 0.000000 -0.000000
vn -1.000000 0.000000 -0.000000
vn -1.000000 0.000000 -0.000000
vn -1.000000 0.000000 -0.000000
vn -1.000000 0.000000 -0.000000
vn -1.000000 0.000000 -0.000000
vn -1.000000 0.000000 -0.000000
vn -1.000000 0.000000 -0.000000
vn -1.000000 0.000000 -0.000000
vn -1.000000 0.000000 -0.000000
vn -1.000000 0.000000 -0.000000
vn -1.000000 0.000000 -0.000000
vn -1.000000 0.000000 -0.000000
vn -1.000000 0.000000 -0.000000
vn -1.000000 0.000000 -0.000000
vn -1.000000 0.000000 -0.000000
vn -1.000000 0.000000 -0.000000
vn -1.000000 0.000000 -0.000000
vn -1.000000 0.000000 -0.000000
vn -1.000000 0.000000 -0.000000
vn -1.000000 0.000000 -0.000000
vn -1.000000 0.000000 -0.000000
vn -1.000000 0.000000 -0.000000
vn -1.000000 0.000000 -0.000000
vn -1.000000 0.000000 -0.000000
vn -1.000000 0.000000 -0.000000
vn -1.000000 0.000000 -0.000000
vn -1.000000 0.000000 -0.000000
vn -1.000000 0.000000 -0.000000
vn -1.000000 0.000000 -0.000000
vn -1.000000 0.000000 -0.000000
vn -1.000000 0.000000 -0.000000
vn -1.000000 0.000000 -0.000000
vn -1.000000 0.000000 -0.000000
vn -1.000000 0.000000 -0.000000
vn -1.000000 0.000000 -0.000000
vn -1.000000 0.000000 -0.000000
vn -1.000000 0.000000 -0.000000
vn -1.000000 0.000000 -0.000000
vn -1.000000 0.000000 -0.000000
vn -1.000000 0.000000 -0.000000
vn -1.000000 0.000000 -0.000000
vn -1.000000 0.000000 -0.000000
vn -1.000000 0.000000 -0.000000
vn -1.000000 0.000000 -0.000000
vn -1.000000 0.000000 -0.000000
vn -1.000000 0.000000 -0.000000
vn -1.000000 0.000000 -0.000000
vn 0.000000 0.000000 -1.000000
vn 0.000000 0.000000 -1.000000
vn 0.000000 0.000000 -1.000000
vn 0.000000 0.000000 -1.000000
usemtl mat2
f 1/1/1 2/2/2 3/3/3 
f 1/1/1 3/3/3 4/4/4 
f 5/5/5 6/6/6 7/7/7 
f 5/5/5 7/7/7 8/8/8 
f 9/9/9 10/10/10 11/11/11 
f 9/9/9 11/11/11 12/12/12 
f 9/9/9 12/12/12 13/13/13 
f 9/9/9 13/13/13 14/14/14 
f 9/9/9 14/14/14 15/15/15 
f 9/9/9 15/15/15 16/16/16 
f 9/9/9 16/16/16 17/17/17 
f 9/9/9 17/17/17 18/18/18 
f 9/9/9 18/18/18 19/19/19 
f 9/9/9 19/19/19 20/20/20 
f 9/9/9 20/20/20 21/21/21 
f 9/9/9 21/21/21 22/22/22 
f 9/9/9 22/22/22 23/23/23 
f 9/9/9 23/23/23 24/24/24 
f 9/9/9 24/24/24 25/25/25 
f 9/9/9 25/25/25 26/26/26 
f 9/9/9 26/26/26 27/27/27 
f 9/9/9 27/27/27 28/28/28 
f 9/9/9 28/28/28 29/29/29 
f 9/9/9 29/29/29 30/30/30 
f 9/9/9 30/30/30 31/31/31 
f 9/9/9 31/31/31 32/32/32 
f 9/9/9 32/32/32 33/33/33 
f 9/9/9 33/33/33 34/34/34 
f 9/9/9 34/34/34 35/35/35 
f 9/9/9 35/35/35 36/36/36 
f 9/9/9 36/36/36 37/37/37 
f 9/9/9 37/37/37 38/38/38 
f 9/9/9 38/38/38 39/39/39 
f 9/9/9 39/39/39 40/40/40 
f 9/9/9 40/40/40 41/41/41 
f 9/9/9 41/41/41 42/42/42 
f 43/43/43 44/44/44 45/45/45 
f 43/43/43 45/45/45 25/25/25 
f 43/43/43 25/25/25 46/46/46 
f 43/43/43 46/46/46 47/47/47 
f 43/43/43 47/47/47 48/48/48 
f 43/43/43 48/48/48 49/49/49 
f 43/43/43 49/49/49 50/50/50 
f 43/43/43 50/50/50 51/51/51 
f 43/43/43 51/51/51 52/52/52 
f 43/43/43 52/52/52 17/17/17 
f 43/43/43 17/17/17 53/53/53 
f 43/43/43 53/53/53 54/54/54 
f 43/43/43 54/54/54 55/55/55 
f 43/43/43 55/55/55 56/56/56 
f 43/43/43 56/56/56 57/57/57 
f 43/43/43 57/57/57 58/58/58 
f 43/43/43 58/58/58 59/59/59 
f 60/60/60 61/61/61 62/62/62 
f 60/60/60 62/62/62 63/63/63 
f 64/64/64 63/63/63 65/65/65 
f 64/64/64 65/65/65 66/66/66 
f 67/67/67 68/68/68 69/69/69 
f 67/67/67 69/69/69 70/70/70 
f 67/67/67 70/70/70 71/71/71 
f 67/67/67 71/71/71 72/72/72 
f 67/67/67 72/72/72 73/73/73 
f 67/67/67 73/73/73 74/74/74 
f 67/67/67 74/74/74 75/75/75 
f 67/67/67 75/75/75 76/76/76 
f 67/67/67 76/76/76 77/77/77 
f 67/67/67 77/77/77 78/78/78 
f 67/67/67 78/78/78 33/33/33 
f 67/67/67 33/33/33 79/79/79 
f 67/67/67 79/79/79 80/80/80 
f 67/67/67 80/80/80 81/81/81 
f 67/67/67 81/81/81 82/82/82 
f 67/67/67 82/82/82 83/83/83 
f 67/67/67 83/83/83 84/84/84 
f 85/85/85 86/86/86 87/87/87 
f 85/85/85 87/87/87 88/88/88 
f 89/89/89 90/90/90 91/91/91 
f 89/89/89 91/91/91 92/92/92 
f 93/93/93 92/92/92 94/94/94 
f 93/93/93 94/94/94 95/95/95 
f 96/96/96 97/97/97 98/98/98 
f 96/96/96 98/98/98 99/99/99 
f 96/96/96 99/99/99 100/100/100 
f 96/96/96 100/100/100 101/101/101 
f 96/96/96 101/101/101 102/102/102 
f 96/96/96 102/102/102 103/103/103 
f 96/96/96 103/103/103 104/104/104 
f 96/96/96 104/104/104 105/105/105 
f 96/96/96 105/105/105 106/106/106 
f 96/96/96 106/106/106 107/107/107 
f 96/96/96 107/107/107 108/108/108 
f 96/96/96 108/108/108 109/109/109 
f 96/96/96 109/109/109 110/110/110 
f 96/96/96 110/110/110 111/111/111 
f 96/96/96 111/111/111 112/112/112 
f 96/96/96 112/112/112 113/113/113 
f 96/96/96 113/113/113 114/114/114 
f 96/96/96 114/114/114 115/115/115 
f 96/96/96 115/115/115 116/116/116 
f 96/96/96 116/116/116 117/117/117 
f 96/96/96 117/117/117 118/118/118 
f 96/96/96 118/118/118 119/119/119 
f 96/96/96 119/119/119 120/120/120 
f 96/96/96 120/120/120 121/121/121 
f 96/96/96 121/121/121 122/122/122 
f 96/96/96 122/122/122 123/123/123 
f 96/96/96 123/123/123 124/124/124 
f 96/96/96 124/124/124 125/125/125 
f 96/96/96 125/125/125 126/126/126 
f 96/96/96 126/126/126 127/127/127 
f 96/96/96 127/127/127 128/128/128 
f 96/96/96 128/128/128 129/129/129 
f 130/130/130 131/131/131 132/132/132 
f 130/130/130 132/132/132 133/133/133 
f 130/130/130 133/133/133 134/134/134 
f 130/130/130 134/134/134 135/135/135 
f 130/130/130 135/135/135 136/136/136 
f 130/130/130 136/136/136 137/137/137 
f 130/130/130 137/137/137 138/138/138 
f 130/130/130 138/138/138 139/139/139 
f 130/130/130 139/139/139 140/140/140 
f 130/130/130 140/140/140 141/141/141 
f 130/130/130 141/141/141 142/142/142 
f 130/130/130 142/142/142 143/143/143 
f 130/130/130 143/143/143 144/144/144 
f 130/130/130 144/144/144 145/145/145 
f 130/130/130 145/145/145 146/146/146 
f 130/130/130 146/146/146 98/98/98 
f 130/130/130 98/98/98 147/147/147 
f 148/148/148 149/149/149 150/150/150 
f 148/148/148 150/150/150 151/151/151 
f 148/148/148 151/151/151 152/152/152 
f 148/148/148 152/152/152 153/153/153 
f 148/148/148 153/153/153 154/154/154 
f 148/148/148 154/154/154 155/155/155 
f 148/148/148 155/155/155 156/156/156 
f 148/148/148 156/156/156 157/157/157 
f 148/148/148 157/157/157 158/158/158 
f 148/148/148 158/158/158 159/159/159 
f 148/148/148 159/159/159 160/160/160 
f 148/148/148 160/160/160 161/161/161 
f 148/148/148 161/161/161 162/162/162 
f 148/148/148 162/162/162 163/163/163 
f 148/148/148 163/163/163 164/164/164 
f 148/148/148 164/164/164 165/165/165 
f 148/148/148 165/165/165 114/114/114 
f 166/166/166 167/167/167 168/168/168 
f 166/166/166 168/168/168 169/169/169 

