g grp7
v 3.832500 199.070999 -99.233200
v 3.832500 1.752000 -99.233200
v 3.832500 1.752000 -97.330704
v 3.832500 1.752000 -95.428101
v 3.832500 1.752000 -93.525497
v 3.832500 1.752000 -91.623001
v 3.832500 1.752000 -89.720398
v 3.832500 1.752000 -87.817802
v 3.832500 1.752000 -85.915298
v 3.832500 1.752000 -84.012703
v 3.832500 1.752000 -82.110199
v 3.832500 1.752000 -80.207603
v 3.832500 1.752000 -78.305000
v 3.832500 1.752000 -76.402496
v 3.832500 1.752000 -74.499901
v 3.832500 1.752000 -72.597298
v 3.832500 1.752000 -70.694801
v 3.832500 1.752000 -68.792198
v 3.832500 199.070999 -68.792198
v 3.832500 199.070999 -70.694801
v 3.832500 199.070999 -72.597298
v 3.832500 199.070999 -74.499901
v 3.832500 199.070999 -76.402496
v 3.832500 199.070999 -78.305000
v 3.832500 199.070999 -80.207603
v 3.832500 199.070999 -82.110199
v 3.832500 199.070999 -84.012703
v 3.832500 199.070999 -85.915298
v 3.832500 199.070999 -87.817802
v 3.832500 199.070999 -89.720398
v 3.832500 199.070999 -91.623001
v 3.832500 199.070999 -93.525497
v 3.832500 199.070999 -95.428101
v 3.832500 199.070999 -97.330704
v 173.994995 199.070999 -99.233200
v 173.994995 1.752000 -99.233200
v 3.832500 1.752000 -99.233200
v 3.832500 199.070999 -99.233200
v 3.832500 201.042007 -68.792198
v 3.832500 201.042007 -99.233200
v 3.832500 199.070999 -99.233200
v 3.832500 199.070999 -97.330704
v 3.832500 199.070999 -95.428101
v 3.832500 199.070999 -91.623001
v 3.832500 199.070999 -89.720398
v 3.832500 199.070999 -87.817802
v 3.832500 199.070999 -85.915298
v 3.832500 199.070999 -84.012703
v 3.832500 199.070999 -82.110199
v 3.832500 199.070999 -80.207603
v 3.832500 199.070999 -76.402496
v 3.832500 199.070999 -74.499901
v 3.832500 199.070999 -72.597298
v 3.832500 199.070999 -70.694801
v 3.832500 199.070999 -68.792198
v 2.978660 0.000000 -106.614998
v 128.899002 0.000000 -106.614998
v 128.899002 1.296480 -106.614998
v 2.978660 1.296480 -106.614998
v 2.978660 147.313004 -106.614998
v 128.899002 147.313004 -106.614998
v 2.978660 147.313004 -129.141006
v 2.978660 1.296480 -129.141006
v 2.978660 1.296480 -127.733002
v 2.978660 1.296480 -126.324997
v 2.978660 1.296480 -124.917000
v 2.978660 1.296480 -123.510002
v 2.978660 1.296480 -122.101997
v 2.978660 1.296480 -120.694000
v 2.978660 1.296480 -119.286003
v 2.978660 1.296480 -117.877998
v 2.978660 1.296480 -116.470001
v 2.978660 1.296480 -115.061996
v 2.978660 1.296480 -113.653999
v 2.978660 1.296480 -112.246002
v 2.978660 1.296480 -110.837997
v 2.978660 1.296480 -109.431000
v 2.978660 1.296480 -108.023003
v 2.978660 1.296480 -106.614998
v 2.978660 147.313004 -106.614998
v 2.978660 147.313004 -108.023003
v 2.978660 147.313004 -109.431000
v 2.978660 147.313004 -110.837997
v 2.978660 147.313004 -112.246002
v 2.978660 147.313004 -113.653999
v 2.978660 147.313004 -115.061996
v 2.978660 147.313004 -116.470001
v 2.978660 147.313004 -117.877998
v 2.978660 147.313004 -119.286003
v 2.978660 147.313004 -120.694000
v 2.978660 147.313004 -122.101997
v 2.978660 147.313004 -123.510002
v 2.978660 147.313004 -124.917000
v 2.978660 147.313004 -126.324997
v 2.978660 147.313004 -127.733002
v 128.899002 147.313004 -129.141006
v 128.899002 1.296480 -129.141006
v 2.978660 1.296480 -129.141006
v 2.978660 147.313004 -129.141006
v 2.978660 148.770996 -106.614998
v 2.978660 148.770996 -129.141006
v 2.978660 147.313004 -129.141006
v 2.978660 147.313004 -127.733002
v 2.978660 147.313004 -126.324997
v 2.978660 147.313004 -124.917000
v 2.978660 147.313004 -122.101997
v 2.978660 147.313004 -120.694000
v 2.978660 147.313004 -119.286003
v 2.978660 147.313004 -117.877998
v 2.978660 147.313004 -116.470001
v 2.978660 147.313004 -115.061996
v 2.978660 147.313004 -113.653999
v 2.978660 147.313004 -110.837997
v 2.978660 147.313004 -109.431000
v 2.978660 147.313004 -108.023003
v 2.978660 147.313004 -106.614998
v 2.978660 0.000000 -129.141006
v 2.978660 0.000000 -106.614998
v 2.978660 1.296480 -106.614998
v 2.978660 1.296480 -108.023003
v 2.978660 1.296480 -109.431000
v 2.978660 1.296480 -110.837997
v 2.978660 1.296480 -112.246002
v 2.978660 1.296480 -113.653999
v 2.978660 1.296480 -115.061996
v 2.978660 1.296480 -116.470001
v 2.978660 1.296480 -117.877998
v 2.978660 1.296480 -119.286003
v 2.978660 1.296480 -120.694000
v 2.978660 1.296480 -123.510002
v 2.978660 1.296480 -124.917000
v 2.978660 1.296480 -126.324997
v 2.978660 1.296480 -127.733002
v 2.978660 1.296480 -129.141006
v 128.899002 0.000000 -129.141006
v 2.978660 0.000000 -129.141006
v 2.978660 1.296480 -129.141006
v 128.899002 1.296480 -129.141006
v 3.832500 0.000000 -68.792198
v 173.994995 0.000000 -68.792198
v 173.994995 1.752000 -68.792198
v 3.832500 1.752000 -68.792198
v 3.832500 0.000000 -99.233200
v 3.832500 0.000000 -68.792198
v 3.832500 1.752000 -68.792198
v 3.832500 1.752000 -70.694801
v 3.832500 1.752000 -72.597298
v 3.832500 1.752000 -74.499901
v 3.832500 1.752000 -76.402496
v 3.832500 1.752000 -78.305000
v 3.832500 1.752000 -80.207603
v 3.832500 1.752000 -82.110199
v 3.832500 1.752000 -84.012703
v 3.832500 1.752000 -85.915298
v 3.832500 1.752000 -87.817802
v 3.832500 1.752000 -89.720398
v 3.832500 1.752000 -91.623001
v 3.832500 1.752000 -93.525497
v 3.832500 1.752000 -95.428101
v 3.832500 1.752000 -97.330704
v 3.832500 1.752000 -99.233200
v 3.832500 199.070999 -68.792198
v 3.832500 1.752000 -68.792198
v 173.994995 1.752000 -68.792198
v 173.994995 199.070999 -68.792198
v 173.994995 0.000000 -99.233200
v 3.832500 0.000000 -99.233200
v 3.832500 1.752000 -99.233200
v 173.994995 1.752000 -99.233200
vt -3.906820 6.837440
vt -3.906820 -0.931024
vt -3.831920 -0.931024
vt -3.757010 -0.931024
vt -3.682110 -0.931024
vt -3.607200 -0.931024
vt -3.532300 -0.931024
vt -3.457400 -0.931024
vt -3.382490 -0.931024
vt -3.307590 -0.931024
vt -3.232680 -0.931024
vt -3.157780 -0.931024
vt -3.082880 -0.931024
vt -3.007970 -0.931024
vt -2.933070 -0.931024
vt -2.858160 -0.931024
vt -2.783260 -0.931024
vt -2.708360 -0.931024
vt -2.708360 6.837440
vt -2.783260 6.837440
vt -2.858160 6.837440
vt -2.933070 6.837440
vt -3.007970 6.837440
vt -3.082880 6.837440
vt -3.157780 6.837440
vt -3.232680 6.837440
vt -3.307590 6.837440
vt -3.382490 6.837440
vt -3.457400 6.837440
vt -3.532300 6.837440
vt -3.607200 6.837440
vt -3.682110 6.837440
vt -3.757010 6.837440
vt -3.831920 6.837440
vt -6.850220 6.837440
vt -6.850220 -0.931024
vt -0.150886 -0.931024
vt -0.150886 6.837440
vt -2.708360 6.915040
vt -3.906820 6.915040
vt -3.906820 6.837440
vt -3.831920 6.837440
vt -3.757010 6.837440
vt -3.607200 6.837440
vt -3.532300 6.837440
vt -3.457400 6.837440
vt -3.382490 6.837440
vt -3.307590 6.837440
vt -3.232680 6.837440
vt -3.157780 6.837440
vt -3.007970 6.837440
vt -2.933070 6.837440
vt -2.858160 6.837440
vt -2.783260 6.837440
vt -2.708360 6.837440
vt 0.117270 -1.000000
vt 5.074770 -1.000000
vt 5.074770 -0.948958
vt 0.117270 -0.948958
vt 0.117270 4.799710
vt 5.074770 4.799710
vt -5.084300 4.799710
vt -5.084300 -0.948958
vt -5.028870 -0.948958
vt -4.973440 -0.948958
vt -4.918010 -0.948958
vt -4.862580 -0.948958
vt -4.807150 -0.948958
vt -4.751720 -0.948958
vt -4.696290 -0.948958
vt -4.640860 -0.948958
vt -4.585440 -0.948958
vt -4.530010 -0.948958
vt -4.474580 -0.948958
vt -4.419150 -0.948958
vt -4.363720 -0.948958
vt -4.308290 -0.948958
vt -4.252860 -0.948958
vt -4.197430 -0.948958
vt -4.197430 4.799710
vt -4.252860 4.799710
vt -4.308290 4.799710
vt -4.363720 4.799710
vt -4.419150 4.799710
vt -4.474580 4.799710
vt -4.530010 4.799710
vt -4.585440 4.799710
vt -4.640860 4.799710
vt -4.696290 4.799710
vt -4.751720 4.799710
vt -4.807150 4.799710
vt -4.862580 4.799710
vt -4.918010 4.799710
vt -4.973440 4.799710
vt -5.028870 4.799710
vt -5.074770 4.799710
vt -5.074770 -0.948958
vt -0.117270 -0.948958
vt -0.117270 4.799710
vt -4.197430 4.857130
vt -5.084300 4.857130
vt -5.084300 4.799710
vt -5.028870 4.799710
vt -4.973440 4.799710
vt -4.918010 4.799710
vt -4.807150 4.799710
vt -4.751720 4.799710
vt -4.696290 4.799710
vt -4.640860 4.799710
vt -4.585440 4.799710
vt -4.530010 4.799710
vt -4.474580 4.799710
vt -4.363720 4.799710
vt -4.308290 4.799710
vt -4.252860 4.799710
vt -4.197430 4.799710
vt -5.084300 -1.000000
vt -4.197430 -1.000000
vt -4.197430 -0.948958
vt -4.252860 -0.948958
vt -4.308290 -0.948958
vt -4.363720 -0.948958
vt -4.419150 -0.948958
vt -4.474580 -0.948958
vt -4.530010 -0.948958
vt -4.585440 -0.948958
vt -4.640860 -0.948958
vt -4.696290 -0.948958
vt -4.751720 -0.948958
vt -4.862580 -0.948958
vt -4.918010 -0.948958
vt -4.973440 -0.948958
vt -5.028870 -0.948958
vt -5.084300 -0.948958
vt -5.074770 -1.000000
vt -0.117270 -1.000000
vt -0.117270 -0.948958
vt -5.074770 -0.948958
vt 0.150886 -1.000000
vt 6.850220 -1.000000
vt 6.850220 -0.931024
vt 0.150886 -0.931024
vt -3.906820 -1.000000
vt -2.708360 -1.000000
vt -2.708360 -0.931024
vt -2.783260 -0.931024
vt -2.858160 -0.931024
vt -2.933070 -0.931024
vt -3.007970 -0.931024
vt -3.082880 -0.931024
vt -3.157780 -0.931024
vt -3.232680 -0.931024
vt -3.307590 -0.931024
vt -3.382490 -0.931024
vt -3.457400 -0.931024
vt -3.532300 -0.931024
vt -3.607200 -0.931024
vt -3.682110 -0.931024
vt -3.757010 -0.931024
vt -3.831920 -0.931024
vt -3.906820 -0.931024
vt 0.150886 6.837440
vt 0.150886 -0.931024
vt 6.850220 -0.931024
vt 6.850220 6.837440
vt -6.850220 -1.000000
vt -0.150886 -1.000000
vt -0.150886 -0.931024
vt -6.850220 -0.931024
vn -1.000000 0.000000 -0.000000
vn -1.000000 0.000000 -0.000000
vn -1.000000 0.000000 -0.000000
vn -1.000000 0.000000 -0.000000
vn -1.000000 0.000000 -0.000000
vn -1.000000 0.000000 -0.000000
vn -1.000000 0.000000 -0.000000
vn -1.000000 0.000000 -0.000000
vn -1.000000 0.000000 -0.000000
vn -1.000000 0.000000 -0.000000
vn -1.000000 0.000000 -0.000000
vn -1.000000 0.000000 -0.000000
vn -1.000000 0.000000 -0.000000
vn -1.000000 0.000000 -0.000000
vn -1.000000 0.000000 -0.000000
vn -1.000000 0.000000 -0.000000
vn -1.000000 0.000000 -0.000000
vn -1.000000 0.000000 -0.000000
vn -1.000000 0.000000 -0.000000
vn -1.000000 0.000000 -0.000000
vn -1.000000 0.000000 -0.000000
vn -1.000000 0.000000 -0.000000
vn -1.000000 0.000000 -0.000000
vn -1.000000 0.000000 -0.000000
vn -1.000000 0.000000 -0.000000
vn -1.000000 0.000000 -0.000000
vn -1.000000 0.000000 -0.000000
vn -1.000000 0.000000 -0.000000
vn -1.000000 0.000000 -0.000000
vn -1.000000 0.000000 -0.000000
vn -1.000000 0.000000 -0.000000
vn -1.000000 0.000000 -0.000000
vn -1.000000 0.000000 -0.000000
vn -1.000000 0.000000 -0.000000
vn 0.000000 0.000000 -1.000000
vn 0.000000 0.000000 -1.000000
vn 0.000000 0.000000 -1.000000
vn 0.000000 0.000000 -1.000000
vn -1.000000 0.000000 -0.000000
vn -1.000000 0.000000 -0.000000
vn -1.000000 0.000000 -0.000000
vn -1.000000 0.000000 -0.000000
vn -1.000000 0.000000 -0.000000
vn -1.000000 0.000000 -0.000000
vn -1.000000 0.000000 -0.000000
vn -1.000000 0.000000 -0.000000
vn -1.000000 0.000000 -0.000000
vn -1.000000 0.000000 -0.000000
vn -1.000000 0.000000 -0.000000
vn -1.000000 0.000000 -0.000000
vn -1.000000 0.000000 -0.000000
vn -1.000000 0.000000 -0.000000
vn -1.000000 0.000000 -0.000000
vn -1.000000 0.000000 -0.000000
vn -1.000000 0.000000 -0.000000
vn 0.000000 0.000000 1.000000
vn 0.000000 0.000000 1.000000
vn 0.000000 0.000000 1.000000
vn 0.000000 0.000000 1.000000
vn 0.000000 0.000000 1.000000
vn 0.000000 0.000000 1.000000
vn -1.000000 0.000000 -0.000000
vn -1.000000 0.000000 -0.000000
vn -1.000000 0.000000 -0.000000
vn -1.000000 0.000000 -0.000000
vn -1.000000 0.000000 -0.000000
vn -1.000000 0.000000 -0.000000
vn -1.000000 0.000000 -0.000000
vn -1.000000 0.000000 -0.000000
vn -1.000000 0.000000 -0.000000
vn -1.000000 0.000000 -0.000000
vn -1.000000 0.000000 -0.000000
vn -1.000000 0.000000 -0.000000
vn -1.000000 0.000000 -0.000000
vn -1.000000 0.000000 -0.000000
vn -1.000000 0.000000 -0.000000
vn -1.000000 0.000000 -0.000000
vn -1.000000 0.000000 -0.000000
vn -1.000000 0.000000 -0.000000
vn -1.000000 0.000000 -0.000000
vn -1.000000 0.000000 -0.000000
vn -1.000000 0.000000 -0.000000
vn -1.000000 0.000000 -0.000000
vn -1.000000 0.000000 -0.000000
vn -1.000000 0.000000 -0.000000
vn -1.000000 0.000000 -0.000000
vn -1.000000 0.000000 -0.000000
vn -1.000000 0.000000 -0.000000
vn -1.000000 0.000000 -0.000000
vn -1.000000 0.000000 -0.000000
vn -1.000000 0.000000 -0.000000
vn -1.000000 0.000000 -0.000000
vn -1.000000 0.000000 -0.000000
vn -1.000000 0.000000 -0.000000
vn -1.000000 0.000000 -0.000000
vn 0.000000 0.000000 -1.000000
vn 0.000000 0.000000 -1.000000
vn 0.000000 0.000000 -1.000000
vn 0.000000 0.000000 -1.000000
vn -1.000000 0.000000 -0.000000
vn -1.000000 0.000000 -0.000000
vn -1.000000 0.000000 -0.000000
vn -1.000000 0.000000 -0.000000
vn -1.000000 0.000000 -0.000000
vn -1.000000 0.000000 -0.000000
vn -1.000000 0.000000 -0.000000
vn -1.000000 0.000000 -0.000000
vn -1.000000 0.000000 -0.000000
vn -1.000000 0.000000 -0.000000
vn -1.000000 0.000000 -0.000000
vn -1.000000 0.000000 -0.000000
vn -1.000000 0.000000 -0.000000
vn -1.000000 0.000000 -0.000000
vn -1.000000 0.000000 -0.000000
vn -1.000000 0.000000 -0.000000
vn -1.000000 0.000000 -0.000000
vn -1.000000 0.000000 -0.000000
vn -1.000000 0.000000 -0.000000
vn -1.000000 0.000000 -0.000000
vn -1.000000 0.000000 -0.000000
vn -1.000000 0.000000 -0.000000
vn -1.000000 0.000000 -0.000000
vn -1.000000 0.000000 -0.000000
vn -1.000000 0.000000 -0.000000
vn -1.000000 0.000000 -0.000000
vn -1.000000 0.000000 -0.000000
vn -1.000000 0.000000 -0.000000
vn -1.000000 0.000000 -0.000000
vn -1.000000 0.000000 -0.000000
vn -1.000000 0.000000 -0.000000
vn -1.000000 0.000000 -0.000000
vn -1.000000 0.000000 -0.000000
vn -1.000000 0.000000 -0.000000
vn -1.000000 0.000000 -0.000000
vn 0.000000 0.000000 -1.000000
vn 0.000000 0.000000 -1.000000
vn 0.000000 0.000000 -1.000000
vn 0.000000 0.000000 -1.000000
vn 0.000000 0.000000 1.000000
vn 0.000000 0.000000 1.000000
vn 0.000000 0.000000 1.000000
vn 0.000000 0.000000 1.000000
vn -1.000000 0.000000 -0.000000
vn -1.000000 0.000000 -0.000000
vn -1.000000 0.000000 -0.000000
vn -1.000000 0.000000 -0.000000
vn -1.000000 0.000000 -0.000000
vn -1.000000 0.000000 -0.000000
vn -1.000000 0.000000 -0.000000
vn -1.000000 0.000000 -0.000000
vn -1.000000 0.000000 -0.000000
vn -1.000000 0.000000 -0.000000
vn -1.000000 0.000000 -0.000000
vn -1.000000 0.000000 -0.000000
vn -1.000000 0.000000 -0.000000
vn -1.000000 0.000000 -0.000000
vn -1.000000 0.000000 -0.000000
vn -1.000000 0.000000 -0.000000
vn -1.000000 0.000000 -0.000000
vn -1.000000 0.000000 -0.000000
vn -1.000000 0.000000 -0.000000
vn 0.000000 0.000000 1.000000
vn 0.000000 0.000000 1.000000
vn 0.000000 0.000000 1.000000
vn 0.000000 0.000000 1.000000
vn 0.000000 0.000000 -1.000000
vn 0.000000 0.000000 -1.000000
vn 0.000000 0.000000 -1.000000
vn 0.000000 0.000000 -1.000000
usemtl mat2
f 1/1/1 2/2/2 3/3/3 
f 1/1/1 3/3/3 4/4/4 
f 1/1/1 4/4/4 5/5/5 
f 1/1/1 5/5/5 6/6/6 
f 1/1/1 6/6/6 7/7/7 
f 1/1/1 7/7/7 8/8/8 
f 1/1/1 8/8/8 9/9/9 
f 1/1/1 9/9/9 10/10/10 
f 1/1/1 10/10/10 11/11/11 
f 1/1/1 11/11/11 12/12/12 
f 1/1/1 12/12/12 13/13/13 
f 1/1/1 13/13/13 14/14/14 
f 1/1/1 14/14/14 15/15/15 
f 1/1/1 15/15/15 16/16/16 
f 1/1/1 16/16/16 17/17/17 
f 1/1/1 17/17/17 18/18/18 
f 1/1/1 18/18/18 19/19/19 
f 1/1/1 19/19/19 20/20/20 
f 1/1/1 20/20/20 21/21/21 
f 1/1/1 21/21/21 22/22/22 
f 1/1/1 22/22/22 23/23/23 
f 1/1/1 23/23/23 24/24/24 
f 1/1/1 24/24/24 25/25/25 
f 1/1/1 25/25/25 26/26/26 
f 1/1/1 26/26/26 27/27/27 
f 1/1/1 27/27/27 28/28/28 
f 1/1/1 28/28/28 29/29/29 
f 1/1/1 29/29/29 30/30/30 
f 1/1/1 30/30/30 31/31/31 
f 1/1/1 31/31/31 32/32/32 
f 1/1/1 32/32/32 33/33/33 
f 1/1/1 33/33/33 34/34/34 
f 35/35/35 36/36/36 37/37/37 
f 35/35/35 37/37/37 38/38/38 
f 39/39/39 40/40/40 41/41/41 
f 39/39/39 41/41/41 42/42/42 
f 39/39/39 42/42/42 43/43/43 
f 39/39/39 43/43/43 32/32/32 
f 39/39/39 32/32/32 44/44/44 
f 39/39/39 44/44/44 45/45/45 
f 39/39/39 45/45/45 46/46/46 
f 39/39/39 46/46/46 47/47/47 
f 39/39/39 47/47/47 48/48/48 
f 39/39/39 48/48/48 49/49/49 
f 39/39/39 49/49/49 50/50/50 
f 39/39/39 50/50/50 24/24/24 
f 39/39/39 24/24/24 51/51/51 
f 39/39/39 51/51/51 52/52/52 
f 39/39/39 52/52/52 53/53/53 
f 39/39/39 53/53/53 54/54/54 
f 39/39/39 54/54/54 55/55/55 
f 56/56/56 57/57/57 58/58/58 
f 56/56/56 58/58/58 59/59/59 
f 60/60/60 59/59/59 58/58/58 
f 60/60/60 58/58/58 61/61/61 
f 62/62/62 63/63/63 64/64/64 
f 62/62/62 64/64/64 65/65/65 
f 62/62/62 65/65/65 66/66/66 
f 62/62/62 66/66/66 67/67/67 
f 62/62/62 67/67/67 68/68/68 
f 62/62/62 68/68/68 69/69/69 
f 62/62/62 69/69/69 70/70/70 
f 62/62/62 70/70/70 71/71/71 
f 62/62/62 71/71/71 72/72/72 
f 62/62/62 72/72/72 73/73/73 
f 62/62/62 73/73/73 74/74/74 
f 62/62/62 74/74/74 75/75/75 
f 62/62/62 75/75/75 76/76/76 
f 62/62/62 76/76/76 77/77/77 
f 62/62/62 77/77/77 78/78/78 
f 62/62/62 78/78/78 79/79/79 
f 62/62/62 79/79/79 80/80/80 
f 62/62/62 80/80/80 81/81/81 
f 62/62/62 81/81/81 82/82/82 
f 62/62/62 82/82/82 83/83/83 
f 62/62/62 83/83/83 84/84/84 
f 62/62/62 84/84/84 85/85/85 
f 62/62/62 85/85/85 86/86/86 
f 62/62/62 86/86/86 87/87/87 
f 62/62/62 87/87/87 88/88/88 
f 62/62/62 88/88/88 89/89/89 
f 62/62/62 89/89/89 90/90/90 
f 62/62/62 90/90/90 91/91/91 
f 62/62/62 91/91/91 92/92/92 
f 62/62/62 92/92/92 93/93/93 
f 62/62/62 93/93/93 94/94/94 
f 62/62/62 94/94/94 95/95/95 
f 96/96/96 97/97/97 98/98/98 
f 96/96/96 98/98/98 99/99/99 
f 100/100/100 101/101/101 102/102/102 
f 100/100/100 102/102/102 103/103/103 
f 100/100/100 103/103/103 104/104/104 
f 100/100/100 104/104/104 105/105/105 
f 100/100/100 105/105/105 92/92/92 
f 100/100/100 92/92/92 106/106/106 
f 100/100/100 106/106/106 107/107/107 
f 100/100/100 107/107/107 108/108/108 
f 100/100/100 108/108/108 109/109/109 
f 100/100/100 109/109/109 110/110/110 
f 100/100/100 110/110/110 111/111/111 
f 100/100/100 111/111/111 112/112/112 
f 100/100/100 112/112/112 84/84/84 
f 100/100/100 84/84/84 113/113/113 
f 100/100/100 113/113/113 114/114/114 
f 100/100/100 114/114/114 115/115/115 
f 100/100/100 115/115/115 116/116/116 
f 117/117/117 118/118/118 119/119/119 
f 117/117/117 119/119/119 120/120/120 
f 117/117/117 120/120/120 121/121/121 
f 117/117/117 121/121/121 122/122/122 
f 117/117/117 122/122/122 123/123/123 
f 117/117/117 123/123/123 124/124/124 
f 117/117/117 124/124/124 125/125/125 
f 117/117/117 125/125/125 126/126/126 
f 117/117/117 126/126/126 127/127/127 
f 117/117/117 127/127/127 128/128/128 
f 117/117/117 128/128/128 129/129/129 
f 117/117/117 129/129/129 68/68/68 
f 117/117/117 68/68/68 130/130/130 
f 117/117/117 130/130/130 131/131/131 
f 117/117/117 131/131/131 132/132/132 
f 117/117/117 132/132/132 133/133/133 
f 117/117/117 133/133/133 134/134/134 
f 135/135/135 136/136/136 137/137/137 
f 135/135/135 137/137/137 138/138/138 
f 139/139/139 140/140/140 141/141/141 
f 139/139/139 141/141/141 142/142/142 
f 143/143/143 144/144/144 145/145/145 
f 143/143/143 145/145/145 146/146/146 
f 143/143/143 146/146/146 147/147/147 
f 143/143/143 147/147/147 148/148/148 
f 143/143/143 148/148/148 149/149/149 
f 143/143/143 149/149/149 150/150/150 
f 143/143/143 150/150/150 151/151/151 
f 143/143/143 151/151/151 152/152/152 
f 143/143/143 152/152/152 153/153/153 
f 143/143/143 153/153/153 154/154/154 
f 143/143/143 154/154/154 155/155/155 
f 143/143/143 155/155/155 156/156/156 
f 143/143/143 156/156/156 157/157/157 
f 143/143/143 157/157/157 158/158/158 
f 143/143/143 158/158/158 159/159/159 
f 143/143/143 159/159/159 160/160/160 
f 143/143/143 160/160/160 161/161/161 
f 162/162/162 163/163/163 164/164/164 
f 162/162/162 164/164/164 165/165/165 
f 166/166/166 167/167/167 168/168/168 
f 166/166/166 168/168/168 169/169/169 

