g grp89
v 61.439701 36.000000 -29.962000
v 97.439697 36.000000 -29.962000
v 97.439697 0.000000 -29.962000
v 61.439701 0.000000 -29.962000
v 97.439697 36.000000 -1.962040
v 97.439697 36.000000 -29.962000
v 61.439701 36.000000 -29.962000
v 61.439701 36.000000 -1.962040
v 97.439697 36.000000 -29.962000
v 97.439697 36.000000 -1.962040
v 97.439697 0.000000 -1.962040
v 97.439697 0.000000 -29.962000
v 99.439697 36.000000 -31.962000
v 99.439697 36.000000 0.037962
v 61.439701 36.000000 0.037962
v 61.439701 36.000000 -1.962040
v 97.439697 36.000000 -1.962040
v 97.439697 36.000000 -29.962000
v 61.439701 36.000000 -29.962000
v 61.439701 36.000000 -31.962000
v 61.439701 38.750000 0.037962
v 61.439701 38.750000 -5.962040
v 61.439701 38.750000 -25.962000
v 61.439701 38.750000 -31.962000
v 61.439701 36.000000 -31.962000
v 61.439701 36.000000 -29.962000
v 61.439701 36.000000 -1.962040
v 61.439701 36.000000 0.037962
v 61.439701 36.000000 -29.962000
v 61.439701 0.000000 -29.962000
v 61.439701 0.000000 -1.962040
v 97.439697 0.000000 -1.962040
v 67.421303 8.000000 -1.962040
v 61.439701 0.000000 -1.962040
v 91.439697 8.000000 -1.962040
v 97.439697 36.000000 -1.962040
v 91.439697 10.750000 -1.962040
v 91.439697 8.000000 0.037962
v 67.421303 8.000000 0.037962
v 67.421303 8.000000 -1.962040
v 91.439697 8.000000 -1.962040
v 91.439697 10.750000 -1.962040
v 91.439697 10.750000 0.037962
v 67.421303 10.750000 0.037962
v 67.421303 10.750000 -1.962040
v 69.421303 10.750000 -1.962040
v 69.421303 10.750000 -5.962040
v 65.421303 10.750000 -5.962040
v 65.421303 10.750000 -23.962000
v 69.421303 10.750000 -23.962000
v 89.439697 10.750000 -23.962000
v 94.189697 10.750000 -23.962000
v 94.189697 10.750000 -5.962040
v 89.439697 10.750000 -5.962040
v 89.439697 10.750000 -1.962040
v 69.421303 10.750000 -1.962040
v 61.439701 36.000000 -1.962040
v 67.421303 10.750000 -1.962040
v 69.421303 28.000000 -1.962040
v 69.421303 10.750000 -1.962040
v 89.439697 28.000000 -1.962040
v 69.421303 28.000000 -1.962040
v 97.439697 36.000000 -1.962040
v 89.439697 28.000000 -1.962040
v 91.439697 10.750000 -1.962040
v 97.439697 36.000000 -1.962040
v 89.439697 10.750000 -1.962040
v 91.439697 10.750000 -1.962040
v 89.439697 10.750000 -1.962040
v 89.439697 10.750000 -5.962040
v 89.439697 28.000000 -5.962040
v 89.439697 28.000000 -1.962040
v 94.189697 10.750000 -5.962040
v 94.189697 32.000000 -5.962040
v 89.439697 32.000000 -5.962040
v 89.439697 28.000000 -5.962040
v 89.439697 10.750000 -5.962040
v 94.189697 32.000000 -23.962000
v 94.189697 32.000000 -5.962040
v 94.189697 10.750000 -5.962040
v 94.189697 10.750000 -23.962000
v 65.421303 32.000000 -5.962040
v 69.421303 32.000000 -5.962040
v 89.439697 32.000000 -5.962040
v 94.189697 32.000000 -5.962040
v 94.189697 32.000000 -23.962000
v 65.421303 32.000000 -23.962000
v 69.421303 32.000000 -5.962040
v 65.421303 32.000000 -5.962040
v 65.421303 10.750000 -5.962040
v 69.421303 10.750000 -5.962040
v 69.421303 28.000000 -5.962040
v 65.421303 10.750000 -5.962040
v 65.421303 32.000000 -5.962040
v 65.421303 32.000000 -23.962000
v 65.421303 10.750000 -23.962000
v 94.189697 10.750000 -23.962000
v 94.189697 32.000000 -23.962000
v 65.421303 32.000000 -23.962000
v 65.421303 10.750000 -23.962000
v 69.421303 10.750000 -23.962000
v 89.439697 10.750000 -23.962000
v 89.439697 10.750000 -27.024500
v 89.439697 10.750000 -23.962000
v 69.421303 10.750000 -23.962000
v 69.421303 10.750000 -27.024500
v 89.439697 10.750000 -27.024500
v 69.421303 10.750000 -27.024500
v 69.421303 28.000000 -27.024500
v 89.439697 28.000000 -27.024500
v 69.421303 28.000000 -1.962040
v 69.421303 28.000000 -5.962040
v 69.421303 10.750000 -5.962040
v 69.421303 10.750000 -1.962040
v 89.439697 28.000000 -5.962040
v 69.421303 28.000000 -5.962040
v 69.421303 28.000000 -1.962040
v 89.439697 28.000000 -1.962040
v 89.439697 32.000000 -5.962040
v 69.421303 32.000000 -5.962040
v 89.439697 28.000000 -5.962040
v 67.421303 10.750000 -1.962040
v 67.421303 8.000000 -1.962040
v 61.439701 0.000000 -1.962040
vt -3.955360 0.125000
vt -3.205360 0.125000
vt -3.205360 -1.000000
vt -3.955360 -1.000000
vt 3.205360 0.409510
vt 3.205360 1.284510
vt 3.955360 1.284510
vt 3.955360 0.409510
vt -1.523010 0.125000
vt -0.939672 0.125000
vt -0.939672 -1.000000
vt -1.523010 -1.000000
vt -3.163690 1.347010
vt -3.163690 0.347010
vt -3.955360 0.347010
vt -3.955360 0.409510
vt -3.205360 0.409510
vt -3.205360 1.284510
vt -3.955360 1.284510
vt -3.955360 1.347010
vt 0.898006 0.210940
vt 1.023010 0.210940
vt 1.439670 0.210940
vt 1.564670 0.210940
vt 1.564670 0.125000
vt 1.523010 0.125000
vt 0.939672 0.125000
vt 0.898006 0.125000
vt 1.523010 0.125000
vt 1.523010 -1.000000
vt 0.939672 -1.000000
vt 3.174340 -1.013386
vt 3.799730 -0.763386
vt 3.924340 -1.013386
vt 3.299340 -0.763386
vt 3.174340 0.111610
vt 3.299340 -0.677448
vt -3.330360 0.347010
vt -3.830740 0.347010
vt -3.830740 0.409510
vt -3.330360 0.409510
vt -3.330360 0.409510
vt -3.330360 0.347010
vt -3.830740 0.347010
vt -3.830740 0.409510
vt -3.789080 0.409510
vt -3.789080 0.534510
vt -3.872410 0.534510
vt -3.872410 1.097010
vt -3.789080 1.097010
vt -3.372030 1.097010
vt -3.273070 1.097010
vt -3.273070 0.534510
vt -3.372030 0.534510
vt -3.372030 0.409510
vt 3.758060 -0.677448
vt 3.924340 0.111610
vt 3.799730 -0.677448
vt 3.758060 -0.138386
vt 3.758060 -0.677448
vt 3.341010 -0.138386
vt 3.758060 -0.138386
vt 3.174340 0.111610
vt 3.341010 -0.138386
vt 3.299340 -0.677448
vt 3.174340 0.111610
vt 3.341010 -0.677448
vt 3.299340 -0.677448
vt -0.939672 -0.664062
vt -1.023010 -0.664062
vt -1.023010 -0.125000
vt -0.939672 -0.125000
vt 3.273070 -0.664062
vt 3.273070 -0.000000
vt 3.372030 -0.000000
vt 3.372030 -0.125000
vt 3.372030 -0.664062
vt -1.398010 -0.000000
vt -1.023010 -0.000000
vt -1.023010 -0.664062
vt -1.398010 -0.664062
vt 3.872410 0.534510
vt 3.789080 0.534510
vt 3.372030 0.534510
vt 3.273070 0.534510
vt 3.273070 1.097010
vt 3.872410 1.097010
vt 3.789080 -0.000000
vt 3.872410 -0.000000
vt 3.872410 -0.664062
vt 3.789080 -0.664062
vt 3.789080 -0.125000
vt 1.023010 -0.664062
vt 1.023010 -0.000000
vt 1.398010 -0.000000
vt 1.398010 -0.664062
vt 3.273070 -0.664062
vt 3.273070 -0.000000
vt 3.872410 -0.000000
vt 3.872410 -0.664062
vt 3.789080 -0.664062
vt 3.372030 -0.664062
vt -3.372030 1.192710
vt -3.372030 1.097010
vt -3.789080 1.097010
vt -3.789080 1.192710
vt -3.372030 -0.664062
vt -3.789080 -0.664062
vt -3.789080 -0.125000
vt -3.372030 -0.125000
vt 0.939672 -0.125000
vt 1.023010 -0.125000
vt 1.023010 -0.664062
vt 0.939672 -0.664062
vt 3.372030 0.534510
vt 3.789080 0.534510
vt 3.789080 0.409510
vt 3.372030 0.409510
vt 3.372030 -0.000000
vt 3.789080 -0.000000
vt 3.372030 -0.125000
vt 3.799730 -0.677448
vt 3.799730 -0.763386
vt 3.924340 -1.013386
vn 0.000000 0.000000 -1.000000
vn 0.000000 0.000000 -1.000000
vn 0.000000 0.000000 -1.000000
vn 0.000000 0.000000 -1.000000
vn 0.000000 1.000000 -0.000000
vn 0.000000 1.000000 -0.000000
vn 0.000000 1.000000 -0.000000
vn 0.000000 1.000000 -0.000000
vn 1.000000 0.000000 -0.000000
vn 1.000000 0.000000 -0.000000
vn 1.000000 0.000000 -0.000000
vn 1.000000 0.000000 -0.000000
vn 0.000000 -1.000000 -0.000000
vn 0.000000 -1.000000 -0.000000
vn 0.000000 -1.000000 -0.000000
vn 0.000000 -1.000000 -0.000000
vn 0.000000 -1.000000 -0.000000
vn 0.000000 -1.000000 -0.000000
vn 0.000000 -1.000000 -0.000000
vn 0.000000 -1.000000 -0.000000
vn -1.000000 0.000000 -0.000000
vn -1.000000 0.000000 -0.000000
vn -1.000000 0.000000 -0.000000
vn -1.000000 0.000000 -0.000000
vn -1.000000 0.000000 -0.000000
vn -1.000000 0.000000 -0.000000
vn -1.000000 0.000000 -0.000000
vn -1.000000 0.000000 -0.000000
vn -1.000000 0.000000 -0.000000
vn -1.000000 0.000000 -0.000000
vn -1.000000 0.000000 -0.000000
vn 0.000000 0.000000 1.000000
vn 0.000000 0.000000 1.000000
vn 0.000000 0.000000 1.000000
vn 0.000000 0.000000 1.000000
vn 0.000000 0.000000 1.000000
vn 0.000000 0.000000 1.000000
vn 0.000000 -1.000000 -0.000000
vn 0.000000 -1.000000 -0.000000
vn 0.000000 -1.000000 -0.000000
vn 0.000000 -1.000000 -0.000000
vn 0.000000 -1.000000 -0.000000
vn 0.000000 -1.000000 -0.000000
vn 0.000000 -1.000000 -0.000000
vn 0.000000 -1.000000 -0.000000
vn 0.000000 -1.000000 -0.000000
vn 0.000000 -1.000000 -0.000000
vn 0.000000 -1.000000 -0.000000
vn 0.000000 -1.000000 -0.000000
vn 0.000000 -1.000000 -0.000000
vn 0.000000 -1.000000 -0.000000
vn 0.000000 -1.000000 -0.000000
vn 0.000000 -1.000000 -0.000000
vn 0.000000 -1.000000 -0.000000
vn 0.000000 -1.000000 -0.000000
vn 0.000000 0.000000 1.000000
vn 0.000000 0.000000 1.000000
vn 0.000000 0.000000 1.000000
vn 0.000000 0.000000 1.000000
vn 0.000000 0.000000 1.000000
vn 0.000000 0.000000 1.000000
vn 0.000000 0.000000 1.000000
vn 0.000000 0.000000 1.000000
vn 0.000000 0.000000 1.000000
vn 0.000000 0.000000 1.000000
vn 0.000000 0.000000 1.000000
vn 0.000000 0.000000 1.000000
vn 0.000000 0.000000 1.000000
vn 1.000000 0.000000 -0.000000
vn 1.000000 0.000000 -0.000000
vn 1.000000 0.000000 -0.000000
vn 1.000000 0.000000 -0.000000
vn 0.000000 0.000000 1.000000
vn 0.000000 0.000000 1.000000
vn 0.000000 0.000000 1.000000
vn 0.000000 0.000000 1.000000
vn 0.000000 0.000000 1.000000
vn 1.000000 0.000000 -0.000000
vn 1.000000 0.000000 -0.000000
vn 1.000000 0.000000 -0.000000
vn 1.000000 0.000000 -0.000000
vn 0.000000 1.000000 -0.000000
vn 0.000000 1.000000 -0.000000
vn 0.000000 1.000000 -0.000000
vn 0.000000 1.000000 -0.000000
vn 0.000000 1.000000 -0.000000
vn 0.000000 1.000000 -0.000000
vn 0.000000 0.000000 1.000000
vn 0.000000 0.000000 1.000000
vn 0.000000 0.000000 1.000000
vn 0.000000 0.000000 1.000000
vn 0.000000 0.000000 1.000000
vn -1.000000 0.000000 -0.000000
vn -1.000000 0.000000 -0.000000
vn -1.000000 0.000000 -0.000000
vn -1.000000 0.000000 -0.000000
vn 0.000000 0.000000 1.000000
vn 0.000000 0.000000 1.000000
vn 0.000000 0.000000 1.000000
vn 0.000000 0.000000 1.000000
vn 0.000000 0.000000 1.000000
vn 0.000000 0.000000 1.000000
vn 0.000000 -1.000000 -0.000000
vn 0.000000 -1.000000 -0.000000
vn 0.000000 -1.000000 -0.000000
vn 0.000000 -1.000000 -0.000000
vn 0.000000 0.000000 -1.000000
vn 0.000000 0.000000 -1.000000
vn 0.000000 0.000000 -1.000000
vn 0.000000 0.000000 -1.000000
vn -1.000000 0.000000 -0.000000
vn -1.000000 0.000000 -0.000000
vn -1.000000 0.000000 -0.000000
vn -1.000000 0.000000 -0.000000
vn 0.000000 1.000000 -0.000000
vn 0.000000 1.000000 -0.000000
vn 0.000000 1.000000 -0.000000
vn 0.000000 1.000000 -0.000000
vn 0.000000 0.000000 1.000000
vn 0.000000 0.000000 1.000000
vn 0.000000 0.000000 1.000000
vn 0.000000 0.000000 1.000000
vn 0.000000 0.000000 1.000000
vn 0.000000 0.000000 1.000000
usemtl mat4
f 1/1/1 2/2/2 3/3/3 
f 1/1/1 3/3/3 4/4/4 
f 5/5/5 6/6/6 7/7/7 
f 5/5/5 7/7/7 8/8/8 
f 9/9/9 10/10/10 11/11/11 
f 9/9/9 11/11/11 12/12/12 
f 13/13/13 14/14/14 15/15/15 
f 13/13/13 15/15/15 16/16/16 
f 13/13/13 16/16/16 17/17/17 
f 13/13/13 17/17/17 18/18/18 
f 13/13/13 18/18/18 19/19/19 
f 13/13/13 19/19/19 20/20/20 
f 21/21/21 22/22/22 23/23/23 
f 21/21/21 23/23/23 24/24/24 
f 21/21/21 24/24/24 25/25/25 
f 21/21/21 25/25/25 26/26/26 
f 21/21/21 26/26/26 27/27/27 
f 21/21/21 27/27/27 28/28/28 
f 27/27/27 29/29/29 30/30/30 
f 27/27/27 30/30/30 31/31/31 
f 32/32/32 33/33/33 34/34/34 
f 33/33/33 32/32/32 35/35/35 
f 36/36/36 35/35/35 32/32/32 
f 37/37/37 35/35/35 36/36/36 
f 38/38/38 39/39/39 40/40/40 
f 38/38/38 40/40/40 41/41/41 
f 42/42/42 43/43/43 44/44/44 
f 42/42/42 44/44/44 45/45/45 
f 42/42/42 45/45/45 46/46/46 
f 42/42/42 46/46/46 47/47/47 
f 42/42/42 47/47/47 48/48/48 
f 42/42/42 48/48/48 49/49/49 
f 42/42/42 49/49/49 50/50/50 
f 42/42/42 50/50/50 51/51/51 
f 42/42/42 51/51/51 52/52/52 
f 42/42/42 52/52/52 53/53/53 
f 42/42/42 53/53/53 54/54/54 
f 42/42/42 54/54/54 55/55/55 
f 56/56/56 57/57/57 58/58/58 
f 59/59/59 57/57/57 60/60/60 
f 61/61/61 57/57/57 62/62/62 
f 57/57/57 61/61/61 63/63/63 
f 64/64/64 65/65/65 66/66/66 
f 67/67/67 68/68/68 64/64/64 
f 69/69/69 70/70/70 71/71/71 
f 69/69/69 71/71/71 72/72/72 
f 73/73/73 74/74/74 75/75/75 
f 73/73/73 75/75/75 76/76/76 
f 73/73/73 76/76/76 77/77/77 
f 78/78/78 79/79/79 80/80/80 
f 78/78/78 80/80/80 81/81/81 
f 82/82/82 83/83/83 84/84/84 
f 82/82/82 84/84/84 85/85/85 
f 82/82/82 85/85/85 86/86/86 
f 82/82/82 86/86/86 87/87/87 
f 88/88/88 89/89/89 90/90/90 
f 88/88/88 90/90/90 91/91/91 
f 88/88/88 91/91/91 92/92/92 
f 93/93/93 94/94/94 95/95/95 
f 93/93/93 95/95/95 96/96/96 
f 97/97/97 98/98/98 99/99/99 
f 97/97/97 99/99/99 100/100/100 
f 97/97/97 100/100/100 101/101/101 
f 97/97/97 101/101/101 102/102/102 
f 103/103/103 104/104/104 105/105/105 
f 103/103/103 105/105/105 106/106/106 
f 107/107/107 108/108/108 109/109/109 
f 107/107/107 109/109/109 110/110/110 
f 111/111/111 112/112/112 113/113/113 
f 111/111/111 113/113/113 114/114/114 
f 115/115/115 116/116/116 117/117/117 
f 115/115/115 117/117/117 118/118/118 
f 119/119/119 120/120/120 92/92/92 
f 119/119/119 92/92/92 121/121/121 
f 122/122/122 57/57/57 123/123/123 
f 57/57/57 124/124/124 123/123/123 

