g grp108
v 18.493999 16.855600 -24.671400
v 18.340401 16.649000 -24.671400
v 18.340401 16.649000 -6.671360
v 18.493999 16.855600 -6.671360
v 19.005899 17.256500 -6.671360
v 19.005899 17.256500 -24.671400
v 18.493999 16.855600 -24.671400
v 19.005899 17.256500 -6.671360
v 19.582800 17.477200 -6.671360
v 19.582800 17.477200 -24.671400
v 20.185499 17.502501 -6.671360
v 20.185499 17.502501 -24.671400
v 20.772900 17.330799 -6.671360
v 20.772900 17.330799 -24.671400
v 21.304899 16.973801 -6.671360
v 21.304899 16.973801 -24.671400
v 21.581100 16.649000 -6.671360
v 21.581100 16.649000 -24.671400
vt 0.429717 -2.500000
vt 0.458149 -2.500000
vt 0.458149 -1.000000
vt 0.429717 -1.000000
vt 0.353359 -1.000000
vt 0.353359 -2.500000
vt 0.429717 -2.500000
vt 0.353359 -1.000000
vt 0.277001 -1.000000
vt 0.277001 -2.500000
vt 0.200642 -1.000000
vt 0.200642 -2.500000
vt 0.124284 -1.000000
vt 0.124284 -2.500000
vt 0.047926 -1.000000
vt 0.047926 -2.500000
vt -0.000000 -1.000000
vt -0.000000 -2.500000
vn -0.547053 0.837098 -0.000000
vn -0.647731 0.761869 -0.000000
vn -0.647731 0.761869 -0.000000
vn -0.547053 0.837098 -0.000000
vn -0.339516 0.940600 -0.000000
vn -0.339516 0.940600 -0.000000
vn -0.547053 0.837098 -0.000000
vn -0.339516 0.940600 -0.000000
vn -0.130720 0.991419 -0.000000
vn -0.130720 0.991419 -0.000000
vn 0.077528 0.996990 -0.000000
vn 0.077528 0.996990 -0.000000
vn 0.286166 0.958180 -0.000000
vn 0.286166 0.958180 -0.000000
vn 0.494537 0.869157 -0.000000
vn 0.494537 0.869157 -0.000000
vn 0.596777 0.802407 -0.000000
vn 0.596777 0.802407 -0.000000
usemtl mat2
f 1/1/1 2/2/2 3/3/3 
f 1/1/1 3/3/3 4/4/4 
f 4/4/4 5/5/5 6/6/6 
f 4/4/4 6/6/6 7/7/7 
f 8/8/8 9/9/9 10/10/10 
f 8/8/8 10/10/10 6/6/6 
f 9/9/9 11/11/11 12/12/12 
f 9/9/9 12/12/12 10/10/10 
f 11/11/11 13/13/13 14/14/14 
f 11/11/11 14/14/14 12/12/12 
f 13/13/13 15/15/15 16/16/16 
f 13/13/13 16/16/16 14/14/14 
f 17/17/17 18/18/18 16/16/16 
f 17/17/17 16/16/16 15/15/15 

