g grp27
v -199.766006 914.400024 -831.099976
v 3202.500000 914.400024 -831.099976
v 3202.500000 838.200012 -831.099976
v -199.766006 838.200012 -831.099976
v -199.766006 914.400024 -831.099976
v -199.766006 914.400024 -0.000000
v 3202.500000 914.400024 0.000000
v 3202.500000 914.400024 -831.099976
v 3202.500000 914.400024 -831.099976
v 3202.500000 914.400024 0.000000
v 3202.500000 838.200012 0.000000
v 3202.500000 838.200012 -119.900002
v 3202.500000 838.200012 -780.299988
v 3202.500000 838.200012 -831.099976
v 3202.500000 914.400024 0.000000
v -199.766006 914.400024 -0.000000
v -199.766006 838.200012 -0.000000
v 50.799999 838.200012 -0.000000
v 3202.500000 838.200012 0.000000
v 1165.699951 150.000000 -780.299988
v 1165.699951 150.000000 -710.000000
v 1165.699951 150.000000 -180.300003
v 1165.699951 838.200012 -180.300003
v 1165.699951 838.200012 -780.299988
v 1165.699951 150.000000 -780.299988
v 1615.699951 150.000000 -780.299988
v 1615.699951 150.000000 -710.000000
v 1165.699951 150.000000 -710.000000
v 1165.699951 150.000000 -780.299988
v 1167.699951 152.000000 -780.299988
v 1615.699951 150.000000 -780.299988
v 1165.699951 838.200012 -780.299988
v 1167.699951 836.200012 -780.299988
v 1613.699951 836.200012 -780.299988
v 1615.699951 838.200012 -780.299988
v 1613.699951 152.000000 -780.299988
v 1615.699951 150.000000 -780.299988
v 1613.699951 152.000000 -780.299988
v 1167.699951 152.000000 -780.299988
v 1167.699951 152.000000 -796.299988
v 1613.699951 152.000000 -796.299988
v 1167.699951 152.000000 -780.299988
v 1167.699951 836.200012 -780.299988
v 1167.699951 836.200012 -796.299988
v 1167.699951 152.000000 -796.299988
v 1167.699951 836.200012 -780.299988
v 1613.699951 836.200012 -780.299988
v 1613.699951 836.200012 -796.299988
v 1167.699951 836.200012 -796.299988
v 1613.699951 836.200012 -780.299988
v 1613.699951 152.000000 -780.299988
v 1613.699951 152.000000 -796.299988
v 1613.699951 836.200012 -796.299988
v 1613.699951 152.000000 -796.299988
v 1167.699951 152.000000 -796.299988
v 1167.699951 836.200012 -796.299988
v 1613.699951 836.200012 -796.299988
v 1617.699951 152.000000 -780.299988
v 1615.699951 150.000000 -780.299988
v 2065.699951 150.000000 -780.299988
v 2063.699951 152.000000 -780.299988
v 2065.699951 838.200012 -780.299988
v 2063.699951 836.200012 -780.299988
v 2063.699951 836.200012 -780.299988
v 2063.699951 152.000000 -780.299988
v 2063.699951 152.000000 -796.299988
v 2063.699951 836.200012 -796.299988
v 2063.699951 152.000000 -780.299988
v 1617.699951 152.000000 -780.299988
v 1617.699951 152.000000 -796.299988
v 2063.699951 152.000000 -796.299988
v 1617.699951 152.000000 -780.299988
v 1617.699951 836.200012 -780.299988
v 1617.699951 836.200012 -796.299988
v 1617.699951 152.000000 -796.299988
v 1617.699951 152.000000 -780.299988
v 1617.699951 836.200012 -780.299988
v 1617.699951 836.200012 -780.299988
v 2063.699951 836.200012 -780.299988
v 2063.699951 836.200012 -796.299988
v 1617.699951 836.200012 -796.299988
v 1617.699951 836.200012 -796.299988
v 2063.699951 836.200012 -796.299988
v 2063.699951 152.000000 -796.299988
v 1617.699951 152.000000 -796.299988
v 2067.699951 152.000000 -780.299988
v 2065.699951 150.000000 -780.299988
v 2515.699951 150.000000 -780.299988
v 2513.699951 152.000000 -780.299988
v 2067.699951 152.000000 -780.299988
v 2515.699951 150.000000 -780.299988
v 2515.699951 838.200012 -780.299988
v 2513.699951 836.200012 -780.299988
v 2513.699951 836.200012 -780.299988
v 2513.699951 152.000000 -780.299988
v 2513.699951 152.000000 -796.299988
v 2513.699951 836.200012 -796.299988
v 2513.699951 152.000000 -780.299988
v 2067.699951 152.000000 -780.299988
v 2067.699951 152.000000 -796.299988
v 2513.699951 152.000000 -796.299988
v 2067.699951 152.000000 -780.299988
v 2067.699951 836.200012 -780.299988
v 2067.699951 836.200012 -796.299988
v 2067.699951 152.000000 -796.299988
v 2067.699951 152.000000 -780.299988
v 2067.699951 836.200012 -780.299988
v 2513.699951 836.200012 -780.299988
v 2067.699951 836.200012 -780.299988
v 2513.699951 836.200012 -780.299988
v 2513.699951 836.200012 -796.299988
v 2067.699951 836.200012 -796.299988
v 2067.699951 836.200012 -796.299988
v 2513.699951 836.200012 -796.299988
v 2513.699951 152.000000 -796.299988
v 2067.699951 152.000000 -796.299988
v 2517.699951 152.000000 -780.299988
v 2515.699951 150.000000 -780.299988
v 2965.699951 150.000000 -780.299988
v 2963.699951 152.000000 -780.299988
v 2517.699951 152.000000 -780.299988
v 2965.699951 150.000000 -780.299988
v 2965.699951 838.200012 -780.299988
v 2963.699951 836.200012 -780.299988
v 2963.699951 836.200012 -780.299988
v 2963.699951 152.000000 -780.299988
v 2963.699951 152.000000 -796.299988
v 2963.699951 836.200012 -796.299988
v 2963.699951 152.000000 -780.299988
v 2517.699951 152.000000 -780.299988
v 2517.699951 152.000000 -796.299988
v 2963.699951 152.000000 -796.299988
v 2517.699951 152.000000 -780.299988
v 2517.699951 836.200012 -780.299988
v 2517.699951 836.200012 -796.299988
v 2517.699951 152.000000 -796.299988
v 2517.699951 152.000000 -780.299988
v 2517.699951 836.200012 -780.299988
v 2963.699951 836.200012 -780.299988
v 2517.699951 836.200012 -780.299988
v 2963.699951 836.200012 -780.299988
v 2963.699951 836.200012 -796.299988
v 2517.699951 836.200012 -796.299988
v 2963.699951 836.200012 -796.299988
v 2963.699951 152.000000 -796.299988
v 2517.699951 152.000000 -796.299988
v 2517.699951 836.200012 -796.299988
v 2515.699951 150.000000 -780.299988
v 2965.699951 150.000000 -780.299988
v 2965.699951 150.000000 -710.000000
v 2515.699951 150.000000 -710.000000
v 2065.699951 150.000000 -780.299988
v 2065.699951 150.000000 -710.000000
v 1615.699951 150.000000 -780.299988
v 1615.699951 150.000000 -710.000000
vt -3.071180 2.828000
vt -4.488800 2.828000
vt -4.488800 2.523200
vt -3.071180 2.523200
vt 2.908290 15.402300
vt 2.908290 12.077900
vt 4.325900 12.077900
vt 4.325900 15.402300
vt 4.000280 15.402300
vt 4.000280 12.077900
vt 4.000280 12.077900
vt 4.000280 12.557500
vt 4.000280 15.199100
vt 4.000280 15.402300
vt 4.488800 2.828000
vt 3.071180 2.828000
vt 3.071180 2.523200
vt 3.175590 2.523200
vt 4.488800 2.523200
vt -3.096070 23.783899
vt -3.096070 24.016600
vt -3.096090 25.769899
vt -3.333380 25.769699
vt -3.333360 23.783699
vt -3.895950 4.411140
vt -3.895930 2.921610
vt -3.871690 2.921630
vt -3.871710 4.411160
vt -3.095880 4.411840
vt -3.096570 4.405220
vt -3.095870 2.922310
vt -3.333170 4.411630
vt -3.332480 4.405010
vt -3.332470 2.928730
vt -3.333160 2.922110
vt -3.096560 2.928930
vt -3.095870 2.922310
vt -3.895930 2.928230
vt -3.895950 4.404520
vt -3.901460 4.404510
vt -3.901450 2.928230
vt -3.096760 23.783899
vt -3.332670 23.783699
vt -3.332670 23.730700
vt -3.096760 23.730900
vt -3.896480 59.798100
vt -3.896490 61.274399
vt -3.902010 61.274399
vt -3.902000 59.798100
vt -3.332830 40.419899
vt -3.096920 40.420101
vt -3.096920 40.473000
vt -3.332830 40.472900
vt -3.096560 2.928930
vt -3.096570 4.405220
vt -3.332480 4.405010
vt -3.332470 2.928730
vt -3.096560 2.915690
vt -3.095870 2.922310
vt -3.095850 1.432790
vt -3.096540 1.439410
vt -3.333140 1.432580
vt -3.332450 1.439200
vt -3.332830 40.419899
vt -3.096920 40.420101
vt -3.096920 40.473000
vt -3.332830 40.472900
vt -3.895920 1.438700
vt -3.895930 2.914990
vt -3.901450 2.914990
vt -3.901440 1.438700
vt -3.096760 23.783899
vt -3.332670 23.783699
vt -3.332670 23.730700
vt -3.096760 23.730900
vt -3.096560 2.915690
vt -3.332470 2.915490
vt -3.896490 61.287701
vt -3.896510 62.763901
vt -3.902020 62.763901
vt -3.902010 61.287701
vt -3.332470 2.915490
vt -3.332450 1.439200
vt -3.096540 1.439410
vt -3.096560 2.915690
vt -3.096540 1.426170
vt -3.095850 1.432790
vt -3.095840 -0.056733
vt -3.096530 -0.050114
vt -3.096540 1.426170
vt -3.095840 -0.056733
vt -3.333130 -0.056944
vt -3.332440 -0.050323
vt -3.332830 40.419899
vt -3.096920 40.420101
vt -3.096920 40.473000
vt -3.332830 40.472900
vt -3.895900 -0.050823
vt -3.895920 1.425460
vt -3.901440 1.425460
vt -3.901420 -0.050828
vt -3.096760 23.783899
vt -3.332670 23.783699
vt -3.332670 23.730700
vt -3.096760 23.730900
vt -3.096540 1.426170
vt -3.332450 1.425960
vt -3.332440 -0.050323
vt -3.896510 62.777199
vt -3.896520 64.253502
vt -3.902040 64.253502
vt -3.902020 62.777199
vt -3.332450 1.425960
vt -3.332440 -0.050323
vt -3.096530 -0.050114
vt -3.096540 1.426170
vt -3.096530 -0.063354
vt -3.095840 -0.056733
vt -3.095820 -1.546258
vt -3.096510 -1.539638
vt -3.096530 -0.063354
vt -3.095820 -1.546258
vt -3.333120 -1.546469
vt -3.332430 -1.539848
vt -3.332830 40.419899
vt -3.096920 40.420101
vt -3.096920 40.473000
vt -3.332830 40.472900
vt -3.895890 -1.540350
vt -3.895900 -0.064063
vt -3.901420 -0.064068
vt -3.901410 -1.540355
vt -3.096760 23.783899
vt -3.332670 23.783699
vt -3.332670 23.730700
vt -3.096760 23.730900
vt -3.096530 -0.063354
vt -3.332440 -0.063563
vt -3.332430 -1.539848
vt -3.896520 64.266701
vt -3.896540 65.742996
vt -3.902050 65.742996
vt -3.902040 64.266701
vt -3.332430 -1.539848
vt -3.096510 -1.539638
vt -3.096530 -0.063354
vt -3.332440 -0.063563
vt -3.895900 -0.057443
vt -3.895890 -1.546970
vt -3.871650 -1.546948
vt -3.871670 -0.057422
vt -3.895920 1.432080
vt -3.871680 1.432110
vt -3.895930 2.921610
vt -3.871690 2.921630
vn -0.000000 0.000000 -1.000000
vn -0.000000 0.000000 -1.000000
vn -0.000000 0.000000 -1.000000
vn -0.000000 0.000000 -1.000000
vn 0.000000 1.000000 -0.000000
vn 0.000000 1.000000 -0.000000
vn 0.000000 1.000000 -0.000000
vn 0.000000 1.000000 -0.000000
vn 1.000000 -0.000000 0.000000
vn 1.000000 -0.000000 0.000000
vn 1.000000 -0.000000 0.000000
vn 1.000000 -0.000000 0.000000
vn 1.000000 -0.000000 0.000000
vn 1.000000 -0.000000 0.000000
vn 0.000000 0.000000 1.000000
vn 0.000000 0.000000 1.000000
vn 0.000000 0.000000 1.000000
vn 0.000000 0.000000 1.000000
vn 0.000000 0.000000 1.000000
vn -1.000000 -0.000000 -0.000000
vn -1.000000 -0.000000 -0.000000
vn -1.000000 -0.000000 -0.000000
vn -1.000000 -0.000000 -0.000000
vn -1.000000 -0.000000 -0.000000
vn 0.000000 -1.000000 0.000000
vn 0.000000 -1.000000 0.000000
vn 0.000000 -1.000000 0.000000
vn 0.000000 -1.000000 0.000000
vn -0.000000 -0.000000 -1.000000
vn -0.000000 -0.000000 -1.000000
vn -0.000000 -0.000000 -1.000000
vn -0.000000 -0.000000 -1.000000
vn -0.000000 -0.000000 -1.000000
vn -0.000000 -0.000000 -1.000000
vn -0.000000 -0.000000 -1.000000
vn -0.000000 -0.000000 -1.000000
vn -0.000000 -0.000000 -1.000000
vn 0.000000 -1.000000 0.000000
vn 0.000000 -1.000000 0.000000
vn 0.000000 -1.000000 0.000000
vn 0.000000 -1.000000 0.000000
vn -1.000000 0.000000 0.000000
vn -1.000000 0.000000 0.000000
vn -1.000000 0.000000 0.000000
vn -1.000000 0.000000 0.000000
vn -0.000000 1.000000 -0.000000
vn -0.000000 1.000000 -0.000000
vn -0.000000 1.000000 -0.000000
vn -0.000000 1.000000 -0.000000
vn 1.000000 -0.000000 -0.000000
vn 1.000000 -0.000000 -0.000000
vn 1.000000 -0.000000 -0.000000
vn 1.000000 -0.000000 -0.000000
vn -0.000000 -0.000000 -1.000000
vn -0.000000 -0.000000 -1.000000
vn -0.000000 -0.000000 -1.000000
vn -0.000000 -0.000000 -1.000000
vn 0.000000 -0.000000 -1.000000
vn 0.000000 -0.000000 -1.000000
vn 0.000000 -0.000000 -1.000000
vn 0.000000 -0.000000 -1.000000
vn 0.000000 -0.000000 -1.000000
vn 0.000000 -0.000000 -1.000000
vn 1.000000 0.000000 0.000000
vn 1.000000 0.000000 0.000000
vn 1.000000 0.000000 0.000000
vn 1.000000 0.000000 0.000000
vn 0.000000 -1.000000 0.000000
vn 0.000000 -1.000000 0.000000
vn 0.000000 -1.000000 0.000000
vn 0.000000 -1.000000 0.000000
vn -1.000000 -0.000000 -0.000000
vn -1.000000 -0.000000 -0.000000
vn -1.000000 -0.000000 -0.000000
vn -1.000000 -0.000000 -0.000000
vn 0.000000 -0.000000 -1.000000
vn 0.000000 -0.000000 -1.000000
vn 0.000000 1.000000 -0.000000
vn 0.000000 1.000000 -0.000000
vn 0.000000 1.000000 -0.000000
vn 0.000000 1.000000 -0.000000
vn 0.000000 -0.000000 -1.000000
vn 0.000000 -0.000000 -1.000000
vn 0.000000 -0.000000 -1.000000
vn 0.000000 -0.000000 -1.000000
vn -0.000000 0.000000 -1.000000
vn -0.000000 0.000000 -1.000000
vn -0.000000 0.000000 -1.000000
vn -0.000000 0.000000 -1.000000
vn -0.000000 0.000000 -1.000000
vn -0.000000 0.000000 -1.000000
vn -0.000000 0.000000 -1.000000
vn -0.000000 0.000000 -1.000000
vn 1.000000 0.000000 0.000000
vn 1.000000 0.000000 0.000000
vn 1.000000 0.000000 0.000000
vn 1.000000 0.000000 0.000000
vn 0.000000 -1.000000 0.000000
vn 0.000000 -1.000000 0.000000
vn 0.000000 -1.000000 0.000000
vn 0.000000 -1.000000 0.000000
vn -1.000000 0.000000 -0.000000
vn -1.000000 0.000000 -0.000000
vn -1.000000 0.000000 -0.000000
vn -1.000000 0.000000 -0.000000
vn -0.000000 0.000000 -1.000000
vn -0.000000 0.000000 -1.000000
vn -0.000000 0.000000 -1.000000
vn -0.000000 1.000000 -0.000000
vn -0.000000 1.000000 -0.000000
vn -0.000000 1.000000 -0.000000
vn -0.000000 1.000000 -0.000000
vn 0.000000 -0.000000 -1.000000
vn 0.000000 -0.000000 -1.000000
vn 0.000000 -0.000000 -1.000000
vn 0.000000 -0.000000 -1.000000
vn -0.000000 0.000000 -1.000000
vn -0.000000 0.000000 -1.000000
vn -0.000000 0.000000 -1.000000
vn -0.000000 0.000000 -1.000000
vn -0.000000 0.000000 -1.000000
vn -0.000000 0.000000 -1.000000
vn -0.000000 0.000000 -1.000000
vn -0.000000 0.000000 -1.000000
vn 1.000000 0.000000 0.000000
vn 1.000000 0.000000 0.000000
vn 1.000000 0.000000 0.000000
vn 1.000000 0.000000 0.000000
vn 0.000000 -1.000000 0.000000
vn 0.000000 -1.000000 0.000000
vn 0.000000 -1.000000 0.000000
vn 0.000000 -1.000000 0.000000
vn -1.000000 -0.000000 -0.000000
vn -1.000000 -0.000000 -0.000000
vn -1.000000 -0.000000 -0.000000
vn -1.000000 -0.000000 -0.000000
vn -0.000000 0.000000 -1.000000
vn -0.000000 0.000000 -1.000000
vn -0.000000 0.000000 -1.000000
vn 0.000000 1.000000 -0.000000
vn 0.000000 1.000000 -0.000000
vn 0.000000 1.000000 -0.000000
vn 0.000000 1.000000 -0.000000
vn 0.000000 -0.000000 -1.000000
vn 0.000000 -0.000000 -1.000000
vn 0.000000 -0.000000 -1.000000
vn 0.000000 -0.000000 -1.000000
vn 0.000000 -1.000000 0.000000
vn 0.000000 -1.000000 0.000000
vn 0.000000 -1.000000 0.000000
vn 0.000000 -1.000000 0.000000
vn -0.000000 -1.000000 0.000000
vn -0.000000 -1.000000 0.000000
vn -0.000000 -1.000000 0.000000
vn -0.000000 -1.000000 0.000000
usemtl mat6
f 1/1/1 2/2/2 3/3/3 
f 1/1/1 3/3/3 4/4/4 
f 5/5/5 6/6/6 7/7/7 
f 5/5/5 7/7/7 8/8/8 
f 9/9/9 10/10/10 11/11/11 
f 9/9/9 11/11/11 12/12/12 
f 9/9/9 12/12/12 13/13/13 
f 9/9/9 13/13/13 14/14/14 
f 15/15/15 16/16/16 17/17/17 
f 15/15/15 17/17/17 18/18/18 
f 15/15/15 18/18/18 19/19/19 
f 20/20/20 21/21/21 22/22/22 
f 20/20/20 22/22/22 23/23/23 
f 20/20/20 23/23/23 24/24/24 
f 25/25/25 26/26/26 27/27/27 
f 25/25/25 27/27/27 28/28/28 
f 29/29/29 30/30/30 31/31/31 
f 30/30/30 29/29/29 32/32/32 
f 30/30/30 32/32/32 33/33/33 
f 33/33/33 32/32/32 34/34/34 
f 35/35/35 34/34/34 32/32/32 
f 35/35/35 36/36/36 34/34/34 
f 37/37/37 36/36/36 35/35/35 
f 36/36/36 37/37/37 30/30/30 
f 38/38/38 39/39/39 40/40/40 
f 38/38/38 40/40/40 41/41/41 
f 42/42/42 43/43/43 44/44/44 
f 42/42/42 44/44/44 45/45/45 
f 46/46/46 47/47/47 48/48/48 
f 46/46/46 48/48/48 49/49/49 
f 50/50/50 51/51/51 52/52/52 
f 50/50/50 52/52/52 53/53/53 
f 54/54/54 55/55/55 56/56/56 
f 54/54/54 56/56/56 57/57/57 
f 58/58/58 59/59/59 35/35/35 
f 59/59/59 58/58/58 60/60/60 
f 61/61/61 60/60/60 58/58/58 
f 60/60/60 61/61/61 62/62/62 
f 62/62/62 61/61/61 63/63/63 
f 64/64/64 65/65/65 66/66/66 
f 64/64/64 66/66/66 67/67/67 
f 68/68/68 69/69/69 70/70/70 
f 68/68/68 70/70/70 71/71/71 
f 72/72/72 73/73/73 74/74/74 
f 72/72/72 74/74/74 75/75/75 
f 76/76/76 35/35/35 77/77/77 
f 77/77/77 35/35/35 63/63/63 
f 62/62/62 63/63/63 35/35/35 
f 78/78/78 79/79/79 80/80/80 
f 78/78/78 80/80/80 81/81/81 
f 82/82/82 83/83/83 84/84/84 
f 82/82/82 84/84/84 85/85/85 
f 86/86/86 87/87/87 62/62/62 
f 87/87/87 86/86/86 88/88/88 
f 89/89/89 88/88/88 90/90/90 
f 91/91/91 89/89/89 92/92/92 
f 92/92/92 89/89/89 93/93/93 
f 94/94/94 95/95/95 96/96/96 
f 94/94/94 96/96/96 97/97/97 
f 98/98/98 99/99/99 100/100/100 
f 98/98/98 100/100/100 101/101/101 
f 102/102/102 103/103/103 104/104/104 
f 102/102/102 104/104/104 105/105/105 
f 106/106/106 62/62/62 107/107/107 
f 107/107/107 62/62/62 108/108/108 
f 92/92/92 108/108/108 62/62/62 
f 109/109/109 110/110/110 111/111/111 
f 109/109/109 111/111/111 112/112/112 
f 113/113/113 114/114/114 115/115/115 
f 113/113/113 115/115/115 116/116/116 
f 117/117/117 118/118/118 92/92/92 
f 118/118/118 117/117/117 119/119/119 
f 120/120/120 119/119/119 121/121/121 
f 122/122/122 120/120/120 123/123/123 
f 123/123/123 120/120/120 124/124/124 
f 125/125/125 126/126/126 127/127/127 
f 125/125/125 127/127/127 128/128/128 
f 129/129/129 130/130/130 131/131/131 
f 129/129/129 131/131/131 132/132/132 
f 133/133/133 134/134/134 135/135/135 
f 133/133/133 135/135/135 136/136/136 
f 137/137/137 92/92/92 138/138/138 
f 138/138/138 92/92/92 139/139/139 
f 123/123/123 139/139/139 92/92/92 
f 140/140/140 141/141/141 142/142/142 
f 140/140/140 142/142/142 143/143/143 
f 144/144/144 145/145/145 146/146/146 
f 144/144/144 146/146/146 147/147/147 
f 148/148/148 149/149/149 150/150/150 
f 148/148/148 150/150/150 151/151/151 
f 152/152/152 148/148/148 151/151/151 
f 152/152/152 151/151/151 153/153/153 
f 154/154/154 152/152/152 153/153/153 
f 154/154/154 153/153/153 155/155/155 

