g grp14
v 77.574600 16.973801 -24.671400
v 78.106598 17.330799 -24.671400
v 78.693901 17.502501 -24.671400
v 79.296600 17.477200 -24.671400
v 79.873596 17.256500 -24.671400
v 80.385498 16.855600 -24.671400
v 80.539101 16.649000 -24.671400
v 78.918800 14.611300 -24.671400
v 77.298401 16.649000 -24.671400
v 79.873596 17.256500 -6.671360
v 79.296600 17.477200 -6.671360
v 78.693901 17.502501 -6.671360
v 78.106598 17.330799 -6.671360
v 77.574600 16.973801 -6.671360
v 77.298401 16.649000 -6.671360
v 78.918800 14.611300 -6.671360
v 80.539101 16.649000 -6.671360
v 80.385498 16.855600 -6.671360
vt -0.287738 -0.952289
vt -0.265585 -0.879443
vt -0.225333 -0.814812
vt -0.169725 -0.762802
vt -0.102550 -0.726956
vt -0.028387 -0.709718
vt -0.000000 -0.710667
vt -0.000000 -1.000000
vt -0.289333 -1.000000
vt 0.102550 -0.726956
vt 0.169725 -0.762802
vt 0.225333 -0.814812
vt 0.265585 -0.879443
vt 0.287738 -0.952289
vt 0.289333 -1.000000
vt 0.000000 -1.000000
vt 0.000000 -0.710667
vt 0.028387 -0.709718
vn -0.000000 -0.000000 -1.000000
vn -0.000000 -0.000000 -1.000000
vn -0.000000 -0.000000 -1.000000
vn -0.000000 -0.000000 -1.000000
vn -0.000000 -0.000000 -1.000000
vn -0.000000 -0.000000 -1.000000
vn -0.000000 -0.000000 -1.000000
vn -0.000000 -0.000000 -1.000000
vn -0.000000 -0.000000 -1.000000
vn 0.000000 0.000000 1.000000
vn 0.000000 0.000000 1.000000
vn 0.000000 0.000000 1.000000
vn 0.000000 0.000000 1.000000
vn 0.000000 0.000000 1.000000
vn 0.000000 0.000000 1.000000
vn 0.000000 0.000000 1.000000
vn 0.000000 0.000000 1.000000
vn 0.000000 0.000000 1.000000
usemtl mat1
f 1/1/1 2/2/2 3/3/3 
f 1/1/1 3/3/3 4/4/4 
f 1/1/1 4/4/4 5/5/5 
f 1/1/1 5/5/5 6/6/6 
f 1/1/1 6/6/6 7/7/7 
f 1/1/1 7/7/7 8/8/8 
f 1/1/1 8/8/8 9/9/9 
f 10/10/10 11/11/11 12/12/12 
f 10/10/10 12/12/12 13/13/13 
f 10/10/10 13/13/13 14/14/14 
f 10/10/10 14/14/14 15/15/15 
f 10/10/10 15/15/15 16/16/16 
f 10/10/10 16/16/16 17/17/17 
f 10/10/10 17/17/17 18/18/18 

