g grp27
v 71.287003 17.716499 -24.671400
v 71.819000 18.073601 -24.671400
v 71.819000 18.073601 -6.671360
v 71.287003 17.716499 -6.671360
v 72.095100 18.398300 -24.671400
v 72.095100 18.398300 -6.671360
v 69.008102 18.191700 -6.671360
v 68.854401 18.398300 -6.671360
v 68.854401 18.398300 -24.671400
v 69.008102 18.191700 -24.671400
v 69.519997 17.790800 -24.671400
v 70.096901 17.570200 -24.671400
v 70.096901 17.570200 -6.671360
v 69.519997 17.790800 -6.671360
v 70.699600 17.544800 -24.671400
v 70.699600 17.544800 -6.671360
v 71.287003 17.716499 -24.671400
v 69.519997 17.790800 -24.671400
vt 0.124284 -2.500000
vt 0.047926 -2.500000
vt 0.047926 -1.000000
vt 0.124284 -1.000000
vt -0.000000 -2.500000
vt -0.000000 -1.000000
vt 0.429717 -1.000000
vt 0.458149 -1.000000
vt 0.458149 -2.500000
vt 0.429717 -2.500000
vt 0.353359 -2.500000
vt 0.277001 -2.500000
vt 0.277001 -1.000000
vt 0.353359 -1.000000
vt 0.200642 -2.500000
vt 0.200642 -1.000000
vt 0.124284 -2.500000
vt 0.353359 -2.500000
vn 0.286166 -0.958180 -0.000000
vn 0.494537 -0.869157 -0.000000
vn 0.494537 -0.869157 -0.000000
vn 0.286166 -0.958180 -0.000000
vn 0.596777 -0.802407 -0.000000
vn 0.596777 -0.802407 -0.000000
vn -0.547053 -0.837098 -0.000000
vn -0.647731 -0.761869 -0.000000
vn -0.647731 -0.761869 -0.000000
vn -0.547053 -0.837098 -0.000000
vn -0.339516 -0.940600 -0.000000
vn -0.130720 -0.991419 -0.000000
vn -0.130720 -0.991419 -0.000000
vn -0.339516 -0.940600 -0.000000
vn 0.077528 -0.996990 -0.000000
vn 0.077528 -0.996990 -0.000000
vn 0.286166 -0.958180 -0.000000
vn -0.339516 -0.940600 -0.000000
usemtl mat2
f 1/1/1 2/2/2 3/3/3 
f 1/1/1 3/3/3 4/4/4 
f 3/3/3 2/2/2 5/5/5 
f 3/3/3 5/5/5 6/6/6 
f 7/7/7 8/8/8 9/9/9 
f 7/7/7 9/9/9 10/10/10 
f 11/11/11 12/12/12 13/13/13 
f 11/11/11 13/13/13 14/14/14 
f 12/12/12 15/15/15 16/16/16 
f 12/12/12 16/16/16 13/13/13 
f 15/15/15 17/17/17 4/4/4 
f 15/15/15 4/4/4 16/16/16 
f 10/10/10 18/18/18 14/14/14 
f 10/10/10 14/14/14 7/7/7 

