g grp150
v 14.883800 10.523900 -24.671400
v 14.891300 10.241200 -24.671400
v 14.891300 10.241200 -6.671360
v 14.883800 10.523900 -6.671360
v 15.020300 11.262600 -6.671360
v 15.020300 11.262600 -24.671400
v 14.883800 10.523900 -24.671400
v 15.020300 11.262600 -6.671360
v 15.304200 11.931600 -6.671360
v 15.304200 11.931600 -24.671400
v 15.716200 12.485500 -6.671360
v 15.716200 12.485500 -24.671400
v 16.228001 12.886400 -6.671360
v 16.228001 12.886400 -24.671400
v 16.805000 13.107100 -6.671360
v 16.805000 13.107100 -24.671400
v 17.182800 13.122900 -6.671360
v 17.182800 13.122900 -24.671400
v 16.805000 13.107100 -6.671360
vt 0.429717 -2.500000
vt 0.458149 -2.500000
vt 0.458149 -1.000000
vt 0.429717 -1.000000
vt 0.353359 -1.000000
vt 0.353359 -2.500000
vt 0.429717 -2.500000
vt 0.353359 -1.000000
vt 0.277001 -1.000000
vt 0.277001 -2.500000
vt 0.200642 -1.000000
vt 0.200642 -2.500000
vt 0.124284 -1.000000
vt 0.124284 -2.500000
vt 0.047926 -1.000000
vt 0.047926 -2.500000
vt -0.000000 -1.000000
vt -0.000000 -2.500000
vt 0.047926 -1.000000
vn -0.992523 0.122060 -0.000000
vn -0.999117 -0.042005 -0.000000
vn -0.999117 -0.042005 -0.000000
vn -0.992523 0.122060 -0.000000
vn -0.904214 0.427080 -0.000000
vn -0.904214 0.427080 -0.000000
vn -0.992523 0.122060 -0.000000
vn -0.904214 0.427080 -0.000000
vn -0.743351 0.668902 -0.000000
vn -0.743351 0.668902 -0.000000
vn -0.547053 0.837098 -0.000000
vn -0.547053 0.837098 -0.000000
vn -0.339516 0.940600 -0.000000
vn -0.339516 0.940600 -0.000000
vn -0.130720 0.991419 -0.000000
vn -0.130720 0.991419 -0.000000
vn -0.026574 0.999647 -0.000000
vn -0.026574 0.999647 -0.000000
vn -0.130720 0.991419 -0.000000
usemtl mat2
f 1/1/1 2/2/2 3/3/3 
f 1/1/1 3/3/3 4/4/4 
f 4/4/4 5/5/5 6/6/6 
f 4/4/4 6/6/6 7/7/7 
f 8/8/8 9/9/9 10/10/10 
f 8/8/8 10/10/10 6/6/6 
f 9/9/9 11/11/11 12/12/12 
f 9/9/9 12/12/12 10/10/10 
f 11/11/11 13/13/13 14/14/14 
f 11/11/11 14/14/14 12/12/12 
f 13/13/13 15/15/15 16/16/16 
f 13/13/13 16/16/16 14/14/14 
f 17/17/17 18/18/18 16/16/16 
f 17/17/17 16/16/16 19/19/19 

