g grp129
v 11.612400 13.552000 -24.671400
v 11.619900 13.269200 -24.671400
v 11.619900 13.269200 -6.671360
v 11.612400 13.552000 -6.671360
v 11.748900 14.290600 -6.671360
v 11.748900 14.290600 -24.671400
v 11.612400 13.552000 -24.671400
v 11.748900 14.290600 -6.671360
v 12.032800 14.959700 -6.671360
v 12.032800 14.959700 -24.671400
v 12.444700 15.513600 -6.671360
v 12.444700 15.513600 -24.671400
v 12.956600 15.914500 -6.671360
v 12.956600 15.914500 -24.671400
v 13.533500 16.135099 -6.671360
v 13.533500 16.135099 -24.671400
v 13.911400 16.150999 -6.671360
v 13.911400 16.150999 -24.671400
v 13.533500 16.135099 -6.671360
vt 0.429717 -2.500000
vt 0.458149 -2.500000
vt 0.458149 -1.000000
vt 0.429717 -1.000000
vt 0.353359 -1.000000
vt 0.353359 -2.500000
vt 0.429717 -2.500000
vt 0.353359 -1.000000
vt 0.277001 -1.000000
vt 0.277001 -2.500000
vt 0.200642 -1.000000
vt 0.200642 -2.500000
vt 0.124284 -1.000000
vt 0.124284 -2.500000
vt 0.047926 -1.000000
vt 0.047926 -2.500000
vt -0.000000 -1.000000
vt -0.000000 -2.500000
vt 0.047926 -1.000000
vn -0.992523 0.122060 -0.000000
vn -0.999117 -0.042005 -0.000000
vn -0.999117 -0.042005 -0.000000
vn -0.992523 0.122060 -0.000000
vn -0.904214 0.427080 -0.000000
vn -0.904214 0.427080 -0.000000
vn -0.992523 0.122060 -0.000000
vn -0.904214 0.427080 -0.000000
vn -0.743351 0.668902 -0.000000
vn -0.743351 0.668902 -0.000000
vn -0.547053 0.837098 -0.000000
vn -0.547053 0.837098 -0.000000
vn -0.339516 0.940600 -0.000000
vn -0.339516 0.940600 -0.000000
vn -0.130720 0.991419 -0.000000
vn -0.130720 0.991419 -0.000000
vn -0.026574 0.999647 -0.000000
vn -0.026574 0.999647 -0.000000
vn -0.130720 0.991419 -0.000000
usemtl mat2
f 1/1/1 2/2/2 3/3/3 
f 1/1/1 3/3/3 4/4/4 
f 4/4/4 5/5/5 6/6/6 
f 4/4/4 6/6/6 7/7/7 
f 8/8/8 9/9/9 10/10/10 
f 8/8/8 10/10/10 6/6/6 
f 9/9/9 11/11/11 12/12/12 
f 9/9/9 12/12/12 10/10/10 
f 11/11/11 13/13/13 14/14/14 
f 11/11/11 14/14/14 12/12/12 
f 13/13/13 15/15/15 16/16/16 
f 13/13/13 16/16/16 14/14/14 
f 17/17/17 18/18/18 16/16/16 
f 17/17/17 16/16/16 19/19/19 

