g grp31
v 1165.699951 0.000000 -180.300003
v 1165.699951 150.000000 -180.300003
v 1165.699951 150.000000 -710.000000
v 1165.699951 0.000000 -710.000000
v 2965.699951 150.000000 -710.000000
v 2965.699951 0.000000 -710.000000
v 1165.699951 0.000000 -710.000000
v 1165.699951 150.000000 -710.000000
v 1615.699951 150.000000 -710.000000
v 2065.699951 150.000000 -710.000000
v 2515.699951 150.000000 -710.000000
vt -84.484299 -5.734400
vt -83.253098 -5.734400
vt -83.253098 -1.386608
vt -84.484299 -1.386613
vt -83.253098 13.387700
vt -84.484299 13.387800
vt -84.484299 -1.386613
vt -83.253098 -1.386608
vt -83.253098 2.306990
vt -83.253098 6.000580
vt -83.253098 9.694200
vn -1.000000 0.000000 -0.000000
vn -1.000000 0.000000 -0.000000
vn -1.000000 0.000000 -0.000000
vn -1.000000 0.000000 -0.000000
vn 0.000000 -0.000000 -1.000000
vn 0.000000 -0.000000 -1.000000
vn 0.000000 -0.000000 -1.000000
vn 0.000000 -0.000000 -1.000000
vn 0.000000 -0.000000 -1.000000
vn 0.000000 -0.000000 -1.000000
vn 0.000000 -0.000000 -1.000000
usemtl mat0
f 1/1/1 2/2/2 3/3/3 
f 1/1/1 3/3/3 4/4/4 
f 5/5/5 6/6/6 7/7/7 
f 5/5/5 7/7/7 8/8/8 
f 5/5/5 8/8/8 9/9/9 
f 5/5/5 9/9/9 10/10/10 
f 5/5/5 10/10/10 11/11/11 

