g grp120
v 29.871401 18.191700 -24.671400
v 30.025000 18.398300 -24.671400
v 30.025000 18.398300 -6.671360
v 29.871401 18.191700 -6.671360
v 29.359501 17.790800 -6.671360
v 29.359501 17.790800 -24.671400
v 29.871401 18.191700 -24.671400
v 29.359501 17.790800 -6.671360
v 28.782600 17.570200 -6.671360
v 28.782600 17.570200 -24.671400
v 28.179899 17.544800 -6.671360
v 28.179899 17.544800 -24.671400
v 27.592501 17.716499 -6.671360
v 27.592501 17.716499 -24.671400
v 27.060499 18.073601 -6.671360
v 27.060499 18.073601 -24.671400
v 26.784401 18.398300 -6.671360
v 26.784401 18.398300 -24.671400
v 27.060499 18.073601 -6.671360
vt 0.429717 -2.500000
vt 0.458149 -2.500000
vt 0.458149 -1.000000
vt 0.429717 -1.000000
vt 0.353359 -1.000000
vt 0.353359 -2.500000
vt 0.429717 -2.500000
vt 0.353359 -1.000000
vt 0.277001 -1.000000
vt 0.277001 -2.500000
vt 0.200642 -1.000000
vt 0.200642 -2.500000
vt 0.124284 -1.000000
vt 0.124284 -2.500000
vt 0.047926 -1.000000
vt 0.047926 -2.500000
vt -0.000000 -1.000000
vt -0.000000 -2.500000
vt 0.047926 -1.000000
vn 0.547053 -0.837098 -0.000000
vn 0.647731 -0.761869 -0.000000
vn 0.647731 -0.761869 -0.000000
vn 0.547053 -0.837098 -0.000000
vn 0.339516 -0.940600 -0.000000
vn 0.339516 -0.940600 -0.000000
vn 0.547053 -0.837098 -0.000000
vn 0.339516 -0.940600 -0.000000
vn 0.130720 -0.991419 -0.000000
vn 0.130720 -0.991419 -0.000000
vn -0.077528 -0.996990 -0.000000
vn -0.077528 -0.996990 -0.000000
vn -0.286166 -0.958180 -0.000000
vn -0.286166 -0.958180 -0.000000
vn -0.494537 -0.869157 -0.000000
vn -0.494537 -0.869157 -0.000000
vn -0.596777 -0.802407 -0.000000
vn -0.596777 -0.802407 -0.000000
vn -0.494537 -0.869157 -0.000000
usemtl mat2
f 1/1/1 2/2/2 3/3/3 
f 1/1/1 3/3/3 4/4/4 
f 4/4/4 5/5/5 6/6/6 
f 4/4/4 6/6/6 7/7/7 
f 8/8/8 9/9/9 10/10/10 
f 8/8/8 10/10/10 6/6/6 
f 9/9/9 11/11/11 12/12/12 
f 9/9/9 12/12/12 10/10/10 
f 11/11/11 13/13/13 14/14/14 
f 11/11/11 14/14/14 12/12/12 
f 13/13/13 15/15/15 16/16/16 
f 13/13/13 16/16/16 14/14/14 
f 17/17/17 18/18/18 16/16/16 
f 17/17/17 16/16/16 19/19/19 

