g grp16
v 1105.310059 244.992004 -224.750000
v 565.565002 244.992004 -224.750000
v 565.565002 244.992004 -783.549988
v 1105.310059 244.992004 -783.549988
v 1105.310059 244.992004 -224.750000
v 1105.310059 257.691986 -224.750000
v 565.565002 257.691986 -224.750000
v 565.565002 244.992004 -224.750000
v 1105.310059 257.691986 -224.750000
v 1105.310059 244.992004 -224.750000
v 1105.310059 244.992004 -783.549988
v 1105.310059 257.691986 -783.549988
v 1105.310059 257.691986 -783.549988
v 1105.310059 244.992004 -783.549988
v 565.565002 244.992004 -783.549988
v 565.565002 257.691986 -783.549988
v 565.565002 244.992004 -224.750000
v 565.565002 257.691986 -224.750000
v 565.565002 257.691986 -783.549988
v 565.565002 244.992004 -783.549988
v 565.565002 257.691986 -224.750000
v 1105.310059 257.691986 -224.750000
v 1105.310059 257.691986 -783.549988
v 565.565002 257.691986 -783.549988
vt 0.000000 21.000000
vt -21.250000 21.000000
vt -21.250000 -1.000000
vt 0.000000 -1.000000
vt 0.000000 -1.000000
vt 0.000000 -0.500000
vt -21.250000 -0.500000
vt -21.250000 -1.000000
vt -22.000000 -0.500000
vt -22.000000 -1.000000
vt 0.000000 -1.000000
vt 0.000000 -0.500000
vt 0.000000 -0.500000
vt 0.000000 -1.000000
vt 21.250000 -1.000000
vt 21.250000 -0.500000
vt 22.000000 -1.000000
vt 22.000000 -0.500000
vt -0.000000 -0.500000
vt -0.000000 -1.000000
vt 21.250000 21.000000
vt 0.000000 21.000000
vt 0.000000 -1.000000
vt 21.250000 -1.000000
vn 0.000000 -1.000000 0.000000
vn 0.000000 -1.000000 0.000000
vn 0.000000 -1.000000 0.000000
vn 0.000000 -1.000000 0.000000
vn 0.000000 0.000000 1.000000
vn 0.000000 0.000000 1.000000
vn 0.000000 0.000000 1.000000
vn 0.000000 0.000000 1.000000
vn 1.000000 0.000000 -0.000000
vn 1.000000 0.000000 -0.000000
vn 1.000000 0.000000 -0.000000
vn 1.000000 0.000000 -0.000000
vn -0.000000 0.000000 -1.000000
vn -0.000000 0.000000 -1.000000
vn -0.000000 0.000000 -1.000000
vn -0.000000 0.000000 -1.000000
vn -1.000000 0.000000 0.000000
vn -1.000000 0.000000 0.000000
vn -1.000000 0.000000 0.000000
vn -1.000000 0.000000 0.000000
vn 0.000000 1.000000 -0.000000
vn 0.000000 1.000000 -0.000000
vn 0.000000 1.000000 -0.000000
vn 0.000000 1.000000 -0.000000
usemtl mat2
f 1/1/1 2/2/2 3/3/3 
f 1/1/1 3/3/3 4/4/4 
f 5/5/5 6/6/6 7/7/7 
f 5/5/5 7/7/7 8/8/8 
f 9/9/9 10/10/10 11/11/11 
f 9/9/9 11/11/11 12/12/12 
f 13/13/13 14/14/14 15/15/15 
f 13/13/13 15/15/15 16/16/16 
f 17/17/17 18/18/18 19/19/19 
f 17/17/17 19/19/19 20/20/20 
f 21/21/21 22/22/22 23/23/23 
f 21/21/21 23/23/23 24/24/24 

