g grp170
v 23.325600 10.151100 -6.671360
v 24.471399 12.646700 -6.671360
v 24.471399 12.646700 -24.671400
v 23.325600 10.151100 -24.671400
v 24.471399 12.646700 -6.671360
v 26.455900 11.205900 -6.671360
v 26.455900 11.205900 -24.671400
v 24.471399 12.646700 -24.671400
vt -0.614115 -0.861832
vt -0.336833 -0.762549
vt -0.851547 0.674980
vt -1.128830 0.575690
vt -0.989185 -3.174140
vt -0.660090 -3.077550
vt -1.160840 -1.371411
vt -1.489930 -1.467999
vn -0.809202 0.587531 -0.000000
vn -0.809202 0.587531 -0.000000
vn -0.809202 0.587531 -0.000000
vn -0.809202 0.587531 -0.000000
vn 0.417229 0.908801 -0.000000
vn 0.417229 0.908801 -0.000000
vn 0.417229 0.908801 -0.000000
vn 0.417229 0.908801 -0.000000
usemtl mat3
f 1/1/1 2/2/2 3/3/3 
f 1/1/1 3/3/3 4/4/4 
f 5/5/5 6/6/6 7/7/7 
f 5/5/5 7/7/7 8/8/8 

