g grp30
v -199.766006 838.200012 -780.299988
v -124.199997 838.200012 -780.299988
v -124.199997 0.000000 -780.299988
v -199.766006 -0.000000 -780.299988
v -124.199997 0.000000 -780.299988
v -124.199997 838.200012 -780.299988
v -124.199997 838.200012 -180.300003
v -124.199997 0.000000 -180.300003
v -124.199997 838.200012 -180.300003
v 1165.699951 838.200012 -180.300003
v 1165.699951 150.000000 -180.300003
v 1165.699951 0.000000 -180.300003
v -124.199997 0.000000 -180.300003
v 3065.699951 0.000000 -780.299988
v 2965.699951 0.000000 -780.299988
v 2965.699951 150.000000 -780.299988
v 2965.699951 838.200012 -780.299988
v 3065.699951 838.200012 -780.299988
v -199.766006 -0.000000 -119.900002
v 3065.699951 0.000000 -119.900002
v 3065.699951 838.200012 -119.900002
v 50.799999 838.200012 -119.900002
v -199.766006 838.200012 -119.900002
v 3065.699951 838.200012 -780.299988
v 3065.699951 838.200012 -119.900002
v 3065.699951 0.000000 -119.900002
v 3065.699951 0.000000 -780.299988
v 3202.500000 838.200012 -780.299988
v 3202.500000 838.200012 -119.900002
v 3065.699951 838.200012 -119.900002
v 3065.699951 838.200012 -780.299988
v -199.766006 -0.000000 -119.900002
v -199.766006 838.200012 -119.900002
v -199.766006 838.200012 -780.299988
v -199.766006 -0.000000 -780.299988
v 2965.699951 150.000000 -780.299988
v 2965.699951 0.000000 -780.299988
v 2965.699951 0.000000 -710.000000
v 2965.699951 150.000000 -710.000000
vt -34.431400 0.636360
vt -34.348701 0.636360
vt -34.348701 -0.863636
vt -34.431400 -0.863636
vt -34.048000 -0.863636
vt -34.048000 0.636360
vt -34.704102 0.636360
vt -34.704102 -0.863636
vt -34.348701 0.636360
vt -32.938099 0.636360
vt -32.938099 -0.595204
vt -32.938099 -0.863636
vt -34.348701 -0.863636
vt -30.860201 -0.863636
vt -30.969601 -0.863636
vt -30.969601 -0.595204
vt -30.969601 0.636360
vt -30.860201 0.636360
vt -34.605499 -0.863636
vt -38.176701 -0.863636
vt -38.176701 0.636360
vt -34.879601 0.636360
vt -34.605499 0.636360
vt -36.324001 0.636360
vt -35.601799 0.636360
vt -35.601799 -0.863636
vt -36.324001 -0.863636
vt -20.191601 6.393670
vt -20.191601 5.211850
vt -20.341200 5.211850
vt -20.341200 6.393670
vt -34.879601 -0.863636
vt -34.879601 0.636360
vt -34.157299 0.636360
vt -34.157299 -0.863636
vt -30.969601 -0.595204
vt -30.969601 -0.863636
vt -30.892700 -0.863636
vt -30.892700 -0.595204
vn -0.000000 -0.000000 -1.000000
vn -0.000000 -0.000000 -1.000000
vn -0.000000 -0.000000 -1.000000
vn -0.000000 -0.000000 -1.000000
vn 1.000000 0.000000 0.000000
vn 1.000000 0.000000 0.000000
vn 1.000000 0.000000 0.000000
vn 1.000000 0.000000 0.000000
vn 0.000000 -0.000000 -1.000000
vn 0.000000 -0.000000 -1.000000
vn 0.000000 -0.000000 -1.000000
vn 0.000000 -0.000000 -1.000000
vn 0.000000 -0.000000 -1.000000
vn -0.000000 0.000000 -1.000000
vn -0.000000 0.000000 -1.000000
vn -0.000000 0.000000 -1.000000
vn -0.000000 0.000000 -1.000000
vn -0.000000 0.000000 -1.000000
vn -0.000000 0.000000 1.000000
vn -0.000000 0.000000 1.000000
vn -0.000000 0.000000 1.000000
vn -0.000000 0.000000 1.000000
vn -0.000000 0.000000 1.000000
vn 1.000000 0.000000 0.000000
vn 1.000000 0.000000 0.000000
vn 1.000000 0.000000 0.000000
vn 1.000000 0.000000 0.000000
vn 0.000000 -1.000000 0.000000
vn 0.000000 -1.000000 0.000000
vn 0.000000 -1.000000 0.000000
vn 0.000000 -1.000000 0.000000
vn -1.000000 0.000000 0.000000
vn -1.000000 0.000000 0.000000
vn -1.000000 0.000000 0.000000
vn -1.000000 0.000000 0.000000
vn -1.000000 -0.000000 -0.000000
vn -1.000000 -0.000000 -0.000000
vn -1.000000 -0.000000 -0.000000
vn -1.000000 -0.000000 -0.000000
usemtl mat9
f 1/1/1 2/2/2 3/3/3 
f 1/1/1 3/3/3 4/4/4 
f 5/5/5 6/6/6 7/7/7 
f 5/5/5 7/7/7 8/8/8 
f 9/9/9 10/10/10 11/11/11 
f 9/9/9 11/11/11 12/12/12 
f 9/9/9 12/12/12 13/13/13 
f 14/14/14 15/15/15 16/16/16 
f 14/14/14 16/16/16 17/17/17 
f 14/14/14 17/17/17 18/18/18 
f 19/19/19 20/20/20 21/21/21 
f 19/19/19 21/21/21 22/22/22 
f 19/19/19 22/22/22 23/23/23 
f 24/24/24 25/25/25 26/26/26 
f 24/24/24 26/26/26 27/27/27 
f 28/28/28 29/29/29 30/30/30 
f 28/28/28 30/30/30 31/31/31 
f 32/32/32 33/33/33 34/34/34 
f 32/32/32 34/34/34 35/35/35 
f 36/36/36 37/37/37 38/38/38 
f 36/36/36 38/38/38 39/39/39 

