g grp88
v 77.412003 16.327499 -24.671400
v 75.791702 18.365200 -24.671400
v 75.791702 18.365200 -6.671360
v 77.412003 16.327499 -6.671360
v 75.791702 18.365200 -24.671400
v 74.171303 16.327499 -24.671400
v 74.171303 16.327499 -6.671360
v 75.791702 18.365200 -6.671360
vt -1.128830 0.575690
vt -0.851547 0.674980
vt -0.336833 -0.762549
vt -0.614115 -0.861832
vt -1.489930 -1.467999
vt -1.160840 -1.371411
vt -0.660090 -3.077550
vt -0.989185 -3.174140
vn 0.622392 0.782705 -0.000000
vn 0.622392 0.782705 -0.000000
vn 0.622392 0.782705 -0.000000
vn 0.622392 0.782705 -0.000000
vn -0.622392 0.782705 -0.000000
vn -0.622392 0.782705 -0.000000
vn -0.622392 0.782705 -0.000000
vn -0.622392 0.782705 -0.000000
usemtl mat3
f 1/1/1 2/2/2 3/3/3 
f 1/1/1 3/3/3 4/4/4 
f 5/5/5 6/6/6 7/7/7 
f 5/5/5 7/7/7 8/8/8 

