g grp50
v 88.078796 13.438500 -24.671400
v 88.362701 12.769400 -24.671400
v 88.499298 12.030700 -24.671400
v 88.479103 11.272800 -24.671400
v 88.303703 10.547200 -24.671400
v 87.984901 9.903520 -24.671400
v 87.820602 9.710280 -24.671400
v 86.200203 11.748000 -24.671400
v 87.820602 13.785700 -24.671400
v 88.303703 10.547200 -6.671360
v 88.479103 11.272800 -6.671360
v 88.499298 12.030700 -6.671360
v 88.362701 12.769400 -6.671360
v 88.078796 13.438500 -6.671360
v 87.820602 13.785700 -6.671360
v 86.200203 11.748000 -6.671360
v 87.820602 9.710280 -6.671360
v 87.984901 9.903520 -6.671360
vt -0.287738 -0.952289
vt -0.265585 -0.879443
vt -0.225333 -0.814812
vt -0.169725 -0.762802
vt -0.102550 -0.726956
vt -0.028387 -0.709718
vt -0.000000 -0.710667
vt -0.000000 -1.000000
vt -0.289333 -1.000000
vt 0.102550 -0.726956
vt 0.169725 -0.762802
vt 0.225333 -0.814812
vt 0.265585 -0.879443
vt 0.287738 -0.952289
vt 0.289333 -1.000000
vt 0.000000 -1.000000
vt 0.000000 -0.710667
vt 0.028387 -0.709718
vn -0.000000 0.000000 -1.000000
vn -0.000000 0.000000 -1.000000
vn -0.000000 0.000000 -1.000000
vn -0.000000 0.000000 -1.000000
vn -0.000000 0.000000 -1.000000
vn -0.000000 0.000000 -1.000000
vn -0.000000 0.000000 -1.000000
vn -0.000000 0.000000 -1.000000
vn -0.000000 0.000000 -1.000000
vn 0.000000 0.000000 1.000000
vn 0.000000 0.000000 1.000000
vn 0.000000 0.000000 1.000000
vn 0.000000 0.000000 1.000000
vn 0.000000 0.000000 1.000000
vn 0.000000 0.000000 1.000000
vn 0.000000 0.000000 1.000000
vn 0.000000 0.000000 1.000000
vn 0.000000 0.000000 1.000000
usemtl mat1
f 1/1/1 2/2/2 3/3/3 
f 1/1/1 3/3/3 4/4/4 
f 1/1/1 4/4/4 5/5/5 
f 1/1/1 5/5/5 6/6/6 
f 1/1/1 6/6/6 7/7/7 
f 1/1/1 7/7/7 8/8/8 
f 1/1/1 8/8/8 9/9/9 
f 10/10/10 11/11/11 12/12/12 
f 10/10/10 12/12/12 13/13/13 
f 10/10/10 13/13/13 14/14/14 
f 10/10/10 14/14/14 15/15/15 
f 10/10/10 15/15/15 16/16/16 
f 10/10/10 16/16/16 17/17/17 
f 10/10/10 17/17/17 18/18/18 

