g grp57
v 82.651497 12.886400 -24.671400
v 82.074501 13.107100 -24.671400
v 82.074501 13.107100 -6.671360
v 82.651497 12.886400 -6.671360
v 81.696602 13.122900 -24.671400
v 81.696602 13.122900 -6.671360
v 83.995697 10.523900 -6.671360
v 83.988197 10.241200 -6.671360
v 83.988197 10.241200 -24.671400
v 83.995697 10.523900 -24.671400
v 83.859100 11.262600 -24.671400
v 83.575203 11.931600 -24.671400
v 83.575203 11.931600 -6.671360
v 83.859100 11.262600 -6.671360
v 83.163300 12.485500 -24.671400
v 83.163300 12.485500 -6.671360
v 83.575203 11.931600 -6.671360
v 82.651497 12.886400 -24.671400
v 83.163300 12.485500 -6.671360
v 83.859100 11.262600 -24.671400
v 83.995697 10.523900 -6.671360
vt 0.124284 -2.500000
vt 0.047926 -2.500000
vt 0.047926 -1.000000
vt 0.124284 -1.000000
vt -0.000000 -2.500000
vt -0.000000 -1.000000
vt 0.429717 -1.000000
vt 0.458149 -1.000000
vt 0.458149 -2.500000
vt 0.429717 -2.500000
vt 0.353359 -2.500000
vt 0.277001 -2.500000
vt 0.277001 -1.000000
vt 0.353359 -1.000000
vt 0.200642 -2.500000
vt 0.200642 -1.000000
vt 0.277001 -1.000000
vt 0.124284 -2.500000
vt 0.200642 -1.000000
vt 0.353359 -2.500000
vt 0.429717 -1.000000
vn 0.339516 0.940600 -0.000000
vn 0.130720 0.991419 -0.000000
vn 0.130720 0.991419 -0.000000
vn 0.339516 0.940600 -0.000000
vn 0.026574 0.999647 -0.000000
vn 0.026574 0.999647 -0.000000
vn 0.992523 0.122060 -0.000000
vn 0.999117 -0.042005 -0.000000
vn 0.999117 -0.042005 -0.000000
vn 0.992523 0.122060 -0.000000
vn 0.904214 0.427080 -0.000000
vn 0.743351 0.668902 -0.000000
vn 0.743351 0.668902 -0.000000
vn 0.904214 0.427080 -0.000000
vn 0.547053 0.837098 -0.000000
vn 0.547053 0.837098 -0.000000
vn 0.743351 0.668902 -0.000000
vn 0.339516 0.940600 -0.000000
vn 0.547053 0.837098 -0.000000
vn 0.904214 0.427080 -0.000000
vn 0.992523 0.122060 -0.000000
usemtl mat2
f 1/1/1 2/2/2 3/3/3 
f 1/1/1 3/3/3 4/4/4 
f 3/3/3 2/2/2 5/5/5 
f 3/3/3 5/5/5 6/6/6 
f 7/7/7 8/8/8 9/9/9 
f 7/7/7 9/9/9 10/10/10 
f 11/11/11 12/12/12 13/13/13 
f 11/11/11 13/13/13 14/14/14 
f 12/12/12 15/15/15 16/16/16 
f 12/12/12 16/16/16 17/17/17 
f 15/15/15 18/18/18 4/4/4 
f 15/15/15 4/4/4 19/19/19 
f 10/10/10 20/20/20 14/14/14 
f 10/10/10 14/14/14 21/21/21 

