g grp114
v 17.183201 18.873501 -24.671400
v 17.336901 19.080099 -24.671400
v 17.336901 19.080099 -6.671360
v 17.183201 18.873501 -6.671360
v 16.671400 18.472599 -6.671360
v 16.671400 18.472599 -24.671400
v 17.183201 18.873501 -24.671400
v 16.671400 18.472599 -6.671360
v 16.094400 18.252001 -6.671360
v 16.094400 18.252001 -24.671400
v 15.491700 18.226601 -6.671360
v 15.491700 18.226601 -24.671400
v 14.904400 18.398300 -6.671360
v 14.904400 18.398300 -24.671400
v 14.372300 18.755400 -6.671360
v 14.372300 18.755400 -24.671400
v 14.096200 19.080099 -6.671360
v 14.096200 19.080099 -24.671400
v 14.372300 18.755400 -6.671360
vt 0.429717 -2.500000
vt 0.458149 -2.500000
vt 0.458149 -1.000000
vt 0.429717 -1.000000
vt 0.353359 -1.000000
vt 0.353359 -2.500000
vt 0.429717 -2.500000
vt 0.353359 -1.000000
vt 0.277001 -1.000000
vt 0.277001 -2.500000
vt 0.200642 -1.000000
vt 0.200642 -2.500000
vt 0.124284 -1.000000
vt 0.124284 -2.500000
vt 0.047926 -1.000000
vt 0.047926 -2.500000
vt -0.000000 -1.000000
vt -0.000000 -2.500000
vt 0.047926 -1.000000
vn 0.547053 -0.837098 -0.000000
vn 0.647731 -0.761869 -0.000000
vn 0.647731 -0.761869 -0.000000
vn 0.547053 -0.837098 -0.000000
vn 0.339516 -0.940600 -0.000000
vn 0.339516 -0.940600 -0.000000
vn 0.547053 -0.837098 -0.000000
vn 0.339516 -0.940600 -0.000000
vn 0.130720 -0.991419 -0.000000
vn 0.130720 -0.991419 -0.000000
vn -0.077528 -0.996990 -0.000000
vn -0.077528 -0.996990 -0.000000
vn -0.286166 -0.958180 -0.000000
vn -0.286166 -0.958180 -0.000000
vn -0.494537 -0.869157 -0.000000
vn -0.494537 -0.869157 -0.000000
vn -0.596777 -0.802407 -0.000000
vn -0.596777 -0.802407 -0.000000
vn -0.494537 -0.869157 -0.000000
usemtl mat2
f 1/1/1 2/2/2 3/3/3 
f 1/1/1 3/3/3 4/4/4 
f 4/4/4 5/5/5 6/6/6 
f 4/4/4 6/6/6 7/7/7 
f 8/8/8 9/9/9 10/10/10 
f 8/8/8 10/10/10 6/6/6 
f 9/9/9 11/11/11 12/12/12 
f 9/9/9 12/12/12 10/10/10 
f 11/11/11 13/13/13 14/14/14 
f 11/11/11 14/14/14 12/12/12 
f 13/13/13 15/15/15 16/16/16 
f 13/13/13 16/16/16 14/14/14 
f 17/17/17 18/18/18 16/16/16 
f 17/17/17 16/16/16 19/19/19 

