g grp54
v 86.017899 9.755540 -24.671400
v 86.605301 9.927230 -24.671400
v 86.605301 9.927230 -6.671360
v 86.017899 9.755540 -6.671360
v 86.938797 10.151100 -24.671400
v 86.938797 10.151100 -6.671360
v 83.914497 10.956300 -6.671360
v 83.808601 11.205900 -6.671360
v 83.808601 11.205900 -24.671400
v 83.914497 10.956300 -24.671400
v 84.326401 10.402400 -24.671400
v 84.838303 10.001500 -24.671400
v 84.838303 10.001500 -6.671360
v 84.326401 10.402400 -6.671360
v 85.415199 9.780880 -24.671400
v 85.415199 9.780880 -6.671360
v 86.017899 9.755540 -24.671400
v 84.326401 10.402400 -24.671400
vt 0.124284 -2.500000
vt 0.047926 -2.500000
vt 0.047926 -1.000000
vt 0.124284 -1.000000
vt -0.000000 -2.500000
vt -0.000000 -1.000000
vt 0.429717 -1.000000
vt 0.458149 -1.000000
vt 0.458149 -2.500000
vt 0.429717 -2.500000
vt 0.353359 -2.500000
vt 0.277001 -2.500000
vt 0.277001 -1.000000
vt 0.353359 -1.000000
vt 0.200642 -2.500000
vt 0.200642 -1.000000
vt 0.124284 -2.500000
vt 0.353359 -2.500000
vn 0.077528 -0.996990 -0.000000
vn 0.286166 -0.958180 -0.000000
vn 0.286166 -0.958180 -0.000000
vn 0.077528 -0.996990 -0.000000
vn 0.390614 -0.920555 -0.000000
vn 0.390614 -0.920555 -0.000000
vn -0.743351 -0.668902 -0.000000
vn -0.830360 -0.557227 -0.000000
vn -0.830360 -0.557227 -0.000000
vn -0.743351 -0.668902 -0.000000
vn -0.547053 -0.837098 -0.000000
vn -0.339516 -0.940600 -0.000000
vn -0.339516 -0.940600 -0.000000
vn -0.547053 -0.837098 -0.000000
vn -0.130720 -0.991419 -0.000000
vn -0.130720 -0.991419 -0.000000
vn 0.077528 -0.996990 -0.000000
vn -0.547053 -0.837098 -0.000000
usemtl mat2
f 1/1/1 2/2/2 3/3/3 
f 1/1/1 3/3/3 4/4/4 
f 3/3/3 2/2/2 5/5/5 
f 3/3/3 5/5/5 6/6/6 
f 7/7/7 8/8/8 9/9/9 
f 7/7/7 9/9/9 10/10/10 
f 11/11/11 12/12/12 13/13/13 
f 11/11/11 13/13/13 14/14/14 
f 12/12/12 15/15/15 16/16/16 
f 12/12/12 16/16/16 13/13/13 
f 15/15/15 17/17/17 4/4/4 
f 15/15/15 4/4/4 16/16/16 
f 10/10/10 18/18/18 14/14/14 
f 10/10/10 14/14/14 7/7/7 

