g grp171
v 26.350000 10.956300 -24.671400
v 26.455900 11.205900 -24.671400
v 26.455900 11.205900 -6.671360
v 26.350000 10.956300 -6.671360
v 25.938101 10.402400 -6.671360
v 25.938101 10.402400 -24.671400
v 26.350000 10.956300 -24.671400
v 25.938101 10.402400 -6.671360
v 25.426201 10.001500 -6.671360
v 25.426201 10.001500 -24.671400
v 24.849300 9.780880 -6.671360
v 24.849300 9.780880 -24.671400
v 24.246599 9.755540 -6.671360
v 24.246599 9.755540 -24.671400
v 23.659201 9.927230 -6.671360
v 23.659201 9.927230 -24.671400
v 23.325600 10.151100 -6.671360
v 23.325600 10.151100 -24.671400
v 23.659201 9.927230 -6.671360
vt 0.429717 -2.500000
vt 0.458149 -2.500000
vt 0.458149 -1.000000
vt 0.429717 -1.000000
vt 0.353359 -1.000000
vt 0.353359 -2.500000
vt 0.429717 -2.500000
vt 0.353359 -1.000000
vt 0.277001 -1.000000
vt 0.277001 -2.500000
vt 0.200642 -1.000000
vt 0.200642 -2.500000
vt 0.124284 -1.000000
vt 0.124284 -2.500000
vt 0.047926 -1.000000
vt 0.047926 -2.500000
vt -0.000000 -1.000000
vt -0.000000 -2.500000
vt 0.047926 -1.000000
vn 0.743351 -0.668902 -0.000000
vn 0.830360 -0.557227 -0.000000
vn 0.830360 -0.557227 -0.000000
vn 0.743351 -0.668902 -0.000000
vn 0.547053 -0.837098 -0.000000
vn 0.547053 -0.837098 -0.000000
vn 0.743351 -0.668902 -0.000000
vn 0.547053 -0.837098 -0.000000
vn 0.339516 -0.940600 -0.000000
vn 0.339516 -0.940600 -0.000000
vn 0.130720 -0.991419 -0.000000
vn 0.130720 -0.991419 -0.000000
vn -0.077528 -0.996990 -0.000000
vn -0.077528 -0.996990 -0.000000
vn -0.286166 -0.958180 -0.000000
vn -0.286166 -0.958180 -0.000000
vn -0.390614 -0.920555 -0.000000
vn -0.390614 -0.920555 -0.000000
vn -0.286166 -0.958180 -0.000000
usemtl mat2
f 1/1/1 2/2/2 3/3/3 
f 1/1/1 3/3/3 4/4/4 
f 4/4/4 5/5/5 6/6/6 
f 4/4/4 6/6/6 7/7/7 
f 8/8/8 9/9/9 10/10/10 
f 8/8/8 10/10/10 6/6/6 
f 9/9/9 11/11/11 12/12/12 
f 9/9/9 12/12/12 10/10/10 
f 11/11/11 13/13/13 14/14/14 
f 11/11/11 14/14/14 12/12/12 
f 13/13/13 15/15/15 16/16/16 
f 13/13/13 16/16/16 14/14/14 
f 17/17/17 18/18/18 16/16/16 
f 17/17/17 16/16/16 19/19/19 

