g grp6
v 68.043701 10.911000 -24.671400
v 67.868202 10.185500 -24.671400
v 67.868202 10.185500 -6.671360
v 68.043701 10.911000 -6.671360
v 67.855598 9.710280 -24.671400
v 67.855598 9.710280 -6.671360
v 69.922302 12.601500 -6.671360
v 70.147102 12.592000 -6.671360
v 70.147102 12.592000 -24.671400
v 69.922302 12.601500 -24.671400
v 69.334900 12.429800 -24.671400
v 68.802902 12.072800 -24.671400
v 68.802902 12.072800 -6.671360
v 69.334900 12.429800 -6.671360
v 68.362396 11.554800 -24.671400
v 68.362396 11.554800 -6.671360
v 68.802902 12.072800 -6.671360
v 68.362396 11.554800 -24.671400
v 68.043701 10.911000 -24.671400
v 68.043701 10.911000 -6.671360
v 69.922302 12.601500 -24.671400
v 69.334900 12.429800 -24.671400
v 69.334900 12.429800 -6.671360
vt 0.124284 -2.500000
vt 0.047926 -2.500000
vt 0.047926 -1.000000
vt 0.124284 -1.000000
vt -0.000000 -2.500000
vt -0.000000 -1.000000
vt 0.429717 -1.000000
vt 0.458149 -1.000000
vt 0.458149 -2.500000
vt 0.429717 -2.500000
vt 0.353359 -2.500000
vt 0.277001 -2.500000
vt 0.277001 -1.000000
vt 0.353359 -1.000000
vt 0.200642 -2.500000
vt 0.200642 -1.000000
vt 0.277001 -1.000000
vt 0.200642 -2.500000
vt 0.124284 -2.500000
vt 0.124284 -1.000000
vt 0.429717 -2.500000
vt 0.353359 -2.500000
vt 0.353359 -1.000000
vn -0.868459 0.495761 -0.000000
vn -0.978943 0.204132 -0.000000
vn -0.978943 0.204132 -0.000000
vn -0.868459 0.495761 -0.000000
vn -0.999117 0.042005 -0.000000
vn -0.999117 0.042005 -0.000000
vn -0.077528 0.996990 -0.000000
vn 0.026574 0.999647 -0.000000
vn 0.026574 0.999647 -0.000000
vn -0.077528 0.996990 -0.000000
vn -0.286166 0.958180 -0.000000
vn -0.494537 0.869157 -0.000000
vn -0.494537 0.869157 -0.000000
vn -0.286166 0.958180 -0.000000
vn -0.695354 0.718667 -0.000000
vn -0.695354 0.718667 -0.000000
vn -0.494537 0.869157 -0.000000
vn -0.695354 0.718667 -0.000000
vn -0.868459 0.495761 -0.000000
vn -0.868459 0.495761 -0.000000
vn -0.077528 0.996990 -0.000000
vn -0.286166 0.958180 -0.000000
vn -0.286166 0.958180 -0.000000
usemtl mat2
f 1/1/1 2/2/2 3/3/3 
f 1/1/1 3/3/3 4/4/4 
f 3/3/3 2/2/2 5/5/5 
f 3/3/3 5/5/5 6/6/6 
f 7/7/7 8/8/8 9/9/9 
f 7/7/7 9/9/9 10/10/10 
f 11/11/11 12/12/12 13/13/13 
f 11/11/11 13/13/13 14/14/14 
f 12/12/12 15/15/15 16/16/16 
f 12/12/12 16/16/16 17/17/17 
f 18/18/18 19/19/19 20/20/20 
f 18/18/18 20/20/20 16/16/16 
f 21/21/21 22/22/22 23/23/23 
f 21/21/21 23/23/23 7/7/7 

