g grp22
v 447.994995 133.867004 -808.950012
v 447.994995 810.142029 -808.950012
v -10.792200 810.142029 -808.950012
v -10.792200 133.867004 -808.950012
v 447.994995 810.142029 -808.950012
v 447.994995 133.867004 -808.950012
v 447.994995 133.867004 -813.711975
v 447.994995 810.142029 -813.711975
v 447.994995 133.867004 -808.950012
v -10.792200 133.867004 -808.950012
v -10.792200 133.867004 -813.711975
v 447.994995 133.867004 -813.711975
v -10.792200 133.867004 -808.950012
v -10.792200 810.142029 -808.950012
v -10.792200 810.142029 -813.711975
v -10.792200 133.867004 -813.711975
v -10.792200 810.142029 -808.950012
v 447.994995 810.142029 -808.950012
v 447.994995 810.142029 -813.711975
v -10.792200 810.142029 -813.711975
v 447.994995 810.142029 -813.711975
v 447.994995 133.867004 -813.711975
v -10.792200 133.867004 -813.711975
v -10.792200 810.142029 -813.711975
vt 0.000000 -1.000000
vt 0.000000 25.625000
vt -18.062500 25.625000
vt -18.062500 -1.000000
vt -0.187500 25.625000
vt -0.187500 -1.000000
vt 0.000000 -1.000000
vt 0.000000 25.625000
vt 0.000000 -0.812500
vt -18.062500 -0.812500
vt -18.062500 -1.000000
vt 0.000000 -1.000000
vt 0.187500 -1.000000
vt 0.187500 25.625000
vt 0.000000 25.625000
vt 0.000000 -1.000000
vt 18.062500 -0.812500
vt -0.000000 -0.812500
vt -0.000000 -1.000000
vt 18.062500 -1.000000
vt 0.000000 25.625000
vt 0.000000 -1.000000
vt 18.062500 -1.000000
vt 18.062500 25.625000
vn 0.000000 0.000000 1.000000
vn 0.000000 0.000000 1.000000
vn 0.000000 0.000000 1.000000
vn 0.000000 0.000000 1.000000
vn 1.000000 0.000000 -0.000000
vn 1.000000 0.000000 -0.000000
vn 1.000000 0.000000 -0.000000
vn 1.000000 0.000000 -0.000000
vn 0.000000 -1.000000 0.000000
vn 0.000000 -1.000000 0.000000
vn 0.000000 -1.000000 0.000000
vn 0.000000 -1.000000 0.000000
vn -1.000000 0.000000 0.000000
vn -1.000000 0.000000 0.000000
vn -1.000000 0.000000 0.000000
vn -1.000000 0.000000 0.000000
vn -0.000000 1.000000 0.000000
vn -0.000000 1.000000 0.000000
vn -0.000000 1.000000 0.000000
vn -0.000000 1.000000 0.000000
vn -0.000000 0.000000 -1.000000
vn -0.000000 0.000000 -1.000000
vn -0.000000 0.000000 -1.000000
vn -0.000000 0.000000 -1.000000
usemtl mat5
f 1/1/1 2/2/2 3/3/3 
f 1/1/1 3/3/3 4/4/4 
f 5/5/5 6/6/6 7/7/7 
f 5/5/5 7/7/7 8/8/8 
f 9/9/9 10/10/10 11/11/11 
f 9/9/9 11/11/11 12/12/12 
f 13/13/13 14/14/14 15/15/15 
f 13/13/13 15/15/15 16/16/16 
f 17/17/17 18/18/18 19/19/19 
f 17/17/17 19/19/19 20/20/20 
f 21/21/21 22/22/22 23/23/23 
f 21/21/21 23/23/23 24/24/24 

