g grp74
v 70.689499 13.107100 -24.671400
v 71.266502 12.886400 -24.671400
v 71.778297 12.485500 -24.671400
v 72.190201 11.931600 -24.671400
v 72.474098 11.262600 -24.671400
v 72.610703 10.523900 -24.671400
v 72.603203 10.241200 -24.671400
v 70.311600 10.241200 -24.671400
v 70.311600 13.122900 -24.671400
v 72.474098 11.262600 -6.671360
v 72.190201 11.931600 -6.671360
v 71.778297 12.485500 -6.671360
v 71.266502 12.886400 -6.671360
v 70.689499 13.107100 -6.671360
v 70.311600 13.122900 -6.671360
v 70.311600 10.241200 -6.671360
v 72.603203 10.241200 -6.671360
v 72.610703 10.523900 -6.671360
vt -0.287738 -0.952289
vt -0.265585 -0.879443
vt -0.225333 -0.814812
vt -0.169725 -0.762802
vt -0.102550 -0.726956
vt -0.028387 -0.709718
vt -0.000000 -0.710667
vt -0.000000 -1.000000
vt -0.289333 -1.000000
vt 0.102550 -0.726956
vt 0.169725 -0.762802
vt 0.225333 -0.814812
vt 0.265585 -0.879443
vt 0.287738 -0.952289
vt 0.289333 -1.000000
vt 0.000000 -1.000000
vt 0.000000 -0.710667
vt 0.028387 -0.709718
vn -0.000000 -0.000000 -1.000000
vn -0.000000 -0.000000 -1.000000
vn -0.000000 -0.000000 -1.000000
vn -0.000000 -0.000000 -1.000000
vn -0.000000 -0.000000 -1.000000
vn -0.000000 -0.000000 -1.000000
vn -0.000000 -0.000000 -1.000000
vn -0.000000 -0.000000 -1.000000
vn -0.000000 -0.000000 -1.000000
vn 0.000000 0.000000 1.000000
vn 0.000000 0.000000 1.000000
vn 0.000000 0.000000 1.000000
vn 0.000000 0.000000 1.000000
vn 0.000000 0.000000 1.000000
vn 0.000000 0.000000 1.000000
vn 0.000000 0.000000 1.000000
vn 0.000000 0.000000 1.000000
vn 0.000000 0.000000 1.000000
usemtl mat1
f 1/1/1 2/2/2 3/3/3 
f 1/1/1 3/3/3 4/4/4 
f 1/1/1 4/4/4 5/5/5 
f 1/1/1 5/5/5 6/6/6 
f 1/1/1 6/6/6 7/7/7 
f 1/1/1 7/7/7 8/8/8 
f 1/1/1 8/8/8 9/9/9 
f 10/10/10 11/11/11 12/12/12 
f 10/10/10 12/12/12 13/13/13 
f 10/10/10 13/13/13 14/14/14 
f 10/10/10 14/14/14 15/15/15 
f 10/10/10 15/15/15 16/16/16 
f 10/10/10 16/16/16 17/17/17 
f 10/10/10 17/17/17 18/18/18 

