g grp76
v 70.311600 13.122900 -24.671400
v 70.311600 10.241200 -24.671400
v 70.311600 10.241200 -6.671360
v 70.311600 13.122900 -6.671360
v 70.311600 10.241200 -24.671400
v 72.603203 10.241200 -24.671400
v 72.603203 10.241200 -6.671360
v 70.311600 10.241200 -6.671360
vt -1.128830 0.575690
vt -0.851547 0.674980
vt -0.336833 -0.762549
vt -0.614115 -0.861832
vt -1.489930 -1.467999
vt -1.160840 -1.371411
vt -0.660090 -3.077550
vt -0.989185 -3.174140
vn -1.000000 -0.000000 -0.000000
vn -1.000000 -0.000000 -0.000000
vn -1.000000 -0.000000 -0.000000
vn -1.000000 -0.000000 -0.000000
vn 0.000000 -1.000000 -0.000000
vn 0.000000 -1.000000 -0.000000
vn 0.000000 -1.000000 -0.000000
vn 0.000000 -1.000000 -0.000000
usemtl mat3
f 1/1/1 2/2/2 3/3/3 
f 1/1/1 3/3/3 4/4/4 
f 5/5/5 6/6/6 7/7/7 
f 5/5/5 7/7/7 8/8/8 

