g grp183
v 7.439740 10.750000 -1.962040
v 7.439740 8.000000 -1.962040
v 7.439740 8.000000 0.037962
v 7.439740 10.750000 0.037962
v 31.458200 8.000000 -1.962040
v 31.458200 10.750000 -1.962040
v 31.458200 10.750000 0.037962
v 31.458200 8.000000 0.037962
v 31.458200 10.750000 0.037962
v 7.439740 10.750000 0.037962
v 7.439740 8.000000 0.037962
v 31.458200 8.000000 0.037962
v -0.560258 36.000000 0.037962
v 37.439701 36.000000 0.037962
v 37.439701 38.750000 0.037962
v -0.560258 38.750000 0.037962
v 5.439740 38.750000 -25.962000
v 37.439701 38.750000 -25.962000
v 37.439701 38.750000 -31.962000
v -0.560258 38.750000 -31.962000
v -0.560258 38.750000 0.037962
v 37.439701 38.750000 0.037962
v 37.439701 38.750000 -5.962040
v 5.439740 38.750000 -5.962040
v 37.439701 36.000000 -31.962000
v -0.560258 36.000000 -31.962000
v -0.560258 38.750000 -31.962000
v 37.439701 38.750000 -31.962000
v -0.560258 36.000000 -31.962000
v -0.560258 36.000000 0.037962
v -0.560258 38.750000 0.037962
v -0.560258 38.750000 -31.962000
vt -0.055556 -0.552083
vt -0.055556 -0.666667
vt 0.000000 -0.666667
vt 0.000000 -0.552083
vt 0.055556 -0.666667
vt 0.055556 -0.552083
vt 0.000000 -0.552083
vt 0.000000 -0.666667
vt 0.889400 -0.552083
vt 0.222222 -0.552083
vt 0.222222 -0.666667
vt 0.889400 -0.666667
vt 0.000000 0.500000
vt 1.055560 0.500000
vt 1.055560 0.614580
vt 0.000000 0.614580
vt 0.166667 0.083330
vt 1.055560 0.083330
vt 1.055560 0.333330
vt 0.000000 0.333330
vt 0.000000 -1.000000
vt 1.055560 -1.000000
vt 1.055560 -0.750000
vt 0.166667 -0.750000
vt -1.055560 0.500000
vt 0.000000 0.500000
vt 0.000000 0.614580
vt -1.055560 0.614580
vt -0.888889 0.500000
vt 0.000000 0.500000
vt 0.000000 0.614580
vt -0.888889 0.614580
vn -1.000000 0.000000 -0.000000
vn -1.000000 0.000000 -0.000000
vn -1.000000 0.000000 -0.000000
vn -1.000000 0.000000 -0.000000
vn 1.000000 0.000000 -0.000000
vn 1.000000 0.000000 -0.000000
vn 1.000000 0.000000 -0.000000
vn 1.000000 0.000000 -0.000000
vn 0.000000 0.000000 1.000000
vn 0.000000 0.000000 1.000000
vn 0.000000 0.000000 1.000000
vn 0.000000 0.000000 1.000000
vn 0.000000 0.000000 1.000000
vn 0.000000 0.000000 1.000000
vn 0.000000 0.000000 1.000000
vn 0.000000 0.000000 1.000000
vn 0.000000 1.000000 -0.000000
vn 0.000000 1.000000 -0.000000
vn 0.000000 1.000000 -0.000000
vn 0.000000 1.000000 -0.000000
vn 0.000000 1.000000 -0.000000
vn 0.000000 1.000000 -0.000000
vn 0.000000 1.000000 -0.000000
vn 0.000000 1.000000 -0.000000
vn 0.000000 0.000000 -1.000000
vn 0.000000 0.000000 -1.000000
vn 0.000000 0.000000 -1.000000
vn 0.000000 0.000000 -1.000000
vn -1.000000 0.000000 -0.000000
vn -1.000000 0.000000 -0.000000
vn -1.000000 0.000000 -0.000000
vn -1.000000 0.000000 -0.000000
usemtl mat5
f 1/1/1 2/2/2 3/3/3 
f 1/1/1 3/3/3 4/4/4 
f 5/5/5 6/6/6 7/7/7 
f 5/5/5 7/7/7 8/8/8 
f 9/9/9 10/10/10 11/11/11 
f 9/9/9 11/11/11 12/12/12 
f 13/13/13 14/14/14 15/15/15 
f 13/13/13 15/15/15 16/16/16 
f 17/17/17 18/18/18 19/19/19 
f 17/17/17 19/19/19 20/20/20 
f 17/17/17 20/20/20 21/21/21 
f 17/17/17 21/21/21 22/22/22 
f 17/17/17 22/22/22 23/23/23 
f 17/17/17 23/23/23 24/24/24 
f 25/25/25 26/26/26 27/27/27 
f 25/25/25 27/27/27 28/28/28 
f 29/29/29 30/30/30 31/31/31 
f 29/29/29 31/31/31 32/32/32 

