g grp123
v 23.610001 17.799200 -24.671400
v 23.728901 17.559000 -24.671400
v 23.728901 17.559000 -6.671360
v 23.610001 17.799200 -6.671360
v 23.434500 18.524700 -6.671360
v 23.434500 18.524700 -24.671400
v 23.610001 17.799200 -24.671400
v 23.414400 19.282600 -6.671360
v 23.414400 19.282600 -24.671400
v 23.550900 20.021299 -6.671360
v 23.550900 20.021299 -24.671400
v 23.414400 19.282600 -24.671400
v 23.834801 20.690399 -6.671360
v 23.834801 20.690399 -24.671400
v 23.550900 20.021299 -24.671400
v 23.834801 20.690399 -6.671360
v 24.246700 21.244200 -6.671360
v 24.246700 21.244200 -24.671400
v 24.567600 21.495600 -6.671360
v 24.567600 21.495600 -24.671400
v 24.246700 21.244200 -6.671360
vt 0.429717 -2.500000
vt 0.458149 -2.500000
vt 0.458149 -1.000000
vt 0.429717 -1.000000
vt 0.353359 -1.000000
vt 0.353359 -2.500000
vt 0.429717 -2.500000
vt 0.277001 -1.000000
vt 0.277001 -2.500000
vt 0.200642 -1.000000
vt 0.200642 -2.500000
vt 0.277001 -2.500000
vt 0.124284 -1.000000
vt 0.124284 -2.500000
vt 0.200642 -2.500000
vt 0.124284 -1.000000
vt 0.047926 -1.000000
vt 0.047926 -2.500000
vt -0.000000 -1.000000
vt -0.000000 -2.500000
vt 0.047926 -1.000000
vn -0.868459 -0.495761 -0.000000
vn -0.787271 -0.616607 -0.000000
vn -0.787271 -0.616607 -0.000000
vn -0.868459 -0.495761 -0.000000
vn -0.978943 -0.204132 -0.000000
vn -0.978943 -0.204132 -0.000000
vn -0.868459 -0.495761 -0.000000
vn -0.992523 0.122060 -0.000000
vn -0.992523 0.122060 -0.000000
vn -0.904214 0.427080 -0.000000
vn -0.904214 0.427080 -0.000000
vn -0.992523 0.122060 -0.000000
vn -0.743351 0.668902 -0.000000
vn -0.743351 0.668902 -0.000000
vn -0.904214 0.427080 -0.000000
vn -0.743351 0.668902 -0.000000
vn -0.547053 0.837098 -0.000000
vn -0.547053 0.837098 -0.000000
vn -0.443798 0.896127 -0.000000
vn -0.443798 0.896127 -0.000000
vn -0.547053 0.837098 -0.000000
usemtl mat2
f 1/1/1 2/2/2 3/3/3 
f 1/1/1 3/3/3 4/4/4 
f 4/4/4 5/5/5 6/6/6 
f 4/4/4 6/6/6 7/7/7 
f 5/5/5 8/8/8 9/9/9 
f 5/5/5 9/9/9 6/6/6 
f 8/8/8 10/10/10 11/11/11 
f 8/8/8 11/11/11 12/12/12 
f 10/10/10 13/13/13 14/14/14 
f 10/10/10 14/14/14 15/15/15 
f 16/16/16 17/17/17 18/18/18 
f 16/16/16 18/18/18 14/14/14 
f 19/19/19 20/20/20 18/18/18 
f 19/19/19 18/18/18 21/21/21 

