g grp101
v 21.948900 9.710280 -6.671360
v 19.657400 9.710280 -6.671360
v 19.657400 9.710280 -24.671400
v 21.948900 9.710280 -24.671400
v 19.657400 9.710280 -6.671360
v 19.657400 12.592000 -6.671360
v 19.657400 12.592000 -24.671400
v 19.657400 9.710280 -24.671400
vt -0.614115 -0.861832
vt -0.336833 -0.762549
vt -0.851547 0.674980
vt -1.128830 0.575690
vt -0.989185 -3.174140
vt -0.660090 -3.077550
vt -1.160840 -1.371411
vt -1.489930 -1.467999
vn 0.000000 -1.000000 -0.000000
vn 0.000000 -1.000000 -0.000000
vn 0.000000 -1.000000 -0.000000
vn 0.000000 -1.000000 -0.000000
vn -1.000000 0.000000 -0.000000
vn -1.000000 0.000000 -0.000000
vn -1.000000 0.000000 -0.000000
vn -1.000000 0.000000 -0.000000
usemtl mat3
f 1/1/1 2/2/2 3/3/3 
f 1/1/1 3/3/3 4/4/4 
f 5/5/5 6/6/6 7/7/7 
f 5/5/5 7/7/7 8/8/8 

