g grp1
v 0.000000 5.249680 0.845980
v 0.000000 5.300380 0.908293
v 0.500000 5.300380 0.908293
v 0.500000 5.249680 0.845980
v 0.000000 0.500000 5.000000
v 0.000000 4.624030 4.484500
v 0.000000 4.703290 4.471340
v 0.000000 4.781230 4.451860
v 0.000000 4.857350 4.426190
v 0.000000 4.931170 4.394490
v 0.000000 5.002200 4.356970
v 0.000000 5.070000 4.313860
v 0.000000 5.134110 4.265460
v 0.000000 5.194140 4.212060
v 0.000000 5.249680 4.154020
v 0.000000 5.300380 4.091710
v 0.000000 5.345920 4.025520
v 0.000000 5.386000 3.955900
v 0.000000 5.420360 3.883280
v 0.000000 5.448780 3.808140
v 0.000000 5.471080 3.730960
v 0.000000 5.487110 3.652240
v 0.000000 5.496770 3.572490
v 0.000000 5.500000 3.492220
v 0.000000 5.500000 1.507780
v 0.000000 5.496770 1.427510
v 0.000000 5.487110 1.347760
v 0.000000 5.471080 1.269040
v 0.000000 5.448780 1.191860
v 0.000000 5.420360 1.116720
v 0.000000 5.386000 1.044100
v 0.000000 5.345920 0.974475
v 0.000000 5.300380 0.908293
v 0.000000 5.249680 0.845980
v 0.000000 5.194140 0.787938
v 0.000000 5.134110 0.734541
v 0.000000 5.070000 0.686135
v 0.000000 5.002200 0.643032
v 0.000000 4.931170 0.605510
v 0.000000 4.857350 0.573812
v 0.000000 4.781230 0.548140
v 0.000000 4.703290 0.528663
v 0.000000 4.624030 0.515504
v 0.000000 0.500000 -0.000000
v 0.500000 0.500000 5.000000
v 0.500000 4.624030 4.484500
v 0.000000 4.624030 4.484500
v 0.000000 0.500000 5.000000
v 0.500000 0.500000 5.000000
v 0.500000 0.500000 -0.000000
v 0.500000 4.624030 0.515504
v 0.500000 4.703290 0.528663
v 0.500000 4.781230 0.548140
v 0.500000 4.857350 0.573812
v 0.500000 4.931170 0.605510
v 0.500000 5.002200 0.643032
v 0.500000 5.070000 0.686135
v 0.500000 5.134110 0.734541
v 0.500000 5.194140 0.787938
v 0.500000 5.249680 0.845980
v 0.500000 5.300380 0.908293
v 0.500000 5.345920 0.974475
v 0.500000 5.386000 1.044100
v 0.500000 5.420360 1.116720
v 0.500000 5.448780 1.191860
v 0.500000 5.471080 1.269040
v 0.500000 5.487110 1.347760
v 0.500000 5.496770 1.427510
v 0.500000 5.500000 1.507780
v 0.500000 5.500000 3.492220
v 0.500000 5.496770 3.572490
v 0.500000 5.487110 3.652240
v 0.500000 5.471080 3.730960
v 0.500000 5.448780 3.808140
v 0.500000 5.420360 3.883280
v 0.500000 5.386000 3.955900
v 0.500000 5.345920 4.025520
v 0.500000 5.300380 4.091710
v 0.500000 5.249680 4.154020
v 0.500000 5.194140 4.212060
v 0.500000 5.134110 4.265460
v 0.500000 5.070000 4.313860
v 0.500000 5.002200 4.356970
v 0.500000 4.931170 4.394490
v 0.500000 4.857350 4.426190
v 0.500000 4.781230 4.451860
v 0.500000 4.703290 4.471340
v 0.500000 4.624030 4.484500
v 0.500000 0.500000 -0.000000
v 0.500000 0.500000 5.000000
v 0.000000 0.500000 5.000000
v 0.000000 0.500000 -0.000000
v 0.000000 4.624030 0.515504
v 0.500000 4.624030 0.515504
v 0.500000 0.500000 -0.000000
v 0.000000 0.500000 -0.000000
v 0.000000 4.624030 0.515504
v 0.000000 4.703290 0.528663
v 0.500000 4.703290 0.528663
v 0.500000 4.624030 0.515504
v 0.000000 4.703290 0.528663
v 0.000000 4.781230 0.548140
v 0.500000 4.781230 0.548140
v 0.500000 4.703290 0.528663
v 0.000000 4.781230 0.548140
v 0.000000 4.857350 0.573812
v 0.500000 4.857350 0.573812
v 0.500000 4.781230 0.548140
v 0.000000 4.857350 0.573812
v 0.000000 4.931170 0.605510
v 0.500000 4.931170 0.605510
v 0.500000 4.857350 0.573812
v 0.000000 4.931170 0.605510
v 0.000000 5.002200 0.643032
v 0.500000 5.002200 0.643032
v 0.500000 4.931170 0.605510
v 0.000000 5.002200 0.643032
v 0.000000 5.070000 0.686135
v 0.500000 5.070000 0.686135
v 0.500000 5.002200 0.643032
v 0.000000 5.070000 0.686135
v 0.000000 5.134110 0.734541
v 0.500000 5.134110 0.734541
v 0.500000 5.070000 0.686135
v 0.000000 5.134110 0.734541
v 0.000000 5.194140 0.787938
v 0.500000 5.194140 0.787938
v 0.500000 5.134110 0.734541
v 0.000000 5.194140 0.787938
v 0.000000 5.249680 0.845980
v 0.500000 5.249680 0.845980
v 0.500000 5.194140 0.787938
v 0.000000 5.300380 0.908293
v 0.000000 5.345920 0.974475
v 0.500000 5.345920 0.974475
v 0.500000 5.300380 0.908293
v 0.000000 5.345920 0.974475
v 0.000000 5.386000 1.044100
v 0.500000 5.386000 1.044100
v 0.500000 5.345920 0.974475
v 0.000000 5.386000 1.044100
v 0.000000 5.420360 1.116720
v 0.500000 5.420360 1.116720
v 0.500000 5.386000 1.044100
v 0.000000 5.420360 1.116720
v 0.000000 5.448780 1.191860
v 0.500000 5.448780 1.191860
v 0.500000 5.420360 1.116720
v 0.000000 5.448780 1.191860
v 0.000000 5.471080 1.269040
v 0.500000 5.471080 1.269040
v 0.500000 5.448780 1.191860
v 0.000000 5.471080 1.269040
v 0.000000 5.487110 1.347760
v 0.500000 5.487110 1.347760
v 0.500000 5.471080 1.269040
v 0.000000 5.487110 1.347760
v 0.000000 5.496770 1.427510
v 0.500000 5.496770 1.427510
v 0.500000 5.487110 1.347760
v 0.000000 5.496770 1.427510
v 0.000000 5.500000 1.507780
v 0.500000 5.500000 1.507780
v 0.500000 5.496770 1.427510
v 0.500000 5.500000 3.492220
v 0.500000 5.500000 1.507780
v 0.000000 5.500000 1.507780
v 0.000000 5.500000 3.492220
v 0.000000 5.500000 3.492220
v 0.000000 5.496770 3.572490
v 0.500000 5.496770 3.572490
v 0.500000 5.500000 3.492220
v 0.000000 5.496770 3.572490
v 0.000000 5.487110 3.652240
v 0.500000 5.487110 3.652240
v 0.500000 5.496770 3.572490
v 0.000000 5.487110 3.652240
v 0.000000 5.471080 3.730960
v 0.500000 5.471080 3.730960
v 0.500000 5.487110 3.652240
v 0.000000 5.471080 3.730960
v 0.000000 5.448780 3.808140
v 0.500000 5.448780 3.808140
v 0.500000 5.471080 3.730960
v 0.000000 5.448780 3.808140
v 0.000000 5.420360 3.883280
v 0.500000 5.420360 3.883280
v 0.500000 5.448780 3.808140
v 0.000000 5.420360 3.883280
v 0.000000 5.386000 3.955900
v 0.500000 5.386000 3.955900
v 0.500000 5.420360 3.883280
v 0.000000 5.386000 3.955900
v 0.000000 5.345920 4.025520
v 0.500000 5.345920 4.025520
v 0.500000 5.386000 3.955900
v 0.000000 5.345920 4.025520
v 0.000000 5.300380 4.091710
v 0.500000 5.300380 4.091710
v 0.500000 5.345920 4.025520
v 0.000000 5.300380 4.091710
v 0.000000 5.249680 4.154020
v 0.500000 5.249680 4.154020
v 0.500000 5.300380 4.091710
v 0.000000 5.249680 4.154020
v 0.000000 5.194140 4.212060
v 0.500000 5.194140 4.212060
v 0.500000 5.249680 4.154020
v 0.000000 5.194140 4.212060
v 0.000000 5.134110 4.265460
v 0.500000 5.134110 4.265460
v 0.500000 5.194140 4.212060
v 0.000000 5.134110 4.265460
v 0.000000 5.070000 4.313860
v 0.500000 5.070000 4.313860
v 0.500000 5.134110 4.265460
v 0.000000 5.070000 4.313860
v 0.000000 5.002200 4.356970
v 0.500000 5.002200 4.356970
v 0.500000 5.070000 4.313860
v 0.000000 5.002200 4.356970
v 0.000000 4.931170 4.394490
v 0.500000 4.931170 4.394490
v 0.500000 5.002200 4.356970
v 0.000000 4.931170 4.394490
v 0.000000 4.857350 4.426190
v 0.500000 4.857350 4.426190
v 0.500000 4.931170 4.394490
v 0.000000 4.857350 4.426190
v 0.000000 4.781230 4.451860
v 0.500000 4.781230 4.451860
v 0.500000 4.857350 4.426190
v 0.000000 4.781230 4.451860
v 0.000000 4.703290 4.471340
v 0.500000 4.703290 4.471340
v 0.500000 4.781230 4.451860
v 0.000000 4.703290 4.471340
v 0.000000 4.624030 4.484500
v 0.500000 4.624030 4.484500
v 0.500000 4.703290 4.471340
vt 0.000000 -1.018692
vt 0.000000 -1.011998
vt -0.041667 -1.011998
vt -0.041667 -1.018692
vt 0.000000 -1.000000
vt -0.042959 -0.656330
vt -0.044055 -0.649726
vt -0.045678 -0.643231
vt -0.047818 -0.636888
vt -0.050459 -0.630736
vt -0.053586 -0.624816
vt -0.057178 -0.619167
vt -0.061212 -0.613824
vt -0.065661 -0.608822
vt -0.070498 -0.604193
vt -0.075691 -0.599968
vt -0.081206 -0.596173
vt -0.087008 -0.592833
vt -0.093060 -0.589970
vt -0.099321 -0.587601
vt -0.105753 -0.585743
vt -0.112313 -0.584407
vt -0.118959 -0.583602
vt -0.125649 -0.583333
vt -0.291018 -0.583333
vt -0.297707 -0.583602
vt -0.304354 -0.584407
vt -0.310914 -0.585743
vt -0.317345 -0.587601
vt -0.323607 -0.589970
vt -0.329658 -0.592833
vt -0.335460 -0.596173
vt -0.340976 -0.599968
vt -0.346168 -0.604193
vt -0.351005 -0.608822
vt -0.355455 -0.613824
vt -0.359489 -0.619167
vt -0.363081 -0.624816
vt -0.366207 -0.630736
vt -0.368849 -0.636888
vt -0.370988 -0.643231
vt -0.372611 -0.649726
vt -0.373708 -0.656330
vt -0.416667 -1.000000
vt 0.041667 -1.000000
vt 0.041667 -0.653656
vt 0.000000 -0.653656
vt 0.000000 -1.000000
vt 0.000000 -1.000000
vt 0.416667 -1.000000
vt 0.373708 -0.656330
vt 0.372611 -0.649726
vt 0.370988 -0.643231
vt 0.368849 -0.636888
vt 0.366207 -0.630736
vt 0.363081 -0.624816
vt 0.359489 -0.619167
vt 0.355455 -0.613824
vt 0.351005 -0.608822
vt 0.346168 -0.604193
vt 0.340976 -0.599968
vt 0.335460 -0.596173
vt 0.329658 -0.592833
vt 0.323607 -0.589970
vt 0.317345 -0.587601
vt 0.310914 -0.585743
vt 0.304354 -0.584407
vt 0.297707 -0.583602
vt 0.291018 -0.583333
vt 0.125649 -0.583333
vt 0.118959 -0.583602
vt 0.112313 -0.584407
vt 0.105753 -0.585743
vt 0.099321 -0.587601
vt 0.093060 -0.589970
vt 0.087008 -0.592833
vt 0.081206 -0.596173
vt 0.075691 -0.599968
vt 0.070498 -0.604193
vt 0.065661 -0.608822
vt 0.061212 -0.613824
vt 0.057178 -0.619167
vt 0.053586 -0.624816
vt 0.050459 -0.630736
vt 0.047818 -0.636888
vt 0.045678 -0.643231
vt 0.044055 -0.649726
vt 0.042959 -0.656330
vt -0.041667 -0.583333
vt -0.041667 -1.000000
vt 0.000000 -1.000000
vt 0.000000 -0.583333
vt 0.000000 -0.705337
vt -0.041667 -0.705337
vt -0.041667 -1.051681
vt 0.000000 -1.051681
vt 0.000000 -0.722182
vt 0.000000 -0.715488
vt -0.041667 -0.715488
vt -0.041667 -0.722182
vt 0.000000 -0.750517
vt 0.000000 -0.743823
vt -0.041667 -0.743823
vt -0.041667 -0.750517
vt 0.000000 -0.780484
vt 0.000000 -0.773789
vt -0.041667 -0.773789
vt -0.041667 -0.780484
vt 0.000000 -0.811889
vt 0.000000 -0.805194
vt -0.041667 -0.805194
vt -0.041667 -0.811889
vt 0.000000 -0.844529
vt 0.000000 -0.837835
vt -0.041667 -0.837835
vt -0.041667 -0.844529
vt 0.000000 -0.878195
vt 0.000000 -0.871500
vt -0.041667 -0.871500
vt -0.041667 -0.878195
vt 0.000000 -0.912668
vt 0.000000 -0.905974
vt -0.041667 -0.905974
vt -0.041667 -0.912668
vt 0.000000 -0.947727
vt 0.000000 -0.941032
vt -0.041667 -0.941032
vt -0.041667 -0.947727
vt 0.000000 -0.983144
vt 0.000000 -0.976450
vt -0.041667 -0.976450
vt -0.041667 -0.983144
vt 0.000000 -1.054141
vt 0.000000 -1.047447
vt -0.041667 -1.047447
vt -0.041667 -1.054141
vt 0.000000 -1.089262
vt 0.000000 -1.082568
vt -0.041667 -1.082568
vt -0.041667 -1.089262
vt 0.000000 -1.123829
vt 0.000000 -1.117134
vt -0.041667 -1.117134
vt -0.041667 -1.123829
vt 0.000000 -1.157618
vt 0.000000 -1.150923
vt -0.041667 -1.150923
vt -0.041667 -1.157618
vt 0.000000 -1.190411
vt 0.000000 -1.183717
vt -0.041667 -1.183717
vt -0.041667 -1.190411
vt 0.000000 -1.221997
vt 0.000000 -1.215303
vt -0.041667 -1.215303
vt -0.041667 -1.221997
vt 0.000000 -1.252172
vt 0.000000 -1.245478
vt -0.041667 -1.245478
vt -0.041667 -1.252172
vt 0.000000 -1.280741
vt 0.000000 -1.274047
vt -0.041667 -1.274047
vt -0.041667 -1.280741
vt 0.041667 -0.874351
vt 0.041667 -0.708982
vt 0.000000 -0.708982
vt 0.000000 -0.874351
vt 0.000000 -0.857716
vt 0.000000 -0.864411
vt 0.041667 -0.864411
vt 0.041667 -0.857716
vt 0.000000 -0.831834
vt 0.000000 -0.838529
vt 0.041667 -0.838529
vt 0.041667 -0.831834
vt 0.000000 -0.807016
vt 0.000000 -0.813710
vt 0.041667 -0.813710
vt 0.041667 -0.807016
vt 0.000000 -0.783421
vt 0.000000 -0.790116
vt 0.041667 -0.790116
vt 0.041667 -0.783421
vt 0.000000 -0.761203
vt 0.000000 -0.767898
vt 0.041667 -0.767898
vt 0.041667 -0.761203
vt 0.000000 -0.740504
vt 0.000000 -0.747199
vt 0.041667 -0.747199
vt 0.041667 -0.740504
vt 0.000000 -0.721459
vt 0.000000 -0.728154
vt 0.041667 -0.728154
vt 0.041667 -0.721459
vt 0.000000 -0.704189
vt 0.000000 -0.710884
vt 0.041667 -0.710884
vt 0.041667 -0.704189
vt 0.000000 -0.688807
vt 0.000000 -0.695502
vt 0.041667 -0.695502
vt 0.041667 -0.688807
vt 0.000000 -0.675412
vt 0.000000 -0.682107
vt 0.041667 -0.682107
vt 0.041667 -0.675412
vt 0.000000 -0.664090
vt 0.000000 -0.670785
vt 0.041667 -0.670785
vt 0.041667 -0.664090
vt 0.000000 -0.654915
vt 0.000000 -0.661610
vt 0.041667 -0.661610
vt 0.041667 -0.654915
vt 0.000000 -0.647945
vt 0.000000 -0.654640
vt 0.041667 -0.654640
vt 0.041667 -0.647945
vt 0.000000 -0.643225
vt 0.000000 -0.649920
vt 0.041667 -0.649920
vt 0.041667 -0.643225
vt 0.000000 -0.640787
vt 0.000000 -0.647482
vt 0.041667 -0.647482
vt 0.041667 -0.640787
vt 0.000000 -0.640645
vt 0.000000 -0.647340
vt 0.041667 -0.647340
vt 0.041667 -0.640645
vt 0.000000 -0.642801
vt 0.000000 -0.649496
vt 0.041667 -0.649496
vt 0.041667 -0.642801
vt 0.000000 -0.647241
vt 0.000000 -0.653935
vt 0.041667 -0.653935
vt 0.041667 -0.647241
vn 0.000000 0.749678 -0.661803
vn 0.000000 0.800383 -0.599489
vn 0.000000 0.800383 -0.599489
vn 0.000000 0.749678 -0.661803
vn -1.000000 0.000000 -0.000000
vn -1.000000 0.000000 -0.000000
vn -1.000000 0.000000 -0.000000
vn -1.000000 0.000000 -0.000000
vn -1.000000 0.000000 -0.000000
vn -1.000000 0.000000 -0.000000
vn -1.000000 0.000000 -0.000000
vn -1.000000 0.000000 -0.000000
vn -1.000000 0.000000 -0.000000
vn -1.000000 0.000000 -0.000000
vn -1.000000 0.000000 -0.000000
vn -1.000000 0.000000 -0.000000
vn -1.000000 0.000000 -0.000000
vn -1.000000 0.000000 -0.000000
vn -1.000000 0.000000 -0.000000
vn -1.000000 0.000000 -0.000000
vn -1.000000 0.000000 -0.000000
vn -1.000000 0.000000 -0.000000
vn -1.000000 0.000000 -0.000000
vn -1.000000 0.000000 -0.000000
vn -1.000000 0.000000 -0.000000
vn -1.000000 0.000000 -0.000000
vn -1.000000 0.000000 -0.000000
vn -1.000000 0.000000 -0.000000
vn -1.000000 0.000000 -0.000000
vn -1.000000 0.000000 -0.000000
vn -1.000000 0.000000 -0.000000
vn -1.000000 0.000000 -0.000000
vn -1.000000 0.000000 -0.000000
vn -1.000000 0.000000 -0.000000
vn -1.000000 0.000000 -0.000000
vn -1.000000 0.000000 -0.000000
vn -1.000000 0.000000 -0.000000
vn -1.000000 0.000000 -0.000000
vn -1.000000 0.000000 -0.000000
vn -1.000000 0.000000 -0.000000
vn -1.000000 0.000000 -0.000000
vn -1.000000 0.000000 -0.000000
vn -1.000000 0.000000 -0.000000
vn -1.000000 0.000000 -0.000000
vn 0.000000 0.124035 0.992278
vn 0.000000 0.143943 0.989586
vn 0.000000 0.143943 0.989586
vn 0.000000 0.124035 0.992278
vn 1.000000 0.000000 -0.000000
vn 1.000000 0.000000 -0.000000
vn 1.000000 0.000000 -0.000000
vn 1.000000 0.000000 -0.000000
vn 1.000000 0.000000 -0.000000
vn 1.000000 0.000000 -0.000000
vn 1.000000 0.000000 -0.000000
vn 1.000000 0.000000 -0.000000
vn 1.000000 0.000000 -0.000000
vn 1.000000 0.000000 -0.000000
vn 1.000000 0.000000 -0.000000
vn 1.000000 0.000000 -0.000000
vn 1.000000 0.000000 -0.000000
vn 1.000000 0.000000 -0.000000
vn 1.000000 0.000000 -0.000000
vn 1.000000 0.000000 -0.000000
vn 1.000000 0.000000 -0.000000
vn 1.000000 0.000000 -0.000000
vn 1.000000 0.000000 -0.000000
vn 1.000000 0.000000 -0.000000
vn 1.000000 0.000000 -0.000000
vn 1.000000 0.000000 -0.000000
vn 1.000000 0.000000 -0.000000
vn 1.000000 0.000000 -0.000000
vn 1.000000 0.000000 -0.000000
vn 1.000000 0.000000 -0.000000
vn 1.000000 0.000000 -0.000000
vn 1.000000 0.000000 -0.000000
vn 1.000000 0.000000 -0.000000
vn 1.000000 0.000000 -0.000000
vn 1.000000 0.000000 -0.000000
vn 1.000000 0.000000 -0.000000
vn 1.000000 0.000000 -0.000000
vn 1.000000 0.000000 -0.000000
vn 1.000000 0.000000 -0.000000
vn 1.000000 0.000000 -0.000000
vn 1.000000 0.000000 -0.000000
vn 1.000000 0.000000 -0.000000
vn 1.000000 0.000000 -0.000000
vn 1.000000 0.000000 -0.000000
vn 0.000000 -1.000000 -0.000000
vn 0.000000 -1.000000 -0.000000
vn 0.000000 -1.000000 -0.000000
vn 0.000000 -1.000000 -0.000000
vn 0.000000 0.143943 -0.989586
vn 0.000000 0.143943 -0.989586
vn 0.000000 0.124035 -0.992278
vn 0.000000 0.124035 -0.992278
vn 0.000000 0.143943 -0.989586
vn 0.000000 0.203286 -0.979119
vn 0.000000 0.203286 -0.979119
vn 0.000000 0.143943 -0.989586
vn 0.000000 0.203286 -0.979119
vn 0.000000 0.281225 -0.959642
vn 0.000000 0.281225 -0.959642
vn 0.000000 0.203286 -0.979119
vn 0.000000 0.281225 -0.959642
vn 0.000000 0.357350 -0.933971
vn 0.000000 0.357350 -0.933971
vn 0.000000 0.281225 -0.959642
vn 0.000000 0.357350 -0.933971
vn 0.000000 0.431168 -0.902272
vn 0.000000 0.431168 -0.902272
vn 0.000000 0.357350 -0.933971
vn 0.000000 0.431168 -0.902272
vn 0.000000 0.502203 -0.864750
vn 0.000000 0.502203 -0.864750
vn 0.000000 0.431168 -0.902272
vn 0.000000 0.502203 -0.864750
vn 0.000000 0.569997 -0.821647
vn 0.000000 0.569997 -0.821647
vn 0.000000 0.502203 -0.864750
vn 0.000000 0.569997 -0.821647
vn 0.000000 0.634112 -0.773241
vn 0.000000 0.634112 -0.773241
vn 0.000000 0.569997 -0.821647
vn 0.000000 0.634112 -0.773241
vn 0.000000 0.694135 -0.719845
vn 0.000000 0.694135 -0.719845
vn 0.000000 0.634112 -0.773241
vn 0.000000 0.694135 -0.719845
vn 0.000000 0.749678 -0.661803
vn 0.000000 0.749678 -0.661803
vn 0.000000 0.694135 -0.719845
vn 0.000000 0.800383 -0.599489
vn 0.000000 0.845922 -0.533307
vn 0.000000 0.845922 -0.533307
vn 0.000000 0.800383 -0.599489
vn 0.000000 0.845922 -0.533307
vn 0.000000 0.886001 -0.463683
vn 0.000000 0.886001 -0.463683
vn 0.000000 0.845922 -0.533307
vn 0.000000 0.886001 -0.463683
vn 0.000000 0.920363 -0.391066
vn 0.000000 0.920363 -0.391066
vn 0.000000 0.886001 -0.463683
vn 0.000000 0.920363 -0.391066
vn 0.000000 0.948784 -0.315925
vn 0.000000 0.948784 -0.315925
vn 0.000000 0.920363 -0.391066
vn 0.000000 0.948784 -0.315925
vn 0.000000 0.971082 -0.238745
vn 0.000000 0.971082 -0.238745
vn 0.000000 0.948784 -0.315925
vn 0.000000 0.971082 -0.238745
vn 0.000000 0.987113 -0.160025
vn 0.000000 0.987113 -0.160025
vn 0.000000 0.971082 -0.238745
vn 0.000000 0.987113 -0.160025
vn 0.000000 0.996773 -0.080271
vn 0.000000 0.996773 -0.080271
vn 0.000000 0.987113 -0.160025
vn 0.000000 0.996773 -0.080271
vn 0.000000 0.999798 -0.020088
vn 0.000000 0.999798 -0.020088
vn 0.000000 0.996773 -0.080271
vn 0.000000 0.999798 0.020088
vn 0.000000 0.999798 -0.020088
vn 0.000000 0.999798 -0.020088
vn 0.000000 0.999798 0.020088
vn 0.000000 0.999798 0.020088
vn 0.000000 0.996773 0.080271
vn 0.000000 0.996773 0.080271
vn 0.000000 0.999798 0.020088
vn 0.000000 0.996773 0.080271
vn 0.000000 0.987113 0.160025
vn 0.000000 0.987113 0.160025
vn 0.000000 0.996773 0.080271
vn 0.000000 0.987113 0.160025
vn 0.000000 0.971082 0.238745
vn 0.000000 0.971082 0.238745
vn 0.000000 0.987113 0.160025
vn 0.000000 0.971082 0.238745
vn 0.000000 0.948784 0.315925
vn 0.000000 0.948784 0.315925
vn 0.000000 0.971082 0.238745
vn 0.000000 0.948784 0.315925
vn 0.000000 0.920363 0.391066
vn 0.000000 0.920363 0.391066
vn 0.000000 0.948784 0.315925
vn 0.000000 0.920363 0.391066
vn 0.000000 0.886001 0.463683
vn 0.000000 0.886001 0.463683
vn 0.000000 0.920363 0.391066
vn 0.000000 0.886001 0.463683
vn 0.000000 0.845922 0.533307
vn 0.000000 0.845922 0.533307
vn 0.000000 0.886001 0.463683
vn 0.000000 0.845922 0.533307
vn 0.000000 0.800383 0.599489
vn 0.000000 0.800383 0.599489
vn 0.000000 0.845922 0.533307
vn 0.000000 0.800383 0.599489
vn 0.000000 0.749678 0.661803
vn 0.000000 0.749678 0.661803
vn 0.000000 0.800383 0.599489
vn 0.000000 0.749678 0.661803
vn 0.000000 0.694135 0.719845
vn 0.000000 0.694135 0.719845
vn 0.000000 0.749678 0.661803
vn 0.000000 0.694135 0.719845
vn 0.000000 0.634112 0.773241
vn 0.000000 0.634112 0.773241
vn 0.000000 0.694135 0.719845
vn 0.000000 0.634112 0.773241
vn 0.000000 0.569997 0.821647
vn 0.000000 0.569997 0.821647
vn 0.000000 0.634112 0.773241
vn 0.000000 0.569997 0.821647
vn 0.000000 0.502203 0.864750
vn 0.000000 0.502203 0.864750
vn 0.000000 0.569997 0.821647
vn 0.000000 0.502203 0.864750
vn 0.000000 0.431168 0.902272
vn 0.000000 0.431168 0.902272
vn 0.000000 0.502203 0.864750
vn 0.000000 0.431168 0.902272
vn 0.000000 0.357350 0.933971
vn 0.000000 0.357350 0.933971
vn 0.000000 0.431168 0.902272
vn 0.000000 0.357350 0.933971
vn 0.000000 0.281225 0.959642
vn 0.000000 0.281225 0.959642
vn 0.000000 0.357350 0.933971
vn 0.000000 0.281225 0.959642
vn 0.000000 0.203286 0.979119
vn 0.000000 0.203286 0.979119
vn 0.000000 0.281225 0.959642
vn 0.000000 0.203286 0.979119
vn 0.000000 0.143943 0.989586
vn 0.000000 0.143943 0.989586
vn 0.000000 0.203286 0.979119
usemtl mat0
f 1/1/1 2/2/2 3/3/3 
f 1/1/1 3/3/3 4/4/4 
f 5/5/5 6/6/6 7/7/7 
f 5/5/5 7/7/7 8/8/8 
f 5/5/5 8/8/8 9/9/9 
f 5/5/5 9/9/9 10/10/10 
f 5/5/5 10/10/10 11/11/11 
f 5/5/5 11/11/11 12/12/12 
f 5/5/5 12/12/12 13/13/13 
f 5/5/5 13/13/13 14/14/14 
f 5/5/5 14/14/14 15/15/15 
f 5/5/5 15/15/15 16/16/16 
f 5/5/5 16/16/16 17/17/17 
f 5/5/5 17/17/17 18/18/18 
f 5/5/5 18/18/18 19/19/19 
f 5/5/5 19/19/19 20/20/20 
f 5/5/5 20/20/20 21/21/21 
f 5/5/5 21/21/21 22/22/22 
f 5/5/5 22/22/22 23/23/23 
f 5/5/5 23/23/23 24/24/24 
f 5/5/5 24/24/24 25/25/25 
f 5/5/5 25/25/25 26/26/26 
f 5/5/5 26/26/26 27/27/27 
f 5/5/5 27/27/27 28/28/28 
f 5/5/5 28/28/28 29/29/29 
f 5/5/5 29/29/29 30/30/30 
f 5/5/5 30/30/30 31/31/31 
f 5/5/5 31/31/31 32/32/32 
f 5/5/5 32/32/32 33/33/33 
f 5/5/5 33/33/33 34/34/34 
f 5/5/5 34/34/34 35/35/35 
f 5/5/5 35/35/35 36/36/36 
f 5/5/5 36/36/36 37/37/37 
f 5/5/5 37/37/37 38/38/38 
f 5/5/5 38/38/38 39/39/39 
f 5/5/5 39/39/39 40/40/40 
f 5/5/5 40/40/40 41/41/41 
f 5/5/5 41/41/41 42/42/42 
f 5/5/5 42/42/42 43/43/43 
f 5/5/5 43/43/43 44/44/44 
f 45/45/45 46/46/46 47/47/47 
f 45/45/45 47/47/47 48/48/48 
f 49/49/49 50/50/50 51/51/51 
f 49/49/49 51/51/51 52/52/52 
f 49/49/49 52/52/52 53/53/53 
f 49/49/49 53/53/53 54/54/54 
f 49/49/49 54/54/54 55/55/55 
f 49/49/49 55/55/55 56/56/56 
f 49/49/49 56/56/56 57/57/57 
f 49/49/49 57/57/57 58/58/58 
f 49/49/49 58/58/58 59/59/59 
f 49/49/49 59/59/59 60/60/60 
f 49/49/49 60/60/60 61/61/61 
f 49/49/49 61/61/61 62/62/62 
f 49/49/49 62/62/62 63/63/63 
f 49/49/49 63/63/63 64/64/64 
f 49/49/49 64/64/64 65/65/65 
f 49/49/49 65/65/65 66/66/66 
f 49/49/49 66/66/66 67/67/67 
f 49/49/49 67/67/67 68/68/68 
f 49/49/49 68/68/68 69/69/69 
f 49/49/49 69/69/69 70/70/70 
f 49/49/49 70/70/70 71/71/71 
f 49/49/49 71/71/71 72/72/72 
f 49/49/49 72/72/72 73/73/73 
f 49/49/49 73/73/73 74/74/74 
f 49/49/49 74/74/74 75/75/75 
f 49/49/49 75/75/75 76/76/76 
f 49/49/49 76/76/76 77/77/77 
f 49/49/49 77/77/77 78/78/78 
f 49/49/49 78/78/78 79/79/79 
f 49/49/49 79/79/79 80/80/80 
f 49/49/49 80/80/80 81/81/81 
f 49/49/49 81/81/81 82/82/82 
f 49/49/49 82/82/82 83/83/83 
f 49/49/49 83/83/83 84/84/84 
f 49/49/49 84/84/84 85/85/85 
f 49/49/49 85/85/85 86/86/86 
f 49/49/49 86/86/86 87/87/87 
f 49/49/49 87/87/87 88/88/88 
f 89/89/89 90/90/90 91/91/91 
f 89/89/89 91/91/91 92/92/92 
f 93/93/93 94/94/94 95/95/95 
f 93/93/93 95/95/95 96/96/96 
f 97/97/97 98/98/98 99/99/99 
f 97/97/97 99/99/99 100/100/100 
f 101/101/101 102/102/102 103/103/103 
f 101/101/101 103/103/103 104/104/104 
f 105/105/105 106/106/106 107/107/107 
f 105/105/105 107/107/107 108/108/108 
f 109/109/109 110/110/110 111/111/111 
f 109/109/109 111/111/111 112/112/112 
f 113/113/113 114/114/114 115/115/115 
f 113/113/113 115/115/115 116/116/116 
f 117/117/117 118/118/118 119/119/119 
f 117/117/117 119/119/119 120/120/120 
f 121/121/121 122/122/122 123/123/123 
f 121/121/121 123/123/123 124/124/124 
f 125/125/125 126/126/126 127/127/127 
f 125/125/125 127/127/127 128/128/128 
f 129/129/129 130/130/130 131/131/131 
f 129/129/129 131/131/131 132/132/132 
f 133/133/133 134/134/134 135/135/135 
f 133/133/133 135/135/135 136/136/136 
f 137/137/137 138/138/138 139/139/139 
f 137/137/137 139/139/139 140/140/140 
f 141/141/141 142/142/142 143/143/143 
f 141/141/141 143/143/143 144/144/144 
f 145/145/145 146/146/146 147/147/147 
f 145/145/145 147/147/147 148/148/148 
f 149/149/149 150/150/150 151/151/151 
f 149/149/149 151/151/151 152/152/152 
f 153/153/153 154/154/154 155/155/155 
f 153/153/153 155/155/155 156/156/156 
f 157/157/157 158/158/158 159/159/159 
f 157/157/157 159/159/159 160/160/160 
f 161/161/161 162/162/162 163/163/163 
f 161/161/161 163/163/163 164/164/164 
f 165/165/165 166/166/166 167/167/167 
f 165/165/165 167/167/167 168/168/168 
f 169/169/169 170/170/170 171/171/171 
f 169/169/169 171/171/171 172/172/172 
f 173/173/173 174/174/174 175/175/175 
f 173/173/173 175/175/175 176/176/176 
f 177/177/177 178/178/178 179/179/179 
f 177/177/177 179/179/179 180/180/180 
f 181/181/181 182/182/182 183/183/183 
f 181/181/181 183/183/183 184/184/184 
f 185/185/185 186/186/186 187/187/187 
f 185/185/185 187/187/187 188/188/188 
f 189/189/189 190/190/190 191/191/191 
f 189/189/189 191/191/191 192/192/192 
f 193/193/193 194/194/194 195/195/195 
f 193/193/193 195/195/195 196/196/196 
f 197/197/197 198/198/198 199/199/199 
f 197/197/197 199/199/199 200/200/200 
f 201/201/201 202/202/202 203/203/203 
f 201/201/201 203/203/203 204/204/204 
f 205/205/205 206/206/206 207/207/207 
f 205/205/205 207/207/207 208/208/208 
f 209/209/209 210/210/210 211/211/211 
f 209/209/209 211/211/211 212/212/212 
f 213/213/213 214/214/214 215/215/215 
f 213/213/213 215/215/215 216/216/216 
f 217/217/217 218/218/218 219/219/219 
f 217/217/217 219/219/219 220/220/220 
f 221/221/221 222/222/222 223/223/223 
f 221/221/221 223/223/223 224/224/224 
f 225/225/225 226/226/226 227/227/227 
f 225/225/225 227/227/227 228/228/228 
f 229/229/229 230/230/230 231/231/231 
f 229/229/229 231/231/231 232/232/232 
f 233/233/233 234/234/234 235/235/235 
f 233/233/233 235/235/235 236/236/236 
f 237/237/237 238/238/238 239/239/239 
f 237/237/237 239/239/239 240/240/240 

