g grp5
v 72.000000 10.000000 22.000000
v 8.000000 10.000000 22.000000
v 8.000000 8.000000 22.000000
v 72.000000 8.000000 22.000000
v 72.000000 10.000000 22.000000
v 72.000000 8.000000 22.000000
v 72.000000 8.000000 0.000000
v 72.000000 10.000000 0.000000
v 8.000000 8.000000 22.000000
v 8.000000 10.000000 22.000000
v 8.000000 10.000000 0.000000
v 8.000000 8.000000 0.000000
vt -4.853930 -22.000000
vt -1.977530 -22.000000
vt -1.977530 -23.000000
vt -4.853930 -23.000000
vt -4.853930 -22.000000
vt -4.853930 -23.000000
vt -5.842700 -23.000000
vt -5.842700 -22.000000
vt -1.977530 -23.000000
vt -1.977530 -22.000000
vt -0.988764 -22.000000
vt -0.988764 -23.000000
vn 0.000000 -0.000000 1.000000
vn 0.000000 -0.000000 1.000000
vn 0.000000 -0.000000 1.000000
vn 0.000000 -0.000000 1.000000
vn 1.000000 0.000000 -0.000000
vn 1.000000 0.000000 -0.000000
vn 1.000000 0.000000 -0.000000
vn 1.000000 0.000000 -0.000000
vn -1.000000 0.000000 -0.000000
vn -1.000000 0.000000 -0.000000
vn -1.000000 0.000000 -0.000000
vn -1.000000 0.000000 -0.000000
usemtl mat4
f 1/1/1 2/2/2 3/3/3 
f 1/1/1 3/3/3 4/4/4 
f 5/5/5 6/6/6 7/7/7 
f 5/5/5 7/7/7 8/8/8 
f 9/9/9 10/10/10 11/11/11 
f 9/9/9 11/11/11 12/12/12 

