g grp1
v 82.000000 48.000000 2.000000
v -2.000000 48.000000 2.000000
v -2.000000 44.000000 2.000000
v 82.000000 44.000000 2.000000
v -4.000000 48.000000 -28.000000
v 4.000000 48.000000 -28.000000
v 4.000000 48.000000 -26.000000
v -2.000000 48.000000 -26.000000
v -2.000000 48.000000 2.000000
v 82.000000 48.000000 2.000000
v 82.000000 48.000000 -26.000000
v 76.000000 48.000000 -26.000000
v 76.000000 48.000000 -28.000000
v 84.000000 48.000000 -28.000000
v 84.000000 48.000000 4.000000
v -4.000000 48.000000 4.000000
v -4.000000 52.000000 -28.000000
v 4.000000 52.000000 -28.000000
v 4.000000 48.000000 -28.000000
v -4.000000 48.000000 -28.000000
v 84.000000 52.000000 4.000000
v -4.000000 52.000000 4.000000
v -4.000000 48.000000 4.000000
v 84.000000 48.000000 4.000000
v -4.000000 52.000000 4.000000
v -4.000000 52.000000 -28.000000
v -4.000000 48.000000 -28.000000
v -4.000000 48.000000 4.000000
v 84.000000 52.000000 -28.000000
v 84.000000 52.000000 4.000000
v 84.000000 48.000000 4.000000
v 84.000000 48.000000 -28.000000
v 4.000000 48.000000 -26.000000
v 4.000000 48.000000 -28.000000
v 4.000000 52.000000 -28.000000
v 4.000000 52.000000 -26.000000
v -2.000000 48.000000 -26.000000
v 4.000000 48.000000 -26.000000
v 4.000000 52.000000 -26.000000
v 6.000000 52.000000 -26.000000
v 6.000000 44.000000 -26.000000
v -2.000000 44.000000 -26.000000
v 6.000000 44.000000 -24.000000
v 6.000000 44.000000 -26.000000
v 6.000000 52.000000 -26.000000
v 6.000000 52.000000 -24.000000
v -2.000000 44.000000 -26.000000
v 6.000000 44.000000 -26.000000
v 6.000000 44.000000 -24.000000
v 0.000000 44.000000 -24.000000
v 0.000000 44.000000 -0.000000
v 80.000000 44.000000 -0.000000
v 80.000000 44.000000 -24.000000
v 74.000000 44.000000 -24.000000
v 74.000000 44.000000 -26.000000
v 82.000000 44.000000 -26.000000
v 82.000000 44.000000 2.000000
v -2.000000 44.000000 2.000000
v 80.000000 44.000000 -24.000000
v 0.000000 44.000000 -24.000000
v 6.000000 44.000000 -24.000000
v 33.000000 37.000000 -24.000000
v 33.000000 11.000000 -24.000000
v 80.000000 0.000000 -24.000000
v 7.000000 11.000000 -24.000000
v 0.000000 0.000000 -24.000000
v 0.000000 44.000000 -24.000000
v 0.000000 0.000000 -24.000000
v 0.000000 0.000000 -0.000000
v 0.000000 44.000000 -0.000000
v 0.000000 44.000000 -24.000000
v 80.000000 0.000000 -24.000000
v 80.000000 0.000000 -0.000000
v 0.000000 0.000000 -0.000000
v 0.000000 0.000000 -24.000000
v 80.000000 0.000000 -0.000000
v 80.000000 0.000000 -24.000000
v 80.000000 44.000000 -24.000000
v 80.000000 44.000000 -0.000000
v 64.000000 14.500000 -0.000000
v 80.000000 0.000000 -0.000000
v 80.000000 44.000000 -0.000000
v 64.000000 14.500000 -0.000000
v 0.000000 0.000000 -0.000000
v 16.000000 14.500000 -0.000000
v 0.000000 44.000000 -0.000000
v 16.000000 40.000000 -0.000000
v 80.000000 44.000000 -0.000000
v 64.000000 40.000000 -0.000000
v 0.000000 44.000000 -0.000000
v 80.000000 44.000000 -0.000000
v 7.000000 11.000000 -24.000000
v 0.000000 44.000000 -24.000000
v 7.000000 37.000000 -24.000000
v 33.000000 37.000000 -24.000000
v 6.000000 44.000000 -24.000000
v 74.000000 44.000000 -24.000000
v 6.000000 52.000000 -24.000000
v 74.000000 52.000000 -24.000000
v 74.000000 44.000000 -26.000000
v 74.000000 52.000000 -26.000000
v 76.000000 52.000000 -26.000000
v 76.000000 48.000000 -26.000000
v 82.000000 48.000000 -26.000000
v 82.000000 44.000000 -26.000000
v 74.000000 44.000000 -26.000000
v 74.000000 44.000000 -24.000000
v 74.000000 52.000000 -24.000000
v 74.000000 52.000000 -26.000000
v 76.000000 48.000000 -28.000000
v 76.000000 48.000000 -26.000000
v 76.000000 52.000000 -26.000000
v 76.000000 52.000000 -28.000000
v 76.000000 48.000000 -28.000000
v 76.000000 52.000000 -28.000000
v 84.000000 52.000000 -28.000000
v 84.000000 48.000000 -28.000000
v 82.000000 48.000000 -26.000000
v 82.000000 48.000000 2.000000
v 82.000000 44.000000 2.000000
v 82.000000 44.000000 -26.000000
v -2.000000 48.000000 2.000000
v -2.000000 48.000000 -26.000000
v -2.000000 44.000000 -26.000000
v -2.000000 44.000000 2.000000
vt 9.225640 -0.156740
vt 7.970110 -0.156740
vt 7.970110 -0.227012
vt 9.225640 -0.227012
vt 7.940210 -0.707236
vt 8.059790 -0.707236
vt 8.059790 -0.672830
vt 7.970110 -0.672830
vt 7.970110 -0.191146
vt 9.225640 -0.191146
vt 9.225640 -0.672830
vt 9.135960 -0.672830
vt 9.135960 -0.707236
vt 9.255540 -0.707236
vt 9.255540 -0.156740
vt 7.940210 -0.156740
vt 7.451770 -0.086469
vt 7.329660 -0.086469
vt 7.329660 -0.156740
vt 7.451770 -0.156740
vt 9.255540 -0.086469
vt 7.940210 -0.086469
vt 7.940210 -0.156740
vt 9.255540 -0.156740
vt 7.940210 -0.086469
vt 7.451770 -0.086469
vt 7.451770 -0.156740
vt 7.940210 -0.156740
vt 9.743980 -0.086469
vt 9.255540 -0.086469
vt 9.255540 -0.156740
vt 9.743980 -0.156740
vt 7.299130 -0.156740
vt 7.329660 -0.156740
vt 7.329660 -0.086469
vt 7.299130 -0.086469
vt 7.542720 -0.156740
vt 7.451130 -0.156740
vt 7.451130 -0.086469
vt 7.420600 -0.086469
vt 7.420600 -0.227012
vt 7.542720 -0.227012
vt 7.390080 -0.227012
vt 7.420600 -0.227012
vt 7.420600 -0.086469
vt 7.390080 -0.086469
vt 7.970110 -0.708696
vt 8.089680 -0.708696
vt 8.089680 -0.674290
vt 8.000000 -0.674290
vt 8.000000 -0.261418
vt 9.195750 -0.261418
vt 9.195750 -0.674290
vt 9.106070 -0.674290
vt 9.106070 -0.708696
vt 9.225640 -0.708696
vt 9.225640 -0.227012
vt 7.970110 -0.227012
vt 6.412550 -0.227012
vt 7.633670 -0.227012
vt 7.542080 -0.227012
vt 7.129960 -0.349987
vt 7.129960 -0.806753
vt 6.412550 -1.000000
vt 7.526820 -0.806753
vt 7.633670 -1.000000
vt 7.633670 -0.227012
vt 7.633670 -1.000000
vt 8.000000 -1.000000
vt 8.000000 -0.227012
vt 7.633670 -0.227012
vt 9.195750 -1.412872
vt 9.195750 -1.000000
vt 8.000000 -1.000000
vt 8.000000 -1.412872
vt 9.195750 -1.000000
vt 9.562080 -1.000000
vt 9.562080 -0.227012
vt 9.195750 -0.227012
vt 8.956600 -0.745265
vt 9.195750 -1.000000
vt 9.195750 -0.227012
vt 8.956600 -0.745265
vt 8.000000 -1.000000
vt 8.239150 -0.745265
vt 8.000000 -0.227012
vt 8.239150 -0.297283
vt 9.195750 -0.227012
vt 8.956600 -0.297283
vt 8.000000 -0.227012
vt 9.195750 -0.227012
vt 7.526820 -0.806753
vt 7.633670 -0.227012
vt 7.526820 -0.349987
vt 7.129960 -0.349987
vt 7.542080 -0.227012
vt 6.504140 -0.227012
vt 7.542080 -0.086469
vt 6.504140 -0.086469
vt 9.775150 -0.227012
vt 9.775150 -0.086469
vt 9.744620 -0.086469
vt 9.744620 -0.156740
vt 9.653030 -0.156740
vt 9.653030 -0.227012
vt 6.473610 -0.227012
vt 6.504140 -0.227012
vt 6.504140 -0.086469
vt 6.473610 -0.086469
vt 6.443080 -0.156740
vt 6.473610 -0.156740
vt 6.473610 -0.086469
vt 6.443080 -0.086469
vt 4.432770 -0.156740
vt 4.432770 -0.086469
vt 4.310660 -0.086469
vt 4.310660 -0.156740
vt 9.653030 -0.156740
vt 9.225640 -0.156740
vt 9.225640 -0.227012
vt 9.653030 -0.227012
vt 7.970110 -0.156740
vt 7.542720 -0.156740
vt 7.542720 -0.227012
vt 7.970110 -0.227012
vn 0.000000 0.000000 1.000000
vn 0.000000 0.000000 1.000000
vn 0.000000 0.000000 1.000000
vn 0.000000 0.000000 1.000000
vn 0.000000 -1.000000 -0.000000
vn 0.000000 -1.000000 -0.000000
vn 0.000000 -1.000000 -0.000000
vn 0.000000 -1.000000 -0.000000
vn 0.000000 -1.000000 -0.000000
vn 0.000000 -1.000000 -0.000000
vn 0.000000 -1.000000 -0.000000
vn 0.000000 -1.000000 -0.000000
vn 0.000000 -1.000000 -0.000000
vn 0.000000 -1.000000 -0.000000
vn 0.000000 -1.000000 -0.000000
vn 0.000000 -1.000000 -0.000000
vn 0.000000 0.000000 -1.000000
vn 0.000000 0.000000 -1.000000
vn 0.000000 0.000000 -1.000000
vn 0.000000 0.000000 -1.000000
vn 0.000000 0.000000 1.000000
vn 0.000000 0.000000 1.000000
vn 0.000000 0.000000 1.000000
vn 0.000000 0.000000 1.000000
vn -1.000000 0.000000 -0.000000
vn -1.000000 0.000000 -0.000000
vn -1.000000 0.000000 -0.000000
vn -1.000000 0.000000 -0.000000
vn 1.000000 0.000000 -0.000000
vn 1.000000 0.000000 -0.000000
vn 1.000000 0.000000 -0.000000
vn 1.000000 0.000000 -0.000000
vn 1.000000 0.000000 -0.000000
vn 1.000000 0.000000 -0.000000
vn 1.000000 0.000000 -0.000000
vn 1.000000 0.000000 -0.000000
vn 0.000000 0.000000 -1.000000
vn 0.000000 0.000000 -1.000000
vn 0.000000 0.000000 -1.000000
vn 0.000000 0.000000 -1.000000
vn 0.000000 0.000000 -1.000000
vn 0.000000 0.000000 -1.000000
vn 1.000000 0.000000 -0.000000
vn 1.000000 0.000000 -0.000000
vn 1.000000 0.000000 -0.000000
vn 1.000000 0.000000 -0.000000
vn 0.000000 -1.000000 -0.000000
vn 0.000000 -1.000000 -0.000000
vn 0.000000 -1.000000 -0.000000
vn 0.000000 -1.000000 -0.000000
vn 0.000000 -1.000000 -0.000000
vn 0.000000 -1.000000 -0.000000
vn 0.000000 -1.000000 -0.000000
vn 0.000000 -1.000000 -0.000000
vn 0.000000 -1.000000 -0.000000
vn 0.000000 -1.000000 -0.000000
vn 0.000000 -1.000000 -0.000000
vn 0.000000 -1.000000 -0.000000
vn 0.000000 0.000000 -1.000000
vn 0.000000 0.000000 -1.000000
vn 0.000000 0.000000 -1.000000
vn 0.000000 0.000000 -1.000000
vn 0.000000 0.000000 -1.000000
vn 0.000000 0.000000 -1.000000
vn 0.000000 0.000000 -1.000000
vn 0.000000 0.000000 -1.000000
vn 0.000000 0.000000 -1.000000
vn -1.000000 0.000000 -0.000000
vn -1.000000 0.000000 -0.000000
vn -1.000000 0.000000 -0.000000
vn -1.000000 0.000000 -0.000000
vn 0.000000 -1.000000 -0.000000
vn 0.000000 -1.000000 -0.000000
vn 0.000000 -1.000000 -0.000000
vn 0.000000 -1.000000 -0.000000
vn 1.000000 0.000000 -0.000000
vn 1.000000 0.000000 -0.000000
vn 1.000000 0.000000 -0.000000
vn 1.000000 0.000000 -0.000000
vn 0.000000 0.000000 1.000000
vn 0.000000 0.000000 1.000000
vn 0.000000 0.000000 1.000000
vn 0.000000 0.000000 1.000000
vn 0.000000 0.000000 1.000000
vn 0.000000 0.000000 1.000000
vn 0.000000 0.000000 1.000000
vn 0.000000 0.000000 1.000000
vn 0.000000 0.000000 1.000000
vn 0.000000 0.000000 1.000000
vn 0.000000 0.000000 1.000000
vn 0.000000 0.000000 1.000000
vn 0.000000 0.000000 -1.000000
vn 0.000000 0.000000 -1.000000
vn 0.000000 0.000000 -1.000000
vn 0.000000 0.000000 -1.000000
vn 0.000000 0.000000 -1.000000
vn 0.000000 0.000000 -1.000000
vn 0.000000 0.000000 -1.000000
vn 0.000000 0.000000 -1.000000
vn 0.000000 0.000000 -1.000000
vn 0.000000 0.000000 -1.000000
vn 0.000000 0.000000 -1.000000
vn 0.000000 0.000000 -1.000000
vn 0.000000 0.000000 -1.000000
vn 0.000000 0.000000 -1.000000
vn -1.000000 0.000000 -0.000000
vn -1.000000 0.000000 -0.000000
vn -1.000000 0.000000 -0.000000
vn -1.000000 0.000000 -0.000000
vn -1.000000 0.000000 -0.000000
vn -1.000000 0.000000 -0.000000
vn -1.000000 0.000000 -0.000000
vn -1.000000 0.000000 -0.000000
vn 0.000000 0.000000 -1.000000
vn 0.000000 0.000000 -1.000000
vn 0.000000 0.000000 -1.000000
vn 0.000000 0.000000 -1.000000
vn 1.000000 0.000000 -0.000000
vn 1.000000 0.000000 -0.000000
vn 1.000000 0.000000 -0.000000
vn 1.000000 0.000000 -0.000000
vn -1.000000 0.000000 -0.000000
vn -1.000000 0.000000 -0.000000
vn -1.000000 0.000000 -0.000000
vn -1.000000 0.000000 -0.000000
usemtl mat0
f 1/1/1 2/2/2 3/3/3 
f 1/1/1 3/3/3 4/4/4 
f 5/5/5 6/6/6 7/7/7 
f 5/5/5 7/7/7 8/8/8 
f 5/5/5 8/8/8 9/9/9 
f 5/5/5 9/9/9 10/10/10 
f 5/5/5 10/10/10 11/11/11 
f 5/5/5 11/11/11 12/12/12 
f 5/5/5 12/12/12 13/13/13 
f 5/5/5 13/13/13 14/14/14 
f 5/5/5 14/14/14 15/15/15 
f 5/5/5 15/15/15 16/16/16 
f 17/17/17 18/18/18 19/19/19 
f 17/17/17 19/19/19 20/20/20 
f 21/21/21 22/22/22 23/23/23 
f 21/21/21 23/23/23 24/24/24 
f 25/25/25 26/26/26 27/27/27 
f 25/25/25 27/27/27 28/28/28 
f 29/29/29 30/30/30 31/31/31 
f 29/29/29 31/31/31 32/32/32 
f 33/33/33 34/34/34 35/35/35 
f 33/33/33 35/35/35 36/36/36 
f 37/37/37 38/38/38 39/39/39 
f 37/37/37 39/39/39 40/40/40 
f 37/37/37 40/40/40 41/41/41 
f 37/37/37 41/41/41 42/42/42 
f 43/43/43 44/44/44 45/45/45 
f 43/43/43 45/45/45 46/46/46 
f 47/47/47 48/48/48 49/49/49 
f 47/47/47 49/49/49 50/50/50 
f 47/47/47 50/50/50 51/51/51 
f 47/47/47 51/51/51 52/52/52 
f 47/47/47 52/52/52 53/53/53 
f 47/47/47 53/53/53 54/54/54 
f 47/47/47 54/54/54 55/55/55 
f 47/47/47 55/55/55 56/56/56 
f 47/47/47 56/56/56 57/57/57 
f 47/47/47 57/57/57 58/58/58 
f 59/59/59 60/60/60 61/61/61 
f 59/59/59 62/62/62 60/60/60 
f 59/59/59 63/63/63 62/62/62 
f 64/64/64 63/63/63 59/59/59 
f 63/63/63 64/64/64 65/65/65 
f 66/66/66 65/65/65 64/64/64 
f 65/65/65 66/66/66 67/67/67 
f 68/68/68 69/69/69 70/70/70 
f 68/68/68 70/70/70 71/71/71 
f 72/72/72 73/73/73 74/74/74 
f 72/72/72 74/74/74 75/75/75 
f 76/76/76 77/77/77 78/78/78 
f 76/76/76 78/78/78 79/79/79 
f 80/80/80 81/81/81 82/82/82 
f 81/81/81 83/83/83 84/84/84 
f 85/85/85 84/84/84 83/83/83 
f 84/84/84 85/85/85 86/86/86 
f 86/86/86 85/85/85 87/87/87 
f 83/83/83 88/88/88 89/89/89 
f 89/89/89 88/88/88 87/87/87 
f 90/90/90 87/87/87 91/91/91 
f 92/92/92 93/93/93 94/94/94 
f 94/94/94 93/93/93 95/95/95 
f 59/59/59 96/96/96 97/97/97 
f 98/98/98 97/97/97 96/96/96 
f 97/97/97 98/98/98 99/99/99 
f 100/100/100 101/101/101 102/102/102 
f 100/100/100 102/102/102 103/103/103 
f 100/100/100 103/103/103 104/104/104 
f 100/100/100 104/104/104 105/105/105 
f 106/106/106 107/107/107 108/108/108 
f 106/106/106 108/108/108 109/109/109 
f 110/110/110 111/111/111 112/112/112 
f 110/110/110 112/112/112 113/113/113 
f 114/114/114 115/115/115 116/116/116 
f 114/114/114 116/116/116 117/117/117 
f 118/118/118 119/119/119 120/120/120 
f 118/118/118 120/120/120 121/121/121 
f 122/122/122 123/123/123 124/124/124 
f 122/122/122 124/124/124 125/125/125 

