g grp7
v 10.000000 8.000000 20.000000
v 10.000000 8.000000 0.000000
v 10.000000 0.000000 -0.000000
v 10.000000 -0.000000 20.000000
v 10.000000 -0.000000 20.000000
v 70.000000 -0.000000 20.000000
v 70.000000 8.000000 20.000000
v 10.000000 8.000000 20.000000
v 10.000000 -0.000000 20.000000
v 10.000000 0.000000 -0.000000
v 70.000000 -0.000000 0.000000
v 70.000000 -0.000000 20.000000
v 70.000000 -0.000000 20.000000
v 70.000000 -0.000000 0.000000
v 70.000000 8.000000 0.000000
v 70.000000 8.000000 20.000000
vt 3.600000 -0.846154
vt 3.933330 -0.846154
vt 3.933330 -1.000000
vt 3.600000 -1.000000
vt 3.600000 -1.000000
vt 2.600000 -1.000000
vt 2.600000 -0.846154
vt 3.600000 -0.846154
vt 3.266670 0.153850
vt 2.933330 0.153850
vt 2.933330 -1.000000
vt 3.266670 -1.000000
vt 3.266670 -1.000000
vt 2.933330 -1.000000
vt 2.933330 -0.846154
vt 3.266670 -0.846154
vn -1.000000 0.000000 -0.000000
vn -1.000000 0.000000 -0.000000
vn -1.000000 0.000000 -0.000000
vn -1.000000 0.000000 -0.000000
vn 0.000000 -0.000000 1.000000
vn 0.000000 -0.000000 1.000000
vn 0.000000 -0.000000 1.000000
vn 0.000000 -0.000000 1.000000
vn -0.000000 -1.000000 -0.000000
vn -0.000000 -1.000000 -0.000000
vn -0.000000 -1.000000 -0.000000
vn -0.000000 -1.000000 -0.000000
vn 1.000000 -0.000000 0.000000
vn 1.000000 -0.000000 0.000000
vn 1.000000 -0.000000 0.000000
vn 1.000000 -0.000000 0.000000
usemtl mat6
f 1/1/1 2/2/2 3/3/3 
f 1/1/1 3/3/3 4/4/4 
f 5/5/5 6/6/6 7/7/7 
f 5/5/5 7/7/7 8/8/8 
f 9/9/9 10/10/10 11/11/11 
f 9/9/9 11/11/11 12/12/12 
f 13/13/13 14/14/14 15/15/15 
f 13/13/13 15/15/15 16/16/16 

