g grp1
v 45.000000 -37.500000 -45.000000
v 15.000000 -37.500000 -45.000000
v 45.000000 -37.500000 -15.000000
v 15.000000 -37.500000 -15.000000
v 45.000000 -37.500000 -15.000000
v 15.000000 -37.500000 -15.000000
v 45.000000 -37.500000 15.000000
v 15.000000 -37.500000 15.000000
v 45.000000 -37.500000 15.000000
v 15.000000 -37.500000 15.000000
v 45.000000 -37.500000 45.000000
v 15.000000 -37.500000 45.000000
v 15.000000 -37.500000 -45.000000
v -15.000000 -37.500000 -45.000000
v 15.000000 -37.500000 -15.000000
v -15.000000 -37.500000 -15.000000
v 15.000000 -37.500000 -15.000000
v -15.000000 -37.500000 -15.000000
v 15.000000 -37.500000 15.000000
v -15.000000 -37.500000 15.000000
v 15.000000 -37.500000 15.000000
v -15.000000 -37.500000 15.000000
v 15.000000 -37.500000 45.000000
v -15.000000 -37.500000 45.000000
v -15.000000 -37.500000 -45.000000
v -45.000000 -37.500000 -45.000000
v -15.000000 -37.500000 -15.000000
v -45.000000 -37.500000 -15.000000
v -15.000000 -37.500000 -15.000000
v -45.000000 -37.500000 -15.000000
v -15.000000 -37.500000 15.000000
v -45.000000 -37.500000 15.000000
v -15.000000 -37.500000 15.000000
v -45.000000 -37.500000 15.000000
v -15.000000 -37.500000 45.000000
v -45.000000 -37.500000 45.000000
vt 0.000000 -0.000000
vt 1.000000 -0.000000
vt 0.000000 -1.000000
vt 1.000000 -1.000000
vt 0.000000 -0.000000
vt 1.000000 -0.000000
vt 0.000000 -1.000000
vt 1.000000 -1.000000
vt 0.000000 -0.000000
vt 1.000000 -0.000000
vt 0.000000 -1.000000
vt 1.000000 -1.000000
vt 0.000000 -0.000000
vt 1.000000 -0.000000
vt 0.000000 -1.000000
vt 1.000000 -1.000000
vt 0.000000 -0.000000
vt 1.000000 -0.000000
vt 0.000000 -1.000000
vt 1.000000 -1.000000
vt 0.000000 -0.000000
vt 1.000000 -0.000000
vt 0.000000 -1.000000
vt 1.000000 -1.000000
vt 0.000000 -0.000000
vt 1.000000 -0.000000
vt 0.000000 -1.000000
vt 1.000000 -1.000000
vt 0.000000 -0.000000
vt 1.000000 -0.000000
vt 0.000000 -1.000000
vt 1.000000 -1.000000
vt 0.000000 -0.000000
vt 1.000000 -0.000000
vt 0.000000 -1.000000
vt 1.000000 -1.000000
vn -0.000000 1.000000 0.000000
vn -0.000000 1.000000 0.000000
vn -0.000000 1.000000 0.000000
vn -0.000000 1.000000 0.000000
vn -0.000000 1.000000 0.000000
vn -0.000000 1.000000 0.000000
vn -0.000000 1.000000 0.000000
vn -0.000000 1.000000 0.000000
vn -0.000000 1.000000 0.000000
vn -0.000000 1.000000 0.000000
vn -0.000000 1.000000 0.000000
vn -0.000000 1.000000 0.000000
vn -0.000000 1.000000 0.000000
vn -0.000000 1.000000 0.000000
vn -0.000000 1.000000 0.000000
vn -0.000000 1.000000 0.000000
vn -0.000000 1.000000 0.000000
vn -0.000000 1.000000 0.000000
vn -0.000000 1.000000 0.000000
vn -0.000000 1.000000 0.000000
vn -0.000000 1.000000 0.000000
vn -0.000000 1.000000 0.000000
vn -0.000000 1.000000 0.000000
vn -0.000000 1.000000 0.000000
vn -0.000000 1.000000 0.000000
vn -0.000000 1.000000 0.000000
vn -0.000000 1.000000 0.000000
vn -0.000000 1.000000 0.000000
vn -0.000000 1.000000 0.000000
vn -0.000000 1.000000 0.000000
vn -0.000000 1.000000 0.000000
vn -0.000000 1.000000 0.000000
vn -0.000000 1.000000 0.000000
vn -0.000000 1.000000 0.000000
vn -0.000000 1.000000 0.000000
vn -0.000000 1.000000 0.000000
usemtl mat0
f 2/2/2 4/4/4 1/1/1 
f 4/4/4 3/3/3 1/1/1 
f 6/6/6 8/8/8 5/5/5 
f 8/8/8 7/7/7 5/5/5 
f 10/10/10 12/12/12 9/9/9 
f 12/12/12 11/11/11 9/9/9 
f 14/14/14 16/16/16 13/13/13 
f 16/16/16 15/15/15 13/13/13 
f 18/18/18 20/20/20 17/17/17 
f 20/20/20 19/19/19 17/17/17 
f 22/22/22 24/24/24 21/21/21 
f 24/24/24 23/23/23 21/21/21 
f 26/26/26 28/28/28 25/25/25 
f 28/28/28 27/27/27 25/25/25 
f 30/30/30 32/32/32 29/29/29 
f 32/32/32 31/31/31 29/29/29 
f 34/34/34 36/36/36 33/33/33 
f 36/36/36 35/35/35 33/33/33 

