g grp3
v 45.000000 -37.500000 -45.000000
v 45.000000 7.500000 -45.000000
v 45.000000 -37.500000 -15.000000
v 45.000000 7.500000 -15.000000
v 45.000000 -37.500000 -45.000000
v 45.000000 7.500000 -45.000000
v 15.000000 -37.500000 -45.000000
v 15.000000 7.500000 -45.000000
v 45.000000 -37.500000 -15.000000
v 45.000000 7.500000 -15.000000
v 45.000000 -37.500000 15.000000
v 45.000000 7.500000 15.000000
v 45.000000 -37.500000 15.000000
v 45.000000 7.500000 15.000000
v 45.000000 -37.500000 45.000000
v 45.000000 7.500000 45.000000
v 45.000000 -37.500000 45.000000
v 45.000000 7.500000 45.000000
v 15.000000 -37.500000 45.000000
v 15.000000 7.500000 45.000000
v 15.000000 -37.500000 -45.000000
v 15.000000 7.500000 -45.000000
v -15.000000 -37.500000 -45.000000
v -15.000000 7.500000 -45.000000
v 15.000000 -37.500000 45.000000
v 15.000000 7.500000 45.000000
v -15.000000 -37.500000 45.000000
v -15.000000 7.500000 45.000000
v -45.000000 -37.500000 -45.000000
v -45.000000 7.500000 -45.000000
v -45.000000 -37.500000 -15.000000
v -45.000000 7.500000 -15.000000
v -15.000000 -37.500000 -45.000000
v -15.000000 7.500000 -45.000000
v -45.000000 -37.500000 -45.000000
v -45.000000 7.500000 -45.000000
v -45.000000 -37.500000 -15.000000
v -45.000000 7.500000 -15.000000
v -45.000000 -37.500000 15.000000
v -45.000000 7.500000 15.000000
v -45.000000 -37.500000 15.000000
v -45.000000 7.500000 15.000000
v -45.000000 -37.500000 45.000000
v -45.000000 7.500000 45.000000
v -15.000000 -37.500000 45.000000
v -15.000000 7.500000 45.000000
v -45.000000 -37.500000 45.000000
v -45.000000 7.500000 45.000000
vt 1.000000 -1.500000
vt 1.000000 -0.000000
vt 0.000000 -1.500000
vt 0.000000 -0.000000
vt 1.000000 -1.500000
vt 1.000000 -0.000000
vt 0.000000 -1.500000
vt 0.000000 -0.000000
vt 1.000000 -1.500000
vt 1.000000 -0.000000
vt 0.000000 -1.500000
vt 0.000000 -0.000000
vt 1.000000 -1.500000
vt 1.000000 -0.000000
vt 0.000000 -1.500000
vt 0.000000 -0.000000
vt 1.000000 -1.500000
vt 1.000000 -0.000000
vt 0.000000 -1.500000
vt 0.000000 -0.000000
vt 1.000000 -1.500000
vt 1.000000 -0.000000
vt 0.000000 -1.500000
vt 0.000000 -0.000000
vt 1.000000 -1.500000
vt 1.000000 -0.000000
vt 0.000000 -1.500000
vt 0.000000 -0.000000
vt 1.000000 -1.500000
vt 1.000000 -0.000000
vt 0.000000 -1.500000
vt 0.000000 -0.000000
vt 1.000000 -1.500000
vt 1.000000 -0.000000
vt 0.000000 -1.500000
vt 0.000000 -0.000000
vt 1.000000 -1.500000
vt 1.000000 -0.000000
vt 0.000000 -1.500000
vt 0.000000 -0.000000
vt 1.000000 -1.500000
vt 1.000000 -0.000000
vt 0.000000 -1.500000
vt 0.000000 -0.000000
vt 1.000000 -1.500000
vt 1.000000 -0.000000
vt 0.000000 -1.500000
vt 0.000000 -0.000000
vn -1.000000 0.000000 0.000000
vn -1.000000 0.000000 0.000000
vn -1.000000 0.000000 0.000000
vn -1.000000 0.000000 0.000000
vn -0.000000 0.000000 1.000000
vn -0.000000 0.000000 1.000000
vn -0.000000 0.000000 1.000000
vn -0.000000 0.000000 1.000000
vn -1.000000 0.000000 0.000000
vn -1.000000 0.000000 0.000000
vn -1.000000 0.000000 0.000000
vn -1.000000 0.000000 0.000000
vn -1.000000 0.000000 0.000000
vn -1.000000 0.000000 0.000000
vn -1.000000 0.000000 0.000000
vn -1.000000 0.000000 0.000000
vn -0.000000 0.000000 -1.000000
vn -0.000000 0.000000 -1.000000
vn -0.000000 0.000000 -1.000000
vn -0.000000 0.000000 -1.000000
vn -0.000000 0.000000 1.000000
vn -0.000000 0.000000 1.000000
vn -0.000000 0.000000 1.000000
vn -0.000000 0.000000 1.000000
vn -0.000000 0.000000 -1.000000
vn -0.000000 0.000000 -1.000000
vn -0.000000 0.000000 -1.000000
vn -0.000000 0.000000 -1.000000
vn 1.000000 0.000000 0.000000
vn 1.000000 0.000000 0.000000
vn 1.000000 0.000000 0.000000
vn 1.000000 0.000000 0.000000
vn -0.000000 0.000000 1.000000
vn -0.000000 0.000000 1.000000
vn -0.000000 0.000000 1.000000
vn -0.000000 0.000000 1.000000
vn 1.000000 0.000000 0.000000
vn 1.000000 0.000000 0.000000
vn 1.000000 0.000000 0.000000
vn 1.000000 0.000000 0.000000
vn 1.000000 0.000000 0.000000
vn 1.000000 0.000000 0.000000
vn 1.000000 0.000000 0.000000
vn 1.000000 0.000000 0.000000
vn -0.000000 0.000000 -1.000000
vn -0.000000 0.000000 -1.000000
vn -0.000000 0.000000 -1.000000
vn -0.000000 0.000000 -1.000000
usemtl mat2
f 4/4/4 2/2/2 1/1/1 
f 3/3/3 4/4/4 1/1/1 
f 6/6/6 8/8/8 5/5/5 
f 8/8/8 7/7/7 5/5/5 
f 12/12/12 10/10/10 9/9/9 
f 11/11/11 12/12/12 9/9/9 
f 16/16/16 14/14/14 13/13/13 
f 15/15/15 16/16/16 13/13/13 
f 20/20/20 18/18/18 17/17/17 
f 19/19/19 20/20/20 17/17/17 
f 22/22/22 24/24/24 21/21/21 
f 24/24/24 23/23/23 21/21/21 
f 28/28/28 26/26/26 25/25/25 
f 27/27/27 28/28/28 25/25/25 
f 30/30/30 32/32/32 29/29/29 
f 32/32/32 31/31/31 29/29/29 
f 34/34/34 36/36/36 33/33/33 
f 36/36/36 35/35/35 33/33/33 
f 38/38/38 40/40/40 37/37/37 
f 40/40/40 39/39/39 37/37/37 
f 42/42/42 44/44/44 41/41/41 
f 44/44/44 43/43/43 41/41/41 
f 48/48/48 46/46/46 45/45/45 
f 47/47/47 48/48/48 45/45/45 

