g grp3
v 35.975201 0.000000 -19.155500
v 17.987600 0.000000 -19.155500
v 17.987600 10.000000 -19.155500
v 35.975201 10.000000 -19.155500
v -35.975201 0.000000 -19.155500
v -17.987600 0.000000 -19.155500
v -17.987600 10.000000 -19.155500
v -35.975201 10.000000 -19.155500
vt -35.975201 -1.000000
vt -17.987600 -1.000000
vt -17.987600 9.000000
vt -35.975201 9.000000
vt -35.975201 -1.000000
vt -17.987600 -1.000000
vt -17.987600 9.000000
vt -35.975201 9.000000
vn 0.000000 0.000000 -1.000000
vn 0.000000 0.000000 -1.000000
vn 0.000000 0.000000 -1.000000
vn 0.000000 0.000000 -1.000000
vn 0.000000 0.000000 1.000000
vn 0.000000 0.000000 1.000000
vn 0.000000 0.000000 1.000000
vn 0.000000 0.000000 1.000000
usemtl mat2
f 1/1/1 2/2/2 3/3/3 
f 1/1/1 3/3/3 4/4/4 
f 5/5/5 6/6/6 7/7/7 
f 5/5/5 7/7/7 8/8/8 

