g grp22
v 181.764999 92.677803 -48.853298
v 185.000000 93.103798 -48.853298
v 188.235001 92.677803 -48.853298
v 191.250000 91.429100 -48.853298
v 193.839005 89.442596 -48.853298
v 195.824997 86.853798 -48.853298
v 197.074005 83.838997 -48.853298
v 197.500000 80.603798 -48.853298
v 197.074005 77.368500 -48.853298
v 195.824997 74.353798 -48.853298
v 193.839005 71.764900 -48.853298
v 191.250000 69.778503 -48.853298
v 188.235001 68.529701 -48.853298
v 185.000000 68.103798 -48.853298
v 181.764999 68.529701 -48.853298
v 178.750000 69.778503 -48.853298
v 176.160995 71.764900 -48.853298
v 174.175003 74.353798 -48.853298
v 172.925995 77.368500 -48.853298
v 172.500000 80.603798 -48.853298
v 172.925995 83.838997 -48.853298
v 174.175003 86.853798 -48.853298
v 176.160995 89.442596 -48.853298
v 178.750000 91.429100 -48.853298
vt -7.156090 2.648730
vt -7.283460 2.665500
vt -7.410840 2.648730
vt -7.529530 2.599570
vt -7.631450 2.521360
vt -7.709660 2.419440
vt -7.758820 2.300750
vt -7.775590 2.173380
vt -7.758820 2.046010
vt -7.709660 1.927310
vt -7.631450 1.825390
vt -7.529530 1.747180
vt -7.410840 1.698020
vt -7.283460 1.681250
vt -7.156090 1.698020
vt -7.037400 1.747180
vt -6.935480 1.825390
vt -6.857270 1.927310
vt -6.808110 2.046010
vt -6.791340 2.173380
vt -6.808110 2.300750
vt -6.857270 2.419440
vt -6.935480 2.521360
vt -7.037400 2.599570
vn -0.000000 -0.000000 -1.000000
vn -0.000000 -0.000000 -1.000000
vn -0.000000 -0.000000 -1.000000
vn -0.000000 -0.000000 -1.000000
vn -0.000000 -0.000000 -1.000000
vn -0.000000 -0.000000 -1.000000
vn -0.000000 -0.000000 -1.000000
vn -0.000000 -0.000000 -1.000000
vn -0.000000 -0.000000 -1.000000
vn -0.000000 -0.000000 -1.000000
vn -0.000000 -0.000000 -1.000000
vn -0.000000 -0.000000 -1.000000
vn -0.000000 -0.000000 -1.000000
vn -0.000000 -0.000000 -1.000000
vn -0.000000 -0.000000 -1.000000
vn -0.000000 -0.000000 -1.000000
vn -0.000000 -0.000000 -1.000000
vn -0.000000 -0.000000 -1.000000
vn -0.000000 -0.000000 -1.000000
vn -0.000000 -0.000000 -1.000000
vn -0.000000 -0.000000 -1.000000
vn -0.000000 -0.000000 -1.000000
vn -0.000000 -0.000000 -1.000000
vn -0.000000 -0.000000 -1.000000
usemtl mat5
f 1/1/1 2/2/2 3/3/3 
f 1/1/1 3/3/3 4/4/4 
f 1/1/1 4/4/4 5/5/5 
f 1/1/1 5/5/5 6/6/6 
f 1/1/1 6/6/6 7/7/7 
f 1/1/1 7/7/7 8/8/8 
f 1/1/1 8/8/8 9/9/9 
f 1/1/1 9/9/9 10/10/10 
f 1/1/1 10/10/10 11/11/11 
f 1/1/1 11/11/11 12/12/12 
f 1/1/1 12/12/12 13/13/13 
f 1/1/1 13/13/13 14/14/14 
f 1/1/1 14/14/14 15/15/15 
f 1/1/1 15/15/15 16/16/16 
f 1/1/1 16/16/16 17/17/17 
f 1/1/1 17/17/17 18/18/18 
f 1/1/1 18/18/18 19/19/19 
f 1/1/1 19/19/19 20/20/20 
f 1/1/1 20/20/20 21/21/21 
f 1/1/1 21/21/21 22/22/22 
f 1/1/1 22/22/22 23/23/23 
f 1/1/1 23/23/23 24/24/24 

