g grp25
v 157.500000 80.603798 -48.853298
v 157.074005 83.838997 -48.853298
v 157.074005 83.838997 -5.898650
v 157.500000 80.603798 -5.898650
v 155.824997 86.853798 -48.853298
v 155.824997 86.853798 -5.898650
v 157.074005 83.838997 -5.898650
v 155.824997 86.853798 -48.853298
v 153.839005 89.442596 -48.853298
v 153.839005 89.442596 -5.898650
v 151.250000 91.429100 -48.853298
v 151.250000 91.429100 -5.898650
v 148.235001 92.677803 -48.853298
v 148.235001 92.677803 -5.898650
v 145.000000 93.103798 -48.853298
v 145.000000 93.103798 -5.898650
v 141.764999 92.677803 -48.853298
v 141.764999 92.677803 -5.898650
v 138.750000 91.429100 -48.853298
v 138.750000 91.429100 -5.898650
v 136.160995 89.442596 -48.853298
v 136.160995 89.442596 -5.898650
v 134.175003 86.853798 -48.853298
v 134.175003 86.853798 -5.898650
v 132.925995 83.838997 -48.853298
v 132.925995 83.838997 -5.898650
v 132.500000 80.603798 -48.853298
v 132.500000 80.603798 -5.898650
v 132.925995 77.368500 -48.853298
v 132.925995 77.368500 -5.898650
v 134.175003 74.353798 -48.853298
v 134.175003 74.353798 -5.898650
v 136.160995 71.764900 -48.853298
v 136.160995 71.764900 -5.898650
v 138.750000 69.778503 -48.853298
v 138.750000 69.778503 -5.898650
v 141.764999 68.529701 -48.853298
v 141.764999 68.529701 -5.898650
v 145.000000 68.103798 -48.853298
v 145.000000 68.103798 -5.898650
v 148.235001 68.529701 -48.853298
v 148.235001 68.529701 -5.898650
v 151.250000 69.778503 -48.853298
v 151.250000 69.778503 -5.898650
v 153.839005 71.764900 -48.853298
v 153.839005 71.764900 -5.898650
v 155.824997 74.353798 -48.853298
v 155.824997 74.353798 -5.898650
v 157.074005 77.368500 -48.853298
v 157.074005 77.368500 -5.898650
v 157.500000 80.603798 -48.853298
v 157.500000 80.603798 -5.898650
v 157.500000 80.603798 -5.898650
v 157.074005 83.838997 -5.898650
v 155.824997 86.853798 -5.898650
v 153.839005 89.442596 -5.898650
v 151.250000 91.429100 -5.898650
v 148.235001 92.677803 -5.898650
v 145.000000 93.103798 -5.898650
v 141.764999 92.677803 -5.898650
v 138.750000 91.429100 -5.898650
v 136.160995 89.442596 -5.898650
v 134.175003 86.853798 -5.898650
v 132.925995 83.838997 -5.898650
v 132.500000 80.603798 -5.898650
v 132.925995 77.368500 -5.898650
v 134.175003 74.353798 -5.898650
v 136.160995 71.764900 -5.898650
v 138.750000 69.778503 -5.898650
v 141.764999 68.529701 -5.898650
v 145.000000 68.103798 -5.898650
v 148.235001 68.529701 -5.898650
v 151.250000 69.778503 -5.898650
v 153.839005 71.764900 -5.898650
v 155.824997 74.353798 -5.898650
v 157.074005 77.368500 -5.898650
vt -0.000000 -1.070464
vt 0.005368 -1.070464
vt 0.005368 -1.000000
vt -0.000000 -1.000000
vt 0.010736 -1.070464
vt 0.010736 -1.000000
vt 0.005368 -1.000000
vt 0.010736 -1.070464
vt 0.016105 -1.070464
vt 0.016105 -1.000000
vt 0.021473 -1.070464
vt 0.021473 -1.000000
vt 0.026841 -1.070464
vt 0.026841 -1.000000
vt 0.032210 -1.070464
vt 0.032210 -1.000000
vt 0.037578 -1.070464
vt 0.037578 -1.000000
vt 0.042946 -1.070464
vt 0.042946 -1.000000
vt 0.048314 -1.070464
vt 0.048314 -1.000000
vt 0.053683 -1.070464
vt 0.053683 -1.000000
vt 0.059051 -1.070464
vt 0.059051 -1.000000
vt 0.064419 -1.070464
vt 0.064419 -1.000000
vt 0.069787 -1.070464
vt 0.069787 -1.000000
vt 0.075156 -1.070464
vt 0.075156 -1.000000
vt 0.080524 -1.070464
vt 0.080524 -1.000000
vt 0.085892 -1.070464
vt 0.085892 -1.000000
vt 0.091260 -1.070464
vt 0.091260 -1.000000
vt 0.096629 -1.070464
vt 0.096629 -1.000000
vt 0.101997 -1.070464
vt 0.101997 -1.000000
vt 0.107365 -1.070464
vt 0.107365 -1.000000
vt 0.112733 -1.070464
vt 0.112733 -1.000000
vt 0.118102 -1.070464
vt 0.118102 -1.000000
vt 0.123470 -1.070464
vt 0.123470 -1.000000
vt 0.128838 -1.070464
vt 0.128838 -1.000000
vt 0.258366 -0.867776
vt 0.257667 -0.862469
vt 0.255619 -0.857523
vt 0.252360 -0.853277
vt 0.248114 -0.850018
vt 0.243168 -0.847969
vt 0.237861 -0.847271
vt 0.232554 -0.847969
vt 0.227608 -0.850018
vt 0.223361 -0.853277
vt 0.220103 -0.857523
vt 0.218054 -0.862469
vt 0.217356 -0.867776
vt 0.218054 -0.873083
vt 0.220103 -0.878029
vt 0.223361 -0.882275
vt 0.227608 -0.885534
vt 0.232554 -0.887583
vt 0.237861 -0.888281
vt 0.243168 -0.887583
vt 0.248114 -0.885534
vt 0.252360 -0.882275
vt 0.255619 -0.878029
vt 0.257667 -0.873083
vn 1.000000 0.000000 0.000000
vn 0.965926 0.258819 0.000000
vn 0.965926 0.258819 0.000000
vn 1.000000 0.000000 0.000000
vn 0.866025 0.500000 0.000000
vn 0.866025 0.500000 0.000000
vn 0.965926 0.258819 0.000000
vn 0.866025 0.500000 0.000000
vn 0.707107 0.707107 0.000000
vn 0.707107 0.707107 0.000000
vn 0.500000 0.866025 0.000000
vn 0.500000 0.866025 0.000000
vn 0.258819 0.965926 0.000000
vn 0.258819 0.965926 0.000000
vn 0.000000 1.000000 0.000000
vn 0.000000 1.000000 0.000000
vn -0.258819 0.965926 0.000000
vn -0.258819 0.965926 0.000000
vn -0.500000 0.866025 0.000000
vn -0.500000 0.866025 0.000000
vn -0.707107 0.707107 0.000000
vn -0.707107 0.707107 0.000000
vn -0.866025 0.500000 0.000000
vn -0.866025 0.500000 0.000000
vn -0.965926 0.258819 0.000000
vn -0.965926 0.258819 0.000000
vn -1.000000 0.000000 -0.000000
vn -1.000000 0.000000 -0.000000
vn -0.965926 -0.258819 -0.000000
vn -0.965926 -0.258819 -0.000000
vn -0.866025 -0.500000 -0.000000
vn -0.866025 -0.500000 -0.000000
vn -0.707107 -0.707107 -0.000000
vn -0.707107 -0.707107 -0.000000
vn -0.500000 -0.866025 -0.000000
vn -0.500000 -0.866025 -0.000000
vn -0.258819 -0.965926 -0.000000
vn -0.258819 -0.965926 -0.000000
vn 0.000000 -1.000000 -0.000000
vn 0.000000 -1.000000 -0.000000
vn 0.258819 -0.965926 -0.000000
vn 0.258819 -0.965926 -0.000000
vn 0.500000 -0.866025 -0.000000
vn 0.500000 -0.866025 -0.000000
vn 0.707107 -0.707107 -0.000000
vn 0.707107 -0.707107 -0.000000
vn 0.866025 -0.500000 -0.000000
vn 0.866025 -0.500000 -0.000000
vn 0.965926 -0.258819 -0.000000
vn 0.965926 -0.258819 -0.000000
vn 1.000000 0.000000 0.000000
vn 1.000000 0.000000 0.000000
vn -0.000000 -0.000000 1.000000
vn -0.000000 -0.000000 1.000000
vn -0.000000 -0.000000 1.000000
vn -0.000000 -0.000000 1.000000
vn -0.000000 -0.000000 1.000000
vn -0.000000 -0.000000 1.000000
vn -0.000000 -0.000000 1.000000
vn -0.000000 -0.000000 1.000000
vn -0.000000 -0.000000 1.000000
vn -0.000000 -0.000000 1.000000
vn -0.000000 -0.000000 1.000000
vn -0.000000 -0.000000 1.000000
vn -0.000000 -0.000000 1.000000
vn -0.000000 -0.000000 1.000000
vn -0.000000 -0.000000 1.000000
vn -0.000000 -0.000000 1.000000
vn -0.000000 -0.000000 1.000000
vn -0.000000 -0.000000 1.000000
vn -0.000000 -0.000000 1.000000
vn -0.000000 -0.000000 1.000000
vn -0.000000 -0.000000 1.000000
vn -0.000000 -0.000000 1.000000
vn -0.000000 -0.000000 1.000000
vn -0.000000 -0.000000 1.000000
usemtl mat4
f 1/1/1 2/2/2 3/3/3 
f 1/1/1 3/3/3 4/4/4 
f 2/2/2 5/5/5 6/6/6 
f 2/2/2 6/6/6 7/7/7 
f 8/8/8 9/9/9 10/10/10 
f 8/8/8 10/10/10 6/6/6 
f 9/9/9 11/11/11 12/12/12 
f 9/9/9 12/12/12 10/10/10 
f 11/11/11 13/13/13 14/14/14 
f 11/11/11 14/14/14 12/12/12 
f 13/13/13 15/15/15 16/16/16 
f 13/13/13 16/16/16 14/14/14 
f 15/15/15 17/17/17 18/18/18 
f 15/15/15 18/18/18 16/16/16 
f 17/17/17 19/19/19 20/20/20 
f 17/17/17 20/20/20 18/18/18 
f 19/19/19 21/21/21 22/22/22 
f 19/19/19 22/22/22 20/20/20 
f 21/21/21 23/23/23 24/24/24 
f 21/21/21 24/24/24 22/22/22 
f 23/23/23 25/25/25 26/26/26 
f 23/23/23 26/26/26 24/24/24 
f 25/25/25 27/27/27 28/28/28 
f 25/25/25 28/28/28 26/26/26 
f 27/27/27 29/29/29 30/30/30 
f 27/27/27 30/30/30 28/28/28 
f 29/29/29 31/31/31 32/32/32 
f 29/29/29 32/32/32 30/30/30 
f 31/31/31 33/33/33 34/34/34 
f 31/31/31 34/34/34 32/32/32 
f 33/33/33 35/35/35 36/36/36 
f 33/33/33 36/36/36 34/34/34 
f 35/35/35 37/37/37 38/38/38 
f 35/35/35 38/38/38 36/36/36 
f 37/37/37 39/39/39 40/40/40 
f 37/37/37 40/40/40 38/38/38 
f 39/39/39 41/41/41 42/42/42 
f 39/39/39 42/42/42 40/40/40 
f 41/41/41 43/43/43 44/44/44 
f 41/41/41 44/44/44 42/42/42 
f 43/43/43 45/45/45 46/46/46 
f 43/43/43 46/46/46 44/44/44 
f 45/45/45 47/47/47 48/48/48 
f 45/45/45 48/48/48 46/46/46 
f 47/47/47 49/49/49 50/50/50 
f 47/47/47 50/50/50 48/48/48 
f 49/49/49 51/51/51 52/52/52 
f 49/49/49 52/52/52 50/50/50 
f 53/53/53 54/54/54 55/55/55 
f 53/53/53 55/55/55 56/56/56 
f 53/53/53 56/56/56 57/57/57 
f 53/53/53 57/57/57 58/58/58 
f 53/53/53 58/58/58 59/59/59 
f 53/53/53 59/59/59 60/60/60 
f 53/53/53 60/60/60 61/61/61 
f 53/53/53 61/61/61 62/62/62 
f 53/53/53 62/62/62 63/63/63 
f 53/53/53 63/63/63 64/64/64 
f 53/53/53 64/64/64 65/65/65 
f 53/53/53 65/65/65 66/66/66 
f 53/53/53 66/66/66 67/67/67 
f 53/53/53 67/67/67 68/68/68 
f 53/53/53 68/68/68 69/69/69 
f 53/53/53 69/69/69 70/70/70 
f 53/53/53 70/70/70 71/71/71 
f 53/53/53 71/71/71 72/72/72 
f 53/53/53 72/72/72 73/73/73 
f 53/53/53 73/73/73 74/74/74 
f 53/53/53 74/74/74 75/75/75 
f 53/53/53 75/75/75 76/76/76 

