g grp8
v 168.875000 492.000000 -334.354004
v 166.337997 492.000000 -336.300995
v 166.337997 515.000000 -336.300995
v 168.875000 515.000000 -334.354004
v 175.000000 492.000000 -332.713013
v 171.828995 492.000000 -333.130005
v 171.828995 515.000000 -333.130005
v 175.000000 515.000000 -332.713013
v 168.875000 492.000000 -334.354004
v 171.828995 515.000000 -333.130005
v 163.167007 492.000000 -341.792999
v 162.750000 492.000000 -344.963013
v 162.750000 515.000000 -344.963013
v 163.167007 515.000000 -341.792999
v 163.167007 492.000000 -348.134003
v 163.167007 515.000000 -348.134003
v 164.391006 492.000000 -351.088013
v 164.391006 515.000000 -351.088013
v 166.337997 492.000000 -353.625000
v 166.337997 515.000000 -353.625000
v 168.875000 492.000000 -355.571991
v 168.875000 515.000000 -355.571991
v 171.828995 492.000000 -356.795990
v 171.828995 515.000000 -356.795990
v 175.000000 492.000000 -357.213013
v 175.000000 515.000000 -357.213013
v 166.337997 492.000000 -336.300995
v 164.391006 492.000000 -338.838013
v 164.391006 515.000000 -338.838013
v 166.337997 515.000000 -336.300995
v 164.391006 492.000000 -338.838013
v 163.167007 492.000000 -341.792999
v 163.167007 515.000000 -341.792999
vt 0.004676 -1.000000
vt 0.007015 -1.000000
vt 0.007015 -0.983231
vt 0.004676 -0.983231
vt -0.000000 -1.000000
vt 0.002338 -1.000000
vt 0.002338 -0.983231
vt -0.000000 -0.983231
vt 0.004676 -1.000000
vt 0.002338 -0.983231
vt 0.011691 -1.000000
vt 0.014029 -1.000000
vt 0.014029 -0.983231
vt 0.011691 -0.983231
vt 0.016367 -1.000000
vt 0.016367 -0.983231
vt 0.018705 -1.000000
vt 0.018705 -0.983231
vt 0.021044 -1.000000
vt 0.021044 -0.983231
vt 0.023382 -1.000000
vt 0.023382 -0.983231
vt 0.025720 -1.000000
vt 0.025720 -0.983231
vt 0.028058 -1.000000
vt 0.028058 -0.983231
vt 0.007015 -1.000000
vt 0.009353 -1.000000
vt 0.009353 -0.983231
vt 0.007015 -0.983231
vt 0.009353 -1.000000
vt 0.011691 -1.000000
vt 0.011691 -0.983231
vn 0.500000 0.000000 -0.866025
vn 0.707107 0.000000 -0.707107
vn 0.707107 0.000000 -0.707107
vn 0.500000 0.000000 -0.866025
vn 0.130526 0.000000 -0.991445
vn 0.258819 0.000000 -0.965926
vn 0.258819 0.000000 -0.965926
vn 0.130526 0.000000 -0.991445
vn 0.500000 0.000000 -0.866025
vn 0.258819 0.000000 -0.965926
vn 0.965926 0.000000 -0.258819
vn 1.000000 0.000000 -0.000000
vn 1.000000 0.000000 -0.000000
vn 0.965926 0.000000 -0.258819
vn 0.965926 0.000000 0.258819
vn 0.965926 0.000000 0.258819
vn 0.866025 0.000000 0.500000
vn 0.866025 0.000000 0.500000
vn 0.707107 0.000000 0.707107
vn 0.707107 0.000000 0.707107
vn 0.500000 0.000000 0.866025
vn 0.500000 0.000000 0.866025
vn 0.258819 0.000000 0.965926
vn 0.258819 0.000000 0.965926
vn 0.130526 0.000000 0.991445
vn 0.130526 0.000000 0.991445
vn 0.707107 0.000000 -0.707107
vn 0.866025 0.000000 -0.500000
vn 0.866025 0.000000 -0.500000
vn 0.707107 0.000000 -0.707107
vn 0.866025 0.000000 -0.500000
vn 0.965926 0.000000 -0.258819
vn 0.965926 0.000000 -0.258819
usemtl mat7
f 1/1/1 2/2/2 3/3/3 
f 1/1/1 3/3/3 4/4/4 
f 5/5/5 6/6/6 7/7/7 
f 5/5/5 7/7/7 8/8/8 
f 6/6/6 9/9/9 4/4/4 
f 6/6/6 4/4/4 10/10/10 
f 11/11/11 12/12/12 13/13/13 
f 11/11/11 13/13/13 14/14/14 
f 12/12/12 15/15/15 16/16/16 
f 12/12/12 16/16/16 13/13/13 
f 15/15/15 17/17/17 18/18/18 
f 15/15/15 18/18/18 16/16/16 
f 17/17/17 19/19/19 20/20/20 
f 17/17/17 20/20/20 18/18/18 
f 19/19/19 21/21/21 22/22/22 
f 19/19/19 22/22/22 20/20/20 
f 21/21/21 23/23/23 24/24/24 
f 21/21/21 24/24/24 22/22/22 
f 23/23/23 25/25/25 26/26/26 
f 23/23/23 26/26/26 24/24/24 
f 27/27/27 28/28/28 29/29/29 
f 27/27/27 29/29/29 30/30/30 
f 31/31/31 32/32/32 33/33/33 
f 31/31/31 33/33/33 29/29/29 

