g grp9
v 171.828995 492.000000 -333.130005
v 175.000000 492.000000 -332.713013
v 178.171005 492.000000 -333.130005
v 181.125000 492.000000 -334.354004
v 183.662003 492.000000 -336.300995
v 185.608994 492.000000 -338.838013
v 186.832993 492.000000 -341.792999
v 187.250000 492.000000 -344.963013
v 186.832993 492.000000 -348.134003
v 185.608994 492.000000 -351.088013
v 183.662003 492.000000 -353.625000
v 181.125000 492.000000 -355.571991
v 178.171005 492.000000 -356.795990
v 175.000000 492.000000 -357.213013
v 171.828995 492.000000 -356.795990
v 168.875000 492.000000 -355.571991
v 166.337997 492.000000 -353.625000
v 164.391006 492.000000 -351.088013
v 163.167007 492.000000 -348.134003
v 162.750000 492.000000 -344.963013
v 163.167007 492.000000 -341.792999
v 164.391006 492.000000 -338.838013
v 166.337997 492.000000 -336.300995
v 168.875000 492.000000 -334.354004
v 171.828995 515.000000 -356.795990
v 175.000000 515.000000 -357.213013
v 178.171005 515.000000 -356.795990
v 181.125000 515.000000 -355.571991
v 183.662003 515.000000 -353.625000
v 185.608994 515.000000 -351.088013
v 186.832993 515.000000 -348.134003
v 187.250000 515.000000 -344.963013
v 186.832993 515.000000 -341.792999
v 185.608994 515.000000 -338.838013
v 183.662003 515.000000 -336.300995
v 181.125000 515.000000 -334.354004
v 178.171005 515.000000 -333.130005
v 175.000000 515.000000 -332.713013
v 171.828995 515.000000 -333.130005
v 168.875000 515.000000 -334.354004
v 166.337997 515.000000 -336.300995
v 164.391006 515.000000 -338.838013
v 163.167007 515.000000 -341.792999
v 162.750000 515.000000 -344.963013
v 163.167007 515.000000 -348.134003
v 164.391006 515.000000 -351.088013
v 166.337997 515.000000 -353.625000
v 168.875000 515.000000 -355.571991
v 175.000000 295.037994 -238.141006
v 178.878998 295.058990 -237.630005
v 182.494003 295.118988 -236.134003
v 185.598007 295.213989 -233.753998
v 187.979996 295.338013 -230.653000
v 189.477005 295.481995 -227.041000
v 189.988007 295.636993 -223.164001
v 189.477005 295.791992 -219.287994
v 187.979996 295.937012 -215.675995
v 185.598007 296.061005 -212.574997
v 182.494003 296.156006 -210.195007
v 178.878998 296.216003 -208.699005
v 175.000000 296.235992 -208.188004
v 171.121002 296.216003 -208.699005
v 167.505997 296.156006 -210.195007
v 164.401993 296.061005 -212.574997
v 162.020004 295.937012 -215.675995
v 160.522995 295.791992 -219.287994
v 160.011993 295.636993 -223.164001
v 160.522995 295.481995 -227.041000
v 162.020004 295.338013 -230.653000
v 164.401993 295.213989 -233.753998
v 167.505997 295.118988 -236.134003
v 171.121002 295.058990 -237.630005
v 159.544998 386.345001 -131.537994
v 159.000000 382.500000 -130.000000
v 159.544998 378.654999 -128.462006
v 161.143997 375.071991 -127.028999
v 163.686005 371.994995 -125.797997
v 167.000000 369.635010 -124.853996
v 170.858994 368.151001 -124.260002
v 175.000000 367.644012 -124.057999
v 179.141006 368.151001 -124.260002
v 183.000000 369.635010 -124.853996
v 186.313995 371.994995 -125.797997
v 188.856003 375.071991 -127.028999
v 190.455002 378.654999 -128.462006
v 191.000000 382.500000 -130.000000
v 190.455002 386.345001 -131.537994
v 188.856003 389.928009 -132.970993
v 186.313995 393.005005 -134.201996
v 183.000000 395.364990 -135.145996
v 179.141006 396.848999 -135.740005
v 175.000000 397.355988 -135.942001
v 170.858994 396.848999 -135.740005
v 167.000000 395.364990 -135.145996
v 163.686005 393.005005 -134.201996
v 161.143997 389.928009 -132.970993
vt 0.281872 -0.453526
vt 0.287073 -0.454211
vt 0.292274 -0.453526
vt 0.297121 -0.451519
vt 0.301283 -0.448325
vt 0.304476 -0.444163
vt 0.306484 -0.439317
vt 0.307169 -0.434116
vt 0.306484 -0.428915
vt 0.304476 -0.424068
vt 0.301283 -0.419906
vt 0.297121 -0.416713
vt 0.292274 -0.414705
vt 0.287073 -0.414021
vt 0.281872 -0.414705
vt 0.277026 -0.416713
vt 0.272864 -0.419906
vt 0.269671 -0.424068
vt 0.267663 -0.428915
vt 0.266978 -0.434116
vt 0.267663 -0.439317
vt 0.269671 -0.444163
vt 0.272864 -0.448325
vt 0.277026 -0.451519
vt -0.281872 -0.414705
vt -0.287073 -0.414021
vt -0.292274 -0.414705
vt -0.297121 -0.416713
vt -0.301283 -0.419906
vt -0.304476 -0.424068
vt -0.306484 -0.428915
vt -0.307169 -0.434116
vt -0.306484 -0.439317
vt -0.304476 -0.444163
vt -0.301283 -0.448325
vt -0.297121 -0.451519
vt -0.292274 -0.453526
vt -0.287073 -0.454211
vt -0.281872 -0.453526
vt -0.277026 -0.451519
vt -0.272864 -0.448325
vt -0.269671 -0.444163
vt -0.267663 -0.439317
vt -0.266978 -0.434116
vt -0.267663 -0.428915
vt -0.269671 -0.424068
vt -0.272864 -0.419906
vt -0.277026 -0.416713
vt 0.287073 -1.370994
vt 0.293437 -1.370157
vt 0.299367 -1.367700
vt 0.304459 -1.363793
vt 0.308366 -1.358701
vt 0.310822 -1.352771
vt 0.311660 -1.346408
vt 0.310822 -1.340044
vt 0.308366 -1.334114
vt 0.304459 -1.329022
vt 0.299367 -1.325115
vt 0.293437 -1.322659
vt 0.287073 -1.321821
vt 0.280710 -1.322659
vt 0.274780 -1.325115
vt 0.269688 -1.329022
vt 0.265781 -1.334114
vt 0.263325 -1.340044
vt 0.262487 -1.346408
vt 0.263325 -1.352771
vt 0.265781 -1.358701
vt 0.269688 -1.363793
vt 0.274780 -1.367700
vt 0.280710 -1.370157
vt 0.261721 -0.331424
vt 0.260827 -0.338217
vt 0.261721 -0.345010
vt 0.264343 -0.351340
vt 0.268514 -0.356776
vt 0.273950 -0.360947
vt 0.280280 -0.363569
vt 0.287073 -0.364463
vt 0.293867 -0.363569
vt 0.300197 -0.360947
vt 0.305633 -0.356776
vt 0.309804 -0.351340
vt 0.312426 -0.345010
vt 0.313320 -0.338217
vt 0.312426 -0.331424
vt 0.309804 -0.325093
vt 0.305633 -0.319657
vt 0.300197 -0.315486
vt 0.293867 -0.312864
vt 0.287073 -0.311970
vt 0.280280 -0.312864
vt 0.273950 -0.315486
vt 0.268514 -0.319657
vt 0.264343 -0.325093
vn 0.000000 1.000000 -0.000000
vn 0.000000 1.000000 -0.000000
vn 0.000000 1.000000 -0.000000
vn 0.000000 1.000000 -0.000000
vn 0.000000 1.000000 -0.000000
vn 0.000000 1.000000 -0.000000
vn 0.000000 1.000000 -0.000000
vn 0.000000 1.000000 -0.000000
vn 0.000000 1.000000 -0.000000
vn 0.000000 1.000000 -0.000000
vn 0.000000 1.000000 -0.000000
vn 0.000000 1.000000 -0.000000
vn 0.000000 1.000000 -0.000000
vn 0.000000 1.000000 -0.000000
vn 0.000000 1.000000 -0.000000
vn 0.000000 1.000000 -0.000000
vn 0.000000 1.000000 -0.000000
vn 0.000000 1.000000 -0.000000
vn 0.000000 1.000000 -0.000000
vn 0.000000 1.000000 -0.000000
vn 0.000000 1.000000 -0.000000
vn 0.000000 1.000000 -0.000000
vn 0.000000 1.000000 -0.000000
vn 0.000000 1.000000 -0.000000
vn 0.000000 -1.000000 -0.000000
vn 0.000000 -1.000000 -0.000000
vn 0.000000 -1.000000 -0.000000
vn 0.000000 -1.000000 -0.000000
vn 0.000000 -1.000000 -0.000000
vn 0.000000 -1.000000 -0.000000
vn 0.000000 -1.000000 -0.000000
vn 0.000000 -1.000000 -0.000000
vn 0.000000 -1.000000 -0.000000
vn 0.000000 -1.000000 -0.000000
vn 0.000000 -1.000000 -0.000000
vn 0.000000 -1.000000 -0.000000
vn 0.000000 -1.000000 -0.000000
vn 0.000000 -1.000000 -0.000000
vn 0.000000 -1.000000 -0.000000
vn 0.000000 -1.000000 -0.000000
vn 0.000000 -1.000000 -0.000000
vn 0.000000 -1.000000 -0.000000
vn 0.000000 -1.000000 -0.000000
vn 0.000000 -1.000000 -0.000000
vn 0.000000 -1.000000 -0.000000
vn 0.000000 -1.000000 -0.000000
vn 0.000000 -1.000000 -0.000000
vn 0.000000 -1.000000 -0.000000
vn -0.000000 -0.999201 0.039968
vn -0.000000 -0.999201 0.039968
vn -0.000000 -0.999201 0.039968
vn -0.000000 -0.999201 0.039968
vn -0.000000 -0.999201 0.039968
vn -0.000000 -0.999201 0.039968
vn -0.000000 -0.999201 0.039968
vn -0.000000 -0.999201 0.039968
vn -0.000000 -0.999201 0.039968
vn -0.000000 -0.999201 0.039968
vn -0.000000 -0.999201 0.039968
vn -0.000000 -0.999201 0.039968
vn -0.000000 -0.999201 0.039968
vn -0.000000 -0.999201 0.039968
vn -0.000000 -0.999201 0.039968
vn -0.000000 -0.999201 0.039968
vn -0.000000 -0.999201 0.039968
vn -0.000000 -0.999201 0.039968
vn -0.000000 -0.999201 0.039968
vn -0.000000 -0.999201 0.039968
vn -0.000000 -0.999201 0.039968
vn -0.000000 -0.999201 0.039968
vn -0.000000 -0.999201 0.039968
vn -0.000000 -0.999201 0.039968
vn -0.000000 0.371391 0.928477
vn -0.000000 0.371391 0.928477
vn -0.000000 0.371391 0.928477
vn -0.000000 0.371391 0.928477
vn -0.000000 0.371391 0.928477
vn -0.000000 0.371391 0.928477
vn -0.000000 0.371391 0.928477
vn -0.000000 0.371391 0.928477
vn -0.000000 0.371391 0.928477
vn -0.000000 0.371391 0.928477
vn -0.000000 0.371391 0.928477
vn -0.000000 0.371391 0.928477
vn -0.000000 0.371391 0.928477
vn -0.000000 0.371391 0.928477
vn -0.000000 0.371391 0.928477
vn -0.000000 0.371391 0.928477
vn -0.000000 0.371391 0.928477
vn -0.000000 0.371391 0.928477
vn -0.000000 0.371391 0.928477
vn -0.000000 0.371391 0.928477
vn -0.000000 0.371391 0.928477
vn -0.000000 0.371391 0.928477
vn -0.000000 0.371391 0.928477
vn -0.000000 0.371391 0.928477
usemtl mat8
f 1/1/1 2/2/2 3/3/3 
f 1/1/1 3/3/3 4/4/4 
f 1/1/1 4/4/4 5/5/5 
f 1/1/1 5/5/5 6/6/6 
f 1/1/1 6/6/6 7/7/7 
f 1/1/1 7/7/7 8/8/8 
f 1/1/1 8/8/8 9/9/9 
f 1/1/1 9/9/9 10/10/10 
f 1/1/1 10/10/10 11/11/11 
f 1/1/1 11/11/11 12/12/12 
f 1/1/1 12/12/12 13/13/13 
f 1/1/1 13/13/13 14/14/14 
f 1/1/1 14/14/14 15/15/15 
f 1/1/1 15/15/15 16/16/16 
f 1/1/1 16/16/16 17/17/17 
f 1/1/1 17/17/17 18/18/18 
f 1/1/1 18/18/18 19/19/19 
f 1/1/1 19/19/19 20/20/20 
f 1/1/1 20/20/20 21/21/21 
f 1/1/1 21/21/21 22/22/22 
f 1/1/1 22/22/22 23/23/23 
f 1/1/1 23/23/23 24/24/24 
f 25/25/25 26/26/26 27/27/27 
f 25/25/25 27/27/27 28/28/28 
f 25/25/25 28/28/28 29/29/29 
f 25/25/25 29/29/29 30/30/30 
f 25/25/25 30/30/30 31/31/31 
f 25/25/25 31/31/31 32/32/32 
f 25/25/25 32/32/32 33/33/33 
f 25/25/25 33/33/33 34/34/34 
f 25/25/25 34/34/34 35/35/35 
f 25/25/25 35/35/35 36/36/36 
f 25/25/25 36/36/36 37/37/37 
f 25/25/25 37/37/37 38/38/38 
f 25/25/25 38/38/38 39/39/39 
f 25/25/25 39/39/39 40/40/40 
f 25/25/25 40/40/40 41/41/41 
f 25/25/25 41/41/41 42/42/42 
f 25/25/25 42/42/42 43/43/43 
f 25/25/25 43/43/43 44/44/44 
f 25/25/25 44/44/44 45/45/45 
f 25/25/25 45/45/45 46/46/46 
f 25/25/25 46/46/46 47/47/47 
f 25/25/25 47/47/47 48/48/48 
f 49/49/49 50/50/50 51/51/51 
f 49/49/49 51/51/51 52/52/52 
f 49/49/49 52/52/52 53/53/53 
f 49/49/49 53/53/53 54/54/54 
f 49/49/49 54/54/54 55/55/55 
f 49/49/49 55/55/55 56/56/56 
f 49/49/49 56/56/56 57/57/57 
f 49/49/49 57/57/57 58/58/58 
f 49/49/49 58/58/58 59/59/59 
f 49/49/49 59/59/59 60/60/60 
f 49/49/49 60/60/60 61/61/61 
f 49/49/49 61/61/61 62/62/62 
f 49/49/49 62/62/62 63/63/63 
f 49/49/49 63/63/63 64/64/64 
f 49/49/49 64/64/64 65/65/65 
f 49/49/49 65/65/65 66/66/66 
f 49/49/49 66/66/66 67/67/67 
f 49/49/49 67/67/67 68/68/68 
f 49/49/49 68/68/68 69/69/69 
f 49/49/49 69/69/69 70/70/70 
f 49/49/49 70/70/70 71/71/71 
f 49/49/49 71/71/71 72/72/72 
f 73/73/73 74/74/74 75/75/75 
f 73/73/73 75/75/75 76/76/76 
f 73/73/73 76/76/76 77/77/77 
f 73/73/73 77/77/77 78/78/78 
f 73/73/73 78/78/78 79/79/79 
f 73/73/73 79/79/79 80/80/80 
f 73/73/73 80/80/80 81/81/81 
f 73/73/73 81/81/81 82/82/82 
f 73/73/73 82/82/82 83/83/83 
f 73/73/73 83/83/83 84/84/84 
f 73/73/73 84/84/84 85/85/85 
f 73/73/73 85/85/85 86/86/86 
f 73/73/73 86/86/86 87/87/87 
f 73/73/73 87/87/87 88/88/88 
f 73/73/73 88/88/88 89/89/89 
f 73/73/73 89/89/89 90/90/90 
f 73/73/73 90/90/90 91/91/91 
f 73/73/73 91/91/91 92/92/92 
f 73/73/73 92/92/92 93/93/93 
f 73/73/73 93/93/93 94/94/94 
f 73/73/73 94/94/94 95/95/95 
f 73/73/73 95/95/95 96/96/96 

