g grp13
v 145.000000 114.000000 -35.000000
v 315.000000 114.000000 -35.000000
v 315.000000 149.000000 -35.000000
v 145.000000 149.000000 -35.000000
v 315.000000 149.000000 -35.000000
v 315.000000 149.000000 -78.000000
v 145.000000 149.000000 -78.000000
v 145.000000 149.000000 -35.000000
vt 5.708660 3.488190
vt 12.401600 3.488190
vt 12.401600 4.866140
vt 5.708660 4.866140
vt 12.401600 0.377950
vt 12.401600 2.070870
vt 5.708660 2.070870
vt 5.708660 0.377950
vn 0.000000 0.000000 1.000000
vn 0.000000 0.000000 1.000000
vn 0.000000 0.000000 1.000000
vn 0.000000 0.000000 1.000000
vn 0.000000 1.000000 -0.000000
vn 0.000000 1.000000 -0.000000
vn 0.000000 1.000000 -0.000000
vn 0.000000 1.000000 -0.000000
usemtl mat12
f 1/1/1 2/2/2 3/3/3 
f 1/1/1 3/3/3 4/4/4 
f 5/5/5 6/6/6 7/7/7 
f 5/5/5 7/7/7 8/8/8 

