g grp19
v 175.000000 188.000000 -340.000000
v 143.942001 188.000000 -335.911011
v 143.942001 203.000000 -335.911011
v 175.000000 203.000000 -340.000000
v 115.000000 188.000000 -323.923004
v 90.147202 188.000000 -304.852997
v 90.147202 203.000000 -304.852997
v 115.000000 203.000000 -323.923004
v 71.077003 188.000000 -280.000000
v 71.077003 203.000000 -280.000000
v 90.147202 203.000000 -304.852997
v 71.077003 188.000000 -280.000000
v 59.088902 188.000000 -251.057999
v 59.088902 203.000000 -251.057999
v 59.088902 188.000000 -251.057999
v 55.000000 188.000000 -220.000000
v 55.000000 203.000000 -220.000000
v 59.088902 203.000000 -251.057999
v 59.088902 188.000000 -188.942001
v 59.088902 203.000000 -188.942001
v 55.000000 203.000000 -220.000000
v 206.057999 188.000000 -335.911011
v 175.000000 188.000000 -340.000000
v 175.000000 203.000000 -340.000000
v 206.057999 203.000000 -335.911011
v 71.077003 188.000000 -160.000000
v 90.147202 188.000000 -135.147003
v 90.147202 203.000000 -135.147003
v 71.077003 203.000000 -160.000000
v 90.147202 188.000000 -135.147003
v 115.000000 188.000000 -116.077003
v 115.000000 203.000000 -116.077003
v 143.942001 188.000000 -104.088997
v 143.942001 203.000000 -104.088997
v 175.000000 188.000000 -100.000000
v 175.000000 203.000000 -100.000000
v 290.911011 188.000000 -188.942001
v 295.000000 188.000000 -220.000000
v 295.000000 203.000000 -220.000000
v 290.911011 203.000000 -188.942001
v 290.911011 188.000000 -251.057999
v 278.923004 188.000000 -280.000000
v 278.923004 203.000000 -280.000000
v 290.911011 203.000000 -251.057999
v 259.852997 188.000000 -304.852997
v 259.852997 203.000000 -304.852997
v 278.923004 203.000000 -280.000000
v 235.000000 188.000000 -323.923004
v 235.000000 203.000000 -323.923004
v 259.852997 203.000000 -304.852997
v 206.057999 188.000000 -335.911011
v 206.057999 203.000000 -335.911011
v 235.000000 203.000000 -323.923004
v 206.057999 203.000000 -335.911011
v 222.000000 203.000000 -301.406006
v 235.000000 203.000000 -323.923004
v 206.057999 203.000000 -335.911011
v 199.328995 203.000000 -310.796997
v 175.000000 203.000000 -340.000000
v 175.000000 203.000000 -314.000000
v 199.328995 203.000000 -310.796997
v 150.671005 203.000000 -310.796997
v 175.000000 203.000000 -314.000000
v 143.942001 203.000000 -335.911011
v 150.671005 203.000000 -310.796997
v 175.000000 203.000000 -340.000000
v 143.942001 203.000000 -335.911011
v 128.000000 203.000000 -301.406006
v 115.000000 203.000000 -323.923004
v 108.531998 203.000000 -286.467987
v 128.000000 203.000000 -301.406006
v 93.593597 203.000000 -267.000000
v 108.531998 203.000000 -286.467987
v 90.147202 203.000000 -304.852997
v 93.593597 203.000000 -267.000000
v 84.203003 203.000000 -244.328995
v 90.147202 203.000000 -304.852997
v 81.000000 203.000000 -220.000000
v 84.203003 203.000000 -244.328995
v 71.077003 203.000000 -160.000000
v 81.000000 203.000000 -220.000000
v 71.077003 203.000000 -280.000000
v 71.077003 203.000000 -160.000000
v 59.088902 203.000000 -188.942001
v 59.088902 203.000000 -251.057999
v 71.077003 203.000000 -280.000000
v 59.088902 203.000000 -188.942001
v 55.000000 203.000000 -220.000000
v 59.088902 188.000000 -188.942001
v 71.077003 188.000000 -160.000000
v 71.077003 203.000000 -160.000000
v 59.088902 203.000000 -188.942001
v 90.147202 203.000000 -135.147003
v 71.077003 203.000000 -160.000000
v 84.203003 203.000000 -195.671005
v 93.593597 203.000000 -173.000000
v 115.000000 203.000000 -116.077003
v 108.531998 203.000000 -153.531998
v 128.000000 203.000000 -138.593994
v 143.942001 203.000000 -104.088997
v 150.671005 203.000000 -129.203003
v 175.000000 203.000000 -100.000000
v 175.000000 203.000000 -126.000000
v 206.057999 203.000000 -104.088997
v 175.000000 188.000000 -100.000000
v 206.057999 188.000000 -104.088997
v 206.057999 203.000000 -104.088997
v 175.000000 203.000000 -100.000000
v 206.057999 188.000000 -104.088997
v 235.000000 188.000000 -116.077003
v 235.000000 203.000000 -116.077003
v 259.852997 188.000000 -135.147003
v 259.852997 203.000000 -135.147003
v 278.923004 188.000000 -160.000000
v 278.923004 203.000000 -160.000000
v 290.911011 188.000000 -188.942001
v 290.911011 203.000000 -188.942001
v 290.911011 203.000000 -251.057999
v 278.923004 203.000000 -160.000000
v 290.911011 203.000000 -188.942001
v 278.923004 203.000000 -280.000000
v 290.911011 203.000000 -251.057999
v 269.000000 203.000000 -220.000000
v 265.796997 203.000000 -195.671005
v 259.852997 203.000000 -135.147003
v 278.923004 203.000000 -160.000000
v 256.406006 203.000000 -173.000000
v 265.796997 203.000000 -195.671005
v 241.468002 203.000000 -153.531998
v 235.000000 203.000000 -116.077003
v 222.000000 203.000000 -138.593994
v 206.057999 203.000000 -104.088997
v 235.000000 203.000000 -116.077003
v 199.328995 203.000000 -129.203003
v 206.057999 203.000000 -104.088997
v 175.000000 203.000000 -126.000000
v 199.328995 203.000000 -129.203003
v 278.923004 203.000000 -280.000000
v 265.796997 203.000000 -244.328995
v 269.000000 203.000000 -220.000000
v 259.852997 203.000000 -304.852997
v 278.923004 203.000000 -280.000000
v 256.406006 203.000000 -267.000000
v 241.468002 203.000000 -286.467987
v 235.000000 203.000000 -323.923004
v 222.000000 203.000000 -301.406006
v 241.468002 203.000000 -286.467987
v 290.911011 203.000000 -251.057999
v 290.911011 203.000000 -188.942001
v 295.000000 203.000000 -220.000000
v 295.000000 188.000000 -220.000000
v 290.911011 203.000000 -251.057999
v 295.000000 203.000000 -220.000000
v 143.942001 188.000000 -335.911011
v 115.000000 188.000000 -323.923004
v 115.000000 203.000000 -323.923004
v 143.942001 203.000000 -335.911011
vt 0.435187 -1.000000
vt 0.458092 -1.000000
vt 0.458092 -0.989064
vt 0.435187 -0.989064
vt 0.480996 -1.000000
vt 0.503901 -1.000000
vt 0.503901 -0.989064
vt 0.480996 -0.989064
vt 0.526805 -1.000000
vt 0.526805 -0.989064
vt 0.503901 -0.989064
vt 0.526805 -1.000000
vt 0.549710 -1.000000
vt 0.549710 -0.989064
vt -0.000000 -1.000000
vt 0.022905 -1.000000
vt 0.022905 -0.989064
vt -0.000000 -0.989064
vt 0.045809 -1.000000
vt 0.045809 -0.989064
vt 0.022905 -0.989064
vt 0.412283 -1.000000
vt 0.435187 -1.000000
vt 0.435187 -0.989064
vt 0.412283 -0.989064
vt 0.068714 -1.000000
vt 0.091618 -1.000000
vt 0.091618 -0.989064
vt 0.068714 -0.989064
vt 0.091618 -1.000000
vt 0.114523 -1.000000
vt 0.114523 -0.989064
vt 0.137428 -1.000000
vt 0.137428 -0.989064
vt 0.160332 -1.000000
vt 0.160332 -0.989064
vt 0.274855 -1.000000
vt 0.297760 -1.000000
vt 0.297760 -0.989064
vt 0.274855 -0.989064
vt 0.320664 -1.000000
vt 0.343569 -1.000000
vt 0.343569 -0.989064
vt 0.320664 -0.989064
vt 0.366473 -1.000000
vt 0.366473 -0.989064
vt 0.343569 -0.989064
vt 0.389378 -1.000000
vt 0.389378 -0.989064
vt 0.366473 -0.989064
vt 0.412283 -1.000000
vt 0.412283 -0.989064
vt 0.389378 -0.989064
vt 0.150232 -0.755095
vt 0.161855 -0.780252
vt 0.171333 -0.763836
vt 0.150232 -0.755095
vt 0.145326 -0.773405
vt 0.127588 -0.752114
vt 0.127588 -0.771070
vt 0.145326 -0.773405
vt 0.109851 -0.773405
vt 0.127588 -0.771070
vt 0.104944 -0.755095
vt 0.109851 -0.773405
vt 0.127588 -0.752114
vt 0.104944 -0.755095
vt 0.093322 -0.780252
vt 0.083844 -0.763836
vt 0.079128 -0.791143
vt 0.093322 -0.780252
vt 0.068237 -0.805337
vt 0.079128 -0.791143
vt 0.065724 -0.777739
vt 0.068237 -0.805337
vt 0.061390 -0.821866
vt 0.065724 -0.777739
vt 0.059055 -0.839603
vt 0.061390 -0.821866
vt 0.051821 -0.883348
vt 0.059055 -0.839603
vt 0.051821 -0.795859
vt 0.051821 -0.883348
vt 0.043080 -0.862247
vt 0.043080 -0.816960
vt 0.051821 -0.795859
vt 0.043080 -0.862247
vt 0.040099 -0.839603
vt 0.045809 -1.000000
vt 0.068714 -1.000000
vt 0.068714 -0.989064
vt 0.045809 -0.989064
vt 0.065724 -0.901468
vt 0.051821 -0.883348
vt 0.061390 -0.857341
vt 0.068237 -0.873870
vt 0.083844 -0.915371
vt 0.079128 -0.888064
vt 0.093322 -0.898955
vt 0.104944 -0.924111
vt 0.109851 -0.905801
vt 0.127588 -0.927092
vt 0.127588 -0.908136
vt 0.150232 -0.924111
vt 0.160332 -1.000000
vt 0.183237 -1.000000
vt 0.183237 -0.989064
vt 0.160332 -0.989064
vt 0.183237 -1.000000
vt 0.206141 -1.000000
vt 0.206141 -0.989064
vt 0.229046 -1.000000
vt 0.229046 -0.989064
vt 0.251950 -1.000000
vt 0.251950 -0.989064
vt 0.274855 -1.000000
vt 0.274855 -0.989064
vt 0.212096 -0.816960
vt 0.203356 -0.883348
vt 0.212096 -0.862247
vt 0.203356 -0.795859
vt 0.212096 -0.816960
vt 0.196121 -0.839603
vt 0.193786 -0.857341
vt 0.189452 -0.901468
vt 0.203356 -0.883348
vt 0.186940 -0.873870
vt 0.193786 -0.857341
vt 0.176048 -0.888064
vt 0.171333 -0.915371
vt 0.161855 -0.898955
vt 0.150232 -0.924111
vt 0.171333 -0.915371
vt 0.145326 -0.905801
vt 0.150232 -0.924111
vt 0.127588 -0.908136
vt 0.145326 -0.905801
vt 0.203356 -0.795859
vt 0.193786 -0.821866
vt 0.196121 -0.839603
vt 0.189452 -0.777739
vt 0.203356 -0.795859
vt 0.186940 -0.805337
vt 0.176048 -0.791143
vt 0.171333 -0.763836
vt 0.161855 -0.780252
vt 0.176048 -0.791143
vt 0.212096 -0.816960
vt 0.212096 -0.862247
vt 0.215077 -0.839603
vt 0.297760 -1.000000
vt 0.320664 -0.989064
vt 0.297760 -0.989064
vt 0.458092 -1.000000
vt 0.480996 -1.000000
vt 0.480996 -0.989064
vt 0.458092 -0.989064
vn -0.000000 0.000000 -1.000000
vn -0.258819 0.000000 -0.965926
vn -0.258819 0.000000 -0.965926
vn -0.000000 0.000000 -1.000000
vn -0.500000 0.000000 -0.866025
vn -0.707107 -0.000000 -0.707107
vn -0.707107 -0.000000 -0.707107
vn -0.500000 0.000000 -0.866025
vn -0.866025 -0.000000 -0.500000
vn -0.866025 -0.000000 -0.500000
vn -0.707107 -0.000000 -0.707107
vn -0.866025 -0.000000 -0.500000
vn -0.965926 -0.000000 -0.258819
vn -0.965926 -0.000000 -0.258819
vn -0.965926 -0.000000 -0.258819
vn -1.000000 0.000000 0.000000
vn -1.000000 0.000000 0.000000
vn -0.965926 -0.000000 -0.258819
vn -0.965926 0.000000 0.258819
vn -0.965926 0.000000 0.258819
vn -1.000000 0.000000 0.000000
vn 0.258819 -0.000000 -0.965926
vn -0.000000 0.000000 -1.000000
vn -0.000000 0.000000 -1.000000
vn 0.258819 -0.000000 -0.965926
vn -0.866025 0.000000 0.500000
vn -0.707107 0.000000 0.707107
vn -0.707107 0.000000 0.707107
vn -0.866025 0.000000 0.500000
vn -0.707107 0.000000 0.707107
vn -0.500000 0.000000 0.866025
vn -0.500000 0.000000 0.866025
vn -0.258819 0.000000 0.965926
vn -0.258819 0.000000 0.965926
vn 0.000000 0.000000 1.000000
vn 0.000000 0.000000 1.000000
vn 0.965926 0.000000 0.258819
vn 1.000000 0.000000 0.000000
vn 1.000000 0.000000 0.000000
vn 0.965926 0.000000 0.258819
vn 0.965926 -0.000000 -0.258819
vn 0.866025 -0.000000 -0.500000
vn 0.866025 -0.000000 -0.500000
vn 0.965926 -0.000000 -0.258819
vn 0.707107 -0.000000 -0.707107
vn 0.707107 -0.000000 -0.707107
vn 0.866025 -0.000000 -0.500000
vn 0.500000 -0.000000 -0.866025
vn 0.500000 -0.000000 -0.866025
vn 0.707107 -0.000000 -0.707107
vn 0.258819 -0.000000 -0.965926
vn 0.258819 -0.000000 -0.965926
vn 0.500000 -0.000000 -0.866025
vn -0.000000 1.000000 -0.000000
vn -0.000000 1.000000 -0.000000
vn -0.000000 1.000000 -0.000000
vn -0.000000 1.000000 -0.000000
vn -0.000000 1.000000 -0.000000
vn -0.000000 1.000000 -0.000000
vn -0.000000 1.000000 -0.000000
vn -0.000000 1.000000 -0.000000
vn -0.000000 1.000000 -0.000000
vn -0.000000 1.000000 -0.000000
vn -0.000000 1.000000 -0.000000
vn -0.000000 1.000000 -0.000000
vn -0.000000 1.000000 -0.000000
vn -0.000000 1.000000 -0.000000
vn -0.000000 1.000000 -0.000000
vn -0.000000 1.000000 -0.000000
vn -0.000000 1.000000 -0.000000
vn -0.000000 1.000000 -0.000000
vn -0.000000 1.000000 -0.000000
vn -0.000000 1.000000 -0.000000
vn -0.000000 1.000000 -0.000000
vn -0.000000 1.000000 -0.000000
vn -0.000000 1.000000 -0.000000
vn -0.000000 1.000000 -0.000000
vn -0.000000 1.000000 -0.000000
vn -0.000000 1.000000 -0.000000
vn -0.000000 1.000000 -0.000000
vn -0.000000 1.000000 -0.000000
vn -0.000000 1.000000 -0.000000
vn -0.000000 1.000000 -0.000000
vn -0.000000 1.000000 -0.000000
vn -0.000000 1.000000 -0.000000
vn -0.000000 1.000000 -0.000000
vn -0.000000 1.000000 -0.000000
vn -0.000000 1.000000 -0.000000
vn -0.965926 0.000000 0.258819
vn -0.866025 0.000000 0.500000
vn -0.866025 0.000000 0.500000
vn -0.965926 0.000000 0.258819
vn -0.000000 1.000000 -0.000000
vn -0.000000 1.000000 -0.000000
vn -0.000000 1.000000 -0.000000
vn -0.000000 1.000000 -0.000000
vn -0.000000 1.000000 -0.000000
vn -0.000000 1.000000 -0.000000
vn -0.000000 1.000000 -0.000000
vn -0.000000 1.000000 -0.000000
vn -0.000000 1.000000 -0.000000
vn -0.000000 1.000000 -0.000000
vn -0.000000 1.000000 -0.000000
vn -0.000000 1.000000 -0.000000
vn 0.000000 0.000000 1.000000
vn 0.258819 0.000000 0.965926
vn 0.258819 0.000000 0.965926
vn 0.000000 0.000000 1.000000
vn 0.258819 0.000000 0.965926
vn 0.500000 0.000000 0.866025
vn 0.500000 0.000000 0.866025
vn 0.707107 0.000000 0.707107
vn 0.707107 0.000000 0.707107
vn 0.866025 0.000000 0.500000
vn 0.866025 0.000000 0.500000
vn 0.965926 0.000000 0.258819
vn 0.965926 0.000000 0.258819
vn -0.000000 1.000000 -0.000000
vn -0.000000 1.000000 -0.000000
vn -0.000000 1.000000 -0.000000
vn -0.000000 1.000000 -0.000000
vn -0.000000 1.000000 -0.000000
vn -0.000000 1.000000 -0.000000
vn -0.000000 1.000000 -0.000000
vn -0.000000 1.000000 -0.000000
vn -0.000000 1.000000 -0.000000
vn -0.000000 1.000000 -0.000000
vn -0.000000 1.000000 -0.000000
vn -0.000000 1.000000 -0.000000
vn -0.000000 1.000000 -0.000000
vn -0.000000 1.000000 -0.000000
vn -0.000000 1.000000 -0.000000
vn -0.000000 1.000000 -0.000000
vn -0.000000 1.000000 -0.000000
vn -0.000000 1.000000 -0.000000
vn -0.000000 1.000000 -0.000000
vn -0.000000 1.000000 -0.000000
vn -0.000000 1.000000 -0.000000
vn -0.000000 1.000000 -0.000000
vn -0.000000 1.000000 -0.000000
vn -0.000000 1.000000 -0.000000
vn -0.000000 1.000000 -0.000000
vn -0.000000 1.000000 -0.000000
vn -0.000000 1.000000 -0.000000
vn -0.000000 1.000000 -0.000000
vn -0.000000 1.000000 -0.000000
vn -0.000000 1.000000 -0.000000
vn -0.000000 1.000000 -0.000000
vn -0.000000 1.000000 -0.000000
vn -0.000000 1.000000 -0.000000
vn 1.000000 0.000000 0.000000
vn 0.965926 -0.000000 -0.258819
vn 1.000000 0.000000 0.000000
vn -0.258819 0.000000 -0.965926
vn -0.500000 0.000000 -0.866025
vn -0.500000 0.000000 -0.866025
vn -0.258819 0.000000 -0.965926
usemtl mat7
f 1/1/1 2/2/2 3/3/3 
f 1/1/1 3/3/3 4/4/4 
f 5/5/5 6/6/6 7/7/7 
f 5/5/5 7/7/7 8/8/8 
f 6/6/6 9/9/9 10/10/10 
f 6/6/6 10/10/10 11/11/11 
f 12/12/12 13/13/13 14/14/14 
f 12/12/12 14/14/14 10/10/10 
f 15/15/15 16/16/16 17/17/17 
f 15/15/15 17/17/17 18/18/18 
f 16/16/16 19/19/19 20/20/20 
f 16/16/16 20/20/20 21/21/21 
f 22/22/22 23/23/23 24/24/24 
f 22/22/22 24/24/24 25/25/25 
f 26/26/26 27/27/27 28/28/28 
f 26/26/26 28/28/28 29/29/29 
f 30/30/30 31/31/31 32/32/32 
f 30/30/30 32/32/32 28/28/28 
f 31/31/31 33/33/33 34/34/34 
f 31/31/31 34/34/34 32/32/32 
f 33/33/33 35/35/35 36/36/36 
f 33/33/33 36/36/36 34/34/34 
f 37/37/37 38/38/38 39/39/39 
f 37/37/37 39/39/39 40/40/40 
f 41/41/41 42/42/42 43/43/43 
f 41/41/41 43/43/43 44/44/44 
f 42/42/42 45/45/45 46/46/46 
f 42/42/42 46/46/46 47/47/47 
f 45/45/45 48/48/48 49/49/49 
f 45/45/45 49/49/49 50/50/50 
f 48/48/48 51/51/51 52/52/52 
f 48/48/48 52/52/52 53/53/53 
f 54/54/54 55/55/55 56/56/56 
f 57/57/57 58/58/58 55/55/55 
f 59/59/59 58/58/58 57/57/57 
f 59/59/59 60/60/60 61/61/61 
f 59/59/59 62/62/62 63/63/63 
f 64/64/64 65/65/65 66/66/66 
f 67/67/67 68/68/68 65/65/65 
f 69/69/69 68/68/68 67/67/67 
f 69/69/69 70/70/70 71/71/71 
f 69/69/69 72/72/72 73/73/73 
f 74/74/74 75/75/75 69/69/69 
f 74/74/74 76/76/76 75/75/75 
f 77/77/77 78/78/78 79/79/79 
f 77/77/77 80/80/80 81/81/81 
f 82/82/82 83/83/83 77/77/77 
f 82/82/82 84/84/84 83/83/83 
f 85/85/85 84/84/84 86/86/86 
f 87/87/87 85/85/85 88/88/88 
f 89/89/89 90/90/90 91/91/91 
f 89/89/89 91/91/91 92/92/92 
f 93/93/93 81/81/81 94/94/94 
f 81/81/81 93/93/93 95/95/95 
f 95/95/95 93/93/93 96/96/96 
f 96/96/96 93/93/93 97/97/97 
f 96/96/96 97/97/97 98/98/98 
f 98/98/98 97/97/97 99/99/99 
f 99/99/99 97/97/97 100/100/100 
f 99/99/99 100/100/100 101/101/101 
f 101/101/101 100/100/100 102/102/102 
f 101/101/101 102/102/102 103/103/103 
f 103/103/103 102/102/102 104/104/104 
f 105/105/105 106/106/106 107/107/107 
f 105/105/105 107/107/107 108/108/108 
f 109/109/109 110/110/110 111/111/111 
f 109/109/109 111/111/111 107/107/107 
f 110/110/110 112/112/112 113/113/113 
f 110/110/110 113/113/113 111/111/111 
f 112/112/112 114/114/114 115/115/115 
f 112/112/112 115/115/115 113/113/113 
f 114/114/114 116/116/116 117/117/117 
f 114/114/114 117/117/117 115/115/115 
f 118/118/118 119/119/119 120/120/120 
f 121/121/121 119/119/119 122/122/122 
f 123/123/123 119/119/119 121/121/121 
f 124/124/124 119/119/119 123/123/123 
f 124/124/124 125/125/125 126/126/126 
f 127/127/127 125/125/125 128/128/128 
f 129/129/129 125/125/125 127/127/127 
f 129/129/129 130/130/130 125/125/125 
f 131/131/131 130/130/130 129/129/129 
f 131/131/131 132/132/132 133/133/133 
f 134/134/134 135/135/135 131/131/131 
f 136/136/136 135/135/135 137/137/137 
f 138/138/138 139/139/139 140/140/140 
f 141/141/141 139/139/139 142/142/142 
f 141/141/141 143/143/143 139/139/139 
f 141/141/141 144/144/144 143/143/143 
f 145/145/145 144/144/144 141/141/141 
f 145/145/145 146/146/146 147/147/147 
f 148/148/148 149/149/149 150/150/150 
f 151/151/151 41/41/41 152/152/152 
f 151/151/151 152/152/152 153/153/153 
f 154/154/154 155/155/155 156/156/156 
f 154/154/154 156/156/156 157/157/157 

