g grp26
v 117.073997 83.838997 -48.853298
v 117.500000 80.603798 -48.853298
v 117.073997 77.368500 -48.853298
v 115.824997 74.353798 -48.853298
v 113.838997 71.764900 -48.853298
v 111.250000 69.778503 -48.853298
v 108.235001 68.529701 -48.853298
v 105.000000 68.103798 -48.853298
v 101.764999 68.529701 -48.853298
v 98.750000 69.778503 -48.853298
v 96.161201 71.764900 -48.853298
v 94.174698 74.353798 -48.853298
v 92.925903 77.368500 -48.853298
v 92.500000 80.603798 -48.853298
v 92.925903 83.838997 -48.853298
v 94.174698 86.853798 -48.853298
v 96.161201 89.442596 -48.853298
v 98.750000 91.429100 -48.853298
v 101.764999 92.677803 -48.853298
v 105.000000 93.103798 -48.853298
v 108.235001 92.677803 -48.853298
v 111.250000 91.429100 -48.853298
v 113.838997 89.442596 -48.853298
v 115.824997 86.853798 -48.853298
vt -4.609220 2.300750
vt -4.625980 2.173380
vt -4.609220 2.046010
vt -4.560050 1.927310
vt -4.481840 1.825390
vt -4.379920 1.747180
vt -4.261230 1.698020
vt -4.133860 1.681250
vt -4.006490 1.698020
vt -3.887800 1.747180
vt -3.785870 1.825390
vt -3.707660 1.927310
vt -3.658500 2.046010
vt -3.641730 2.173380
vt -3.658500 2.300750
vt -3.707660 2.419440
vt -3.785870 2.521360
vt -3.887800 2.599570
vt -4.006490 2.648730
vt -4.133860 2.665500
vt -4.261230 2.648730
vt -4.379920 2.599570
vt -4.481840 2.521360
vt -4.560050 2.419440
vn 0.000000 0.000000 -1.000000
vn 0.000000 0.000000 -1.000000
vn 0.000000 0.000000 -1.000000
vn 0.000000 0.000000 -1.000000
vn 0.000000 0.000000 -1.000000
vn 0.000000 0.000000 -1.000000
vn 0.000000 0.000000 -1.000000
vn 0.000000 0.000000 -1.000000
vn 0.000000 0.000000 -1.000000
vn 0.000000 0.000000 -1.000000
vn 0.000000 0.000000 -1.000000
vn 0.000000 0.000000 -1.000000
vn 0.000000 0.000000 -1.000000
vn 0.000000 0.000000 -1.000000
vn 0.000000 0.000000 -1.000000
vn 0.000000 0.000000 -1.000000
vn 0.000000 0.000000 -1.000000
vn 0.000000 0.000000 -1.000000
vn 0.000000 0.000000 -1.000000
vn 0.000000 0.000000 -1.000000
vn 0.000000 0.000000 -1.000000
vn 0.000000 0.000000 -1.000000
vn 0.000000 0.000000 -1.000000
vn 0.000000 0.000000 -1.000000
usemtl mat5
f 1/1/1 2/2/2 3/3/3 
f 1/1/1 3/3/3 4/4/4 
f 1/1/1 4/4/4 5/5/5 
f 1/1/1 5/5/5 6/6/6 
f 1/1/1 6/6/6 7/7/7 
f 1/1/1 7/7/7 8/8/8 
f 1/1/1 8/8/8 9/9/9 
f 1/1/1 9/9/9 10/10/10 
f 1/1/1 10/10/10 11/11/11 
f 1/1/1 11/11/11 12/12/12 
f 1/1/1 12/12/12 13/13/13 
f 1/1/1 13/13/13 14/14/14 
f 1/1/1 14/14/14 15/15/15 
f 1/1/1 15/15/15 16/16/16 
f 1/1/1 16/16/16 17/17/17 
f 1/1/1 17/17/17 18/18/18 
f 1/1/1 18/18/18 19/19/19 
f 1/1/1 19/19/19 20/20/20 
f 1/1/1 20/20/20 21/21/21 
f 1/1/1 21/21/21 22/22/22 
f 1/1/1 22/22/22 23/23/23 
f 1/1/1 23/23/23 24/24/24 

