g grp3
v 205.000000 57.905399 -20.231701
v 205.000000 107.992996 -48.853298
v 205.000000 108.986000 -47.116798
v 205.000000 58.897701 -18.495199
v 205.000000 107.992996 -48.853298
v 50.000000 107.992996 -48.853298
v 50.000000 108.986000 -47.116798
v 205.000000 108.986000 -47.116798
v 50.000000 107.992996 -48.853298
v 50.000000 57.905399 -20.231701
v 50.000000 58.897701 -18.495199
v 50.000000 108.986000 -47.116798
v 50.000000 57.905399 -20.231701
v 205.000000 57.905399 -20.231701
v 205.000000 58.897701 -18.495199
v 50.000000 58.897701 -18.495199
vt 0.796522 1.279740
vt 1.923360 3.251700
vt 1.854990 3.290770
vt 0.728157 1.318810
vt -8.070870 -0.560507
vt -1.968500 -0.560507
vt -1.968500 -0.481767
vt -8.070870 -0.481767
vt -1.923360 3.251700
vt -0.796522 1.279740
vt -0.728157 1.318810
vt -1.854990 3.290770
vt 1.968500 -0.560507
vt 8.070870 -0.560507
vt 8.070870 -0.481767
vt 1.968500 -0.481767
vn 1.000000 0.000000 0.000000
vn 1.000000 0.000000 0.000000
vn 1.000000 0.000000 0.000000
vn 1.000000 0.000000 0.000000
vn 0.000000 0.868243 -0.496139
vn 0.000000 0.868243 -0.496139
vn 0.000000 0.868243 -0.496139
vn 0.000000 0.868243 -0.496139
vn -1.000000 -0.000000 -0.000000
vn -1.000000 -0.000000 -0.000000
vn -1.000000 -0.000000 -0.000000
vn -1.000000 -0.000000 -0.000000
vn 0.000000 -0.868243 0.496139
vn 0.000000 -0.868243 0.496139
vn 0.000000 -0.868243 0.496139
vn 0.000000 -0.868243 0.496139
usemtl mat2
f 1/1/1 2/2/2 3/3/3 
f 1/1/1 3/3/3 4/4/4 
f 5/5/5 6/6/6 7/7/7 
f 5/5/5 7/7/7 8/8/8 
f 9/9/9 10/10/10 11/11/11 
f 9/9/9 11/11/11 12/12/12 
f 13/13/13 14/14/14 15/15/15 
f 13/13/13 15/15/15 16/16/16 

