g grp11
v 0.486823 1.125300 -0.128496
v 0.501757 1.125300 -0.128496
v 0.501757 1.079270 -0.118231
v 0.501757 1.063640 -0.114745
v 0.501757 0.851599 -0.067459
v 0.501757 0.837367 -0.064285
v 0.501757 0.794082 -0.054632
v 0.486823 0.794082 -0.054632
v 0.501757 1.063640 -0.114745
v 0.599219 1.063640 -0.114745
v 0.611566 1.063640 -0.114745
v 0.699155 1.063640 -0.114745
v 0.716047 1.063640 -0.114745
v 0.797991 1.063640 -0.114745
v 0.808667 1.063640 -0.114745
v 0.901287 1.063640 -0.114745
v 0.901287 1.079270 -0.118231
v 0.501757 1.079270 -0.118231
v 0.599219 0.851599 -0.067459
v 0.611566 0.851599 -0.067459
v 0.611566 1.063640 -0.114745
v 0.599219 1.063640 -0.114745
v 0.501757 0.851599 -0.067459
v 0.599219 0.851599 -0.067459
v 0.611566 0.851599 -0.067459
v 0.699155 0.851599 -0.067459
v 0.716047 0.851599 -0.067459
v 0.797991 0.851599 -0.067459
v 0.808667 0.851599 -0.067459
v 0.901287 0.851599 -0.067459
v 0.901287 0.837367 -0.064285
v 0.501757 0.837367 -0.064285
v 0.901287 0.851599 -0.037459
v 0.901287 0.851599 -0.067459
v 0.808667 0.851599 -0.067459
v 0.797991 0.851599 -0.067459
v 0.716047 0.851599 -0.067459
v 0.699155 0.851599 -0.067459
v 0.611566 0.851599 -0.067459
v 0.599219 0.851599 -0.067459
v 0.501757 0.851599 -0.067459
v 0.501757 0.851599 -0.037459
v 0.808667 1.063640 -0.114745
v 0.797991 1.063640 -0.114745
v 0.797991 0.851599 -0.067459
v 0.808667 0.851599 -0.067459
v 0.699155 0.851599 -0.067459
v 0.716047 0.851599 -0.067459
v 0.716047 1.063640 -0.114745
v 0.699155 1.063640 -0.114745
v 0.914433 1.125300 -0.128496
v 0.901287 1.125300 -0.128496
v 0.901287 1.079270 -0.118231
v 0.901287 0.851599 -0.067459
v 0.901287 0.837367 -0.064285
v 0.901287 0.794082 -0.054632
v 0.914433 0.794082 -0.054632
vt -1.701170 2.179860
vt -1.750160 2.179860
vt -1.750160 2.034230
vt -1.750160 1.984780
vt -1.750160 1.313960
vt -1.750160 1.268940
vt -1.750160 1.131990
vt -1.701170 1.131990
vt 1.750160 1.984780
vt 2.069920 1.984780
vt 2.110430 1.984780
vt 2.397800 1.984780
vt 2.453210 1.984780
vt 2.722060 1.984780
vt 2.757090 1.984780
vt 3.060960 1.984780
vt 3.060960 2.034230
vt 1.750160 2.034230
vt 2.069920 1.313960
vt 2.110430 1.313960
vt 2.110430 1.984780
vt 2.069920 1.984780
vt -1.750160 1.313960
vt -2.069920 1.313960
vt -2.110430 1.313960
vt -2.397800 1.313960
vt -2.453210 1.313960
vt -2.722060 1.313960
vt -2.757090 1.313960
vt -3.060960 1.313960
vt -3.060960 1.268940
vt -1.750160 1.268940
vt 3.060960 -2.253160
vt 3.060960 -2.160530
vt 2.757090 -2.160530
vt 2.722060 -2.160530
vt 2.453210 -2.160530
vt 2.397800 -2.160530
vt 2.110430 -2.160530
vt 2.069920 -2.160530
vt 1.750160 -2.160530
vt 1.750160 -2.253160
vt 2.757090 1.984780
vt 2.722060 1.984780
vt 2.722060 1.313960
vt 2.757090 1.313960
vt 2.397800 1.313960
vt 2.453210 1.313960
vt 2.453210 1.984780
vt 2.397800 1.984780
vt 3.104090 2.179860
vt 3.060960 2.179860
vt 3.060960 2.034230
vt 3.060960 1.313960
vt 3.060960 1.268940
vt 3.060960 1.131990
vt 3.104090 1.131990
vn 0.000000 -0.217662 -0.976024
vn 0.000000 -0.217662 -0.976024
vn 0.000000 -0.217662 -0.976024
vn 0.000000 -0.217662 -0.976024
vn 0.000000 -0.217662 -0.976024
vn 0.000000 -0.217662 -0.976024
vn 0.000000 -0.217662 -0.976024
vn 0.000000 -0.217662 -0.976024
vn -0.000000 0.217662 0.976024
vn -0.000000 0.217662 0.976024
vn -0.000000 0.217662 0.976024
vn -0.000000 0.217662 0.976024
vn -0.000000 0.217662 0.976024
vn -0.000000 0.217662 0.976024
vn -0.000000 0.217662 0.976024
vn -0.000000 0.217662 0.976024
vn -0.000000 0.217662 0.976024
vn -0.000000 0.217662 0.976024
vn -0.000000 0.217662 0.976024
vn -0.000000 0.217662 0.976024
vn -0.000000 0.217662 0.976024
vn -0.000000 0.217662 0.976024
vn 0.000000 -0.217662 -0.976024
vn 0.000000 -0.217662 -0.976024
vn 0.000000 -0.217662 -0.976024
vn 0.000000 -0.217662 -0.976024
vn 0.000000 -0.217662 -0.976024
vn 0.000000 -0.217662 -0.976024
vn 0.000000 -0.217662 -0.976024
vn 0.000000 -0.217662 -0.976024
vn 0.000000 -0.217662 -0.976024
vn 0.000000 -0.217662 -0.976024
vn -0.000000 1.000000 -0.000000
vn -0.000000 1.000000 -0.000000
vn -0.000000 1.000000 -0.000000
vn -0.000000 1.000000 -0.000000
vn -0.000000 1.000000 -0.000000
vn -0.000000 1.000000 -0.000000
vn -0.000000 1.000000 -0.000000
vn -0.000000 1.000000 -0.000000
vn -0.000000 1.000000 -0.000000
vn -0.000000 1.000000 -0.000000
vn -0.000000 0.217662 0.976024
vn -0.000000 0.217662 0.976024
vn -0.000000 0.217662 0.976024
vn -0.000000 0.217662 0.976024
vn -0.000000 0.217662 0.976024
vn -0.000000 0.217662 0.976024
vn -0.000000 0.217662 0.976024
vn -0.000000 0.217662 0.976024
vn 0.000000 0.217662 0.976024
vn 0.000000 0.217662 0.976024
vn 0.000000 0.217662 0.976024
vn 0.000000 0.217662 0.976024
vn 0.000000 0.217662 0.976024
vn 0.000000 0.217662 0.976024
vn 0.000000 0.217662 0.976024
usemtl mat0
f 1/1/1 2/2/2 3/3/3 
f 1/1/1 3/3/3 4/4/4 
f 1/1/1 4/4/4 5/5/5 
f 1/1/1 5/5/5 6/6/6 
f 1/1/1 6/6/6 7/7/7 
f 1/1/1 7/7/7 8/8/8 
f 9/9/9 10/10/10 11/11/11 
f 9/9/9 11/11/11 12/12/12 
f 9/9/9 12/12/12 13/13/13 
f 9/9/9 13/13/13 14/14/14 
f 9/9/9 14/14/14 15/15/15 
f 9/9/9 15/15/15 16/16/16 
f 9/9/9 16/16/16 17/17/17 
f 9/9/9 17/17/17 18/18/18 
f 19/19/19 20/20/20 21/21/21 
f 19/19/19 21/21/21 22/22/22 
f 23/23/23 24/24/24 25/25/25 
f 23/23/23 25/25/25 26/26/26 
f 23/23/23 26/26/26 27/27/27 
f 23/23/23 27/27/27 28/28/28 
f 23/23/23 28/28/28 29/29/29 
f 23/23/23 29/29/29 30/30/30 
f 23/23/23 30/30/30 31/31/31 
f 23/23/23 31/31/31 32/32/32 
f 33/33/33 34/34/34 35/35/35 
f 33/33/33 35/35/35 36/36/36 
f 33/33/33 36/36/36 37/37/37 
f 33/33/33 37/37/37 38/38/38 
f 33/33/33 38/38/38 39/39/39 
f 33/33/33 39/39/39 40/40/40 
f 33/33/33 40/40/40 41/41/41 
f 33/33/33 41/41/41 42/42/42 
f 43/43/43 44/44/44 45/45/45 
f 43/43/43 45/45/45 46/46/46 
f 47/47/47 48/48/48 49/49/49 
f 47/47/47 49/49/49 50/50/50 
f 51/51/51 52/52/52 53/53/53 
f 51/51/51 53/53/53 16/16/16 
f 51/51/51 16/16/16 54/54/54 
f 51/51/51 54/54/54 55/55/55 
f 51/51/51 55/55/55 56/56/56 
f 51/51/51 56/56/56 57/57/57 

