g grp1
v 1.378010 0.777259 -0.041990
v 1.378010 0.863701 -0.106948
v 0.031807 0.863701 -0.106948
v 0.031807 0.777259 -0.041990
v 1.378010 0.924327 -0.096325
v 1.378010 0.928405 -0.092026
v 0.031807 0.928405 -0.092026
v 0.031807 0.924327 -0.096325
v 1.378010 0.863701 -0.106948
v 1.378010 0.869250 -0.109027
v 0.031807 0.869250 -0.109027
v 0.031807 0.863701 -0.106948
v 1.378010 0.874988 -0.110504
v 0.031807 0.874988 -0.110504
v 1.378010 0.880850 -0.111364
v 0.031807 0.880850 -0.111364
v 1.378010 0.886770 -0.111597
v 0.031807 0.886770 -0.111597
v 1.378010 0.892682 -0.111200
v 0.031807 0.892682 -0.111200
v 1.378010 0.898518 -0.110177
v 0.031807 0.898518 -0.110177
v 1.378010 0.904213 -0.108540
v 0.031807 0.904213 -0.108540
v 1.378010 0.909701 -0.106309
v 0.031807 0.909701 -0.106309
v 1.378010 0.914922 -0.103506
v 0.031807 0.914922 -0.103506
v 1.378010 0.919816 -0.100166
v 0.031807 0.919816 -0.100166
v 1.378010 0.924327 -0.096325
v 0.031807 0.924327 -0.096325
vt -4.416670 -0.450980
vt -4.416670 -0.784865
vt -0.000000 -0.784865
vt 0.000000 -0.450980
vt 0.019448 3.156860
vt -0.000000 3.156860
vt 0.000000 -1.000000
vt 0.019448 -1.000000
vt 0.233380 3.156860
vt 0.213932 3.156860
vt 0.213932 -1.000000
vt 0.233380 -1.000000
vt 0.194483 3.156860
vt 0.194483 -1.000000
vt 0.175035 3.156860
vt 0.175035 -1.000000
vt 0.155587 3.156860
vt 0.155587 -1.000000
vt 0.136138 3.156860
vt 0.136138 -1.000000
vt 0.116690 3.156860
vt 0.116690 -1.000000
vt 0.097242 3.156860
vt 0.097242 -1.000000
vt 0.077793 3.156860
vt 0.077793 -1.000000
vt 0.058345 3.156860
vt 0.058345 -1.000000
vt 0.038897 3.156860
vt 0.038897 -1.000000
vt 0.019448 3.156860
vt 0.019448 -1.000000
vn 0.000000 0.600748 0.799439
vn 0.000000 0.600748 0.799439
vn 0.000000 0.600748 0.799439
vn 0.000000 0.600748 0.799439
vn -0.000000 -0.687867 0.725836
vn -0.000000 -0.725482 0.688241
vn -0.000000 -0.725482 0.688241
vn -0.000000 -0.687867 0.725836
vn 0.000000 0.350783 0.936457
vn 0.000000 0.300502 0.953781
vn 0.000000 0.300502 0.953781
vn 0.000000 0.350783 0.936457
vn 0.000000 0.197535 0.980296
vn 0.000000 0.197535 0.980296
vn -0.000000 0.092334 0.995728
vn -0.000000 0.092334 0.995728
vn -0.000000 -0.013910 0.999903
vn -0.000000 -0.013910 0.999903
vn -0.000000 -0.119997 0.992774
vn -0.000000 -0.119997 0.992774
vn -0.000000 -0.224728 0.974422
vn -0.000000 -0.224728 0.974422
vn -0.000000 -0.326918 0.945053
vn -0.000000 -0.326918 0.945053
vn -0.000000 -0.425412 0.905000
vn -0.000000 -0.425412 0.905000
vn -0.000000 -0.519097 0.854716
vn -0.000000 -0.519097 0.854716
vn -0.000000 -0.606913 0.794768
vn -0.000000 -0.606913 0.794768
vn -0.000000 -0.687867 0.725836
vn -0.000000 -0.687867 0.725836
usemtl mat0
f 1/1/1 2/2/2 3/3/3 
f 1/1/1 3/3/3 4/4/4 
f 5/5/5 6/6/6 7/7/7 
f 5/5/5 7/7/7 8/8/8 
f 9/9/9 10/10/10 11/11/11 
f 9/9/9 11/11/11 12/12/12 
f 10/10/10 13/13/13 14/14/14 
f 10/10/10 14/14/14 11/11/11 
f 13/13/13 15/15/15 16/16/16 
f 13/13/13 16/16/16 14/14/14 
f 15/15/15 17/17/17 18/18/18 
f 15/15/15 18/18/18 16/16/16 
f 17/17/17 19/19/19 20/20/20 
f 17/17/17 20/20/20 18/18/18 
f 19/19/19 21/21/21 22/22/22 
f 19/19/19 22/22/22 20/20/20 
f 21/21/21 23/23/23 24/24/24 
f 21/21/21 24/24/24 22/22/22 
f 23/23/23 25/25/25 26/26/26 
f 23/23/23 26/26/26 24/24/24 
f 25/25/25 27/27/27 28/28/28 
f 25/25/25 28/28/28 26/26/26 
f 27/27/27 29/29/29 30/30/30 
f 27/27/27 30/30/30 28/28/28 
f 29/29/29 31/31/31 32/32/32 
f 29/29/29 32/32/32 30/30/30 

