g grp4
v 0.105083 0.685800 0.066017
v 1.304750 0.685800 0.066017
v 1.304750 0.717550 0.066017
v 0.105083 0.717550 0.066017
v 1.304750 0.717550 0.066017
v 1.304750 0.717550 -0.062296
v 0.104964 0.717550 -0.062296
v 0.105083 0.717550 0.066017
vt 1.000000 1.000000
vt 8.425240 1.000000
vt 8.425240 1.246130
vt 1.000000 1.246130
vt 7.419200 -3.000000
vt 7.419200 -2.006100
vt -0.000736 -2.006090
vt 0.000000 -3.000000
vn 0.000000 0.000000 1.000000
vn 0.000000 0.000000 1.000000
vn 0.000000 0.000000 1.000000
vn 0.000000 0.000000 1.000000
vn 0.000000 1.000000 -0.000000
vn 0.000000 1.000000 -0.000000
vn 0.000000 1.000000 -0.000000
vn 0.000000 1.000000 -0.000000
usemtl mat3
f 1/1/1 2/2/2 3/3/3 
f 1/1/1 3/3/3 4/4/4 
f 5/5/5 6/6/6 7/7/7 
f 5/5/5 7/7/7 8/8/8 

