g grp9
v 0.031807 0.717550 -0.062296
v 0.105083 0.717550 -0.062296
v 0.105083 0.692150 -0.062296
v 0.704907 0.692150 -0.062296
v 0.704907 0.762000 -0.062296
v 0.031807 0.762000 -0.062296
v 0.031807 0.717550 0.066017
v 0.105083 0.717550 0.066017
v 0.105083 0.717550 -0.062296
v 0.031807 0.717550 -0.062296
v 0.105083 0.685800 0.066017
v 0.105083 0.692150 0.066017
v 0.105083 0.717550 0.066017
v 0.031807 0.717550 0.066017
v 0.031807 0.685800 0.066017
v 0.031807 0.597364 0.098132
v 0.031807 0.609600 0.115504
v -0.006293 0.609600 0.115504
v -0.006293 0.597364 0.098132
v 0.185701 0.522988 -0.141196
v 0.704849 0.522988 -0.141196
v 0.704849 0.533839 -0.141196
v 0.174849 0.533839 -0.141196
v 0.174849 0.183839 -0.141196
v 0.704849 0.183839 -0.141196
v 0.704849 0.194691 -0.141196
v 0.185701 0.194691 -0.141196
v 0.031807 0.566518 0.072960
v 0.031807 0.572890 0.079347
v -0.006293 0.572890 0.079347
v -0.006293 0.566518 0.072960
v 0.031807 0.572890 0.079347
v 0.031807 0.589982 0.091872
v -0.006293 0.589982 0.091872
v -0.006293 0.572890 0.079347
v 0.031807 0.589982 0.091872
v 0.031807 0.597364 0.098132
v -0.006293 0.597364 0.098132
v -0.006293 0.589982 0.091872
v 0.031807 0.562770 0.057553
v 0.031807 0.566518 0.072960
v -0.006293 0.566518 0.072960
v -0.006293 0.562770 0.057553
v 0.031807 0.561810 0.029505
v 0.031807 0.562770 0.057553
v -0.006293 0.562770 0.057553
v -0.006293 0.561810 0.029505
v 0.031807 0.564331 -0.025686
v 0.031807 0.561810 0.029505
v -0.006293 0.561810 0.029505
v -0.006293 0.564331 -0.025686
v 0.031807 0.563059 -0.074017
v 0.031807 0.564331 -0.025686
v -0.006293 0.564331 -0.025686
v -0.006293 0.563059 -0.074017
v 0.031807 0.539279 -0.090202
v 0.031807 0.563059 -0.074017
v -0.006293 0.563059 -0.074017
v -0.006293 0.539279 -0.090202
v 0.031807 0.510200 -0.096722
v 0.031807 0.539279 -0.090202
v -0.006293 0.539279 -0.090202
v -0.006293 0.510200 -0.096722
v 0.031807 0.461905 -0.100377
v 0.031807 0.510200 -0.096722
v -0.006293 0.510200 -0.096722
v -0.006293 0.461905 -0.100377
v 0.031807 0.367715 -0.098025
v 0.031807 0.461905 -0.100377
v -0.006293 0.461905 -0.100377
v -0.006293 0.367715 -0.098025
v 0.031807 0.360557 -0.091715
v 0.031807 0.367715 -0.098025
v -0.006293 0.367715 -0.098025
v -0.006293 0.360557 -0.091715
v 0.031807 0.357047 -0.080635
v 0.031807 0.360557 -0.091715
v -0.006293 0.360557 -0.091715
v -0.006293 0.357047 -0.080635
v 0.031807 0.354828 -0.059981
v 0.031807 0.357047 -0.080635
v -0.006293 0.357047 -0.080635
v -0.006293 0.354828 -0.059981
v 0.031807 0.345290 -0.060926
v 0.031807 0.354828 -0.059981
v -0.006293 0.354828 -0.059981
v -0.006293 0.345290 -0.060926
v 0.031807 0.340406 -0.070474
v 0.031807 0.345290 -0.060926
v -0.006293 0.345290 -0.060926
v -0.006293 0.340406 -0.070474
v 0.031807 0.336438 -0.099706
v 0.031807 0.340406 -0.070474
v -0.006293 0.340406 -0.070474
v -0.006293 0.336438 -0.099706
v 0.031807 0.332703 -0.108254
v 0.031807 0.336438 -0.099706
v -0.006293 0.336438 -0.099706
v -0.006293 0.332703 -0.108254
v 0.031807 0.323012 -0.109258
v 0.031807 0.332703 -0.108254
v -0.006293 0.332703 -0.108254
v -0.006293 0.323012 -0.109258
v 0.031807 0.297536 -0.109882
v 0.031807 0.323012 -0.109258
v -0.006293 0.323012 -0.109258
v -0.006293 0.297536 -0.109882
v 0.031807 0.246336 -0.109893
v 0.031807 0.297536 -0.109882
v -0.006293 0.297536 -0.109882
v -0.006293 0.246336 -0.109893
v 0.031807 0.196006 -0.109934
v 0.031807 0.246336 -0.109893
v -0.006293 0.246336 -0.109893
v -0.006293 0.196006 -0.109934
v 0.031807 0.175063 -0.109432
v 0.031807 0.196006 -0.109934
v -0.006293 0.196006 -0.109934
v -0.006293 0.175063 -0.109432
v 0.031807 0.146948 -0.103746
v 0.031807 0.175063 -0.109432
v -0.006293 0.175063 -0.109432
v -0.006293 0.146948 -0.103746
v 0.031807 0.119385 -0.053546
v 0.031807 0.146948 -0.103746
v -0.006293 0.146948 -0.103746
v -0.006293 0.119385 -0.053546
v 0.031807 0.100748 -0.039613
v 0.031807 0.119385 -0.053546
v -0.006293 0.119385 -0.053546
v -0.006293 0.100748 -0.039613
v 0.031807 0.076200 -0.031670
v 0.031807 0.100748 -0.039613
v -0.006293 0.100748 -0.039613
v -0.006293 0.076200 -0.031670
v 0.196745 0.871621 -0.141196
v 0.596745 0.871621 -0.141196
v 0.173451 0.874688 -0.141196
v 0.596745 1.051620 -0.141196
v 0.587124 0.881242 -0.141196
v 0.596745 0.871621 -0.141196
v 0.587124 1.042000 -0.141196
v 0.596745 1.051620 -0.141196
v 0.173451 1.048550 -0.141196
v 0.197375 1.042000 -0.141196
v 0.596745 1.051620 -0.141196
v 0.196745 1.051620 -0.141196
v 0.109811 0.938327 -0.141196
v 0.118802 0.916621 -0.141196
v 0.127206 0.921473 -0.141196
v 0.139967 0.904843 -0.141196
v 0.118802 0.916621 -0.141196
v 0.133105 0.897981 -0.141196
v 0.139967 0.904843 -0.141196
v 0.151745 0.883679 -0.141196
v 0.175962 0.884061 -0.141196
v 0.197375 0.881242 -0.141196
v 0.173451 0.874688 -0.141196
v 0.151745 0.883679 -0.141196
v 0.197375 0.881242 -0.141196
v 0.587124 0.881242 -0.141196
v 0.596745 0.871621 -0.141196
v 0.197375 1.042000 -0.141196
v 0.151745 1.039560 -0.141196
v 0.175962 1.039180 -0.141196
v 0.197375 1.042000 -0.141196
v 0.133105 1.025260 -0.141196
v 0.156597 1.031160 -0.141196
v 0.139967 1.018400 -0.141196
v 0.133105 1.025260 -0.141196
v 0.118802 1.006620 -0.141196
v 0.139967 1.018400 -0.141196
v 0.109811 0.984915 -0.141196
v 0.127206 1.001770 -0.141196
v 0.119185 0.982403 -0.141196
v 0.109811 0.984915 -0.141196
v 0.116449 0.961621 -0.141196
v 0.106745 0.961621 -0.141196
v 0.109811 0.938327 -0.141196
v 0.119185 0.940839 -0.141196
v 0.127206 0.921473 -0.141196
v 0.139967 0.904843 -0.141196
v 0.133105 0.897981 -0.141196
v 0.156597 0.892083 -0.141196
v 0.175962 0.884061 -0.141196
v 0.116449 0.961621 -0.141196
v 0.106745 0.961621 -0.141196
v 0.139967 1.018400 -0.141196
v 0.118802 1.006620 -0.141196
v 0.127206 1.001770 -0.141196
v 0.175962 1.039180 -0.141196
v 0.151745 1.039560 -0.141196
vt 2.208330 1.215690
vt 1.967920 1.215690
vt 1.967920 1.137250
vt 0.000000 1.137250
vt 0.000000 1.352940
vt 2.208330 1.352940
vt 2.208330 -0.847192
vt 1.967920 -0.847192
vt 1.967920 -0.450980
vt 2.208330 -0.450980
vt 1.967920 1.117650
vt 1.967920 1.137250
vt 1.967920 1.215690
vt 2.208330 1.215690
vt 2.208330 1.117650
vt 2.208330 0.018340
vt 2.208330 0.083950
vt 2.333330 0.083950
vt 2.333330 0.018340
vt 1.703430 0.614910
vt 0.000188 0.614910
vt 0.000188 0.648420
vt 1.739030 0.648420
vt 1.739030 -0.432332
vt 0.000188 -0.432332
vt 0.000188 -0.398824
vt 1.703430 -0.398824
vt 2.208330 0.142490
vt 2.208330 0.170340
vt 2.333330 0.170340
vt 2.333330 0.142490
vt 2.208330 0.360910
vt 2.208330 0.426340
vt 2.333330 0.426340
vt 2.333330 0.360910
vt 2.208330 0.342200
vt 2.208330 0.372090
vt 2.333330 0.372090
vt 2.333330 0.342200
vt 2.208330 -0.763086
vt 2.208330 -0.714124
vt 2.333330 -0.714124
vt 2.333330 -0.763086
vt 2.208330 -1.206072
vt 2.208330 -1.119415
vt 2.333330 -1.119415
vt 2.333330 -1.206072
vt -2.208330 -0.484970
vt -2.208330 -0.655570
vt -2.333330 -0.655570
vt -2.333330 -0.484970
vt 2.208330 -1.539268
vt 2.208330 -1.389980
vt 2.333330 -1.389980
vt 2.333330 -1.539268
vt 2.208330 0.019180
vt 2.208330 0.108010
vt 2.333330 0.108010
vt 2.333330 0.019180
vt 2.208330 0.393890
vt 2.208330 0.485910
vt 2.333330 0.485910
vt 2.333330 0.393890
vt 2.208330 0.371930
vt 2.208330 0.521480
vt 2.333330 0.521480
vt 2.333330 0.371930
vt 2.208330 0.151550
vt 2.208330 0.442490
vt 2.333330 0.442490
vt 2.333330 0.151550
vt 2.208330 0.258280
vt 2.208330 0.287750
vt 2.333330 0.287750
vt 2.333330 0.258280
vt 2.208330 -0.089605
vt 2.208330 -0.053716
vt 2.333330 -0.053716
vt 2.333330 -0.089605
vt 2.208330 -0.344200
vt 2.208330 -0.280055
vt 2.333330 -0.280055
vt 2.333330 -0.344200
vt 2.208330 0.007250
vt 2.208330 0.036840
vt 2.333330 0.036840
vt 2.333330 0.007250
vt 2.208330 -1.032477
vt 2.208330 -0.999362
vt 2.333330 -0.999362
vt 2.333330 -1.032477
vt 2.208330 -1.518779
vt 2.208330 -1.427688
vt 2.333330 -1.427688
vt 2.333330 -1.518779
vt 2.208330 -1.221796
vt 2.208330 -1.192989
vt 2.333330 -1.192989
vt 2.333330 -1.221796
vt 2.208330 -0.079352
vt 2.208330 -0.049270
vt 2.333330 -0.049270
vt 2.333330 -0.079352
vt 2.208330 -0.098589
vt 2.208330 -0.019900
vt 2.333330 -0.019900
vt 2.333330 -0.098589
vt 2.208330 -0.239500
vt 2.208330 -0.081402
vt 2.333330 -0.081402
vt 2.333330 -0.239500
vt 2.208330 -0.395324
vt 2.208330 -0.239912
vt 2.333330 -0.239912
vt 2.333330 -0.395324
vt 2.208330 -0.442947
vt 2.208330 -0.378261
vt 2.333330 -0.378261
vt 2.333330 -0.442947
vt 2.208330 -0.421047
vt 2.208330 -0.332472
vt 2.333330 -0.332472
vt 2.333330 -0.421047
vt 2.208330 -0.365012
vt 2.208330 -0.188174
vt 2.333330 -0.188174
vt 2.333330 -0.365012
vt 2.208330 -0.464047
vt 2.208330 -0.392194
vt 2.333330 -0.392194
vt 2.333330 -0.464047
vt 2.208330 -0.636228
vt 2.208330 -0.556559
vt 2.333330 -0.556559
vt 2.333330 -0.636228
vt 1.667200 1.691430
vt 0.354863 1.691430
vt 1.743620 1.700900
vt 0.354863 2.247250
vt 0.386428 1.721140
vt 0.354863 1.691430
vt 0.386428 2.217540
vt 0.354863 2.247250
vt 1.743620 2.237780
vt 1.665130 2.217540
vt 0.354863 2.247250
vt 1.667200 2.247250
vt 1.952410 1.897410
vt 1.922920 1.830390
vt 1.895340 1.845370
vt 1.853480 1.794020
vt 1.922920 1.830390
vt 1.875990 1.772830
vt 1.853480 1.794020
vt 1.814840 1.728670
vt 1.735380 1.729850
vt 1.665130 1.721140
vt 1.743620 1.700900
vt 1.814840 1.728670
vt 1.665130 1.721140
vt 0.386428 1.721140
vt 0.354863 1.691430
vt 1.665130 2.217540
vt 1.814840 2.210010
vt 1.735380 2.208830
vt 1.665130 2.217540
vt 1.875990 2.165850
vt 1.798920 2.184060
vt 1.853480 2.144660
vt 1.875990 2.165850
vt 1.922920 2.108290
vt 1.853480 2.144660
vt 1.952410 2.041270
vt 1.895340 2.093310
vt 1.921660 2.033510
vt 1.952410 2.041270
vt 1.930640 1.969340
vt 1.962470 1.969340
vt 1.952410 1.897410
vt 1.921660 1.905170
vt 1.895340 1.845370
vt 1.853480 1.794020
vt 1.875990 1.772830
vt 1.798920 1.754620
vt 1.735380 1.729850
vt 1.930640 1.969340
vt 1.962470 1.969340
vt 1.853480 2.144660
vt 1.922920 2.108290
vt 1.895340 2.093310
vt 1.735380 2.208830
vt 1.814840 2.210010
vn 0.000000 0.000000 1.000000
vn 0.000000 0.000000 1.000000
vn 0.000000 0.000000 1.000000
vn 0.000000 0.000000 1.000000
vn 0.000000 0.000000 1.000000
vn 0.000000 0.000000 1.000000
vn 0.000000 1.000000 -0.000000
vn 0.000000 1.000000 -0.000000
vn 0.000000 1.000000 -0.000000
vn 0.000000 1.000000 -0.000000
vn 0.000000 0.000000 1.000000
vn 0.000000 0.000000 1.000000
vn 0.000000 0.000000 1.000000
vn 0.000000 0.000000 1.000000
vn 0.000000 0.000000 1.000000
vn -0.000000 -0.738110 0.674680
vn -0.000000 -0.817555 0.575851
vn -0.000000 -0.817555 0.575851
vn -0.000000 -0.738110 0.674680
vn 0.000000 0.000000 1.000000
vn 0.000000 0.000000 1.000000
vn 0.000000 0.000000 1.000000
vn 0.000000 0.000000 1.000000
vn 0.000000 0.000000 1.000000
vn 0.000000 0.000000 1.000000
vn 0.000000 0.000000 1.000000
vn 0.000000 0.000000 1.000000
vn -0.000000 -0.872045 0.489425
vn -0.000000 -0.651446 0.758695
vn -0.000000 -0.651446 0.758695
vn -0.000000 -0.872045 0.489425
vn -0.000000 -0.651446 0.758695
vn -0.000000 -0.619327 0.785133
vn -0.000000 -0.619327 0.785133
vn -0.000000 -0.651446 0.758695
vn -0.000000 -0.619327 0.785133
vn -0.000000 -0.738110 0.674680
vn -0.000000 -0.738110 0.674680
vn -0.000000 -0.619327 0.785133
vn -0.000000 -0.990708 0.136003
vn -0.000000 -0.872045 0.489425
vn -0.000000 -0.872045 0.489425
vn -0.000000 -0.990708 0.136003
vn 0.000000 -0.999984 -0.005721
vn -0.000000 -0.990708 0.136003
vn -0.000000 -0.990708 0.136003
vn 0.000000 -0.999984 -0.005721
vn 0.000000 -0.999953 -0.009667
vn 0.000000 -0.999984 -0.005721
vn 0.000000 -0.999984 -0.005721
vn 0.000000 -0.999953 -0.009667
vn -0.000000 -0.877706 0.479199
vn 0.000000 -0.999953 -0.009667
vn 0.000000 -0.999953 -0.009667
vn -0.000000 -0.877706 0.479199
vn -0.000000 -0.397774 0.917483
vn -0.000000 -0.877706 0.479199
vn -0.000000 -0.877706 0.479199
vn -0.000000 -0.397774 0.917483
vn -0.000000 -0.147503 0.989062
vn -0.000000 -0.397774 0.917483
vn -0.000000 -0.397774 0.917483
vn -0.000000 -0.147503 0.989062
vn -0.000000 -0.025281 0.999680
vn -0.000000 -0.147503 0.989062
vn -0.000000 -0.147503 0.989062
vn -0.000000 -0.025281 0.999680
vn 0.000000 0.365118 0.930961
vn -0.000000 -0.025281 0.999680
vn -0.000000 -0.025281 0.999680
vn 0.000000 0.365118 0.930961
vn 0.000000 0.837800 0.545977
vn 0.000000 0.365118 0.930961
vn 0.000000 0.365118 0.930961
vn 0.000000 0.837800 0.545977
vn 0.000000 0.978664 0.205469
vn 0.000000 0.837800 0.545977
vn 0.000000 0.837800 0.545977
vn 0.000000 0.978664 0.205469
vn 0.000000 0.630716 0.776014
vn 0.000000 0.978664 0.205469
vn 0.000000 0.978664 0.205469
vn 0.000000 0.630716 0.776014
vn -0.000000 -0.563285 0.826263
vn 0.000000 0.630716 0.776014
vn 0.000000 0.630716 0.776014
vn -0.000000 -0.563285 0.826263
vn -0.000000 -0.954175 0.299248
vn -0.000000 -0.563285 0.826263
vn -0.000000 -0.563285 0.826263
vn -0.000000 -0.954175 0.299248
vn -0.000000 -0.962853 0.270027
vn -0.000000 -0.954175 0.299248
vn -0.000000 -0.954175 0.299248
vn -0.000000 -0.962853 0.270027
vn -0.000000 -0.589955 0.807436
vn -0.000000 -0.962853 0.270027
vn -0.000000 -0.962853 0.270027
vn -0.000000 -0.589955 0.807436
vn -0.000000 -0.063791 0.997963
vn -0.000000 -0.589955 0.807436
vn -0.000000 -0.589955 0.807436
vn -0.000000 -0.063791 0.997963
vn -0.000000 -0.012366 0.999924
vn -0.000000 -0.063791 0.997963
vn -0.000000 -0.063791 0.997963
vn -0.000000 -0.012366 0.999924
vn -0.000000 -0.000511 1.000000
vn -0.000000 -0.012366 0.999924
vn -0.000000 -0.012366 0.999924
vn -0.000000 -0.000511 1.000000
vn 0.000000 0.011575 0.999933
vn -0.000000 -0.000511 1.000000
vn -0.000000 -0.000511 1.000000
vn 0.000000 0.011575 0.999933
vn 0.000000 0.111524 0.993762
vn 0.000000 0.011575 0.999933
vn 0.000000 0.011575 0.999933
vn 0.000000 0.111524 0.993762
vn 0.000000 0.592468 0.805594
vn 0.000000 0.111524 0.993762
vn 0.000000 0.111524 0.993762
vn 0.000000 0.592468 0.805594
vn 0.000000 0.754775 0.655984
vn 0.000000 0.592468 0.805594
vn 0.000000 0.592468 0.805594
vn 0.000000 0.754775 0.655984
vn 0.000000 0.459505 0.888175
vn 0.000000 0.754775 0.655984
vn 0.000000 0.754775 0.655984
vn 0.000000 0.459505 0.888175
vn 0.000000 0.307856 0.951433
vn 0.000000 0.459505 0.888175
vn 0.000000 0.459505 0.888175
vn 0.000000 0.307856 0.951433
vn 0.000000 0.000000 1.000000
vn 0.000000 0.000000 1.000000
vn 0.000000 0.000000 1.000000
vn 0.000000 0.000000 1.000000
vn 0.000000 0.000000 1.000000
vn 0.000000 0.000000 1.000000
vn 0.000000 0.000000 1.000000
vn 0.000000 0.000000 1.000000
vn 0.000000 0.000000 1.000000
vn 0.000000 0.000000 1.000000
vn 0.000000 0.000000 1.000000
vn 0.000000 0.000000 1.000000
vn 0.000000 0.000000 1.000000
vn 0.000000 0.000000 1.000000
vn 0.000000 0.000000 1.000000
vn 0.000000 0.000000 1.000000
vn 0.000000 0.000000 1.000000
vn 0.000000 0.000000 1.000000
vn 0.000000 0.000000 1.000000
vn 0.000000 0.000000 1.000000
vn 0.000000 0.000000 1.000000
vn 0.000000 0.000000 1.000000
vn 0.000000 0.000000 1.000000
vn 0.000000 0.000000 1.000000
vn 0.000000 0.000000 1.000000
vn 0.000000 0.000000 1.000000
vn 0.000000 0.000000 1.000000
vn 0.000000 0.000000 1.000000
vn 0.000000 0.000000 1.000000
vn 0.000000 0.000000 1.000000
vn 0.000000 0.000000 1.000000
vn 0.000000 0.000000 1.000000
vn 0.000000 0.000000 1.000000
vn 0.000000 0.000000 1.000000
vn 0.000000 0.000000 1.000000
vn 0.000000 0.000000 1.000000
vn 0.000000 0.000000 1.000000
vn 0.000000 0.000000 1.000000
vn 0.000000 0.000000 1.000000
vn 0.000000 0.000000 1.000000
vn 0.000000 0.000000 1.000000
vn 0.000000 0.000000 1.000000
vn 0.000000 0.000000 1.000000
vn 0.000000 0.000000 1.000000
vn 0.000000 0.000000 1.000000
vn 0.000000 0.000000 1.000000
vn 0.000000 0.000000 1.000000
vn 0.000000 0.000000 1.000000
vn 0.000000 0.000000 1.000000
vn 0.000000 0.000000 1.000000
vn 0.000000 0.000000 1.000000
vn 0.000000 0.000000 1.000000
vn 0.000000 0.000000 1.000000
vn 0.000000 0.000000 1.000000
vn 0.000000 0.000000 1.000000
vn 0.000000 0.000000 1.000000
vn 0.000000 0.000000 1.000000
usemtl mat0
f 1/1/1 2/2/2 3/3/3 
f 1/1/1 3/3/3 4/4/4 
f 1/1/1 4/4/4 5/5/5 
f 1/1/1 5/5/5 6/6/6 
f 7/7/7 8/8/8 9/9/9 
f 7/7/7 9/9/9 10/10/10 
f 11/11/11 12/12/12 13/13/13 
f 11/11/11 13/13/13 14/14/14 
f 11/11/11 14/14/14 15/15/15 
f 16/16/16 17/17/17 18/18/18 
f 16/16/16 18/18/18 19/19/19 
f 20/20/20 21/21/21 22/22/22 
f 20/20/20 22/22/22 23/23/23 
f 20/20/20 23/23/23 24/24/24 
f 20/20/20 24/24/24 25/25/25 
f 20/20/20 25/25/25 26/26/26 
f 20/20/20 26/26/26 27/27/27 
f 28/28/28 29/29/29 30/30/30 
f 28/28/28 30/30/30 31/31/31 
f 32/32/32 33/33/33 34/34/34 
f 32/32/32 34/34/34 35/35/35 
f 36/36/36 37/37/37 38/38/38 
f 36/36/36 38/38/38 39/39/39 
f 40/40/40 41/41/41 42/42/42 
f 40/40/40 42/42/42 43/43/43 
f 44/44/44 45/45/45 46/46/46 
f 44/44/44 46/46/46 47/47/47 
f 48/48/48 49/49/49 50/50/50 
f 48/48/48 50/50/50 51/51/51 
f 52/52/52 53/53/53 54/54/54 
f 52/52/52 54/54/54 55/55/55 
f 56/56/56 57/57/57 58/58/58 
f 56/56/56 58/58/58 59/59/59 
f 60/60/60 61/61/61 62/62/62 
f 60/60/60 62/62/62 63/63/63 
f 64/64/64 65/65/65 66/66/66 
f 64/64/64 66/66/66 67/67/67 
f 68/68/68 69/69/69 70/70/70 
f 68/68/68 70/70/70 71/71/71 
f 72/72/72 73/73/73 74/74/74 
f 72/72/72 74/74/74 75/75/75 
f 76/76/76 77/77/77 78/78/78 
f 76/76/76 78/78/78 79/79/79 
f 80/80/80 81/81/81 82/82/82 
f 80/80/80 82/82/82 83/83/83 
f 84/84/84 85/85/85 86/86/86 
f 84/84/84 86/86/86 87/87/87 
f 88/88/88 89/89/89 90/90/90 
f 88/88/88 90/90/90 91/91/91 
f 92/92/92 93/93/93 94/94/94 
f 92/92/92 94/94/94 95/95/95 
f 96/96/96 97/97/97 98/98/98 
f 96/96/96 98/98/98 99/99/99 
f 100/100/100 101/101/101 102/102/102 
f 100/100/100 102/102/102 103/103/103 
f 104/104/104 105/105/105 106/106/106 
f 104/104/104 106/106/106 107/107/107 
f 108/108/108 109/109/109 110/110/110 
f 108/108/108 110/110/110 111/111/111 
f 112/112/112 113/113/113 114/114/114 
f 112/112/112 114/114/114 115/115/115 
f 116/116/116 117/117/117 118/118/118 
f 116/116/116 118/118/118 119/119/119 
f 120/120/120 121/121/121 122/122/122 
f 120/120/120 122/122/122 123/123/123 
f 124/124/124 125/125/125 126/126/126 
f 124/124/124 126/126/126 127/127/127 
f 128/128/128 129/129/129 130/130/130 
f 128/128/128 130/130/130 131/131/131 
f 132/132/132 133/133/133 134/134/134 
f 132/132/132 134/134/134 135/135/135 
f 136/136/136 137/137/137 138/138/138 
f 139/139/139 140/140/140 141/141/141 
f 142/142/142 140/140/140 143/143/143 
f 142/142/142 144/144/144 145/145/145 
f 144/144/144 142/142/142 146/146/146 
f 147/147/147 144/144/144 146/146/146 
f 148/148/148 149/149/149 150/150/150 
f 150/150/150 149/149/149 151/151/151 
f 152/152/152 153/153/153 154/154/154 
f 153/153/153 155/155/155 156/156/156 
f 156/156/156 155/155/155 157/157/157 
f 158/158/158 157/157/157 159/159/159 
f 160/160/160 158/158/158 161/161/161 
f 161/161/161 158/158/158 162/162/162 
f 163/163/163 164/164/164 165/165/165 
f 144/144/144 164/164/164 166/166/166 
f 164/164/164 167/167/167 168/168/168 
f 168/168/168 167/167/167 169/169/169 
f 170/170/170 171/171/171 172/172/172 
f 171/171/171 173/173/173 174/174/174 
f 174/174/174 173/173/173 175/175/175 
f 175/175/175 176/176/176 177/177/177 
f 176/176/176 178/178/178 177/177/177 
f 178/178/178 179/179/179 180/180/180 
f 180/180/180 179/179/179 181/181/181 
f 182/182/182 183/183/183 184/184/184 
f 184/184/184 183/183/183 185/185/185 
f 186/186/186 187/187/187 180/180/180 
f 188/188/188 189/189/189 190/190/190 
f 191/191/191 192/192/192 168/168/168 

